<svg width="512" height="166" viewBox="0 0 512 166" fill="none" xmlns="http://www.w3.org/2000/svg">
<path d="M82.297 68.3454V153.702L144.553 120.497V39.567L82.297 68.3454ZM138.374 115.768L88.4762 142.37V73.9611L138.374 50.8989V115.768Z" fill="black"/>
<path d="M80.4121 12.9998L18.1368 37.2926L80.4898 66.1292L142.843 37.2926L80.4121 12.9998ZM36.4317 37.9533L80.438 20.7854L124.545 37.9533L80.4866 58.3274L36.4285 37.9533H36.4317Z" fill="black"/>
<path d="M17 39.567V120.497L79.2559 153.702V68.3454L17 39.567ZM73.0831 142.37L23.1922 115.765V50.8989L73.0831 73.9676V142.37Z" fill="black"/>
<path d="M166.685 105.999V55.1472H184.238C187.566 55.1472 190.412 55.4625 192.768 56.0931C195.124 56.7237 197.06 57.6259 198.575 58.7995C200.091 59.9732 201.194 61.392 201.895 63.0562C202.596 64.7203 202.946 66.5946 202.946 68.6792C202.946 69.8791 202.771 71.0177 202.42 72.1125C202.07 73.1986 201.527 74.2234 200.782 75.1693C200.047 76.1152 199.11 76.9823 197.971 77.753C196.832 78.5238 195.484 79.1807 193.907 79.7237C200.896 81.2915 204.391 85.0664 204.391 91.0485C204.391 93.2031 203.979 95.2001 203.156 97.0306C202.333 98.8612 201.142 100.438 199.565 101.76C197.997 103.083 196.062 104.125 193.758 104.87C191.463 105.623 188.836 105.999 185.884 105.999H166.685ZM176.153 77.1662H183.712C186.926 77.1662 189.361 76.5794 191.025 75.4057C192.69 74.2321 193.522 72.3665 193.522 69.8178C193.522 67.269 192.768 65.2809 191.271 64.1598C189.773 63.0387 187.426 62.4694 184.238 62.4694H176.145V77.1662H176.153ZM176.153 83.7089V98.6247H185.753C187.513 98.6247 188.985 98.4145 190.167 97.9941C191.349 97.5737 192.304 97.0131 193.014 96.3037C193.732 95.603 194.249 94.7797 194.564 93.8425C194.879 92.9053 195.037 91.9069 195.037 90.8559C195.037 89.8048 194.862 88.7625 194.511 87.8867C194.161 87.0108 193.609 86.2576 192.856 85.6357C192.103 85.0139 191.148 84.5409 189.974 84.2081C188.801 83.8753 187.382 83.7176 185.718 83.7176H176.153V83.7089Z" fill="black"/>
<path d="M212.02 105.999V69.914H217.117C218.011 69.914 218.632 70.0804 218.983 70.4045C219.333 70.7373 219.57 71.2979 219.683 72.0949L220.209 76.4566C221.496 74.232 223.012 72.4715 224.746 71.184C226.48 69.8965 228.425 69.2484 230.588 69.2484C232.366 69.2484 233.846 69.66 235.02 70.4833L233.89 76.9909C233.82 77.4113 233.671 77.7091 233.434 77.8843C233.198 78.0595 232.883 78.147 232.489 78.147C232.138 78.147 231.656 78.0682 231.043 77.9018C230.43 77.7354 229.624 77.6566 228.617 77.6566C226.813 77.6566 225.263 78.1558 223.975 79.1543C222.688 80.1528 221.593 81.6067 220.708 83.5336V106.008H212.02V105.999Z" fill="black"/>
<path d="M251.302 59.4037C251.302 60.157 251.153 60.8576 250.846 61.5145C250.54 62.1714 250.137 62.7494 249.629 63.2399C249.121 63.7304 248.534 64.1246 247.851 64.4224C247.168 64.7202 246.441 64.8603 245.67 64.8603C244.899 64.8603 244.208 64.7114 243.542 64.4224C242.876 64.1333 242.298 63.7392 241.799 63.2399C241.308 62.7494 240.914 62.1714 240.625 61.5145C240.336 60.8576 240.187 60.157 240.187 59.4037C240.187 58.6505 240.336 57.906 240.625 57.2228C240.914 56.5396 241.308 55.9528 241.799 55.4624C242.289 54.9719 242.867 54.5777 243.542 54.2887C244.208 53.9997 244.917 53.8508 245.67 53.8508C246.423 53.8508 247.168 53.9997 247.851 54.2887C248.534 54.5777 249.121 54.9719 249.629 55.4624C250.137 55.9528 250.54 56.5396 250.846 57.2228C251.153 57.906 251.302 58.633 251.302 59.4037ZM250.006 69.9227V106.008H241.317V69.9227H250.006Z" fill="black"/>
<path d="M285.171 77.5518C284.917 77.8846 284.663 78.1386 284.418 78.3225C284.173 78.5065 283.814 78.6028 283.35 78.6028C282.885 78.6028 282.474 78.4714 282.045 78.1999C281.624 77.9284 281.116 77.6219 280.529 77.289C279.943 76.9475 279.242 76.6409 278.436 76.3781C277.63 76.1066 276.623 75.9753 275.432 75.9753C273.908 75.9753 272.568 76.2555 271.42 76.7986C270.273 77.3503 269.318 78.1386 268.556 79.1721C267.794 80.2056 267.225 81.4494 266.848 82.9208C266.472 84.3835 266.288 86.0476 266.288 87.8957C266.288 89.7437 266.489 91.5304 266.901 93.0282C267.313 94.5259 267.899 95.7871 268.679 96.8119C269.45 97.8279 270.387 98.6074 271.49 99.1329C272.594 99.6584 273.838 99.9211 275.222 99.9211C276.605 99.9211 277.727 99.7548 278.576 99.4132C279.435 99.0716 280.153 98.695 280.74 98.2921C281.326 97.8804 281.834 97.5038 282.272 97.1622C282.701 96.8206 283.192 96.6542 283.735 96.6542C284.436 96.6542 284.97 96.9257 285.32 97.46L287.816 100.622C286.853 101.752 285.811 102.689 284.69 103.451C283.569 104.213 282.395 104.826 281.186 105.281C279.978 105.737 278.734 106.061 277.438 106.245C276.15 106.429 274.871 106.525 273.601 106.525C271.377 106.525 269.275 106.105 267.304 105.273C265.333 104.441 263.617 103.232 262.154 101.629C260.691 100.035 259.526 98.0819 258.668 95.7696C257.81 93.4573 257.38 90.8298 257.38 87.8781C257.38 85.233 257.766 82.7719 258.528 80.5122C259.29 78.2525 260.411 76.2905 261.882 74.6352C263.363 72.9798 265.184 71.6835 267.365 70.7464C269.546 69.8092 272.051 69.3362 274.889 69.3362C277.727 69.3362 279.951 69.7742 281.975 70.6413C283.998 71.5084 285.828 72.7521 287.44 74.3724L285.154 77.5342L285.171 77.5518Z" fill="black"/>
<path d="M302.163 53.7371V83.6651H303.783C304.37 83.6651 304.826 83.5863 305.158 83.4199C305.491 83.2534 305.842 82.9469 306.218 82.5089L315.187 71.4294C315.59 70.9564 316.01 70.5885 316.457 70.3258C316.904 70.063 317.491 69.9229 318.218 69.9229H326.17L314.95 83.3235C314.548 83.814 314.145 84.2694 313.716 84.6811C313.295 85.0927 312.84 85.4518 312.34 85.7496C312.831 86.1 313.269 86.5116 313.645 86.9846C314.022 87.4576 314.399 87.9568 314.767 88.4998L326.792 106.017H318.953C318.27 106.017 317.701 105.903 317.228 105.667C316.755 105.43 316.334 105.036 315.958 104.467L306.779 90.7858C306.428 90.2428 306.078 89.8925 305.719 89.726C305.369 89.5596 304.843 89.4808 304.134 89.4808H302.163V106.008H293.475V53.7458H302.163V53.7371Z" fill="black"/>
<path d="M357.628 91.1638C357.851 91.727 358.073 92.2981 358.279 92.8693C358.493 92.2743 358.715 91.7032 358.945 91.1638C359.175 90.6244 359.445 90.0771 359.738 89.5218L375.183 61.4575C375.46 60.9657 375.746 60.6722 376.039 60.5691C376.341 60.4659 376.761 60.4105 377.316 60.4105H381.869V106.053H376.452V72.515C376.452 72.0708 376.46 71.587 376.483 71.0793C376.507 70.5716 376.539 70.0481 376.579 69.5167L360.936 98.0569C360.405 99.0167 359.659 99.4927 358.707 99.4927H357.819C356.859 99.4927 356.121 99.0167 355.59 98.0569L339.598 69.4215C339.662 69.9768 339.709 70.5161 339.741 71.0476C339.773 71.5791 339.789 72.0708 339.789 72.515V106.053H334.371V60.4105H338.924C339.479 60.4105 339.9 60.4659 340.201 60.5691C340.503 60.6722 340.788 60.9736 341.058 61.4575L356.827 89.5536C357.121 90.0612 357.383 90.6006 357.605 91.1638H357.628Z" fill="black"/>
<path d="M416.232 91.1638C416.454 91.727 416.676 92.2981 416.882 92.8693C417.097 92.2743 417.319 91.7032 417.549 91.1638C417.779 90.6244 418.049 90.0771 418.342 89.5218L433.786 61.4575C434.064 60.9657 434.349 60.6722 434.643 60.5691C434.944 60.4659 435.365 60.4105 435.92 60.4105H440.473V106.053H435.055V72.515C435.055 72.0708 435.063 71.587 435.087 71.0793C435.111 70.5716 435.143 70.0481 435.182 69.5167L419.54 98.0569C419.008 99.0167 418.263 99.4927 417.311 99.4927H416.422C415.463 99.4927 414.725 99.0167 414.193 98.0569L398.202 69.4215C398.266 69.9768 398.313 70.5161 398.345 71.0476C398.377 71.5791 398.392 72.0708 398.392 72.515V106.053H392.975V60.4105H397.528C398.083 60.4105 398.503 60.4659 398.805 60.5691C399.106 60.6722 399.392 60.9736 399.662 61.4575L415.431 89.5536C415.724 90.0612 415.986 90.6006 416.208 91.1638H416.232Z" fill="black"/>
<path d="M494 83.2475C494 86.6663 493.461 89.8074 492.374 92.6631C491.287 95.5187 489.764 97.9777 487.789 100.04C485.814 102.102 483.442 103.697 480.674 104.831C477.905 105.965 474.836 106.537 471.488 106.537C468.141 106.537 465.079 105.965 462.319 104.831C459.558 103.697 457.194 102.094 455.219 100.04C453.244 97.9856 451.713 95.5187 450.634 92.6631C449.556 89.8074 449.008 86.6663 449.008 83.2475C449.008 79.8287 449.548 76.6954 450.634 73.8319C451.721 70.9683 453.244 68.5093 455.219 66.439C457.194 64.3687 459.558 62.7584 462.319 61.6162C465.079 60.466 468.133 59.8949 471.488 59.8949C474.844 59.8949 477.905 60.466 480.674 61.6162C483.442 62.7664 485.814 64.3687 487.789 66.439C489.764 68.5093 491.295 70.9683 492.374 73.8319C493.453 76.6954 494 79.8287 494 83.2475ZM487.662 83.2475C487.662 80.4474 487.281 77.9249 486.512 75.6959C485.75 73.467 484.664 71.5791 483.26 70.0402C481.856 68.5014 480.158 67.3195 478.167 66.4866C476.168 65.6616 473.939 65.2412 471.48 65.2412C469.021 65.2412 466.816 65.6537 464.825 66.4866C462.826 67.3116 461.121 68.5014 459.709 70.0402C458.297 71.5791 457.21 73.467 456.441 75.6959C455.679 77.9249 455.291 80.4394 455.291 83.2475C455.291 86.0555 455.671 88.5621 456.441 90.7831C457.202 93.0041 458.289 94.8841 459.709 96.4229C461.121 97.9618 462.826 99.1437 464.825 99.9607C466.824 100.778 469.037 101.19 471.48 101.19C473.923 101.19 476.176 100.778 478.167 99.9607C480.166 99.1437 481.864 97.9618 483.26 96.4229C484.664 94.8841 485.742 93.0041 486.512 90.7831C487.273 88.5621 487.662 86.0555 487.662 83.2475Z" fill="black"/>
</svg>
