<svg width="400" height="400" viewBox="0 0 400 400" fill="none" xmlns="http://www.w3.org/2000/svg">
<path d="M202.848 137.838V318.034L334.276 247.934V77.0841L202.848 137.838ZM321.231 237.952L215.893 294.112V149.693L321.231 101.007V237.952Z" fill="white"/>
<path d="M198.869 21L67.3998 72.2845L199.033 133.161L330.666 72.2845L198.869 21ZM106.022 73.6792L198.924 37.4362L292.037 73.6792L199.026 116.691L106.015 73.6792H106.022Z" fill="white"/>
<path d="M65 77.0841V247.934L196.428 318.034V137.838L65 77.0841ZM183.397 294.112L78.0724 237.946V101.007L183.397 149.707V294.112Z" fill="white"/>
<path d="M65.8478 378.59V338.894H79.5492C82.1472 338.894 84.3693 339.14 86.2084 339.632C88.0476 340.125 89.5586 340.829 90.7414 341.745C91.9242 342.661 92.7857 343.769 93.3326 345.068C93.8796 346.367 94.153 347.83 94.153 349.457C94.153 350.394 94.0163 351.283 93.7428 352.137C93.4693 352.985 93.0455 353.785 92.4643 354.524C91.89 355.262 91.1585 355.939 90.2697 356.54C89.3808 357.142 88.3279 357.655 87.0973 358.079C92.5532 359.303 95.2812 362.249 95.2812 366.919C95.2812 368.601 94.9599 370.16 94.3172 371.589C93.6745 373.018 92.7446 374.248 91.514 375.281C90.2901 376.313 88.7791 377.127 86.981 377.708C85.1897 378.296 83.1386 378.59 80.8345 378.59H65.8478ZM73.2386 356.082H79.139C81.6482 356.082 83.5488 355.624 84.8479 354.708C86.1469 353.792 86.7965 352.336 86.7965 350.346C86.7965 348.357 86.2084 346.805 85.0393 345.929C83.8702 345.054 82.0378 344.61 79.5492 344.61H73.2318V356.082H73.2386ZM73.2386 361.19V372.833H80.732C82.1063 372.833 83.2548 372.669 84.1778 372.341C85.1008 372.013 85.8461 371.575 86.3999 371.021C86.9605 370.474 87.3639 369.832 87.61 369.1C87.8562 368.368 87.9793 367.589 87.9793 366.769C87.9793 365.948 87.8425 365.135 87.5691 364.451C87.2956 363.767 86.8648 363.179 86.2769 362.694C85.6889 362.208 84.9436 361.839 84.0275 361.579C83.1113 361.32 82.0037 361.196 80.7047 361.196H73.2386V361.19Z" fill="white"/>
<path d="M101.236 378.59V350.421H105.215C105.913 350.421 106.398 350.551 106.672 350.804C106.945 351.064 107.13 351.502 107.219 352.124L107.629 355.529C108.634 353.792 109.817 352.418 111.17 351.413C112.524 350.408 114.042 349.902 115.731 349.902C117.119 349.902 118.274 350.223 119.19 350.866L118.308 355.946C118.254 356.274 118.137 356.506 117.953 356.643C117.768 356.78 117.522 356.848 117.214 356.848C116.941 356.848 116.565 356.787 116.086 356.657C115.608 356.527 114.979 356.465 114.192 356.465C112.784 356.465 111.574 356.855 110.569 357.634C109.564 358.414 108.709 359.549 108.019 361.053V378.597H101.236V378.59Z" fill="white"/>
<path d="M131.9 342.217C131.9 342.805 131.784 343.352 131.545 343.865C131.305 344.377 130.991 344.829 130.594 345.211C130.198 345.594 129.74 345.902 129.206 346.135C128.673 346.367 128.106 346.476 127.504 346.476C126.902 346.476 126.362 346.36 125.843 346.135C125.323 345.909 124.872 345.601 124.482 345.211C124.099 344.829 123.792 344.377 123.566 343.865C123.34 343.352 123.224 342.805 123.224 342.217C123.224 341.629 123.34 341.048 123.566 340.514C123.792 339.981 124.099 339.523 124.482 339.14C124.865 338.757 125.316 338.45 125.843 338.224C126.362 337.998 126.916 337.882 127.504 337.882C128.092 337.882 128.673 337.998 129.206 338.224C129.74 338.45 130.198 338.757 130.594 339.14C130.991 339.523 131.305 339.981 131.545 340.514C131.784 341.048 131.9 341.615 131.9 342.217ZM130.888 350.428V378.597H124.106V350.428H130.888Z" fill="white"/>
<path d="M158.339 356.383C158.141 356.643 157.942 356.841 157.751 356.985C157.56 357.128 157.279 357.204 156.917 357.204C156.555 357.204 156.233 357.101 155.898 356.889C155.57 356.677 155.174 356.438 154.715 356.178C154.257 355.911 153.71 355.672 153.081 355.467C152.452 355.255 151.666 355.152 150.736 355.152C149.547 355.152 148.501 355.371 147.605 355.795C146.709 356.226 145.964 356.841 145.369 357.648C144.774 358.455 144.33 359.426 144.036 360.574C143.742 361.716 143.598 363.015 143.598 364.458C143.598 365.9 143.756 367.295 144.077 368.464C144.398 369.633 144.856 370.618 145.465 371.418C146.067 372.211 146.798 372.819 147.66 373.23C148.521 373.64 149.492 373.845 150.572 373.845C151.652 373.845 152.528 373.715 153.191 373.448C153.861 373.182 154.421 372.888 154.88 372.573C155.338 372.252 155.734 371.958 156.076 371.691C156.411 371.425 156.794 371.295 157.218 371.295C157.765 371.295 158.182 371.507 158.455 371.924L160.404 374.392C159.652 375.274 158.838 376.005 157.963 376.6C157.088 377.195 156.172 377.674 155.228 378.029C154.285 378.385 153.314 378.638 152.302 378.781C151.297 378.925 150.299 379 149.307 379C147.571 379 145.93 378.672 144.392 378.022C142.853 377.373 141.513 376.429 140.371 375.178C139.23 373.934 138.32 372.409 137.65 370.604C136.98 368.799 136.645 366.748 136.645 364.444C136.645 362.379 136.946 360.458 137.541 358.694C138.136 356.93 139.011 355.399 140.159 354.106C141.315 352.814 142.737 351.802 144.439 351.071C146.142 350.339 148.097 349.97 150.312 349.97C152.528 349.97 154.264 350.312 155.844 350.989C157.423 351.666 158.852 352.636 160.11 353.901L158.325 356.369L158.339 356.383Z" fill="white"/>
<path d="M171.603 337.793V361.155H172.868C173.326 361.155 173.681 361.094 173.941 360.964C174.201 360.834 174.474 360.595 174.768 360.253L181.769 351.604C182.084 351.235 182.412 350.948 182.761 350.743C183.11 350.538 183.568 350.428 184.135 350.428H190.343L181.585 360.889C181.27 361.272 180.956 361.627 180.621 361.949C180.293 362.27 179.937 362.55 179.547 362.783C179.93 363.056 180.272 363.377 180.566 363.747C180.86 364.116 181.154 364.506 181.441 364.929L190.829 378.604H184.709C184.176 378.604 183.732 378.515 183.363 378.33C182.993 378.145 182.665 377.838 182.371 377.393L175.206 366.714C174.932 366.29 174.659 366.017 174.379 365.887C174.105 365.757 173.695 365.695 173.141 365.695H171.603V378.597H164.821V337.8H171.603V337.793Z" fill="white"/>
<path d="M217.698 365.647C217.889 366.133 218.081 366.625 218.259 367.117C218.443 366.604 218.635 366.112 218.833 365.647C219.031 365.182 219.264 364.711 219.517 364.232L232.828 340.043C233.068 339.619 233.314 339.366 233.567 339.277C233.826 339.188 234.189 339.14 234.667 339.14H238.592V378.48H233.922V349.573C233.922 349.191 233.929 348.773 233.95 348.336C233.97 347.898 233.997 347.447 234.032 346.989L220.549 371.589C220.091 372.416 219.448 372.826 218.628 372.826H217.862C217.035 372.826 216.399 372.416 215.941 371.589L202.157 346.907C202.212 347.386 202.253 347.851 202.28 348.309C202.308 348.767 202.322 349.191 202.322 349.573V378.48H197.652V339.14H201.576C202.055 339.14 202.417 339.188 202.677 339.277C202.937 339.366 203.183 339.626 203.415 340.043L217.007 364.259C217.26 364.697 217.486 365.162 217.677 365.647H217.698Z" fill="white"/>
<path d="M268.21 365.647C268.401 366.133 268.593 366.625 268.77 367.117C268.955 366.604 269.147 366.112 269.345 365.647C269.543 365.182 269.776 364.711 270.029 364.232L283.34 340.043C283.58 339.619 283.826 339.366 284.079 339.277C284.338 339.188 284.701 339.14 285.179 339.14H289.104V378.48H284.434V349.573C284.434 349.191 284.441 348.773 284.461 348.336C284.482 347.898 284.509 347.447 284.544 346.989L271.061 371.589C270.603 372.416 269.96 372.826 269.14 372.826H268.374C267.547 372.826 266.911 372.416 266.453 371.589L252.669 346.907C252.724 347.386 252.765 347.851 252.792 348.309C252.82 348.767 252.833 349.191 252.833 349.573V378.48H248.164V339.14H252.088C252.567 339.14 252.929 339.188 253.189 339.277C253.449 339.366 253.695 339.626 253.927 340.043L267.519 364.259C267.772 364.697 267.998 365.162 268.189 365.647H268.21Z" fill="white"/>
<path d="M335.24 358.824C335.24 361.771 334.775 364.478 333.838 366.939C332.902 369.401 331.589 371.52 329.887 373.298C328.184 375.076 326.14 376.45 323.754 377.427C321.368 378.405 318.722 378.897 315.837 378.897C312.951 378.897 310.312 378.405 307.933 377.427C305.554 376.45 303.516 375.069 301.814 373.298C300.111 371.527 298.792 369.401 297.862 366.939C296.932 364.478 296.46 361.771 296.46 358.824C296.46 355.877 296.925 353.177 297.862 350.708C298.799 348.24 300.111 346.121 301.814 344.336C303.516 342.552 305.554 341.164 307.933 340.179C310.312 339.188 312.945 338.696 315.837 338.696C318.729 338.696 321.368 339.188 323.754 340.179C326.14 341.171 328.184 342.552 329.887 344.336C331.589 346.121 332.909 348.24 333.838 350.708C334.768 353.177 335.24 355.877 335.24 358.824ZM329.777 358.824C329.777 356.41 329.449 354.236 328.786 352.315C328.129 350.394 327.193 348.767 325.983 347.44C324.773 346.114 323.309 345.095 321.593 344.377C319.87 343.666 317.949 343.304 315.83 343.304C313.71 343.304 311.81 343.659 310.093 344.377C308.371 345.088 306.901 346.114 305.684 347.44C304.467 348.767 303.53 350.394 302.867 352.315C302.21 354.236 301.875 356.404 301.875 358.824C301.875 361.244 302.203 363.405 302.867 365.319C303.523 367.233 304.46 368.854 305.684 370.18C306.901 371.507 308.371 372.525 310.093 373.23C311.816 373.934 313.724 374.289 315.83 374.289C317.936 374.289 319.877 373.934 321.593 373.23C323.316 372.525 324.779 371.507 325.983 370.18C327.193 368.854 328.123 367.233 328.786 365.319C329.442 363.405 329.777 361.244 329.777 358.824Z" fill="white"/>
</svg>
