<?xml version="1.0" encoding="utf-8"?>
<!-- Generator: Adobe Illustrator 28.0.0, SVG Export Plug-In . SVG Version: 6.00 Build 0)  -->
<svg version="1.1" xmlns="http://www.w3.org/2000/svg" xmlns:xlink="http://www.w3.org/1999/xlink" x="0px" y="0px"
	 viewBox="0 0 511.68 511.68" style="enable-background:new 0 0 511.68 511.68;" xml:space="preserve">
<style type="text/css">
	.st0{fill:url(#SVGID_1_);}
	.st1{fill:url(#SVGID_00000162318301560270912980000009842169759072998308_);}
	.st2{fill:url(#SVGID_00000159447107219669125750000018118230342154024595_);}
	.st3{fill:none;stroke:#FFFFFF;stroke-width:15;stroke-miterlimit:10;}
	.st4{fill:#FFFFFF;}
	.st5{fill:none;stroke:#FFFFFF;stroke-width:9;stroke-miterlimit:10;}
	.st6{fill:url(#SVGID_00000127039553599036369660000012181602346601406855_);}
	.st7{fill:none;stroke:#FFFFFF;stroke-width:15;stroke-linecap:round;stroke-linejoin:round;stroke-miterlimit:10;}
	.st8{fill:none;stroke:#FFFFFF;stroke-width:10;stroke-linecap:round;stroke-linejoin:round;stroke-miterlimit:10;}
	.st9{fill:url(#SVGID_00000108287215538606096650000007076713920945113762_);}
	.st10{fill:url(#SVGID_00000166652003737873872170000001433956565278304443_);}
	.st11{fill:url(#SVGID_00000026137862349704221380000009346705031798905775_);}
	.st12{fill:url(#SVGID_00000099625646248504503160000005867584191016217255_);}
	.st13{fill:url(#SVGID_00000016755331983710166980000004396218060126161312_);}
	.st14{fill:url(#SVGID_00000109727510093268431620000009542829445438267323_);}
	.st15{fill:url(#SVGID_00000075857297385614806880000004900008045030263977_);}
	.st16{fill:url(#SVGID_00000124138898661781575180000008160008835443561909_);}
	.st17{fill:url(#SVGID_00000123438999584067536670000014085699931976793270_);}
	.st18{fill:url(#SVGID_00000106144981438330478580000014356683701795663274_);}
	.st19{fill:url(#SVGID_00000144339565662672619710000012618179909242029239_);}
	.st20{fill:url(#SVGID_00000039827737354630743280000008063861003354013327_);}
	.st21{fill:url(#SVGID_00000069362710367016628880000010202592327146155691_);}
	.st22{fill:url(#SVGID_00000054987683616417829250000015654546534867843724_);}
	.st23{fill:url(#SVGID_00000101812393543194365080000015868617878015663241_);}
	.st24{fill:url(#SVGID_00000021098619189158461800000006966635428747340434_);}
	.st25{fill:url(#SVGID_00000015336715832791222930000006837917296038524561_);}
	.st26{fill:url(#SVGID_00000019677935968648400400000013766143949854768800_);}
	.st27{fill:#BCBEC0;}
	.st28{fill:url(#SVGID_00000012465538285984393200000002116149585214040758_);}
	.st29{fill:url(#SVGID_00000127030661665807840410000017778340178941826220_);}
	.st30{fill-rule:evenodd;clip-rule:evenodd;fill:#FFFFFF;}
	.st31{clip-path:url(#SVGID_00000075869723408914442950000003265366620263558824_);}
	.st32{fill:none;stroke:#FFFFFF;stroke-width:15.6378;stroke-miterlimit:10;}
	.st33{fill:none;stroke:#FFFFFF;stroke-width:9.8091;stroke-linecap:round;stroke-linejoin:round;stroke-miterlimit:10;}
	.st34{fill:url(#SVGID_00000085966993395624967870000014782763483405801107_);}
	.st35{fill:none;stroke:#FFFFFF;stroke-width:14.3924;stroke-linecap:round;stroke-linejoin:round;stroke-miterlimit:10;}
	.st36{fill:none;stroke:#FFFFFF;stroke-width:8;stroke-linecap:round;stroke-linejoin:round;stroke-miterlimit:10;}
	.st37{fill:url(#SVGID_00000038377828126238168280000009556405733874710954_);}
	.st38{fill:#FFFFFF;stroke:#FFFFFF;stroke-width:2.9178;stroke-miterlimit:10;}
</style>
<g id="GPS">
</g>
<g id="Icons">
</g>
<g id="References">
	<g>
		<path d="M155.15,453.19v4.39h-12.47v34.2h-5.22v-34.2h-12.52v-4.39H155.15z"/>
		<path d="M166.3,455.93c0,0.47-0.09,0.9-0.28,1.31s-0.44,0.76-0.75,1.08s-0.68,0.56-1.09,0.74c-0.41,0.18-0.85,0.27-1.32,0.27
			s-0.9-0.09-1.31-0.27c-0.4-0.18-0.76-0.43-1.08-0.74s-0.56-0.67-0.74-1.08c-0.18-0.4-0.27-0.84-0.27-1.31
			c0-0.47,0.09-0.91,0.27-1.33c0.18-0.42,0.43-0.79,0.74-1.1c0.31-0.31,0.67-0.56,1.08-0.74c0.4-0.18,0.84-0.27,1.31-0.27
			s0.91,0.09,1.32,0.27c0.41,0.18,0.78,0.43,1.09,0.74c0.31,0.31,0.57,0.68,0.75,1.1S166.3,455.47,166.3,455.93z M165.22,464.5
			v27.28h-4.79V464.5H165.22z"/>
		<path d="M173.68,491.78V464.5h2.85c0.68,0,1.11,0.33,1.29,1l0.35,2.8c1-1.24,2.13-2.25,3.38-3.04s2.7-1.18,4.35-1.18
			c1.85,0,3.34,0.51,4.48,1.54c1.14,1.02,1.96,2.41,2.46,4.15c0.38-0.99,0.88-1.84,1.5-2.56s1.31-1.31,2.09-1.78
			c0.77-0.47,1.59-0.81,2.46-1.02c0.87-0.22,1.75-0.32,2.65-0.32c1.44,0,2.72,0.23,3.84,0.69s2.07,1.13,2.86,2.01
			c0.78,0.88,1.38,1.96,1.79,3.25c0.41,1.28,0.62,2.75,0.62,4.4v17.37h-4.79v-17.37c0-2.14-0.47-3.76-1.4-4.86
			c-0.93-1.1-2.29-1.66-4.07-1.66c-0.79,0-1.54,0.14-2.25,0.42s-1.33,0.69-1.87,1.23c-0.54,0.54-0.97,1.22-1.28,2.03
			c-0.31,0.82-0.47,1.76-0.47,2.84v17.37h-4.79v-17.37c0-2.19-0.44-3.83-1.32-4.9c-0.88-1.08-2.16-1.62-3.85-1.62
			c-1.18,0-2.28,0.32-3.3,0.96s-1.94,1.5-2.79,2.6v20.33H173.68z"/>
		<path d="M228.7,464.07c1.63,0,3.14,0.27,4.52,0.82s2.58,1.34,3.58,2.37s1.79,2.31,2.36,3.82c0.56,1.52,0.85,3.25,0.85,5.18
			c0,0.75-0.08,1.26-0.24,1.51c-0.16,0.25-0.47,0.38-0.92,0.38H220.7c0.04,1.72,0.27,3.22,0.7,4.5c0.43,1.28,1.02,2.34,1.78,3.19
			c0.75,0.85,1.65,1.49,2.69,1.91c1.04,0.42,2.21,0.63,3.5,0.63c1.2,0,2.24-0.14,3.11-0.42s1.62-0.58,2.25-0.9s1.15-0.62,1.58-0.9
			s0.79-0.42,1.09-0.42c0.4,0,0.7,0.15,0.92,0.46l1.35,1.75c-0.59,0.72-1.3,1.34-2.13,1.87s-1.71,0.96-2.65,1.31
			c-0.94,0.34-1.92,0.6-2.92,0.77c-1.01,0.17-2,0.26-2.99,0.26c-1.89,0-3.62-0.32-5.21-0.96s-2.96-1.57-4.12-2.8
			c-1.16-1.23-2.06-2.75-2.71-4.56s-0.97-3.9-0.97-6.25c0-1.9,0.29-3.68,0.88-5.33c0.58-1.65,1.42-3.08,2.52-4.29
			s2.43-2.16,4.01-2.86C224.94,464.41,226.72,464.07,228.7,464.07z M228.8,467.6c-2.32,0-4.14,0.67-5.47,2.01
			c-1.33,1.34-2.15,3.19-2.48,5.56h14.84c0-1.11-0.15-2.13-0.46-3.06c-0.3-0.92-0.75-1.72-1.35-2.4c-0.59-0.67-1.32-1.19-2.17-1.56
			C230.87,467.78,229.9,467.6,228.8,467.6z"/>
		<path d="M261.74,469c-0.21,0.4-0.55,0.59-1,0.59c-0.27,0-0.58-0.1-0.92-0.3s-0.76-0.42-1.25-0.66c-0.49-0.24-1.08-0.47-1.76-0.67
			c-0.68-0.21-1.49-0.31-2.42-0.31c-0.81,0-1.54,0.1-2.18,0.31s-1.2,0.49-1.66,0.85c-0.46,0.36-0.81,0.78-1.05,1.25
			s-0.36,0.99-0.36,1.55c0,0.7,0.2,1.28,0.61,1.75c0.4,0.47,0.94,0.87,1.6,1.21s1.42,0.64,2.26,0.9c0.84,0.26,1.71,0.54,2.6,0.83
			c0.89,0.3,1.75,0.62,2.6,0.98c0.84,0.36,1.6,0.81,2.26,1.35c0.66,0.54,1.2,1.2,1.6,1.98c0.4,0.78,0.61,1.72,0.61,2.81
			c0,1.26-0.22,2.42-0.67,3.49c-0.45,1.07-1.11,1.99-1.99,2.77c-0.88,0.78-1.96,1.4-3.23,1.84c-1.28,0.45-2.75,0.67-4.42,0.67
			c-1.9,0-3.63-0.31-5.17-0.93s-2.85-1.41-3.93-2.38l1.13-1.83c0.14-0.23,0.31-0.41,0.51-0.54c0.2-0.12,0.46-0.19,0.78-0.19
			s0.66,0.13,1.02,0.38c0.36,0.25,0.79,0.53,1.31,0.83c0.51,0.31,1.13,0.58,1.86,0.83c0.73,0.25,1.64,0.38,2.73,0.38
			c0.93,0,1.75-0.12,2.45-0.36s1.28-0.57,1.75-0.98c0.47-0.41,0.81-0.89,1.04-1.43c0.22-0.54,0.34-1.11,0.34-1.72
			c0-0.75-0.2-1.38-0.61-1.87c-0.4-0.49-0.94-0.92-1.6-1.27c-0.66-0.35-1.42-0.66-2.28-0.92c-0.85-0.26-1.72-0.53-2.61-0.82
			c-0.89-0.29-1.76-0.61-2.61-0.98s-1.61-0.83-2.28-1.39c-0.67-0.56-1.2-1.24-1.6-2.06s-0.61-1.81-0.61-2.98
			c0-1.04,0.22-2.04,0.65-3c0.43-0.96,1.06-1.8,1.89-2.53c0.83-0.73,1.84-1.31,3.04-1.74c1.2-0.43,2.58-0.65,4.12-0.65
			c1.8,0,3.41,0.28,4.83,0.85c1.43,0.57,2.66,1.34,3.7,2.33L261.74,469z"/>
		<path d="M269.49,491.78v-39.67h4.79v16.05c1.17-1.24,2.46-2.23,3.88-2.98c1.42-0.74,3.05-1.12,4.9-1.12
			c1.49,0,2.81,0.25,3.95,0.74c1.14,0.49,2.09,1.19,2.86,2.1c0.76,0.91,1.34,2,1.74,3.27c0.4,1.27,0.59,2.68,0.59,4.23v17.37h-4.79
			v-17.37c0-2.06-0.47-3.67-1.41-4.81c-0.94-1.14-2.38-1.71-4.32-1.71c-1.42,0-2.74,0.34-3.97,1.02c-1.23,0.68-2.37,1.61-3.41,2.77
			v20.09H269.49z"/>
		<path d="M310.24,464.07c1.63,0,3.14,0.27,4.52,0.82c1.38,0.55,2.58,1.34,3.58,2.37c1,1.03,1.79,2.31,2.36,3.82
			s0.85,3.25,0.85,5.18c0,0.75-0.08,1.26-0.24,1.51c-0.16,0.25-0.47,0.38-0.92,0.38h-18.15c0.04,1.72,0.27,3.22,0.7,4.5
			c0.43,1.28,1.02,2.34,1.78,3.19c0.75,0.85,1.65,1.49,2.69,1.91s2.21,0.63,3.5,0.63c1.2,0,2.24-0.14,3.11-0.42
			c0.87-0.28,1.62-0.58,2.25-0.9s1.15-0.62,1.58-0.9c0.42-0.28,0.79-0.42,1.09-0.42c0.4,0,0.7,0.15,0.92,0.46l1.35,1.75
			c-0.59,0.72-1.3,1.34-2.13,1.87s-1.71,0.96-2.65,1.31c-0.94,0.34-1.92,0.6-2.92,0.77c-1.01,0.17-2,0.26-2.99,0.26
			c-1.89,0-3.62-0.32-5.21-0.96s-2.96-1.57-4.12-2.8c-1.16-1.23-2.06-2.75-2.71-4.56c-0.65-1.81-0.97-3.9-0.97-6.25
			c0-1.9,0.29-3.68,0.88-5.33c0.58-1.65,1.42-3.08,2.52-4.29c1.09-1.21,2.43-2.16,4.01-2.86
			C306.49,464.41,308.27,464.07,310.24,464.07z M310.35,467.6c-2.32,0-4.14,0.67-5.47,2.01c-1.33,1.34-2.15,3.19-2.48,5.56h14.84
			c0-1.11-0.15-2.13-0.46-3.06s-0.75-1.72-1.35-2.4c-0.59-0.67-1.32-1.19-2.17-1.56S311.44,467.6,310.35,467.6z"/>
		<path d="M338.46,464.07c1.63,0,3.14,0.27,4.52,0.82c1.38,0.55,2.58,1.34,3.58,2.37c1,1.03,1.79,2.31,2.36,3.82
			s0.85,3.25,0.85,5.18c0,0.75-0.08,1.26-0.24,1.51c-0.16,0.25-0.47,0.38-0.92,0.38h-18.15c0.04,1.72,0.27,3.22,0.7,4.5
			c0.43,1.28,1.02,2.34,1.78,3.19c0.75,0.85,1.65,1.49,2.69,1.91s2.21,0.63,3.5,0.63c1.2,0,2.24-0.14,3.11-0.42
			c0.87-0.28,1.62-0.58,2.25-0.9s1.15-0.62,1.58-0.9c0.42-0.28,0.79-0.42,1.09-0.42c0.4,0,0.7,0.15,0.92,0.46l1.35,1.75
			c-0.59,0.72-1.3,1.34-2.13,1.87s-1.71,0.96-2.65,1.31c-0.94,0.34-1.92,0.6-2.92,0.77c-1.01,0.17-2,0.26-2.99,0.26
			c-1.89,0-3.62-0.32-5.21-0.96s-2.96-1.57-4.12-2.8c-1.16-1.23-2.06-2.75-2.71-4.56c-0.65-1.81-0.97-3.9-0.97-6.25
			c0-1.9,0.29-3.68,0.88-5.33c0.58-1.65,1.42-3.08,2.52-4.29c1.09-1.21,2.43-2.16,4.01-2.86
			C334.71,464.41,336.49,464.07,338.46,464.07z M338.57,467.6c-2.32,0-4.14,0.67-5.47,2.01c-1.33,1.34-2.15,3.19-2.48,5.56h14.84
			c0-1.11-0.15-2.13-0.46-3.06s-0.75-1.72-1.35-2.4c-0.59-0.67-1.32-1.19-2.17-1.56S339.67,467.6,338.57,467.6z"/>
		<path d="M364.16,492.21c-2.16,0-3.81-0.6-4.97-1.8c-1.16-1.2-1.74-2.94-1.74-5.2v-16.7h-3.29c-0.29,0-0.53-0.08-0.73-0.26
			c-0.2-0.17-0.3-0.44-0.3-0.79v-1.91l4.47-0.57l1.1-8.43c0.04-0.27,0.15-0.49,0.35-0.66c0.2-0.17,0.45-0.26,0.75-0.26h2.42v9.4
			h7.81v3.47h-7.81v16.37c0,1.15,0.28,2,0.83,2.56c0.56,0.56,1.27,0.83,2.15,0.83c0.5,0,0.94-0.07,1.31-0.2s0.69-0.28,0.96-0.44
			c0.27-0.16,0.5-0.31,0.69-0.44s0.35-0.2,0.5-0.2c0.25,0,0.48,0.15,0.67,0.46l1.4,2.29c-0.83,0.77-1.82,1.38-2.99,1.82
			C366.6,491.99,365.39,492.21,364.16,492.21z"/>
		<path d="M391.6,469c-0.21,0.4-0.55,0.59-1,0.59c-0.27,0-0.58-0.1-0.92-0.3s-0.76-0.42-1.25-0.66c-0.49-0.24-1.08-0.47-1.76-0.67
			c-0.68-0.21-1.49-0.31-2.42-0.31c-0.81,0-1.54,0.1-2.18,0.31s-1.2,0.49-1.66,0.85c-0.46,0.36-0.81,0.78-1.05,1.25
			s-0.36,0.99-0.36,1.55c0,0.7,0.2,1.28,0.61,1.75c0.4,0.47,0.94,0.87,1.6,1.21s1.42,0.64,2.26,0.9c0.84,0.26,1.71,0.54,2.6,0.83
			c0.89,0.3,1.75,0.62,2.6,0.98c0.84,0.36,1.6,0.81,2.26,1.35c0.66,0.54,1.2,1.2,1.6,1.98c0.4,0.78,0.61,1.72,0.61,2.81
			c0,1.26-0.22,2.42-0.67,3.49c-0.45,1.07-1.11,1.99-1.99,2.77c-0.88,0.78-1.96,1.4-3.23,1.84c-1.28,0.45-2.75,0.67-4.42,0.67
			c-1.9,0-3.63-0.31-5.17-0.93s-2.85-1.41-3.93-2.38l1.13-1.83c0.14-0.23,0.31-0.41,0.51-0.54c0.2-0.12,0.46-0.19,0.78-0.19
			s0.66,0.13,1.02,0.38c0.36,0.25,0.79,0.53,1.31,0.83c0.51,0.31,1.13,0.58,1.86,0.83c0.73,0.25,1.64,0.38,2.73,0.38
			c0.93,0,1.75-0.12,2.45-0.36s1.28-0.57,1.75-0.98c0.47-0.41,0.81-0.89,1.04-1.43c0.22-0.54,0.34-1.11,0.34-1.72
			c0-0.75-0.2-1.38-0.61-1.87c-0.4-0.49-0.94-0.92-1.6-1.27c-0.66-0.35-1.42-0.66-2.28-0.92c-0.85-0.26-1.72-0.53-2.61-0.82
			c-0.89-0.29-1.76-0.61-2.61-0.98s-1.61-0.83-2.28-1.39c-0.67-0.56-1.2-1.24-1.6-2.06s-0.61-1.81-0.61-2.98
			c0-1.04,0.22-2.04,0.65-3c0.43-0.96,1.06-1.8,1.89-2.53c0.83-0.73,1.84-1.31,3.04-1.74c1.2-0.43,2.58-0.65,4.12-0.65
			c1.8,0,3.41,0.28,4.83,0.85c1.43,0.57,2.66,1.34,3.7,2.33L391.6,469z"/>
	</g>
	<g>
		<g>
			<linearGradient id="SVGID_1_" gradientUnits="userSpaceOnUse" x1="60.3632" y1="224.9683" x2="462.3835" y2="224.9683">
				<stop  offset="0" style="stop-color:#F15D22"/>
				<stop  offset="1" style="stop-color:#ED2024"/>
			</linearGradient>
			<path class="st0" d="M261.37,23.96c-111.01,0-201.01,90-201.01,201.01c0,111.01,90,201.01,201.01,201.01
				c111.01,0,201.01-90,201.01-201.01C462.38,113.95,372.39,23.96,261.37,23.96z"/>
		</g>
		<g>
			<path class="st35" d="M218.8,240.32v-73.47c0-11.05,8.96-20,20-20h80.25c11.05,0,20,8.96,20,20v116.23c0,11.05-8.96,20-20,20
				c0,0-86.08,0-100.25,0"/>
			<line class="st36" x1="306.25" y1="184.16" x2="254.16" y2="184.16"/>
			<line class="st36" x1="306.25" y1="211.21" x2="254.16" y2="211.21"/>
			<line class="st36" x1="306.25" y1="238.27" x2="254.16" y2="238.27"/>
			<line class="st36" x1="306.25" y1="265.33" x2="254.16" y2="265.33"/>
			<circle class="st35" cx="215.08" cy="271.7" r="31.38"/>
			<polyline class="st36" points="213.55,256.93 213.55,273.17 229.91,273.17 			"/>
		</g>
	</g>
</g>
</svg>
