<?xml version="1.0" encoding="UTF-8"?>
<svg id="Icons" xmlns="http://www.w3.org/2000/svg" xmlns:xlink="http://www.w3.org/1999/xlink" viewBox="0 0 511.68 511.68">
  <defs>
    <style>
      .cls-1 {
        fill: #fff;
      }

      .cls-1, .cls-2, .cls-3 {
        stroke-width: 0px;
      }

      .cls-2 {
        fill: url(#New_Gradient_Swatch_1);
      }

      .cls-3 {
        fill: #231f20;
      }
    </style>
    <linearGradient id="New_Gradient_Swatch_1" data-name="New Gradient Swatch 1" x1="60.36" y1="224.97" x2="462.38" y2="224.97" gradientUnits="userSpaceOnUse">
      <stop offset="0" stop-color="#f15d22"/>
      <stop offset="1" stop-color="#ed2024"/>
    </linearGradient>
  </defs>
  <g>
    <path class="cls-3" d="m208.67,453.62v4.39h-12.47v34.2h-5.23v-34.2h-12.52v-4.39h30.22Z"/>
    <path class="cls-3" d="m209.1,492.21v-27.28h2.75c.52,0,.88.1,1.08.3.2.2.33.54.4,1.02l.32,4.26c.93-1.9,2.09-3.39,3.46-4.46,1.37-1.07,2.98-1.6,4.83-1.6.75,0,1.44.08,2.05.26.61.17,1.18.41,1.7.71l-.62,3.58c-.13.45-.4.67-.83.67-.25,0-.64-.08-1.16-.26-.52-.17-1.25-.26-2.18-.26-1.67,0-3.07.48-4.19,1.45-1.12.97-2.06,2.38-2.81,4.23v17.37h-4.79Z"/>
    <path class="cls-3" d="m249.82,492.21h-2.13c-.47,0-.84-.07-1.13-.22-.29-.14-.48-.45-.57-.92l-.54-2.53c-.72.65-1.42,1.23-2.1,1.74-.68.51-1.4.94-2.15,1.29-.75.35-1.56.62-2.41.79-.85.18-1.8.27-2.84.27s-2.05-.15-2.97-.45c-.93-.3-1.73-.74-2.41-1.34s-1.23-1.35-1.63-2.26c-.4-.91-.61-1.99-.61-3.23,0-1.08.3-2.12.89-3.12.59-1,1.55-1.89,2.87-2.66,1.32-.78,3.05-1.41,5.18-1.91,2.14-.5,4.75-.74,7.84-.74v-2.14c0-2.13-.45-3.74-1.36-4.84-.91-1.09-2.25-1.64-4.03-1.64-1.17,0-2.15.15-2.95.44-.8.3-1.49.63-2.07,1-.58.37-1.09.7-1.51,1-.42.3-.84.44-1.25.44-.32,0-.61-.09-.85-.26-.24-.17-.44-.38-.58-.63l-.86-1.53c1.51-1.46,3.13-2.54,4.87-3.26s3.67-1.08,5.79-1.08c1.53,0,2.88.25,4.07.75,1.19.5,2.18,1.2,2.99,2.1.81.9,1.42,1.98,1.83,3.26.41,1.27.62,2.67.62,4.2v17.45Zm-12.44-2.94c.84,0,1.62-.08,2.32-.26.7-.17,1.36-.41,1.98-.73.62-.31,1.21-.7,1.78-1.14.57-.45,1.12-.96,1.66-1.53v-5.63c-2.21,0-4.08.14-5.63.42s-2.8.65-3.77,1.1c-.97.45-1.67.98-2.11,1.6-.44.61-.66,1.3-.66,2.06s.12,1.35.35,1.87.55.95.94,1.29c.39.33.86.58,1.4.73.54.15,1.12.23,1.75.23Z"/>
    <path class="cls-3" d="m275.7,469.78c-.14.2-.29.35-.43.46-.14.11-.35.16-.62.16s-.56-.11-.88-.34c-.31-.22-.71-.47-1.2-.74-.49-.27-1.07-.52-1.76-.74-.69-.22-1.54-.34-2.54-.34-1.33,0-2.5.24-3.53.71s-1.88,1.16-2.57,2.06c-.69.9-1.21,1.98-1.56,3.26-.35,1.28-.52,2.7-.52,4.28s.19,3.12.56,4.4c.38,1.28.91,2.36,1.59,3.23.68.87,1.51,1.54,2.49,1.99s2.08.69,3.3.69,2.13-.14,2.88-.42,1.38-.59,1.88-.93c.5-.34.92-.65,1.24-.93.32-.28.65-.42.97-.42.41,0,.72.15.92.46l1.35,1.75c-1.19,1.45-2.67,2.52-4.44,3.19-1.78.67-3.65,1.01-5.63,1.01-1.71,0-3.29-.31-4.75-.94s-2.73-1.54-3.81-2.73c-1.08-1.19-1.93-2.66-2.54-4.4s-.93-3.73-.93-5.95c0-2.03.28-3.91.85-5.63.56-1.72,1.39-3.21,2.48-4.46,1.09-1.25,2.43-2.22,4.03-2.92,1.6-.7,3.43-1.05,5.49-1.05,1.9,0,3.59.31,5.06.93,1.47.62,2.77,1.5,3.9,2.63l-1.27,1.72Z"/>
    <path class="cls-3" d="m287.23,452.54v23.35h1.24c.36,0,.66-.05.89-.15.23-.1.49-.3.78-.61l8.62-9.24c.27-.29.54-.52.81-.7.27-.18.63-.27,1.08-.27h4.36l-10.04,10.69c-.25.31-.5.58-.74.81-.24.23-.52.44-.82.62.32.21.62.46.88.74.26.28.51.6.74.96l10.67,13.47h-4.31c-.39,0-.73-.08-1.01-.23s-.54-.39-.79-.71l-8.97-11.18c-.27-.38-.54-.62-.81-.74s-.67-.18-1.21-.18h-1.35v13.04h-4.82v-39.67h4.82Z"/>
    <path class="cls-3" d="m326.09,469.43c-.21.4-.55.59-1,.59-.27,0-.58-.1-.92-.3s-.76-.42-1.25-.66c-.49-.24-1.08-.47-1.76-.67-.68-.21-1.49-.31-2.42-.31-.81,0-1.54.1-2.18.31s-1.2.49-1.66.85c-.46.36-.81.78-1.05,1.25s-.36.99-.36,1.55c0,.7.2,1.28.61,1.75.4.47.94.87,1.6,1.21s1.42.64,2.26.9c.84.26,1.71.54,2.6.83.89.3,1.75.62,2.6.98.84.36,1.6.81,2.26,1.35.66.54,1.2,1.2,1.6,1.98.4.78.61,1.72.61,2.81,0,1.26-.22,2.42-.67,3.49-.45,1.07-1.11,1.99-1.99,2.77-.88.78-1.96,1.4-3.23,1.84-1.28.45-2.75.67-4.42.67-1.9,0-3.63-.31-5.17-.93s-2.85-1.41-3.93-2.38l1.13-1.83c.14-.23.31-.41.51-.54.2-.12.46-.19.78-.19s.66.13,1.02.38c.36.25.79.53,1.31.83.51.31,1.13.58,1.86.83.73.25,1.64.38,2.73.38.93,0,1.75-.12,2.45-.36s1.28-.57,1.75-.98c.47-.41.81-.89,1.04-1.43.22-.54.34-1.11.34-1.72,0-.75-.2-1.38-.61-1.87-.4-.49-.94-.92-1.6-1.27-.66-.35-1.42-.66-2.28-.92-.85-.26-1.72-.53-2.61-.82-.89-.29-1.76-.61-2.61-.98s-1.61-.83-2.28-1.39c-.67-.56-1.2-1.24-1.6-2.06s-.61-1.81-.61-2.98c0-1.04.22-2.04.65-3,.43-.96,1.06-1.8,1.89-2.53.83-.73,1.84-1.31,3.04-1.74,1.2-.43,2.58-.65,4.12-.65,1.8,0,3.41.28,4.83.85,1.43.57,2.66,1.34,3.7,2.33l-1.08,1.75Z"/>
  </g>
  <g>
    <path class="cls-2" d="m261.37,23.96c-111.01,0-201.01,90-201.01,201.01s90,201.01,201.01,201.01,201.01-90,201.01-201.01S372.39,23.96,261.37,23.96Z"/>
    <path class="cls-1" d="m366.43,245.7h-29.61v-49.37h29.61v-15.42h-29.9v-11.5h-14.96v11.49h-30.04v-11.52h-15.14v11.53h-30.03v-11.54h-15.02v11.53h-30.01v-11.46h-15.41v11.85h-29.6v14.89h29.57v49.65h-29.49v15.07h29.89v18.66h15.15v-18.64h30v18.65h15.01v-18.65h30.02v18.67h15.12v-18.59h30.29v18.61h14.82v-18.61h29.73v-15.27Zm-135.24-.16h-29.59v-49.18h29.59v49.18Zm45,.04h-29.56v-49.24h29.56v49.24Zm45.28-.02h-29.67v-49.2h29.67v49.2Z"/>
  </g>
</svg>