<?xml version="1.0" encoding="UTF-8"?>
<svg id="Icons" xmlns="http://www.w3.org/2000/svg" xmlns:xlink="http://www.w3.org/1999/xlink" viewBox="0 0 511.68 511.68">
  <defs>
    <style>
      .cls-1 {
        fill: none;
        stroke: #fff;
        stroke-linecap: round;
        stroke-linejoin: round;
        stroke-width: 15px;
      }

      .cls-2 {
        fill: #fff;
      }

      .cls-2, .cls-3, .cls-4 {
        stroke-width: 0px;
      }

      .cls-3 {
        fill: url(#New_Gradient_Swatch_1);
      }

      .cls-4 {
        fill: #231f20;
      }
    </style>
    <linearGradient id="New_Gradient_Swatch_1" data-name="New Gradient Swatch 1" x1="60.36" y1="224.97" x2="462.38" y2="224.97" gradientUnits="userSpaceOnUse">
      <stop offset="0" stop-color="#f15d22"/>
      <stop offset="1" stop-color="#ed2024"/>
    </linearGradient>
  </defs>
  <g>
    <path class="cls-4" d="m155.42,475.24v16.1h-5.2v-38.59h10.91c2.44,0,4.55.25,6.33.74,1.78.49,3.25,1.21,4.4,2.14s2.01,2.06,2.57,3.38.83,2.8.83,4.43c0,1.36-.21,2.64-.65,3.82-.43,1.18-1.05,2.25-1.87,3.19-.82.94-1.81,1.75-2.99,2.41s-2.51,1.17-4,1.51c.65.38,1.22.92,1.72,1.64l11.26,15.32h-4.63c-.95,0-1.65-.37-2.1-1.1l-10.02-13.79c-.3-.43-.64-.74-1-.93s-.9-.28-1.62-.28h-3.96Zm0-3.8h5.47c1.53,0,2.87-.18,4.03-.55s2.13-.89,2.91-1.56c.78-.67,1.37-1.48,1.76-2.41.39-.93.59-1.97.59-3.1,0-2.3-.76-4.03-2.28-5.2-1.52-1.17-3.78-1.75-6.77-1.75h-5.71v14.57Z"/>
    <path class="cls-4" d="m194.66,463.64c1.99,0,3.79.33,5.4,1s2.97,1.61,4.09,2.83c1.12,1.22,1.98,2.7,2.59,4.43.6,1.73.9,3.67.9,5.8s-.3,4.09-.9,5.82-1.46,3.2-2.59,4.42c-1.12,1.22-2.49,2.16-4.09,2.81-1.61.65-3.41.98-5.4.98s-3.79-.33-5.4-.98c-1.61-.66-2.98-1.59-4.11-2.81-1.13-1.22-2-2.69-2.61-4.42-.61-1.72-.92-3.66-.92-5.82s.3-4.07.92-5.8c.61-1.73,1.48-3.21,2.61-4.43,1.13-1.22,2.5-2.16,4.11-2.83s3.41-1,5.4-1Zm0,24.35c2.69,0,4.7-.9,6.03-2.71,1.33-1.8,1.99-4.32,1.99-7.55s-.66-5.78-1.99-7.59-3.34-2.72-6.03-2.72c-1.37,0-2.55.23-3.55.7-1.01.47-1.85,1.14-2.52,2.02s-1.18,1.96-1.51,3.25c-.33,1.28-.5,2.73-.5,4.35s.17,3.06.5,4.34.84,2.35,1.51,3.22c.67.87,1.51,1.54,2.52,2.01,1,.47,2.19.7,3.55.7Z"/>
    <path class="cls-4" d="m233.6,491.35h-2.13c-.47,0-.84-.07-1.13-.22-.29-.14-.48-.45-.57-.92l-.54-2.53c-.72.65-1.42,1.23-2.1,1.74-.68.51-1.4.94-2.15,1.29-.75.35-1.56.62-2.41.79-.85.18-1.8.27-2.84.27s-2.05-.15-2.97-.45c-.93-.3-1.73-.74-2.41-1.34s-1.23-1.35-1.63-2.26c-.4-.91-.61-1.99-.61-3.23,0-1.08.3-2.12.89-3.12.59-1,1.55-1.89,2.87-2.66,1.32-.78,3.05-1.41,5.18-1.91,2.14-.5,4.75-.74,7.84-.74v-2.14c0-2.13-.45-3.74-1.36-4.84-.91-1.09-2.25-1.64-4.03-1.64-1.17,0-2.15.15-2.95.44-.8.3-1.49.63-2.07,1-.58.37-1.09.7-1.51,1-.42.3-.84.44-1.25.44-.32,0-.61-.09-.85-.26-.24-.17-.44-.38-.58-.63l-.86-1.53c1.51-1.46,3.13-2.54,4.87-3.26s3.67-1.08,5.79-1.08c1.53,0,2.88.25,4.07.75,1.19.5,2.18,1.2,2.99,2.1.81.9,1.42,1.98,1.83,3.26.41,1.27.62,2.67.62,4.2v17.45Zm-12.44-2.94c.84,0,1.62-.08,2.32-.26.7-.17,1.36-.41,1.98-.73.62-.31,1.21-.7,1.78-1.14.57-.45,1.12-.96,1.66-1.53v-5.63c-2.21,0-4.08.14-5.63.42s-2.8.65-3.77,1.1c-.97.45-1.67.98-2.11,1.6-.44.61-.66,1.3-.66,2.06s.12,1.35.35,1.87.55.95.94,1.29c.39.33.86.58,1.4.73.54.15,1.12.23,1.75.23Z"/>
    <path class="cls-4" d="m260.07,491.35c-.68,0-1.11-.33-1.29-1l-.43-3.31c-1.17,1.42-2.5,2.55-4,3.41-1.5.85-3.22,1.28-5.16,1.28-1.56,0-2.98-.3-4.26-.9-1.27-.6-2.36-1.49-3.26-2.65-.9-1.17-1.59-2.62-2.07-4.36-.48-1.74-.73-3.74-.73-6,0-2.01.27-3.88.81-5.62s1.32-3.24,2.33-4.51c1.01-1.27,2.25-2.28,3.7-3,1.46-.73,3.11-1.09,4.96-1.09,1.67,0,3.1.28,4.28.85s2.24,1.36,3.18,2.38v-15.14h4.79v39.67h-2.85Zm-9.29-3.5c1.56,0,2.93-.36,4.11-1.08s2.26-1.73,3.25-3.04v-13.2c-.88-1.19-1.85-2.02-2.89-2.49-1.05-.48-2.21-.71-3.49-.71-2.55,0-4.51.91-5.87,2.72s-2.05,4.4-2.05,7.76c0,1.78.15,3.3.46,4.56.31,1.27.75,2.31,1.35,3.12.59.82,1.32,1.41,2.18,1.79s1.85.57,2.96.57Z"/>
    <path class="cls-4" d="m267.26,452.76h4.17c.47,0,.84.12,1.13.35s.5.53.65.89l10.91,27.23c.25.61.48,1.27.69,1.99.21.72.41,1.46.61,2.24.16-.77.34-1.52.53-2.24.19-.72.41-1.38.66-1.99l10.85-27.23c.12-.3.34-.59.65-.85.3-.26.68-.39,1.13-.39h4.2l-15.73,38.59h-4.71l-15.73-38.59Z"/>
    <path class="cls-4" d="m314.01,455.5c0,.47-.1.9-.28,1.31-.19.4-.44.76-.75,1.08-.31.31-.68.56-1.09.74-.41.18-.85.27-1.32.27s-.9-.09-1.31-.27c-.4-.18-.76-.43-1.08-.74s-.56-.67-.74-1.08-.27-.84-.27-1.31.09-.91.27-1.33.43-.79.74-1.1c.31-.31.67-.56,1.08-.74.4-.18.84-.27,1.31-.27s.91.09,1.32.27c.41.18.78.43,1.09.74.31.31.56.68.75,1.1.19.42.28.87.28,1.33Zm-1.08,8.56v27.28h-4.79v-27.28h4.79Z"/>
    <path class="cls-4" d="m332.19,463.64c1.63,0,3.14.27,4.53.82,1.38.55,2.58,1.34,3.58,2.37,1,1.03,1.79,2.31,2.36,3.82.57,1.52.85,3.25.85,5.18,0,.75-.08,1.26-.24,1.51-.16.25-.47.38-.91.38h-18.15c.04,1.72.27,3.22.7,4.5.43,1.28,1.02,2.34,1.78,3.19.75.85,1.65,1.49,2.69,1.91s2.21.63,3.5.63c1.2,0,2.24-.14,3.11-.42.87-.28,1.62-.58,2.25-.9s1.15-.62,1.58-.9c.42-.28.79-.42,1.09-.42.39,0,.7.15.92.46l1.35,1.75c-.59.72-1.3,1.34-2.13,1.87s-1.71.96-2.65,1.31c-.94.34-1.92.6-2.92.77-1.01.17-2,.26-2.99.26-1.88,0-3.62-.32-5.21-.96-1.59-.64-2.96-1.57-4.12-2.8-1.16-1.23-2.06-2.75-2.71-4.56-.65-1.81-.97-3.9-.97-6.25,0-1.9.29-3.68.88-5.33.58-1.65,1.42-3.08,2.52-4.29,1.09-1.21,2.43-2.16,4.01-2.86,1.58-.69,3.36-1.04,5.33-1.04Zm.11,3.53c-2.31,0-4.14.67-5.47,2.01-1.33,1.34-2.15,3.19-2.48,5.56h14.84c0-1.11-.15-2.13-.46-3.06-.31-.92-.75-1.72-1.35-2.4-.59-.67-1.31-1.19-2.17-1.56-.85-.37-1.83-.55-2.92-.55Z"/>
    <path class="cls-4" d="m346.06,464.07h3.77c.39,0,.72.1.97.3.25.2.42.43.51.7l5.22,17.56c.14.65.28,1.27.4,1.87.13.6.23,1.21.32,1.82.14-.61.3-1.22.48-1.82s.37-1.23.57-1.87l5.76-17.67c.09-.27.25-.49.47-.67s.51-.27.85-.27h2.07c.36,0,.65.09.89.27.23.18.39.4.48.67l5.63,17.67c.2.63.37,1.25.53,1.86s.3,1.21.44,1.8c.09-.59.21-1.21.35-1.86.14-.65.29-1.25.46-1.8l5.33-17.56c.09-.29.26-.52.51-.71.25-.19.55-.28.89-.28h3.61l-8.83,27.28h-3.8c-.47,0-.79-.3-.97-.92l-6.03-18.5c-.14-.41-.26-.83-.35-1.25s-.18-.84-.27-1.25c-.09.41-.18.83-.27,1.27s-.21.85-.35,1.27l-6.11,18.47c-.2.61-.57.92-1.11.92h-3.61l-8.83-27.28Z"/>
  </g>
  <path class="cls-3" d="m261.37,23.96c-111.01,0-201.01,90-201.01,201.01s90,201.01,201.01,201.01,201.01-90,201.01-201.01S372.39,23.96,261.37,23.96Z"/>
  <g>
    <path class="cls-2" d="m279.08,238.43c0,5.96,0,11.29,0,16.63,0,10.02.03,20.05-.01,30.07-.03,7.57-2.42,10.56-8.29,10.56-7.91,0-15.83.01-23.74,0-4.71,0-6.95-2.48-7.58-8.35-.12-1.1-.1-2.22-.1-3.33,0-13.7,0-27.4,0-41.1,0-1.32,0-2.63,0-4.48-1.78,0-3.33.05-4.87,0-5.46-.19-8-3.5-8-10.42,0-14.48.4-28.98-.14-43.43-.38-10.45,6.56-17.35,12.09-18.73,9.96-2.48,20.07-2.43,30.17-1.64,3.49.27,6.98.78,10.44,1.45,4.35.84,8.06,3.53,10.44,8.17,1.31,2.55,2.3,5.86,2.35,8.86.23,15.14.11,30.29.1,45.44,0,6.73-2.52,10.05-7.83,10.3-1.56.07-3.12.01-5.04.01Z"/>
    <circle class="cls-2" cx="259.64" cy="147.87" r="20.12"/>
    <polygon class="cls-1" points="350.04 312.32 173.36 312.32 227.78 263.75 286.77 263.75 350.04 312.32"/>
  </g>
</svg>