<?xml version="1.0" encoding="utf-8"?>
<!-- Generator: Adobe Illustrator 28.0.0, SVG Export Plug-In . SVG Version: 6.00 Build 0)  -->
<svg version="1.1" xmlns="http://www.w3.org/2000/svg" xmlns:xlink="http://www.w3.org/1999/xlink" x="0px" y="0px"
	 viewBox="0 0 512 512" style="enable-background:new 0 0 512 512;" xml:space="preserve">
<style type="text/css">
	.st0{fill:url(#SVGID_1_);}
	.st1{fill:url(#SVGID_00000111885534858319888790000006766848726457742740_);}
	.st2{fill:url(#SVGID_00000028306859718252144040000013042050826718153863_);}
	.st3{fill:none;stroke:#FFFFFF;stroke-width:15;stroke-miterlimit:10;}
	.st4{fill:#FFFFFF;}
	.st5{fill:none;stroke:#FFFFFF;stroke-width:9;stroke-miterlimit:10;}
	.st6{fill:url(#SVGID_00000071546275254063238740000006643298722129342634_);}
	.st7{fill:none;stroke:#FFFFFF;stroke-width:15;stroke-linecap:round;stroke-linejoin:round;stroke-miterlimit:10;}
	.st8{fill:none;stroke:#FFFFFF;stroke-width:10;stroke-linecap:round;stroke-linejoin:round;stroke-miterlimit:10;}
	.st9{fill:url(#SVGID_00000112608693552650917850000014882193965489700252_);}
	.st10{fill:url(#SVGID_00000042717367466917110970000018210942446538758333_);}
	.st11{fill:url(#SVGID_00000008839157527950256140000009891185941948341399_);}
	.st12{fill:url(#SVGID_00000048468278146528932800000016312332614937378230_);}
	.st13{fill:url(#SVGID_00000080188191532415501970000003262374910175932555_);}
	.st14{fill:url(#SVGID_00000031919297903219452660000002240045617897759116_);}
	.st15{fill:url(#SVGID_00000106107810368512868190000006089076801140070041_);}
	.st16{fill:url(#SVGID_00000108306366296728180390000006863163945178999973_);}
	.st17{fill:url(#SVGID_00000072267686913040836300000009866840221549329289_);}
	.st18{fill:url(#SVGID_00000000944492419691084630000013533569920191307415_);}
	.st19{fill:url(#SVGID_00000005262459132602194190000002340508327762341804_);}
	.st20{fill:url(#SVGID_00000129164217133699544230000016457204279891493032_);}
	.st21{fill:url(#SVGID_00000125582065328996088410000010268524516223751327_);}
	.st22{fill:url(#SVGID_00000178915060414427685570000001683334635414139281_);}
	.st23{fill:url(#SVGID_00000109022250650690353350000002667666655808621239_);}
	.st24{fill:url(#SVGID_00000142177924523981373490000016370647208876689052_);}
	.st25{fill:url(#SVGID_00000085956176848692026440000004173198815152433085_);}
	.st26{fill:url(#SVGID_00000108299023371875366580000004194121260881120671_);}
	.st27{fill:#BCBEC0;}
	.st28{fill:url(#SVGID_00000102525599021413165700000003910724992874906538_);}
	.st29{fill:url(#SVGID_00000143601502114561907490000003670804327598990756_);}
	.st30{fill-rule:evenodd;clip-rule:evenodd;fill:#FFFFFF;}
	.st31{clip-path:url(#SVGID_00000054969875014532438910000017197330481102593958_);}
	.st32{fill:none;stroke:#FFFFFF;stroke-width:15.6378;stroke-miterlimit:10;}
	.st33{fill:none;stroke:#FFFFFF;stroke-width:9.8091;stroke-linecap:round;stroke-linejoin:round;stroke-miterlimit:10;}
	.st34{fill:url(#SVGID_00000176003484934665383530000013740583748713595798_);}
	.st35{fill:none;stroke:#FFFFFF;stroke-width:14.3924;stroke-linecap:round;stroke-linejoin:round;stroke-miterlimit:10;}
	.st36{fill:none;stroke:#FFFFFF;stroke-width:8;stroke-linecap:round;stroke-linejoin:round;stroke-miterlimit:10;}
	.st37{fill:url(#SVGID_00000082348510531363282840000010879219972730760354_);}
	.st38{fill:#FFFFFF;stroke:#FFFFFF;stroke-width:2.9178;stroke-miterlimit:10;}
</style>
<g id="GPS">
</g>
<g id="Icons">
	<g>
		<linearGradient id="SVGID_1_" gradientUnits="userSpaceOnUse" x1="52.5652" y1="226.2552" x2="459.4348" y2="226.2552">
			<stop  offset="0" style="stop-color:#F15D22"/>
			<stop  offset="1" style="stop-color:#ED2024"/>
		</linearGradient>
		<circle class="st0" cx="256" cy="226.26" r="203.43"/>
		<g>
			<path class="st3" d="M165.15,170.05c0,0,0,77.85,0,93.83c0,13.06,7.22,14.61,7.22,14.61s42.64,17.69,46.06,19.08
				c5.01,2.03,9.32,2.28,18.15-1.1c0,0,44.52-16.2,48.41-17.81c3.9-1.6,9.51-1.37,13.98,1.6c3.66,2.44,30.82,20.42,34.37,22.68
				c3.88,2.48,8.94-0.96,8.94-5.27c0-2.3,4.35-112.05,4.58-122.13c0.23-10.08-6.64-13.98-13.29-17.41s-34.5-14.11-40.21-16.65
				c-6.07-2.71-11.43-2.75-17.53,0.39c-6.16,3.17-38.04,19.48-41.93,21.77c-3.9,2.29-10.63,1.83-18.33-2.52
				c-8.22-4.64-28-14.52-34.31-16.96c-7.73-2.98-16.15,0.23-16.1,9.32C165.22,165.33,165.15,170.05,165.15,170.05z"/>
			<path class="st4" d="M295.06,209.67l-52.27,21.49c-1.36,0.56-2.01,2.11-1.46,3.47c0.25,0.61,0.72,1.11,1.32,1.4l20,9.55l9.58,20
				c0.44,0.93,1.38,1.52,2.4,1.52h0.08c1.05-0.03,1.99-0.68,2.39-1.65l21.46-52.28c0.58-1.35-0.04-2.92-1.39-3.5
				C296.5,209.38,295.73,209.38,295.06,209.67z"/>
			<path class="st4" d="M216.03,238.06l52.27-21.49c1.36-0.56,2.01-2.11,1.46-3.47c-0.25-0.61-0.72-1.11-1.32-1.4l-20-9.55l-9.58-20
				c-0.44-0.93-1.38-1.52-2.4-1.52h-0.08c-1.05,0.03-1.99,0.68-2.39,1.65l-21.46,52.28c-0.58,1.35,0.04,2.92,1.39,3.5
				C214.6,238.35,215.36,238.35,216.03,238.06z"/>
		</g>
	</g>
	<g>
		<path d="M135.79,450.76c0.22,0.12,0.48,0.35,0.77,0.71l22.35,29.09c-0.05-0.47-0.09-0.92-0.11-1.36
			c-0.02-0.44-0.03-0.87-0.03-1.28v-27.34h4.58v38.59h-2.64c-0.41,0-0.76-0.07-1.04-0.22c-0.28-0.14-0.55-0.39-0.82-0.73
			l-22.33-29.06c0.04,0.45,0.06,0.89,0.08,1.32c0.02,0.43,0.03,0.83,0.03,1.18v27.5h-4.58v-38.59h2.69
			C135.22,450.59,135.57,450.64,135.79,450.76z"/>
		<path d="M192.06,489.18h-2.13c-0.47,0-0.84-0.07-1.13-0.22c-0.29-0.14-0.48-0.45-0.57-0.92l-0.54-2.53
			c-0.72,0.65-1.42,1.23-2.1,1.74c-0.68,0.51-1.4,0.94-2.15,1.29c-0.75,0.35-1.56,0.62-2.41,0.79c-0.85,0.18-1.8,0.27-2.84,0.27
			c-1.06,0-2.05-0.15-2.98-0.45c-0.93-0.3-1.73-0.74-2.41-1.34c-0.68-0.59-1.23-1.35-1.63-2.26c-0.4-0.91-0.61-1.99-0.61-3.23
			c0-1.08,0.3-2.12,0.89-3.12c0.59-1,1.55-1.89,2.87-2.66c1.32-0.78,3.05-1.41,5.18-1.91c2.14-0.5,4.75-0.74,7.84-0.74v-2.14
			c0-2.13-0.45-3.74-1.36-4.84c-0.91-1.09-2.25-1.64-4.03-1.64c-1.17,0-2.15,0.15-2.95,0.44c-0.8,0.3-1.49,0.63-2.07,1
			c-0.58,0.37-1.09,0.7-1.51,1c-0.42,0.3-0.84,0.44-1.25,0.44c-0.32,0-0.61-0.09-0.85-0.26c-0.24-0.17-0.44-0.38-0.58-0.63
			l-0.86-1.53c1.51-1.46,3.13-2.54,4.87-3.26c1.74-0.72,3.67-1.08,5.79-1.08c1.53,0,2.88,0.25,4.07,0.75c1.18,0.5,2.18,1.2,2.99,2.1
			s1.42,1.98,1.83,3.26c0.41,1.27,0.62,2.67,0.62,4.2V489.18z M179.62,486.24c0.84,0,1.62-0.08,2.32-0.26
			c0.7-0.17,1.36-0.41,1.98-0.73c0.62-0.31,1.21-0.7,1.78-1.14c0.57-0.45,1.12-0.96,1.66-1.53v-5.63c-2.21,0-4.08,0.14-5.63,0.42
			s-2.8,0.65-3.77,1.1c-0.97,0.45-1.67,0.98-2.11,1.6s-0.66,1.3-0.66,2.06c0,0.72,0.12,1.35,0.35,1.87
			c0.23,0.52,0.55,0.95,0.94,1.29c0.4,0.33,0.86,0.58,1.4,0.73C178.41,486.17,178.99,486.24,179.62,486.24z"/>
		<path d="M195.03,461.9h3.93c0.38,0,0.69,0.1,0.94,0.3c0.25,0.2,0.43,0.43,0.54,0.7l6.92,17.56c0.25,0.65,0.45,1.29,0.59,1.94
			c0.14,0.65,0.28,1.28,0.4,1.91c0.14-0.63,0.3-1.27,0.46-1.91c0.16-0.65,0.37-1.29,0.62-1.94l7-17.56
			c0.11-0.29,0.28-0.52,0.53-0.71c0.24-0.19,0.54-0.28,0.9-0.28h3.74l-11.12,27.28h-4.34L195.03,461.9z"/>
		<path d="M232.46,453.33c0,0.47-0.09,0.9-0.28,1.31c-0.19,0.4-0.44,0.76-0.75,1.08s-0.68,0.56-1.09,0.74
			c-0.41,0.18-0.85,0.27-1.32,0.27s-0.9-0.09-1.31-0.27c-0.4-0.18-0.76-0.43-1.08-0.74s-0.56-0.67-0.74-1.08
			c-0.18-0.4-0.27-0.84-0.27-1.31c0-0.47,0.09-0.91,0.27-1.33c0.18-0.42,0.43-0.79,0.74-1.1c0.31-0.31,0.67-0.56,1.08-0.74
			c0.4-0.18,0.84-0.27,1.31-0.27s0.91,0.09,1.32,0.27c0.41,0.18,0.78,0.43,1.09,0.74c0.31,0.31,0.57,0.68,0.75,1.1
			C232.37,452.42,232.46,452.87,232.46,453.33z M231.38,461.9v27.28h-4.79V461.9H231.38z"/>
		<path d="M249.02,461.44c1.19,0,2.29,0.13,3.33,0.39c1.03,0.26,1.97,0.64,2.81,1.14h7.41v1.78c0,0.59-0.38,0.97-1.13,1.13
			l-3.1,0.43c0.61,1.17,0.92,2.47,0.92,3.9c0,1.33-0.26,2.54-0.77,3.62c-0.51,1.09-1.22,2.02-2.13,2.79
			c-0.91,0.77-1.98,1.36-3.23,1.78c-1.25,0.41-2.62,0.62-4.11,0.62c-1.27,0-2.48-0.15-3.61-0.46c-0.58,0.37-1.01,0.77-1.31,1.2
			c-0.3,0.43-0.44,0.85-0.44,1.25c0,0.67,0.26,1.17,0.78,1.52c0.52,0.34,1.21,0.59,2.07,0.74c0.86,0.15,1.84,0.22,2.93,0.22
			c1.1,0,2.21,0,3.35,0c1.14,0,2.26,0.1,3.35,0.3c1.09,0.2,2.07,0.53,2.94,0.98c0.86,0.46,1.55,1.08,2.07,1.88
			c0.52,0.8,0.78,1.83,0.78,3.11c0,1.18-0.29,2.33-0.88,3.43s-1.42,2.09-2.52,2.96c-1.1,0.86-2.43,1.55-4.01,2.07
			c-1.58,0.52-3.37,0.78-5.36,0.78c-1.99,0-3.74-0.2-5.24-0.59c-1.5-0.4-2.74-0.93-3.73-1.59c-0.99-0.67-1.73-1.43-2.22-2.31
			c-0.49-0.87-0.74-1.78-0.74-2.74c0-1.35,0.43-2.49,1.28-3.44c0.85-0.94,2.02-1.69,3.51-2.25c-0.77-0.36-1.39-0.84-1.84-1.44
			c-0.46-0.6-0.69-1.4-0.69-2.41c0-0.39,0.07-0.8,0.22-1.22c0.14-0.42,0.36-0.84,0.66-1.25c0.3-0.41,0.66-0.81,1.09-1.18
			c0.43-0.38,0.93-0.71,1.51-0.99c-1.35-0.75-2.4-1.75-3.16-3c-0.76-1.25-1.15-2.71-1.15-4.38c0-1.33,0.26-2.54,0.77-3.62
			c0.51-1.09,1.23-2.01,2.14-2.77c0.92-0.76,2.01-1.35,3.27-1.76C246.13,461.65,247.51,461.44,249.02,461.44z M257.53,490.56
			c0-0.7-0.19-1.25-0.57-1.68s-0.89-0.75-1.54-0.98c-0.65-0.23-1.39-0.4-2.24-0.51c-0.84-0.11-1.73-0.17-2.67-0.17
			c-0.93,0-1.89,0-2.86,0c-0.97,0-1.89-0.12-2.77-0.36c-1.02,0.49-1.85,1.08-2.49,1.78c-0.64,0.7-0.96,1.54-0.96,2.51
			c0,0.61,0.16,1.18,0.47,1.71c0.31,0.53,0.79,0.99,1.44,1.38s1.46,0.69,2.44,0.92c0.98,0.22,2.13,0.34,3.46,0.34
			c1.29,0,2.45-0.12,3.47-0.36s1.89-0.58,2.6-1.02c0.71-0.44,1.25-0.96,1.63-1.57S257.53,491.3,257.53,490.56z M249.02,475.85
			c0.97,0,1.83-0.13,2.57-0.4c0.75-0.27,1.37-0.65,1.87-1.13c0.5-0.48,0.88-1.06,1.13-1.74c0.25-0.67,0.38-1.41,0.38-2.22
			c0-1.67-0.51-3-1.52-3.99c-1.01-0.99-2.49-1.48-4.43-1.48c-1.92,0-3.39,0.49-4.4,1.48s-1.52,2.32-1.52,3.99
			c0,0.81,0.13,1.55,0.39,2.22c0.26,0.67,0.64,1.25,1.14,1.74c0.5,0.49,1.12,0.86,1.86,1.13
			C247.23,475.71,248.07,475.85,249.02,475.85z"/>
		<path d="M287.4,489.18h-2.13c-0.47,0-0.84-0.07-1.13-0.22c-0.29-0.14-0.48-0.45-0.57-0.92l-0.54-2.53
			c-0.72,0.65-1.42,1.23-2.1,1.74s-1.4,0.94-2.15,1.29c-0.75,0.35-1.56,0.62-2.41,0.79c-0.85,0.18-1.8,0.27-2.84,0.27
			c-1.06,0-2.05-0.15-2.98-0.45s-1.73-0.74-2.41-1.34s-1.23-1.35-1.63-2.26c-0.4-0.91-0.61-1.99-0.61-3.23
			c0-1.08,0.3-2.12,0.89-3.12c0.59-1,1.55-1.89,2.87-2.66c1.32-0.78,3.05-1.41,5.18-1.91c2.14-0.5,4.75-0.74,7.84-0.74v-2.14
			c0-2.13-0.45-3.74-1.36-4.84c-0.91-1.09-2.25-1.64-4.03-1.64c-1.17,0-2.15,0.15-2.95,0.44c-0.8,0.3-1.49,0.63-2.07,1
			c-0.58,0.37-1.09,0.7-1.51,1c-0.42,0.3-0.84,0.44-1.25,0.44c-0.32,0-0.61-0.09-0.85-0.26c-0.24-0.17-0.44-0.38-0.58-0.63
			l-0.86-1.53c1.51-1.46,3.13-2.54,4.88-3.26c1.74-0.72,3.67-1.08,5.79-1.08c1.53,0,2.88,0.25,4.07,0.75c1.19,0.5,2.18,1.2,2.99,2.1
			c0.81,0.9,1.42,1.98,1.83,3.26c0.41,1.27,0.62,2.67,0.62,4.2V489.18z M274.96,486.24c0.84,0,1.62-0.08,2.32-0.26
			c0.7-0.17,1.36-0.41,1.98-0.73c0.62-0.31,1.21-0.7,1.78-1.14c0.57-0.45,1.12-0.96,1.66-1.53v-5.63c-2.21,0-4.08,0.14-5.63,0.42
			s-2.8,0.65-3.77,1.1c-0.97,0.45-1.67,0.98-2.11,1.6c-0.44,0.61-0.66,1.3-0.66,2.06c0,0.72,0.12,1.35,0.35,1.87
			s0.55,0.95,0.94,1.29c0.39,0.33,0.86,0.58,1.4,0.73C273.74,486.17,274.33,486.24,274.96,486.24z"/>
		<path d="M302.94,489.61c-2.16,0-3.81-0.6-4.97-1.8c-1.16-1.2-1.74-2.94-1.74-5.2v-16.7h-3.29c-0.29,0-0.53-0.08-0.73-0.26
			c-0.2-0.17-0.3-0.44-0.3-0.79v-1.91l4.47-0.57l1.1-8.43c0.04-0.27,0.15-0.49,0.35-0.66c0.2-0.17,0.45-0.26,0.75-0.26h2.42v9.4
			h7.81v3.47h-7.81v16.37c0,1.15,0.28,2,0.83,2.56c0.56,0.56,1.27,0.83,2.15,0.83c0.5,0,0.94-0.07,1.31-0.2s0.69-0.28,0.96-0.44
			c0.27-0.16,0.5-0.31,0.69-0.44s0.35-0.2,0.5-0.2c0.25,0,0.48,0.15,0.67,0.46l1.4,2.29c-0.83,0.77-1.82,1.38-2.99,1.82
			C305.38,489.39,304.17,489.61,302.94,489.61z"/>
		<path d="M321.17,453.33c0,0.47-0.09,0.9-0.28,1.31s-0.44,0.76-0.75,1.08c-0.31,0.31-0.68,0.56-1.09,0.74
			c-0.41,0.18-0.85,0.27-1.32,0.27s-0.9-0.09-1.31-0.27c-0.4-0.18-0.76-0.43-1.08-0.74s-0.56-0.67-0.74-1.08
			c-0.18-0.4-0.27-0.84-0.27-1.31c0-0.47,0.09-0.91,0.27-1.33c0.18-0.42,0.43-0.79,0.74-1.1c0.31-0.31,0.67-0.56,1.08-0.74
			c0.4-0.18,0.84-0.27,1.31-0.27s0.91,0.09,1.32,0.27c0.41,0.18,0.78,0.43,1.09,0.74c0.31,0.31,0.57,0.68,0.75,1.1
			S321.17,452.87,321.17,453.33z M320.09,461.9v27.28h-4.79V461.9H320.09z"/>
		<path d="M339.59,461.47c1.99,0,3.79,0.33,5.4,1c1.61,0.66,2.97,1.61,4.09,2.83s1.98,2.7,2.59,4.43c0.6,1.73,0.9,3.67,0.9,5.8
			c0,2.15-0.3,4.09-0.9,5.82c-0.6,1.72-1.46,3.2-2.59,4.42s-2.49,2.16-4.09,2.81c-1.61,0.65-3.41,0.98-5.4,0.98s-3.79-0.33-5.4-0.98
			c-1.61-0.66-2.98-1.59-4.11-2.81s-2-2.69-2.61-4.42s-0.92-3.66-0.92-5.82c0-2.14,0.3-4.07,0.92-5.8c0.61-1.73,1.48-3.21,2.61-4.43
			s2.5-2.16,4.11-2.83C335.8,461.8,337.6,461.47,339.59,461.47z M339.59,485.81c2.69,0,4.7-0.9,6.03-2.71
			c1.33-1.8,1.99-4.32,1.99-7.55c0-3.25-0.66-5.78-1.99-7.59c-1.33-1.81-3.34-2.72-6.03-2.72c-1.36,0-2.55,0.23-3.55,0.7
			c-1.01,0.47-1.84,1.14-2.52,2.02c-0.67,0.88-1.18,1.96-1.51,3.25c-0.33,1.28-0.5,2.73-0.5,4.35c0,1.62,0.17,3.06,0.5,4.34
			s0.83,2.35,1.51,3.22c0.67,0.87,1.51,1.54,2.52,2.01C337.04,485.58,338.22,485.81,339.59,485.81z"/>
		<path d="M358.49,489.18V461.9h2.86c0.68,0,1.11,0.33,1.29,1l0.38,2.96c1.19-1.31,2.51-2.37,3.97-3.18
			c1.46-0.81,3.16-1.21,5.08-1.21c1.49,0,2.81,0.25,3.95,0.74c1.14,0.49,2.09,1.19,2.86,2.1c0.76,0.91,1.34,2,1.74,3.27
			c0.4,1.27,0.59,2.68,0.59,4.23v17.37h-4.79v-17.37c0-2.06-0.47-3.67-1.41-4.81c-0.94-1.14-2.38-1.71-4.32-1.71
			c-1.42,0-2.74,0.34-3.97,1.02c-1.23,0.68-2.37,1.61-3.41,2.77v20.09H358.49z"/>
	</g>
</g>
<g id="References">
</g>
</svg>
