<?xml version="1.0" encoding="utf-8"?>
<!-- Generator: Adobe Illustrator 28.0.0, SVG Export Plug-In . SVG Version: 6.00 Build 0)  -->
<svg version="1.1" xmlns="http://www.w3.org/2000/svg" xmlns:xlink="http://www.w3.org/1999/xlink" x="0px" y="0px"
	 viewBox="0 0 512 512" style="enable-background:new 0 0 512 512;" xml:space="preserve">
<style type="text/css">
	.st0{fill:url(#SVGID_1_);}
	.st1{fill:url(#SVGID_00000088836280912851465710000012005102487687434916_);}
	.st2{fill:url(#SVGID_00000092415405428559428250000017782399374293372055_);}
	.st3{fill:none;stroke:#FFFFFF;stroke-width:15;stroke-miterlimit:10;}
	.st4{fill:#FFFFFF;}
	.st5{fill:none;stroke:#FFFFFF;stroke-width:9;stroke-miterlimit:10;}
	.st6{fill:url(#SVGID_00000151540462805546765210000004682976512755322500_);}
	.st7{fill:none;stroke:#FFFFFF;stroke-width:15;stroke-linecap:round;stroke-linejoin:round;stroke-miterlimit:10;}
	.st8{fill:none;stroke:#FFFFFF;stroke-width:10;stroke-linecap:round;stroke-linejoin:round;stroke-miterlimit:10;}
	.st9{fill:url(#SVGID_00000155828113054570899570000013417745117098236598_);}
	.st10{fill:url(#SVGID_00000183932968026440907280000005320758060851988112_);}
	.st11{fill:url(#SVGID_00000182502901625717576810000002974417435008656830_);}
	.st12{fill:url(#SVGID_00000142149010612716000180000016364255276833470622_);}
	.st13{fill:url(#SVGID_00000136398680306306692190000009844676485730810249_);}
	.st14{fill:url(#SVGID_00000147182791950953949710000012932700567677670280_);}
	.st15{fill:url(#SVGID_00000096765347259304795490000012678025600182768526_);}
	.st16{fill:url(#SVGID_00000051382249758853418270000014106377387661290891_);}
	.st17{fill:url(#SVGID_00000044167460641313407360000011835583837758434716_);}
	.st18{fill:url(#SVGID_00000155143872710777101350000016198948927733105540_);}
	.st19{fill:url(#SVGID_00000161616422658055593390000001768308408007848602_);}
	.st20{fill:url(#SVGID_00000101809747166791208540000015443548014647143096_);}
	.st21{fill:url(#SVGID_00000078030624770032823910000001193674662693061509_);}
	.st22{fill:url(#SVGID_00000169517876279730108760000000893672791341653898_);}
	.st23{fill:url(#SVGID_00000016789633498045858970000001096175646193016457_);}
	.st24{fill:url(#SVGID_00000036958801547223632360000005310448226180720267_);}
	.st25{fill:url(#SVGID_00000178915455443022002170000014911987212918856350_);}
	.st26{fill:url(#SVGID_00000085225518569373974240000011241129328808237735_);}
	.st27{fill:#BCBEC0;}
	.st28{fill:url(#SVGID_00000182517782007633445130000018186548904813917858_);}
	.st29{fill:url(#SVGID_00000018949556136473084090000014854629742633754254_);}
	.st30{fill-rule:evenodd;clip-rule:evenodd;fill:#FFFFFF;}
	.st31{clip-path:url(#SVGID_00000021085732335756701180000007276448265806053545_);}
	.st32{fill:none;stroke:#FFFFFF;stroke-width:15.6378;stroke-miterlimit:10;}
	.st33{fill:none;stroke:#FFFFFF;stroke-width:9.8091;stroke-linecap:round;stroke-linejoin:round;stroke-miterlimit:10;}
	.st34{fill:url(#SVGID_00000112621698134559671070000016218320624359108793_);}
	.st35{fill:none;stroke:#FFFFFF;stroke-width:14.3924;stroke-linecap:round;stroke-linejoin:round;stroke-miterlimit:10;}
	.st36{fill:none;stroke:#FFFFFF;stroke-width:8;stroke-linecap:round;stroke-linejoin:round;stroke-miterlimit:10;}
	.st37{fill:url(#SVGID_00000174579106365698460360000016843658240679028389_);}
	.st38{fill:#FFFFFF;stroke:#FFFFFF;stroke-width:2.9178;stroke-miterlimit:10;}
</style>
<g id="GPS">
</g>
<g id="Icons">
	<g>
		<linearGradient id="SVGID_1_" gradientUnits="userSpaceOnUse" x1="52.5652" y1="226.2552" x2="459.4348" y2="226.2552">
			<stop  offset="0" style="stop-color:#F15D22"/>
			<stop  offset="1" style="stop-color:#ED2024"/>
		</linearGradient>
		<circle class="st0" cx="256" cy="226.26" r="203.43"/>
	</g>
	<g>
		<path d="M224.55,450.59v4.26h-18.53v13.49h15.84v4.25h-15.84v16.59h-5.25v-38.59H224.55z"/>
		<path d="M235.84,449.51v39.67h-4.79v-39.67H235.84z"/>
		<path d="M255.34,461.47c1.99,0,3.79,0.33,5.4,1c1.61,0.66,2.97,1.61,4.09,2.83s1.98,2.7,2.59,4.43c0.6,1.73,0.9,3.67,0.9,5.8
			c0,2.15-0.3,4.09-0.9,5.82s-1.46,3.2-2.59,4.42s-2.49,2.16-4.09,2.81c-1.61,0.65-3.41,0.98-5.4,0.98c-1.99,0-3.79-0.33-5.4-0.98
			c-1.61-0.66-2.98-1.59-4.11-2.81c-1.13-1.22-2-2.69-2.61-4.42s-0.92-3.66-0.92-5.82c0-2.14,0.31-4.07,0.92-5.8
			c0.61-1.73,1.48-3.21,2.61-4.43c1.13-1.22,2.5-2.16,4.11-2.83C251.54,461.8,253.34,461.47,255.34,461.47z M255.34,485.81
			c2.69,0,4.7-0.9,6.03-2.71c1.33-1.8,1.99-4.32,1.99-7.55c0-3.25-0.66-5.78-1.99-7.59c-1.33-1.81-3.34-2.72-6.03-2.72
			c-1.36,0-2.55,0.23-3.55,0.7c-1.01,0.47-1.84,1.14-2.52,2.02s-1.18,1.96-1.51,3.25c-0.33,1.28-0.5,2.73-0.5,4.35
			c0,1.62,0.17,3.06,0.5,4.34c0.33,1.27,0.83,2.35,1.51,3.22c0.67,0.87,1.51,1.54,2.52,2.01
			C252.79,485.58,253.97,485.81,255.34,485.81z"/>
		<path d="M270.69,461.9h3.77c0.39,0,0.72,0.1,0.97,0.3c0.25,0.2,0.42,0.43,0.51,0.7l5.22,17.56c0.14,0.65,0.28,1.27,0.4,1.87
			c0.13,0.6,0.23,1.21,0.32,1.82c0.14-0.61,0.3-1.22,0.48-1.82s0.37-1.23,0.57-1.87l5.76-17.67c0.09-0.27,0.25-0.49,0.47-0.67
			c0.22-0.18,0.51-0.27,0.85-0.27h2.07c0.36,0,0.66,0.09,0.89,0.27c0.23,0.18,0.39,0.4,0.48,0.67l5.63,17.67
			c0.2,0.63,0.37,1.25,0.53,1.86s0.3,1.21,0.45,1.8c0.09-0.59,0.21-1.21,0.35-1.86c0.14-0.65,0.3-1.25,0.46-1.8l5.33-17.56
			c0.09-0.29,0.26-0.52,0.51-0.71c0.25-0.19,0.55-0.28,0.89-0.28h3.61l-8.83,27.28h-3.8c-0.47,0-0.79-0.3-0.97-0.92l-6.03-18.5
			c-0.14-0.41-0.26-0.83-0.35-1.25s-0.18-0.84-0.27-1.25c-0.09,0.41-0.18,0.83-0.27,1.27s-0.21,0.85-0.35,1.27l-6.11,18.47
			c-0.2,0.61-0.57,0.92-1.1,0.92h-3.61L270.69,461.9z"/>
	</g>
	<g>
		<defs>
			<circle id="SVGID_00000005947187838497484740000006959345447098169222_" cx="256" cy="223.67" r="88.07"/>
		</defs>
		<clipPath id="SVGID_00000006681575506159930670000000121320600104058284_">
			<use xlink:href="#SVGID_00000005947187838497484740000006959345447098169222_"  style="overflow:visible;"/>
		</clipPath>
		<g style="clip-path:url(#SVGID_00000006681575506159930670000000121320600104058284_);">
			<g>
				<g>
					<path class="st32" d="M281.58,370.7c-6.23,6.23-12.97,11.66-20.07,16.29c11.61,5.42,22.7,12.31,33.01,20.65
						c4.36-3.53,8.58-7.31,12.64-11.37"/>
					<path class="st32" d="M105.38,370.7c6.23,6.23,12.97,11.66,20.07,16.29c43-20.08,93.06-20.08,136.06,0
						c7.1-4.64,13.83-10.06,20.07-16.29 M256,345.12c-34.53,34.53-90.51,34.53-125.04,0"/>
					<path class="st32" d="M130.96,345.12c34.53,34.53,90.51,34.53,125.04,0 M230.42,319.54c-20.4,20.4-53.49,20.4-73.89,0"/>
					<path class="st32" d="M156.53,319.54c20.4,20.4,53.49,20.4,73.89,0 M204.85,293.96c-6.28,6.28-16.46,6.28-22.74,0"/>
					<path class="st32" d="M182.11,293.96c6.28,6.28,16.46,6.28,22.74,0"/>
					<path class="st32" d="M307.15,419.01c-4.05-4.05-8.28-7.84-12.64-11.37c-10.3-8.35-21.4-15.23-33.01-20.65
						c-43-20.08-93.06-20.08-136.06,0c-11.61,5.42-22.7,12.31-33.01,20.65c-4.36,3.53-8.58,7.31-12.64,11.37 M105.38,444.58
						c48.66-48.66,127.54-48.66,176.2,0"/>
					<path class="st32" d="M281.58,444.58c-48.66-48.66-127.54-48.66-176.2,0 M130.96,470.16c34.53-34.53,90.51-34.53,125.04,0"/>
					<path class="st32" d="M256,470.16c-34.53-34.53-90.51-34.53-125.04,0 M156.53,495.74c20.4-20.4,53.49-20.4,73.89,0"/>
				</g>
				<g>
					<path class="st32" d="M156.53,245.65c-6.23,6.23-12.97,11.66-20.07,16.29c11.61,5.42,22.7,12.31,33.01,20.65
						c4.36-3.53,8.58-7.31,12.64-11.37"/>
					<path class="st32" d="M-19.66,245.65c6.23,6.23,12.97,11.66,20.07,16.29c43-20.08,93.06-20.08,136.06,0
						c7.1-4.64,13.83-10.06,20.07-16.29 M130.96,220.07c-34.53,34.53-90.51,34.53-125.04,0"/>
					<path class="st32" d="M5.91,220.07c34.53,34.53,90.51,34.53,125.04,0 M105.38,194.5c-20.4,20.4-53.49,20.4-73.89,0"/>
					<path class="st32" d="M31.49,194.5c20.4,20.4,53.49,20.4,73.89,0 M79.8,168.92c-6.28,6.28-16.46,6.28-22.74,0"/>
					<path class="st32" d="M57.07,168.92c6.28,6.28,16.46,6.28,22.74,0"/>
					<path class="st32" d="M182.11,293.96c-4.05-4.05-8.28-7.84-12.64-11.37c-10.3-8.35-21.4-15.23-33.01-20.65
						c-43-20.08-93.06-20.08-136.06,0c-11.61,5.42-22.7,12.31-33.01,20.65c-4.36,3.53-8.58,7.31-12.64,11.37 M-19.66,319.54
						c48.66-48.66,127.54-48.66,176.2,0"/>
					<path class="st32" d="M156.53,319.54c-48.66-48.66-127.54-48.66-176.2,0 M5.91,345.12c34.53-34.53,90.51-34.53,125.04,0"/>
					<path class="st32" d="M130.96,345.12c-34.53-34.53-90.51-34.53-125.04,0 M31.49,370.7c20.4-20.4,53.49-20.4,73.89,0"/>
				</g>
			</g>
			<g>
				<g>
					<path class="st32" d="M204.85,271.23c4.05,4.05,8.28,7.84,12.64,11.37c10.3-8.35,21.4-15.23,33.01-20.65
						c-7.1-4.64-13.83-10.06-20.07-16.29"/>
					<path class="st32" d="M406.62,245.65c-6.23,6.23-12.97,11.66-20.07,16.29c11.61,5.42,22.7,12.31,33.01,20.65
						c4.36-3.53,8.58-7.31,12.64-11.37"/>
					<path class="st32" d="M230.42,245.65c6.23,6.23,12.97,11.66,20.07,16.29c43-20.08,93.06-20.08,136.06,0
						c7.1-4.64,13.83-10.06,20.07-16.29 M381.04,220.07c-34.53,34.53-90.51,34.53-125.04,0"/>
					<path class="st32" d="M256,220.07c34.53,34.53,90.51,34.53,125.04,0 M355.47,194.5c-20.4,20.4-53.49,20.4-73.89,0"/>
					<path class="st32" d="M281.58,194.5c20.4,20.4,53.49,20.4,73.89,0 M329.89,168.92c-6.28,6.28-16.46,6.28-22.74,0"/>
					<path class="st32" d="M307.15,168.92c6.28,6.28,16.46,6.28,22.74,0"/>
					<path class="st32" d="M432.2,293.96c-4.05-4.05-8.28-7.84-12.64-11.37c-10.3-8.35-21.4-15.23-33.01-20.65
						c-43-20.08-93.06-20.08-136.06,0c-11.61,5.42-22.7,12.31-33.01,20.65c-4.36,3.53-8.58,7.31-12.64,11.37 M230.42,319.54
						c48.66-48.66,127.54-48.66,176.2,0"/>
					<path class="st32" d="M406.62,319.54c-48.66-48.66-127.54-48.66-176.2,0 M256,345.12c34.53-34.53,90.51-34.53,125.04,0"/>
					<path class="st32" d="M381.04,345.12c-34.53-34.53-90.51-34.53-125.04,0 M281.58,370.7c20.4-20.4,53.49-20.4,73.89,0"/>
					<path class="st32" d="M355.47,370.7c-20.4-20.4-53.49-20.4-73.89,0 M307.15,396.27c6.28-6.28,16.46-6.28,22.74,0"/>
					<path class="st32" d="M329.89,396.27c-6.28-6.28-16.46-6.28-22.74,0"/>
				</g>
				<g>
					<path class="st32" d="M79.8,146.19c4.05,4.05,8.28,7.84,12.64,11.37c10.3-8.35,21.4-15.23,33.01-20.65
						c-7.1-4.64-13.83-10.06-20.07-16.29"/>
					<path class="st32" d="M281.58,120.61c-6.23,6.23-12.97,11.66-20.07,16.29c11.61,5.42,22.7,12.31,33.01,20.65
						c4.36-3.53,8.58-7.31,12.64-11.37"/>
					<path class="st32" d="M105.38,120.61c6.23,6.23,12.97,11.66,20.07,16.29c43-20.08,93.06-20.08,136.06,0
						c7.1-4.64,13.83-10.06,20.07-16.29 M256,95.03c-34.53,34.53-90.51,34.53-125.04,0"/>
					<path class="st32" d="M130.96,95.03c34.53,34.53,90.51,34.53,125.04,0 M230.42,69.45c-20.4,20.4-53.49,20.4-73.89,0"/>
					<path class="st32" d="M156.53,69.45c20.4,20.4,53.49,20.4,73.89,0 M204.85,43.88c-6.28,6.28-16.46,6.28-22.74,0"/>
					<path class="st32" d="M182.11,43.88c6.28,6.28,16.46,6.28,22.74,0"/>
					<path class="st32" d="M307.15,168.92c-4.05-4.05-8.28-7.84-12.64-11.37c-10.3-8.35-21.4-15.23-33.01-20.65
						c-43-20.08-93.06-20.08-136.06,0c-11.61,5.42-22.7,12.31-33.01,20.65c-4.36,3.53-8.58,7.31-12.64,11.37 M105.38,194.5
						c48.66-48.66,127.54-48.66,176.2,0"/>
					<path class="st32" d="M281.58,194.5c-48.66-48.66-127.54-48.66-176.2,0 M130.96,220.07c34.53-34.53,90.51-34.53,125.04,0"/>
					<path class="st32" d="M256,220.07c-34.53-34.53-90.51-34.53-125.04,0 M156.53,245.65c20.4-20.4,53.49-20.4,73.89,0"/>
					<path class="st32" d="M230.42,245.65c-20.4-20.4-53.49-20.4-73.89,0 M182.11,271.23c6.28-6.28,16.46-6.28,22.74,0"/>
					<path class="st32" d="M204.85,271.23c-6.28-6.28-16.46-6.28-22.74,0"/>
				</g>
			</g>
			<g>
				<g>
					<path class="st32" d="M329.89,146.19c4.05,4.05,8.28,7.84,12.64,11.37c10.3-8.35,21.4-15.23,33.01-20.65
						c-7.1-4.64-13.83-10.06-20.07-16.29"/>
					<path class="st32" d="M355.47,120.61c6.23,6.23,12.97,11.66,20.07,16.29c43-20.08,93.06-20.08,136.06,0
						c7.1-4.64,13.83-10.06,20.07-16.29 M506.09,95.03c-34.53,34.53-90.51,34.53-125.04,0"/>
					<path class="st32" d="M381.04,95.03c34.53,34.53,90.51,34.53,125.04,0 M480.51,69.45c-20.4,20.4-53.49,20.4-73.89,0"/>
					<path class="st32" d="M557.24,168.92c-4.05-4.05-8.28-7.84-12.64-11.37c-10.3-8.35-21.4-15.23-33.01-20.65
						c-43-20.08-93.06-20.08-136.06,0c-11.61,5.42-22.7,12.31-33.01,20.65c-4.36,3.53-8.58,7.31-12.64,11.37 M355.47,194.5
						c48.66-48.66,127.54-48.66,176.2,0"/>
					<path class="st32" d="M531.66,194.5c-48.66-48.66-127.54-48.66-176.2,0 M381.04,220.07c34.53-34.53,90.51-34.53,125.04,0"/>
					<path class="st32" d="M506.09,220.07c-34.53-34.53-90.51-34.53-125.04,0 M406.62,245.65c20.4-20.4,53.49-20.4,73.89,0"/>
					<path class="st32" d="M480.51,245.65c-20.4-20.4-53.49-20.4-73.89,0 M432.2,271.23c6.28-6.28,16.46-6.28,22.74,0"/>
					<path class="st32" d="M454.93,271.23c-6.28-6.28-16.46-6.28-22.74,0"/>
				</g>
				<g>
					<path class="st32" d="M204.85,21.14c4.05,4.05,8.28,7.84,12.64,11.37c10.3-8.35,21.4-15.23,33.01-20.65
						c-7.1-4.64-13.83-10.06-20.07-16.29"/>
					<path class="st32" d="M230.42-4.44c6.23,6.23,12.97,11.66,20.07,16.29c43-20.08,93.06-20.08,136.06,0
						c7.1-4.64,13.83-10.06,20.07-16.29 M381.04-30.01c-34.53,34.53-90.51,34.53-125.04,0"/>
					<path class="st32" d="M256-30.01c34.53,34.53,90.51,34.53,125.04,0 M355.47-55.59c-20.4,20.4-53.49,20.4-73.89,0"/>
					<path class="st32" d="M432.2,43.88c-4.05-4.05-8.28-7.84-12.64-11.37c-10.3-8.35-21.4-15.23-33.01-20.65
						c-43-20.08-93.06-20.08-136.06,0c-11.61,5.42-22.7,12.31-33.01,20.65c-4.36,3.53-8.58,7.31-12.64,11.37 M230.42,69.45
						c48.66-48.66,127.54-48.66,176.2,0"/>
					<path class="st32" d="M406.62,69.45c-48.66-48.66-127.54-48.66-176.2,0 M256,95.03c34.53-34.53,90.51-34.53,125.04,0"/>
					<path class="st32" d="M381.04,95.03c-34.53-34.53-90.51-34.53-125.04,0 M281.58,120.61c20.4-20.4,53.49-20.4,73.89,0"/>
					<path class="st32" d="M355.47,120.61c-20.4-20.4-53.49-20.4-73.89,0 M307.15,146.19c6.28-6.28,16.46-6.28,22.74,0"/>
					<path class="st32" d="M329.89,146.19c-6.28-6.28-16.46-6.28-22.74,0"/>
				</g>
			</g>
		</g>
	</g>
</g>
<g id="References">
</g>
</svg>
