<?xml version="1.0" encoding="utf-8"?>
<!-- Generator: Adobe Illustrator 28.0.0, SVG Export Plug-In . SVG Version: 6.00 Build 0)  -->
<svg version="1.1" xmlns="http://www.w3.org/2000/svg" xmlns:xlink="http://www.w3.org/1999/xlink" x="0px" y="0px"
	 viewBox="0 0 512 512" style="enable-background:new 0 0 512 512;" xml:space="preserve">
<style type="text/css">
	.st0{fill:url(#SVGID_1_);}
	.st1{fill:url(#SVGID_00000065761809794419314850000000760878329868459946_);}
	.st2{fill:url(#SVGID_00000183948796138177947070000006729630621465244549_);}
	.st3{fill:none;stroke:#FFFFFF;stroke-width:15;stroke-miterlimit:10;}
	.st4{fill:#FFFFFF;}
	.st5{fill:none;stroke:#FFFFFF;stroke-width:9;stroke-miterlimit:10;}
	.st6{fill:url(#SVGID_00000111874353440646084200000005381535472337691526_);}
	.st7{fill:none;stroke:#FFFFFF;stroke-width:15;stroke-linecap:round;stroke-linejoin:round;stroke-miterlimit:10;}
	.st8{fill:none;stroke:#FFFFFF;stroke-width:10;stroke-linecap:round;stroke-linejoin:round;stroke-miterlimit:10;}
	.st9{fill:url(#SVGID_00000044162207286187712530000000159707174221623708_);}
	.st10{fill:url(#SVGID_00000183929525080747105290000016424494674272576436_);}
	.st11{fill:url(#SVGID_00000140014775223831202700000003166700615457205178_);}
	.st12{fill:url(#SVGID_00000025406260645041014730000011551575105726623162_);}
	.st13{fill:url(#SVGID_00000038385856595044388560000011723971386797970574_);}
	.st14{fill:url(#SVGID_00000094576993327848390590000017676515888402029701_);}
	.st15{fill:url(#SVGID_00000053534649574530890520000012393962082995525780_);}
	.st16{fill:url(#SVGID_00000137100579091383069500000004949388167899136952_);}
	.st17{fill:url(#SVGID_00000001656724465826896650000003026953576996245919_);}
	.st18{fill:url(#SVGID_00000055708855282062605010000018185653520444769964_);}
	.st19{fill:url(#SVGID_00000102535243439250585200000007934070702654980794_);}
	.st20{fill:url(#SVGID_00000018210494364465064220000008063130541543473055_);}
	.st21{fill:url(#SVGID_00000037683635615938922270000014769427074614684328_);}
	.st22{fill:url(#SVGID_00000103981414616012302450000009388675425049056677_);}
	.st23{fill:url(#SVGID_00000066498777745356995020000015156315117039205300_);}
	.st24{fill:url(#SVGID_00000072275623589401570070000000619454323979821743_);}
	.st25{fill:url(#SVGID_00000039845441689704133880000002823704696401210526_);}
	.st26{fill:url(#SVGID_00000041286808868418243400000013463153284810143361_);}
	.st27{fill:#BCBEC0;}
	.st28{fill:url(#SVGID_00000052789846323327916910000007712256397679917990_);}
	.st29{fill:url(#SVGID_00000124843519121485097040000013969601270215173276_);}
	.st30{fill-rule:evenodd;clip-rule:evenodd;fill:#FFFFFF;}
	.st31{clip-path:url(#SVGID_00000081636822022968605180000015906801071682416037_);}
	.st32{fill:none;stroke:#FFFFFF;stroke-width:15.6378;stroke-miterlimit:10;}
	.st33{fill:none;stroke:#FFFFFF;stroke-width:9.8091;stroke-linecap:round;stroke-linejoin:round;stroke-miterlimit:10;}
	.st34{fill:url(#SVGID_00000169559149423039263360000016110524320861933200_);}
	.st35{fill:none;stroke:#FFFFFF;stroke-width:14.3924;stroke-linecap:round;stroke-linejoin:round;stroke-miterlimit:10;}
	.st36{fill:none;stroke:#FFFFFF;stroke-width:8;stroke-linecap:round;stroke-linejoin:round;stroke-miterlimit:10;}
	.st37{fill:url(#SVGID_00000178895764204799832010000000581008979005349526_);}
	.st38{fill:#FFFFFF;stroke:#FFFFFF;stroke-width:2.9178;stroke-miterlimit:10;}
</style>
<g id="GPS">
</g>
<g id="Icons">
	<g>
		<linearGradient id="SVGID_1_" gradientUnits="userSpaceOnUse" x1="52.5656" y1="226.0302" x2="459.4673" y2="226.0302">
			<stop  offset="0" style="stop-color:#F15D22"/>
			<stop  offset="1" style="stop-color:#ED2024"/>
		</linearGradient>
		<ellipse class="st0" cx="256.02" cy="226.03" rx="203.45" ry="203.67"/>
		<g>
			<g>
				<path class="st7" d="M308.84,312.63l-39.22-117.48c-3.84-14.77-23.64-14.77-27.48,0l-38.92,117.48"/>
				<ellipse class="st3" cx="254.83" cy="165.45" rx="17.75" ry="17.76"/>
				<g>
					<path class="st8" d="M221.33,179.61c-1.28-1.11-7.07-6.38-6.69-14.26c0.33-6.94,5.24-11.49,6.69-12.75"/>
					<path class="st8" d="M209.45,192.05c-2.5-2.16-13.78-12.42-13.04-27.78c0.65-13.52,10.21-22.39,13.04-24.84"/>
				</g>
				<g>
					<path class="st8" d="M288.17,151.87c1.28,1.11,7.07,6.38,6.69,14.26c-0.33,6.94-5.24,11.49-6.69,12.75"/>
					<path class="st8" d="M300.05,139.43c2.5,2.16,13.78,12.42,13.04,27.78c-0.65,13.52-10.21,22.39-13.04,24.84"/>
				</g>
			</g>
			<line class="st8" x1="213.59" y1="291.88" x2="293.59" y2="268.58"/>
			<line class="st8" x1="235.3" y1="223.15" x2="285.8" y2="242.74"/>
		</g>
	</g>
	<g>
		<path d="M109.38,473.53v16.1h-5.2v-38.59h10.91c2.44,0,4.55,0.25,6.33,0.74c1.78,0.49,3.25,1.21,4.4,2.14s2.02,2.06,2.57,3.38
			s0.83,2.8,0.83,4.43c0,1.36-0.22,2.64-0.65,3.82c-0.43,1.18-1.05,2.25-1.87,3.19c-0.82,0.94-1.81,1.75-2.99,2.41
			s-2.51,1.17-4,1.51c0.65,0.38,1.22,0.92,1.72,1.64l11.26,15.32h-4.63c-0.95,0-1.65-0.37-2.1-1.1l-10.02-13.79
			c-0.31-0.43-0.64-0.74-1-0.93c-0.36-0.19-0.9-0.28-1.62-0.28H109.38z M109.38,469.73h5.47c1.53,0,2.87-0.18,4.03-0.55
			s2.13-0.89,2.91-1.56c0.78-0.67,1.37-1.48,1.76-2.41c0.39-0.93,0.59-1.97,0.59-3.1c0-2.3-0.76-4.03-2.28-5.2
			c-1.52-1.17-3.77-1.75-6.77-1.75h-5.71V469.73z"/>
		<path d="M157.61,489.64h-2.13c-0.47,0-0.84-0.07-1.13-0.22c-0.29-0.14-0.48-0.45-0.57-0.92l-0.54-2.53
			c-0.72,0.65-1.42,1.23-2.1,1.74c-0.68,0.51-1.4,0.94-2.16,1.29c-0.75,0.35-1.56,0.62-2.41,0.79c-0.85,0.18-1.8,0.27-2.84,0.27
			c-1.06,0-2.05-0.15-2.98-0.45c-0.93-0.3-1.73-0.74-2.41-1.34s-1.22-1.35-1.63-2.26c-0.4-0.91-0.61-1.99-0.61-3.23
			c0-1.08,0.3-2.12,0.89-3.12c0.59-1,1.55-1.89,2.87-2.66c1.32-0.78,3.05-1.41,5.18-1.91c2.14-0.5,4.75-0.74,7.84-0.74v-2.14
			c0-2.13-0.45-3.74-1.36-4.84c-0.91-1.09-2.25-1.64-4.03-1.64c-1.17,0-2.15,0.15-2.95,0.44c-0.8,0.3-1.49,0.63-2.07,1
			c-0.58,0.37-1.09,0.7-1.51,1c-0.42,0.3-0.84,0.44-1.25,0.44c-0.32,0-0.61-0.09-0.85-0.26c-0.24-0.17-0.44-0.38-0.58-0.63
			l-0.86-1.53c1.51-1.46,3.13-2.54,4.87-3.26s3.67-1.08,5.79-1.08c1.53,0,2.88,0.25,4.07,0.75c1.18,0.5,2.18,1.2,2.99,2.1
			c0.81,0.9,1.42,1.98,1.83,3.26c0.41,1.27,0.62,2.67,0.62,4.2V489.64z M145.17,486.7c0.84,0,1.62-0.08,2.32-0.26
			c0.7-0.17,1.36-0.41,1.98-0.73c0.62-0.31,1.21-0.7,1.78-1.14c0.57-0.45,1.12-0.96,1.66-1.53v-5.63c-2.21,0-4.08,0.14-5.63,0.42
			s-2.8,0.65-3.77,1.1c-0.97,0.45-1.67,0.98-2.11,1.6c-0.44,0.61-0.66,1.3-0.66,2.06c0,0.72,0.12,1.35,0.35,1.87
			c0.23,0.52,0.55,0.95,0.94,1.29c0.39,0.33,0.86,0.58,1.4,0.73C143.96,486.62,144.54,486.7,145.17,486.7z"/>
		<path d="M184.09,489.64c-0.68,0-1.11-0.33-1.29-1l-0.43-3.31c-1.17,1.42-2.5,2.55-4,3.41c-1.5,0.85-3.22,1.28-5.16,1.28
			c-1.56,0-2.98-0.3-4.25-0.9c-1.28-0.6-2.36-1.49-3.26-2.65c-0.9-1.17-1.59-2.62-2.07-4.36c-0.48-1.74-0.73-3.74-0.73-6
			c0-2.01,0.27-3.88,0.81-5.62c0.54-1.73,1.32-3.24,2.33-4.51c1.01-1.27,2.25-2.28,3.7-3c1.45-0.73,3.11-1.09,4.96-1.09
			c1.67,0,3.1,0.28,4.28,0.85c1.18,0.57,2.24,1.36,3.18,2.38v-15.14h4.79v39.67H184.09z M174.79,486.13c1.56,0,2.93-0.36,4.11-1.08
			c1.18-0.72,2.26-1.73,3.25-3.04v-13.2c-0.88-1.19-1.84-2.02-2.9-2.49c-1.05-0.48-2.21-0.71-3.49-0.71c-2.55,0-4.51,0.91-5.87,2.72
			s-2.05,4.4-2.05,7.76c0,1.78,0.15,3.3,0.46,4.56c0.3,1.27,0.75,2.31,1.35,3.12c0.59,0.82,1.32,1.41,2.18,1.79
			C172.69,485.95,173.68,486.13,174.79,486.13z"/>
		<path d="M201.4,453.79c0,0.47-0.1,0.9-0.28,1.31c-0.19,0.4-0.44,0.76-0.75,1.08c-0.31,0.31-0.68,0.56-1.09,0.74
			c-0.41,0.18-0.85,0.27-1.32,0.27c-0.47,0-0.9-0.09-1.31-0.27c-0.4-0.18-0.76-0.43-1.08-0.74c-0.31-0.31-0.56-0.67-0.74-1.08
			c-0.18-0.4-0.27-0.84-0.27-1.31c0-0.47,0.09-0.91,0.27-1.33c0.18-0.42,0.43-0.79,0.74-1.1c0.31-0.31,0.67-0.56,1.08-0.74
			c0.4-0.18,0.84-0.27,1.31-0.27c0.47,0,0.91,0.09,1.32,0.27c0.41,0.18,0.78,0.43,1.09,0.74c0.31,0.31,0.56,0.68,0.75,1.1
			C201.31,452.88,201.4,453.32,201.4,453.79z M200.33,462.35v27.28h-4.79v-27.28H200.33z"/>
		<path d="M219.82,461.92c1.99,0,3.79,0.33,5.4,1c1.61,0.66,2.97,1.61,4.09,2.83s1.98,2.7,2.59,4.43c0.6,1.73,0.9,3.67,0.9,5.8
			c0,2.15-0.3,4.09-0.9,5.82c-0.6,1.72-1.46,3.2-2.59,4.42s-2.49,2.16-4.09,2.81c-1.61,0.65-3.41,0.98-5.4,0.98s-3.79-0.33-5.4-0.98
			c-1.61-0.66-2.98-1.59-4.11-2.81s-2-2.69-2.61-4.42s-0.92-3.66-0.92-5.82c0-2.14,0.3-4.07,0.92-5.8c0.61-1.73,1.48-3.21,2.61-4.43
			s2.5-2.16,4.11-2.83C216.03,462.26,217.83,461.92,219.82,461.92z M219.82,486.27c2.69,0,4.7-0.9,6.03-2.71
			c1.33-1.8,1.99-4.32,1.99-7.55c0-3.25-0.66-5.78-1.99-7.59c-1.33-1.81-3.34-2.72-6.03-2.72c-1.36,0-2.55,0.23-3.55,0.7
			c-1.01,0.47-1.84,1.14-2.52,2.02c-0.67,0.88-1.18,1.96-1.51,3.25c-0.33,1.28-0.5,2.73-0.5,4.35c0,1.62,0.17,3.06,0.5,4.34
			s0.83,2.35,1.51,3.22c0.67,0.87,1.51,1.54,2.52,2.01C217.27,486.04,218.46,486.27,219.82,486.27z"/>
		<path d="M269.64,457.08c-0.16,0.27-0.33,0.47-0.51,0.61s-0.41,0.2-0.7,0.2c-0.3,0-0.66-0.15-1.06-0.46
			c-0.4-0.3-0.92-0.64-1.54-1.01c-0.62-0.37-1.36-0.7-2.24-1.01c-0.87-0.3-1.93-0.46-3.16-0.46c-1.17,0-2.2,0.16-3.1,0.47
			c-0.9,0.31-1.65,0.74-2.25,1.28c-0.6,0.54-1.06,1.17-1.36,1.9c-0.31,0.73-0.46,1.51-0.46,2.36c0,1.08,0.26,1.97,0.79,2.68
			c0.53,0.71,1.23,1.32,2.1,1.82c0.87,0.5,1.86,0.94,2.96,1.31c1.1,0.37,2.24,0.75,3.39,1.14c1.16,0.4,2.29,0.84,3.39,1.33
			c1.1,0.49,2.09,1.12,2.96,1.87c0.87,0.75,1.57,1.68,2.1,2.77c0.53,1.1,0.79,2.44,0.79,4.04c0,1.69-0.29,3.27-0.86,4.75
			c-0.58,1.48-1.41,2.77-2.52,3.87c-1.1,1.09-2.46,1.96-4.07,2.58c-1.61,0.63-3.43,0.94-5.48,0.94c-2.5,0-4.77-0.45-6.83-1.36
			c-2.06-0.91-3.81-2.13-5.27-3.68l1.51-2.48c0.14-0.2,0.32-0.36,0.53-0.5c0.21-0.13,0.43-0.2,0.69-0.2c0.38,0,0.81,0.2,1.29,0.61
			c0.48,0.4,1.09,0.85,1.82,1.33c0.73,0.48,1.61,0.93,2.64,1.33c1.03,0.4,2.29,0.61,3.78,0.61c1.24,0,2.34-0.17,3.31-0.51
			c0.97-0.34,1.79-0.82,2.46-1.44c0.67-0.62,1.19-1.36,1.55-2.22c0.36-0.86,0.54-1.82,0.54-2.88c0-1.17-0.27-2.12-0.79-2.87
			s-1.22-1.37-2.09-1.87c-0.86-0.5-1.84-0.93-2.95-1.28c-1.1-0.35-2.24-0.71-3.39-1.08c-1.16-0.37-2.29-0.79-3.39-1.28
			c-1.1-0.48-2.09-1.11-2.95-1.88c-0.86-0.77-1.56-1.74-2.09-2.9c-0.53-1.16-0.79-2.59-0.79-4.29c0-1.36,0.26-2.68,0.79-3.96
			c0.53-1.27,1.3-2.41,2.3-3.39c1-0.99,2.25-1.78,3.73-2.37c1.48-0.59,3.18-0.89,5.1-0.89c2.15,0,4.12,0.34,5.9,1.02
			c1.78,0.68,3.33,1.67,4.66,2.96L269.64,457.08z"/>
		<path d="M285.94,490.07c-2.16,0-3.81-0.6-4.97-1.8c-1.16-1.2-1.74-2.94-1.74-5.2v-16.7h-3.29c-0.29,0-0.53-0.08-0.73-0.26
			c-0.2-0.17-0.3-0.44-0.3-0.79v-1.91l4.47-0.57l1.1-8.43c0.04-0.27,0.15-0.49,0.35-0.66c0.2-0.17,0.45-0.26,0.75-0.26h2.42v9.4
			h7.81v3.47h-7.81v16.37c0,1.15,0.28,2,0.83,2.56c0.56,0.56,1.27,0.83,2.15,0.83c0.5,0,0.94-0.07,1.31-0.2s0.69-0.28,0.96-0.44
			c0.27-0.16,0.5-0.31,0.69-0.44s0.35-0.2,0.5-0.2c0.25,0,0.48,0.15,0.67,0.46l1.4,2.29c-0.83,0.77-1.82,1.38-2.99,1.82
			C288.38,489.85,287.18,490.07,285.94,490.07z"/>
		<path d="M317.8,489.64h-2.13c-0.47,0-0.84-0.07-1.13-0.22c-0.29-0.14-0.48-0.45-0.57-0.92l-0.54-2.53
			c-0.72,0.65-1.42,1.23-2.1,1.74s-1.4,0.94-2.15,1.29c-0.75,0.35-1.56,0.62-2.41,0.79c-0.85,0.18-1.8,0.27-2.84,0.27
			c-1.06,0-2.05-0.15-2.98-0.45s-1.73-0.74-2.41-1.34s-1.23-1.35-1.63-2.26c-0.4-0.91-0.61-1.99-0.61-3.23
			c0-1.08,0.3-2.12,0.89-3.12c0.59-1,1.55-1.89,2.87-2.66c1.32-0.78,3.05-1.41,5.18-1.91c2.14-0.5,4.75-0.74,7.84-0.74v-2.14
			c0-2.13-0.45-3.74-1.36-4.84c-0.91-1.09-2.25-1.64-4.03-1.64c-1.17,0-2.15,0.15-2.95,0.44c-0.8,0.3-1.49,0.63-2.07,1
			c-0.58,0.37-1.09,0.7-1.51,1c-0.42,0.3-0.84,0.44-1.25,0.44c-0.32,0-0.61-0.09-0.85-0.26c-0.24-0.17-0.44-0.38-0.58-0.63
			l-0.86-1.53c1.51-1.46,3.13-2.54,4.88-3.26c1.74-0.72,3.67-1.08,5.79-1.08c1.53,0,2.88,0.25,4.07,0.75c1.19,0.5,2.18,1.2,2.99,2.1
			c0.81,0.9,1.42,1.98,1.83,3.26c0.41,1.27,0.62,2.67,0.62,4.2V489.64z M305.36,486.7c0.84,0,1.62-0.08,2.32-0.26
			c0.7-0.17,1.36-0.41,1.98-0.73c0.62-0.31,1.21-0.7,1.78-1.14c0.57-0.45,1.12-0.96,1.66-1.53v-5.63c-2.21,0-4.08,0.14-5.63,0.42
			s-2.8,0.65-3.77,1.1c-0.97,0.45-1.67,0.98-2.11,1.6c-0.44,0.61-0.66,1.3-0.66,2.06c0,0.72,0.12,1.35,0.35,1.87
			s0.55,0.95,0.94,1.29c0.39,0.33,0.86,0.58,1.4,0.73C304.14,486.62,304.73,486.7,305.36,486.7z"/>
		<path d="M333.34,490.07c-2.16,0-3.81-0.6-4.97-1.8c-1.16-1.2-1.74-2.94-1.74-5.2v-16.7h-3.29c-0.29,0-0.53-0.08-0.73-0.26
			c-0.2-0.17-0.3-0.44-0.3-0.79v-1.91l4.47-0.57l1.1-8.43c0.04-0.27,0.15-0.49,0.35-0.66c0.2-0.17,0.45-0.26,0.75-0.26h2.42v9.4
			h7.81v3.47h-7.81v16.37c0,1.15,0.28,2,0.83,2.56c0.56,0.56,1.27,0.83,2.15,0.83c0.5,0,0.94-0.07,1.31-0.2s0.69-0.28,0.96-0.44
			c0.27-0.16,0.5-0.31,0.69-0.44s0.35-0.2,0.5-0.2c0.25,0,0.48,0.15,0.67,0.46l1.4,2.29c-0.83,0.77-1.82,1.38-2.99,1.82
			C335.78,489.85,334.58,490.07,333.34,490.07z"/>
		<path d="M351.57,453.79c0,0.47-0.09,0.9-0.28,1.31s-0.44,0.76-0.75,1.08c-0.31,0.31-0.68,0.56-1.09,0.74
			c-0.41,0.18-0.85,0.27-1.32,0.27s-0.9-0.09-1.31-0.27c-0.4-0.18-0.76-0.43-1.08-0.74s-0.56-0.67-0.74-1.08
			c-0.18-0.4-0.27-0.84-0.27-1.31c0-0.47,0.09-0.91,0.27-1.33c0.18-0.42,0.43-0.79,0.74-1.1c0.31-0.31,0.67-0.56,1.08-0.74
			c0.4-0.18,0.84-0.27,1.31-0.27s0.91,0.09,1.32,0.27c0.41,0.18,0.78,0.43,1.09,0.74c0.31,0.31,0.57,0.68,0.75,1.1
			S351.57,453.32,351.57,453.79z M350.49,462.35v27.28h-4.79v-27.28H350.49z"/>
		<path d="M369.99,461.92c1.99,0,3.79,0.33,5.4,1c1.61,0.66,2.97,1.61,4.09,2.83s1.98,2.7,2.59,4.43c0.6,1.73,0.9,3.67,0.9,5.8
			c0,2.15-0.3,4.09-0.9,5.82c-0.6,1.72-1.46,3.2-2.59,4.42s-2.49,2.16-4.09,2.81c-1.61,0.65-3.41,0.98-5.4,0.98s-3.79-0.33-5.4-0.98
			c-1.61-0.66-2.98-1.59-4.11-2.81s-2-2.69-2.61-4.42s-0.92-3.66-0.92-5.82c0-2.14,0.3-4.07,0.92-5.8c0.61-1.73,1.48-3.21,2.61-4.43
			s2.5-2.16,4.11-2.83C366.2,462.26,368,461.92,369.99,461.92z M369.99,486.27c2.69,0,4.7-0.9,6.03-2.71
			c1.33-1.8,1.99-4.32,1.99-7.55c0-3.25-0.66-5.78-1.99-7.59c-1.33-1.81-3.34-2.72-6.03-2.72c-1.36,0-2.55,0.23-3.55,0.7
			c-1.01,0.47-1.84,1.14-2.52,2.02c-0.67,0.88-1.18,1.96-1.51,3.25c-0.33,1.28-0.5,2.73-0.5,4.35c0,1.62,0.17,3.06,0.5,4.34
			s0.83,2.35,1.51,3.22c0.67,0.87,1.51,1.54,2.52,2.01C367.44,486.04,368.62,486.27,369.99,486.27z"/>
		<path d="M388.89,489.64v-27.28h2.86c0.68,0,1.11,0.33,1.29,1l0.38,2.96c1.19-1.31,2.51-2.37,3.97-3.18
			c1.46-0.81,3.16-1.21,5.08-1.21c1.49,0,2.81,0.25,3.95,0.74c1.14,0.49,2.09,1.19,2.86,2.1c0.76,0.91,1.34,2,1.74,3.27
			c0.4,1.27,0.59,2.68,0.59,4.23v17.37h-4.79v-17.37c0-2.06-0.47-3.67-1.41-4.81c-0.94-1.14-2.38-1.71-4.32-1.71
			c-1.42,0-2.74,0.34-3.97,1.02c-1.23,0.68-2.37,1.61-3.41,2.77v20.09H388.89z"/>
	</g>
</g>
<g id="References">
</g>
</svg>
