<?xml version="1.0" encoding="utf-8"?>
<!-- Generator: Adobe Illustrator 28.0.0, SVG Export Plug-In . SVG Version: 6.00 Build 0)  -->
<svg version="1.1" xmlns="http://www.w3.org/2000/svg" xmlns:xlink="http://www.w3.org/1999/xlink" x="0px" y="0px"
	 viewBox="0 0 512 512" style="enable-background:new 0 0 512 512;" xml:space="preserve">
<style type="text/css">
	.st0{fill:url(#SVGID_1_);}
	.st1{fill:url(#SVGID_00000008150551645653408410000011583551964965178256_);}
	.st2{fill:url(#SVGID_00000079459961595817310950000001973960828956211087_);}
	.st3{fill:none;stroke:#FFFFFF;stroke-width:15;stroke-miterlimit:10;}
	.st4{fill:#FFFFFF;}
	.st5{fill:none;stroke:#FFFFFF;stroke-width:9;stroke-miterlimit:10;}
	.st6{fill:url(#SVGID_00000158026363614491261410000013734280275884744620_);}
	.st7{fill:none;stroke:#FFFFFF;stroke-width:15;stroke-linecap:round;stroke-linejoin:round;stroke-miterlimit:10;}
	.st8{fill:none;stroke:#FFFFFF;stroke-width:10;stroke-linecap:round;stroke-linejoin:round;stroke-miterlimit:10;}
	.st9{fill:url(#SVGID_00000021815769352234354590000008178165510520089754_);}
	.st10{fill:url(#SVGID_00000075855387213633826730000016947259768981574072_);}
	.st11{fill:url(#SVGID_00000078752809675631014660000000498097008346853265_);}
	.st12{fill:url(#SVGID_00000165933579383778285880000010324713324989482164_);}
	.st13{fill:url(#SVGID_00000119826239038271950910000015634939638394233267_);}
	.st14{fill:url(#SVGID_00000031925050311544233520000010225454385543504300_);}
	.st15{fill:url(#SVGID_00000057108852736617729560000017830376438096194237_);}
	.st16{fill:url(#SVGID_00000078731421459313526800000017439820054479038102_);}
	.st17{fill:url(#SVGID_00000126319915972922265710000014126219669062182542_);}
	.st18{fill:url(#SVGID_00000070083596905687905630000010953513980260774591_);}
	.st19{fill:url(#SVGID_00000107573699184376621980000001566564260392637080_);}
	.st20{fill:url(#SVGID_00000149355408230748134760000003976878700516682117_);}
	.st21{fill:url(#SVGID_00000061442234880887468170000014379537220636689065_);}
	.st22{fill:url(#SVGID_00000110465764656344891820000009940683303317075859_);}
	.st23{fill:url(#SVGID_00000126295766458199464580000017564366492815896713_);}
	.st24{fill:url(#SVGID_00000078030819473225877720000003675552559313408694_);}
	.st25{fill:url(#SVGID_00000098183073707580252990000005598158865124797576_);}
	.st26{fill:url(#SVGID_00000107559786208537533570000010626550201497467548_);}
	.st27{fill:#BCBEC0;}
	.st28{fill:url(#SVGID_00000166653108747448351700000015292407579656996519_);}
	.st29{fill:url(#SVGID_00000002383445370637334640000012995531632831798957_);}
	.st30{fill-rule:evenodd;clip-rule:evenodd;fill:#FFFFFF;}
	.st31{clip-path:url(#SVGID_00000060002432309070685140000004736050034342208702_);}
	.st32{fill:none;stroke:#FFFFFF;stroke-width:15.6378;stroke-miterlimit:10;}
	.st33{fill:none;stroke:#FFFFFF;stroke-width:9.8091;stroke-linecap:round;stroke-linejoin:round;stroke-miterlimit:10;}
	.st34{fill:url(#SVGID_00000155863764937002384690000000258610213396370834_);}
	.st35{fill:none;stroke:#FFFFFF;stroke-width:14.3924;stroke-linecap:round;stroke-linejoin:round;stroke-miterlimit:10;}
	.st36{fill:none;stroke:#FFFFFF;stroke-width:8;stroke-linecap:round;stroke-linejoin:round;stroke-miterlimit:10;}
	.st37{fill:url(#SVGID_00000170998939355201388760000000430865902001910972_);}
	.st38{fill:#FFFFFF;stroke:#FFFFFF;stroke-width:2.9178;stroke-miterlimit:10;}
</style>
<g id="GPS">
</g>
<g id="Icons">
	<g>
		<linearGradient id="SVGID_1_" gradientUnits="userSpaceOnUse" x1="51.2448" y1="227.5196" x2="461.0746" y2="227.5196">
			<stop  offset="0" style="stop-color:#F15D22"/>
			<stop  offset="1" style="stop-color:#ED2024"/>
		</linearGradient>
		<path class="st0" d="M256.16,22.6c-113.17,0-204.91,91.74-204.91,204.91c0,113.17,91.74,204.91,204.91,204.91
			c113.17,0,204.91-91.74,204.91-204.91C461.07,114.35,369.33,22.6,256.16,22.6z"/>
		<g>
			<path class="st4" d="M156.35,271.55c0,0,33.21,1.52,37.37,35.99l20.69-58.88L156.35,271.55z"/>
			<g>
				<g>
					
						<rect x="231.93" y="170.75" transform="matrix(-0.366 0.9306 -0.9306 -0.366 548.5176 58.3174)" class="st4" width="44.92" height="90.49"/>
					<g>
						
							<linearGradient id="SVGID_00000137826562790384386340000000281625184070514344_" gradientUnits="userSpaceOnUse" x1="500.4358" y1="-1652.5607" x2="527.1259" y2="-1652.5607" gradientTransform="matrix(-0.918 0.3965 -0.3965 -0.918 92.6647 -1499.202)">
							<stop  offset="0" style="stop-color:#F15D22"/>
							<stop  offset="1" style="stop-color:#ED2024"/>
						</linearGradient>
						<path style="fill:url(#SVGID_00000137826562790384386340000000281625184070514344_);" d="M263.95,226.95
							c-2.94-6.76,0.15-14.62,6.91-17.56c6.76-2.94,14.62,0.15,17.56,6.91c2.94,6.76-0.15,14.62-6.91,17.56
							C274.76,236.8,266.9,233.71,263.95,226.95z"/>
						
							<linearGradient id="SVGID_00000084494569759759638860000015335245783678010763_" gradientUnits="userSpaceOnUse" x1="532.3234" y1="-1620.8634" x2="559.0134" y2="-1620.8634" gradientTransform="matrix(-0.918 0.3965 -0.3965 -0.918 92.6647 -1499.202)">
							<stop  offset="0" style="stop-color:#F15D22"/>
							<stop  offset="1" style="stop-color:#ED2024"/>
						</linearGradient>
						<path style="fill:url(#SVGID_00000084494569759759638860000015335245783678010763_);" d="M239.68,217.4
							c-6.76,2.94-14.62-0.15-17.56-6.91c-2.94-6.76,0.15-14.62,6.91-17.56c6.76-2.94,14.62,0.15,17.56,6.91
							C249.53,206.6,246.43,214.46,239.68,217.4z"/>
						<g>
							
								<linearGradient id="SVGID_00000046317334635330801980000015355914055099187344_" gradientUnits="userSpaceOnUse" x1="534.1397" y1="-1622.6907" x2="560.8298" y2="-1622.6907" gradientTransform="matrix(-0.918 0.3965 -0.3965 -0.918 92.6647 -1499.202)">
								<stop  offset="0" style="stop-color:#F15D22"/>
								<stop  offset="1" style="stop-color:#ED2024"/>
							</linearGradient>
							<path style="fill:url(#SVGID_00000046317334635330801980000015355914055099187344_);" d="M238.73,219.8
								c-6.76,2.94-14.62-0.15-17.56-6.91c-2.94-6.76,0.15-14.62,6.91-17.56c6.76-2.94,14.62,0.15,17.56,6.91
								C248.58,209,245.49,216.86,238.73,219.8z"/>
							
								<linearGradient id="SVGID_00000075871518906167321280000014148821626857489849_" gradientUnits="userSpaceOnUse" x1="502.2522" y1="-1654.3879" x2="528.9423" y2="-1654.3879" gradientTransform="matrix(-0.918 0.3965 -0.3965 -0.918 92.6647 -1499.202)">
								<stop  offset="0" style="stop-color:#F15D22"/>
								<stop  offset="1" style="stop-color:#ED2024"/>
							</linearGradient>
							<path style="fill:url(#SVGID_00000075871518906167321280000014148821626857489849_);" d="M263.01,229.35
								c-2.94-6.76,0.15-14.62,6.91-17.56c6.76-2.94,14.62,0.15,17.56,6.91c2.94,6.76-0.15,14.62-6.91,17.56
								C273.82,239.2,265.95,236.11,263.01,229.35z"/>
						</g>
					</g>
				</g>
				<g>
					
						<rect x="283.19" y="138.21" transform="matrix(-0.366 0.9306 -0.9306 -0.366 588.2414 -33.8372)" class="st4" width="44.92" height="90.49"/>
					<g>
						
							<linearGradient id="SVGID_00000142165744044352419310000015424471837514876064_" gradientUnits="userSpaceOnUse" x1="440.4802" y1="-1643.0017" x2="467.1702" y2="-1643.0017" gradientTransform="matrix(-0.918 0.3965 -0.3965 -0.918 92.6647 -1499.202)">
							<stop  offset="0" style="stop-color:#F15D22"/>
							<stop  offset="1" style="stop-color:#ED2024"/>
						</linearGradient>
						<path style="fill:url(#SVGID_00000142165744044352419310000015424471837514876064_);" d="M315.21,194.41
							c-2.94-6.76,0.15-14.62,6.91-17.56c6.76-2.94,14.62,0.15,17.56,6.91c2.94,6.76-0.15,14.62-6.91,17.56
							C326.01,204.26,318.15,201.16,315.21,194.41z"/>
						
							<linearGradient id="SVGID_00000014598946227111683180000002167286741652797577_" gradientUnits="userSpaceOnUse" x1="472.3677" y1="-1611.3046" x2="499.0578" y2="-1611.3046" gradientTransform="matrix(-0.918 0.3965 -0.3965 -0.918 92.6647 -1499.202)">
							<stop  offset="0" style="stop-color:#F15D22"/>
							<stop  offset="1" style="stop-color:#ED2024"/>
						</linearGradient>
						<path style="fill:url(#SVGID_00000014598946227111683180000002167286741652797577_);" d="M290.93,184.86
							c-6.76,2.94-14.62-0.15-17.56-6.91c-2.94-6.76,0.15-14.62,6.91-17.56c6.76-2.94,14.62,0.15,17.56,6.91
							C300.78,174.05,297.69,181.91,290.93,184.86z"/>
						<g>
							
								<linearGradient id="SVGID_00000014603920971611385610000016661207005366385060_" gradientUnits="userSpaceOnUse" x1="474.1841" y1="-1613.1318" x2="500.8741" y2="-1613.1318" gradientTransform="matrix(-0.918 0.3965 -0.3965 -0.918 92.6647 -1499.202)">
								<stop  offset="0" style="stop-color:#F15D22"/>
								<stop  offset="1" style="stop-color:#ED2024"/>
							</linearGradient>
							<path style="fill:url(#SVGID_00000014603920971611385610000016661207005366385060_);" d="M289.98,187.26
								c-6.76,2.94-14.62-0.15-17.56-6.91c-2.94-6.76,0.15-14.62,6.91-17.56c6.76-2.94,14.62,0.15,17.56,6.91
								C299.83,176.45,296.74,184.31,289.98,187.26z"/>
							
								<linearGradient id="SVGID_00000113341011284542485770000018021594740398532737_" gradientUnits="userSpaceOnUse" x1="442.2966" y1="-1644.8291" x2="468.9866" y2="-1644.8291" gradientTransform="matrix(-0.918 0.3965 -0.3965 -0.918 92.6647 -1499.202)">
								<stop  offset="0" style="stop-color:#F15D22"/>
								<stop  offset="1" style="stop-color:#ED2024"/>
							</linearGradient>
							<path style="fill:url(#SVGID_00000113341011284542485770000018021594740398532737_);" d="M314.26,196.8
								c-2.94-6.76,0.15-14.62,6.91-17.56c6.76-2.94,14.62,0.15,17.56,6.91c2.94,6.76-0.15,14.62-6.91,17.56
								C325.07,206.65,317.21,203.56,314.26,196.8z"/>
						</g>
					</g>
				</g>
				<g>
					
						<rect x="240.42" y="227.38" transform="matrix(0.3595 -0.9331 0.9331 0.3595 -86.0242 419.9268)" class="st4" width="44.92" height="90.49"/>
					<g>
						
							<linearGradient id="SVGID_00000155846602288219124450000015572470492305893761_" gradientUnits="userSpaceOnUse" x1="-147.4832" y1="166.5946" x2="-120.7932" y2="166.5946" gradientTransform="matrix(0.9152 -0.4029 0.4029 0.9152 296.6939 60.6338)">
							<stop  offset="0" style="stop-color:#F15D22"/>
							<stop  offset="1" style="stop-color:#ED2024"/>
						</linearGradient>
						<path style="fill:url(#SVGID_00000155846602288219124450000015572470492305893761_);" d="M253.24,261.74
							c2.99,6.74-0.05,14.62-6.78,17.61c-6.74,2.99-14.62-0.05-17.61-6.78c-2.99-6.74,0.05-14.62,6.78-17.61
							C242.37,251.97,250.25,255,253.24,261.74z"/>
						
							<linearGradient id="SVGID_00000145045815303591998860000010007851285733613962_" gradientUnits="userSpaceOnUse" x1="-115.5957" y1="198.2918" x2="-88.9057" y2="198.2918" gradientTransform="matrix(0.9152 -0.4029 0.4029 0.9152 296.6939 60.6338)">
							<stop  offset="0" style="stop-color:#F15D22"/>
							<stop  offset="1" style="stop-color:#ED2024"/>
						</linearGradient>
						<path style="fill:url(#SVGID_00000145045815303591998860000010007851285733613962_);" d="M277.59,271.12
							c6.74-2.99,14.62,0.05,17.61,6.78c2.99,6.74-0.05,14.62-6.78,17.61c-6.74,2.99-14.62-0.05-17.61-6.78
							C267.81,281.99,270.85,274.11,277.59,271.12z"/>
						<g>
							
								<linearGradient id="SVGID_00000117667321714979144240000009721244065694871987_" gradientUnits="userSpaceOnUse" x1="-113.7793" y1="196.4645" x2="-87.0893" y2="196.4645" gradientTransform="matrix(0.9152 -0.4029 0.4029 0.9152 296.6939 60.6338)">
								<stop  offset="0" style="stop-color:#F15D22"/>
								<stop  offset="1" style="stop-color:#ED2024"/>
							</linearGradient>
							<path style="fill:url(#SVGID_00000117667321714979144240000009721244065694871987_);" d="M278.51,268.71
								c6.74-2.99,14.62,0.05,17.61,6.78c2.99,6.74-0.05,14.62-6.78,17.61c-6.74,2.99-14.62-0.05-17.61-6.78
								C268.74,279.59,271.78,271.7,278.51,268.71z"/>
							
								<linearGradient id="SVGID_00000139261088114947753430000017133631126213262267_" gradientUnits="userSpaceOnUse" x1="-145.6668" y1="164.7673" x2="-118.9768" y2="164.7673" gradientTransform="matrix(0.9152 -0.4029 0.4029 0.9152 296.6939 60.6338)">
								<stop  offset="0" style="stop-color:#F15D22"/>
								<stop  offset="1" style="stop-color:#ED2024"/>
							</linearGradient>
							<path style="fill:url(#SVGID_00000139261088114947753430000017133631126213262267_);" d="M254.17,259.34
								c2.99,6.74-0.05,14.62-6.78,17.61c-6.74,2.99-14.62-0.05-17.61-6.78c-2.99-6.74,0.05-14.62,6.78-17.61
								C243.3,249.56,251.18,252.6,254.17,259.34z"/>
						</g>
					</g>
				</g>
			</g>
		</g>
	</g>
	<g>
		<path d="M133.55,476.48v14.44h-5.2v-38.59h11.39c2.44,0,4.56,0.28,6.37,0.85c1.8,0.57,3.3,1.37,4.48,2.41
			c1.19,1.04,2.07,2.3,2.65,3.77c0.58,1.47,0.88,3.12,0.88,4.93c0,1.79-0.31,3.44-0.94,4.93c-0.63,1.49-1.55,2.77-2.76,3.85
			s-2.72,1.92-4.51,2.52c-1.8,0.6-3.85,0.9-6.17,0.9H133.55z M133.55,472.34h6.19c1.49,0,2.8-0.2,3.95-0.59
			c1.14-0.39,2.1-0.95,2.87-1.66c0.77-0.71,1.36-1.56,1.75-2.54s0.59-2.07,0.59-3.26c0-2.46-0.76-4.38-2.28-5.76
			c-1.52-1.38-3.81-2.07-6.88-2.07h-6.19V472.34z"/>
		<path d="M166.38,455.07c0,0.47-0.09,0.9-0.28,1.31s-0.44,0.76-0.75,1.08c-0.31,0.31-0.68,0.56-1.09,0.74
			c-0.41,0.18-0.85,0.27-1.32,0.27c-0.47,0-0.9-0.09-1.31-0.27c-0.4-0.18-0.76-0.43-1.08-0.74c-0.31-0.31-0.56-0.67-0.74-1.08
			c-0.18-0.4-0.27-0.84-0.27-1.31c0-0.47,0.09-0.91,0.27-1.33c0.18-0.42,0.43-0.79,0.74-1.1c0.31-0.31,0.67-0.56,1.08-0.74
			c0.4-0.18,0.84-0.27,1.31-0.27c0.47,0,0.91,0.09,1.32,0.27c0.41,0.18,0.78,0.43,1.09,0.74c0.31,0.31,0.57,0.68,0.75,1.1
			S166.38,454.61,166.38,455.07z M165.3,463.64v27.28h-4.79v-27.28H165.3z"/>
		<path d="M192.36,468.48c-0.14,0.2-0.29,0.35-0.43,0.46c-0.14,0.11-0.35,0.16-0.62,0.16s-0.56-0.11-0.88-0.34
			c-0.31-0.22-0.71-0.47-1.2-0.74c-0.49-0.27-1.07-0.52-1.76-0.74s-1.54-0.34-2.54-0.34c-1.33,0-2.5,0.24-3.53,0.71
			s-1.88,1.16-2.57,2.06c-0.69,0.9-1.21,1.98-1.56,3.26c-0.35,1.28-0.52,2.7-0.52,4.28c0,1.65,0.19,3.12,0.57,4.4
			c0.38,1.28,0.91,2.36,1.59,3.23c0.68,0.87,1.51,1.54,2.49,1.99s2.08,0.69,3.3,0.69c1.17,0,2.13-0.14,2.88-0.42
			s1.38-0.59,1.88-0.93c0.5-0.34,0.92-0.65,1.24-0.93s0.65-0.42,0.97-0.42c0.41,0,0.72,0.15,0.92,0.46l1.35,1.75
			c-1.18,1.45-2.67,2.52-4.44,3.19c-1.78,0.67-3.65,1.01-5.63,1.01c-1.71,0-3.29-0.31-4.75-0.94c-1.46-0.63-2.73-1.54-3.81-2.73
			c-1.08-1.19-1.92-2.66-2.54-4.4c-0.62-1.74-0.93-3.73-0.93-5.95c0-2.03,0.28-3.91,0.85-5.63c0.57-1.72,1.39-3.21,2.48-4.46
			c1.09-1.25,2.43-2.22,4.03-2.92c1.6-0.7,3.43-1.05,5.49-1.05c1.9,0,3.59,0.31,5.06,0.93c1.47,0.62,2.77,1.5,3.91,2.63
			L192.36,468.48z"/>
		<path d="M203.89,451.25v23.35h1.24c0.36,0,0.66-0.05,0.89-0.15c0.23-0.1,0.49-0.3,0.78-0.61l8.62-9.24
			c0.27-0.29,0.54-0.52,0.81-0.7s0.63-0.27,1.08-0.27h4.36l-10.05,10.69c-0.25,0.31-0.5,0.58-0.74,0.81s-0.52,0.44-0.82,0.62
			c0.32,0.21,0.61,0.46,0.88,0.74c0.26,0.28,0.51,0.6,0.74,0.96l10.67,13.47h-4.31c-0.4,0-0.73-0.08-1.01-0.23s-0.54-0.39-0.79-0.71
			l-8.97-11.18c-0.27-0.38-0.54-0.62-0.81-0.74s-0.67-0.18-1.21-0.18h-1.35v13.04h-4.82v-39.67H203.89z"/>
		<path d="M257.56,490.92h-2.13c-0.47,0-0.84-0.07-1.13-0.22c-0.29-0.14-0.48-0.45-0.57-0.92l-0.54-2.53
			c-0.72,0.65-1.42,1.23-2.1,1.74s-1.4,0.94-2.15,1.29c-0.75,0.35-1.56,0.62-2.41,0.79c-0.85,0.18-1.8,0.27-2.84,0.27
			c-1.06,0-2.05-0.15-2.98-0.45s-1.73-0.74-2.41-1.34s-1.23-1.35-1.63-2.26c-0.4-0.91-0.61-1.99-0.61-3.23
			c0-1.08,0.3-2.12,0.89-3.12c0.59-1,1.55-1.89,2.87-2.66c1.32-0.78,3.05-1.41,5.18-1.91c2.14-0.5,4.75-0.74,7.84-0.74v-2.14
			c0-2.13-0.45-3.74-1.36-4.84c-0.91-1.09-2.25-1.64-4.03-1.64c-1.17,0-2.15,0.15-2.95,0.44c-0.8,0.3-1.49,0.63-2.07,1
			c-0.58,0.37-1.09,0.7-1.51,1c-0.42,0.3-0.84,0.44-1.25,0.44c-0.32,0-0.61-0.09-0.85-0.26c-0.24-0.17-0.44-0.38-0.58-0.63
			l-0.86-1.53c1.51-1.46,3.13-2.54,4.88-3.26c1.74-0.72,3.67-1.08,5.79-1.08c1.53,0,2.88,0.25,4.07,0.75c1.19,0.5,2.18,1.2,2.99,2.1
			c0.81,0.9,1.42,1.98,1.83,3.26c0.41,1.27,0.62,2.67,0.62,4.2V490.92z M245.12,487.98c0.84,0,1.62-0.08,2.32-0.26
			c0.7-0.17,1.36-0.41,1.98-0.73c0.62-0.31,1.21-0.7,1.78-1.14c0.57-0.45,1.12-0.96,1.66-1.53v-5.63c-2.21,0-4.08,0.14-5.63,0.42
			s-2.8,0.65-3.77,1.1c-0.97,0.45-1.67,0.98-2.11,1.6c-0.44,0.61-0.66,1.3-0.66,2.06c0,0.72,0.12,1.35,0.35,1.87
			s0.55,0.95,0.94,1.29c0.39,0.33,0.86,0.58,1.4,0.73C243.91,487.91,244.49,487.98,245.12,487.98z"/>
		<path d="M275.98,490.92v-38.59h12.31c2.37,0,4.41,0.23,6.13,0.7c1.71,0.47,3.12,1.13,4.23,1.99c1.1,0.86,1.92,1.92,2.45,3.17
			c0.53,1.25,0.79,2.65,0.79,4.21c0,0.95-0.15,1.87-0.44,2.75c-0.3,0.88-0.75,1.7-1.35,2.45s-1.36,1.43-2.26,2.02
			c-0.91,0.59-1.97,1.08-3.19,1.45c2.82,0.56,4.95,1.57,6.38,3.04c1.44,1.47,2.15,3.41,2.15,5.82c0,1.63-0.3,3.12-0.9,4.47
			s-1.48,2.5-2.64,3.47c-1.16,0.97-2.58,1.72-4.25,2.25c-1.68,0.53-3.6,0.79-5.75,0.79H275.98z M281.21,469.62h6.89
			c1.47,0,2.75-0.16,3.82-0.48s1.97-0.77,2.68-1.35c0.71-0.57,1.23-1.27,1.58-2.09c0.34-0.82,0.51-1.71,0.51-2.68
			c0-2.26-0.68-3.92-2.05-4.98c-1.37-1.06-3.48-1.59-6.36-1.59h-7.08V469.62z M281.21,473.33v13.44h8.35c1.49,0,2.77-0.17,3.84-0.51
			c1.07-0.34,1.95-0.82,2.64-1.44c0.69-0.62,1.2-1.36,1.52-2.21c0.32-0.85,0.48-1.79,0.48-2.81c0-1.99-0.7-3.57-2.11-4.73
			c-1.41-1.16-3.54-1.74-6.4-1.74H281.21z"/>
		<path d="M310.08,490.92v-27.28h2.75c0.52,0,0.88,0.1,1.08,0.3c0.2,0.2,0.33,0.54,0.4,1.02l0.32,4.26c0.93-1.9,2.09-3.39,3.46-4.46
			c1.37-1.07,2.98-1.6,4.83-1.6c0.75,0,1.44,0.08,2.05,0.26c0.61,0.17,1.18,0.41,1.7,0.71l-0.62,3.58c-0.13,0.45-0.4,0.67-0.83,0.67
			c-0.25,0-0.64-0.08-1.16-0.26s-1.25-0.26-2.18-0.26c-1.67,0-3.07,0.48-4.19,1.45s-2.06,2.38-2.81,4.23v17.37H310.08z"/>
		<path d="M338.19,455.07c0,0.47-0.09,0.9-0.28,1.31s-0.44,0.76-0.75,1.08c-0.31,0.31-0.68,0.56-1.09,0.74
			c-0.41,0.18-0.85,0.27-1.32,0.27s-0.9-0.09-1.31-0.27c-0.4-0.18-0.76-0.43-1.08-0.74s-0.56-0.67-0.74-1.08
			c-0.18-0.4-0.27-0.84-0.27-1.31c0-0.47,0.09-0.91,0.27-1.33c0.18-0.42,0.43-0.79,0.74-1.1c0.31-0.31,0.67-0.56,1.08-0.74
			c0.4-0.18,0.84-0.27,1.31-0.27s0.91,0.09,1.32,0.27c0.41,0.18,0.78,0.43,1.09,0.74c0.31,0.31,0.57,0.68,0.75,1.1
			S338.19,454.61,338.19,455.07z M337.12,463.64v27.28h-4.79v-27.28H337.12z"/>
		<path d="M364.18,468.48c-0.14,0.2-0.29,0.35-0.43,0.46c-0.14,0.11-0.35,0.16-0.62,0.16s-0.56-0.11-0.88-0.34
			c-0.31-0.22-0.71-0.47-1.2-0.74c-0.48-0.27-1.07-0.52-1.76-0.74s-1.54-0.34-2.54-0.34c-1.33,0-2.5,0.24-3.53,0.71
			s-1.88,1.16-2.57,2.06c-0.69,0.9-1.21,1.98-1.56,3.26c-0.35,1.28-0.53,2.7-0.53,4.28c0,1.65,0.19,3.12,0.57,4.4
			c0.38,1.28,0.91,2.36,1.59,3.23c0.68,0.87,1.51,1.54,2.49,1.99c0.98,0.46,2.08,0.69,3.3,0.69c1.17,0,2.13-0.14,2.88-0.42
			c0.75-0.28,1.38-0.59,1.88-0.93c0.5-0.34,0.92-0.65,1.24-0.93s0.65-0.42,0.97-0.42c0.41,0,0.72,0.15,0.92,0.46l1.35,1.75
			c-1.19,1.45-2.67,2.52-4.44,3.19c-1.78,0.67-3.65,1.01-5.63,1.01c-1.71,0-3.29-0.31-4.75-0.94c-1.46-0.63-2.73-1.54-3.81-2.73
			s-1.93-2.66-2.54-4.4s-0.93-3.73-0.93-5.95c0-2.03,0.28-3.91,0.85-5.63c0.57-1.72,1.39-3.21,2.48-4.46
			c1.09-1.25,2.43-2.22,4.03-2.92c1.6-0.7,3.43-1.05,5.49-1.05c1.9,0,3.59,0.31,5.06,0.93c1.47,0.62,2.77,1.5,3.91,2.63
			L364.18,468.48z"/>
		<path d="M375.71,451.25v23.35h1.24c0.36,0,0.66-0.05,0.89-0.15c0.23-0.1,0.49-0.3,0.78-0.61l8.62-9.24
			c0.27-0.29,0.54-0.52,0.81-0.7c0.27-0.18,0.63-0.27,1.08-0.27h4.36l-10.04,10.69c-0.25,0.31-0.5,0.58-0.74,0.81
			c-0.24,0.23-0.52,0.44-0.82,0.62c0.32,0.21,0.62,0.46,0.88,0.74c0.26,0.28,0.51,0.6,0.74,0.96l10.67,13.47h-4.31
			c-0.39,0-0.73-0.08-1.01-0.23s-0.54-0.39-0.79-0.71l-8.97-11.18c-0.27-0.38-0.54-0.62-0.81-0.74s-0.67-0.18-1.21-0.18h-1.35v13.04
			h-4.82v-39.67H375.71z"/>
	</g>
</g>
<g id="References">
</g>
</svg>
