<?xml version="1.0" encoding="utf-8"?>
<!-- Generator: Adobe Illustrator 28.0.0, SVG Export Plug-In . SVG Version: 6.00 Build 0)  -->
<svg version="1.1" xmlns="http://www.w3.org/2000/svg" xmlns:xlink="http://www.w3.org/1999/xlink" x="0px" y="0px"
	 viewBox="0 0 512 512" style="enable-background:new 0 0 512 512;" xml:space="preserve">
<style type="text/css">
	.st0{fill:url(#SVGID_1_);}
	.st1{fill:url(#SVGID_00000141420260382709183490000014689568604354364324_);}
	.st2{fill:url(#SVGID_00000124120740154481805020000017830197535737450632_);}
	.st3{fill:none;stroke:#FFFFFF;stroke-width:15;stroke-miterlimit:10;}
	.st4{fill:#FFFFFF;}
	.st5{fill:none;stroke:#FFFFFF;stroke-width:9;stroke-miterlimit:10;}
	.st6{fill:url(#SVGID_00000054231832709577142780000011650229697428122024_);}
	.st7{fill:none;stroke:#FFFFFF;stroke-width:15;stroke-linecap:round;stroke-linejoin:round;stroke-miterlimit:10;}
	.st8{fill:none;stroke:#FFFFFF;stroke-width:10;stroke-linecap:round;stroke-linejoin:round;stroke-miterlimit:10;}
	.st9{fill:url(#SVGID_00000145773537525541015730000007576060427926847387_);}
	.st10{fill:url(#SVGID_00000151503543837266900300000013286817387663308731_);}
	.st11{fill:url(#SVGID_00000175281087008620061730000008226997004299904149_);}
	.st12{fill:url(#SVGID_00000172424524055682551000000016657329973792424627_);}
	.st13{fill:url(#SVGID_00000042720643166800956790000009079419419133138362_);}
	.st14{fill:url(#SVGID_00000054245849106606325850000002811335100214449065_);}
	.st15{fill:url(#SVGID_00000002386770717444733830000013449965788285336755_);}
	.st16{fill:url(#SVGID_00000173856064988172358540000003409161248645552275_);}
	.st17{fill:url(#SVGID_00000040565654317916283650000002558524370961304244_);}
	.st18{fill:url(#SVGID_00000096765545234104717140000006841803735106732198_);}
	.st19{fill:url(#SVGID_00000026137345217994945970000002849029011021720204_);}
	.st20{fill:url(#SVGID_00000128484472859057622540000015871880527566090912_);}
	.st21{fill:url(#SVGID_00000154394395090249587080000011816678208175345047_);}
	.st22{fill:url(#SVGID_00000095333709409475222520000011536369354603006875_);}
	.st23{fill:url(#SVGID_00000078029699750454484180000017478252476368807064_);}
	.st24{fill:url(#SVGID_00000049181148851067401160000015774611040719305866_);}
	.st25{fill:url(#SVGID_00000080893952834674985890000004516856039912036030_);}
	.st26{fill:url(#SVGID_00000159449816295485644660000012859312479237300123_);}
	.st27{fill:#BCBEC0;}
	.st28{fill:url(#SVGID_00000107550124421996736810000011250524305419823492_);}
	.st29{fill:url(#SVGID_00000096749513588147697430000018085912884855872131_);}
	.st30{fill-rule:evenodd;clip-rule:evenodd;fill:#FFFFFF;}
	.st31{clip-path:url(#SVGID_00000011014062991567954610000009560937403625234591_);}
	.st32{fill:none;stroke:#FFFFFF;stroke-width:15.6378;stroke-miterlimit:10;}
	.st33{fill:none;stroke:#FFFFFF;stroke-width:9.8091;stroke-linecap:round;stroke-linejoin:round;stroke-miterlimit:10;}
	.st34{fill:url(#SVGID_00000048464302983900509630000017492479616813471389_);}
	.st35{fill:none;stroke:#FFFFFF;stroke-width:14.3924;stroke-linecap:round;stroke-linejoin:round;stroke-miterlimit:10;}
	.st36{fill:none;stroke:#FFFFFF;stroke-width:8;stroke-linecap:round;stroke-linejoin:round;stroke-miterlimit:10;}
	.st37{fill:url(#SVGID_00000126302940053955134620000004785061302931976582_);}
	.st38{fill:#FFFFFF;stroke:#FFFFFF;stroke-width:2.9178;stroke-miterlimit:10;}
</style>
<g id="GPS">
</g>
<g id="Icons">
	<g>
		<linearGradient id="SVGID_1_" gradientUnits="userSpaceOnUse" x1="59.6132" y1="227.5236" x2="464.8008" y2="227.5236">
			<stop  offset="0" style="stop-color:#F15D22"/>
			<stop  offset="1" style="stop-color:#ED2024"/>
		</linearGradient>
		<path class="st0" d="M262.21,24.93c-111.89,0-202.59,90.7-202.59,202.59c0,111.89,90.7,202.59,202.59,202.59
			c111.89,0,202.59-90.7,202.59-202.59C464.8,115.63,374.1,24.93,262.21,24.93z"/>
		<g>
			<path class="st4" d="M343.14,193.15h-20.69c-5.41,0-9.8-4.39-9.8-9.8v-30.77c0-5.41,4.39-9.8,9.8-9.8h20.69
				c5.41,0,9.8,4.39,9.8,9.8v30.77C352.94,188.77,348.55,193.15,343.14,193.15z"/>
			<g>
				<path class="st4" d="M292.51,193.15h-16.03c-5.41,0-9.8-4.39-9.8-9.8v-30.77c0-5.41,4.39-9.8,9.8-9.8h16.03
					c5.41,0,9.8,4.39,9.8,9.8v30.77C302.31,188.77,297.92,193.15,292.51,193.15z"/>
				<path class="st4" d="M292.51,312.26h-16.03c-5.41,0-9.8-4.39-9.8-9.8v-30.77c0-5.41,4.39-9.8,9.8-9.8h16.03
					c5.41,0,9.8,4.39,9.8,9.8v30.77C302.31,307.87,297.92,312.26,292.51,312.26z"/>
				<path class="st4" d="M343.14,312.26h-20.69c-5.41,0-9.8-4.39-9.8-9.8v-30.77c0-5.41,4.39-9.8,9.8-9.8h20.69
					c5.41,0,9.8,4.39,9.8,9.8v30.77C352.94,307.87,348.55,312.26,343.14,312.26z"/>
				<path class="st4" d="M343.14,252.71h-66.66c-5.41,0-9.8-4.39-9.8-9.8v-30.77c0-5.41,4.39-9.8,9.8-9.8h66.66
					c5.41,0,9.8,4.39,9.8,9.8v30.77C352.94,248.32,348.55,252.71,343.14,252.71z"/>
				<path class="st4" d="M247.93,312.26h-66.66c-5.41,0-9.8-4.39-9.8-9.8v-30.77c0-5.41,4.39-9.8,9.8-9.8h66.66
					c5.41,0,9.8,4.39,9.8,9.8v30.77C257.72,307.87,253.34,312.26,247.93,312.26z"/>
				<path class="st4" d="M247.93,193.15h-66.66c-5.41,0-9.8-4.39-9.8-9.8v-30.77c0-5.41,4.39-9.8,9.8-9.8h66.66
					c5.41,0,9.8,4.39,9.8,9.8v30.77C257.72,188.77,253.34,193.15,247.93,193.15z"/>
				<path class="st4" d="M188.87,252.71h-7.6c-5.41,0-9.8-4.39-9.8-9.8v-30.77c0-5.41,4.39-9.8,9.8-9.8h7.6c5.41,0,9.8,4.39,9.8,9.8
					v30.77C198.67,248.32,194.29,252.71,188.87,252.71z"/>
				<path class="st4" d="M247.93,252.71h-29.12c-5.41,0-9.8-4.39-9.8-9.8v-30.77c0-5.41,4.39-9.8,9.8-9.8h29.12
					c5.41,0,9.8,4.39,9.8,9.8v30.77C257.72,248.32,253.34,252.71,247.93,252.71z"/>
			</g>
		</g>
	</g>
	<g>
		<path d="M195.82,476.91v14.44h-5.2v-38.59h11.39c2.44,0,4.56,0.28,6.37,0.85s3.3,1.37,4.48,2.41c1.19,1.04,2.07,2.3,2.65,3.77
			c0.58,1.47,0.88,3.12,0.88,4.93c0,1.79-0.31,3.44-0.94,4.93c-0.63,1.49-1.55,2.77-2.76,3.85s-2.72,1.92-4.51,2.52
			c-1.8,0.6-3.85,0.9-6.17,0.9H195.82z M195.82,472.77h6.19c1.49,0,2.8-0.2,3.95-0.59s2.1-0.95,2.87-1.66
			c0.77-0.71,1.36-1.56,1.75-2.54s0.59-2.07,0.59-3.26c0-2.46-0.76-4.38-2.28-5.76c-1.52-1.38-3.81-2.07-6.88-2.07h-6.19V472.77z"/>
		<path d="M240.93,491.35h-2.13c-0.47,0-0.84-0.07-1.13-0.22c-0.29-0.14-0.48-0.45-0.57-0.92l-0.54-2.53
			c-0.72,0.65-1.42,1.23-2.1,1.74c-0.68,0.51-1.4,0.94-2.16,1.29c-0.75,0.35-1.56,0.62-2.41,0.79c-0.85,0.18-1.8,0.27-2.84,0.27
			c-1.06,0-2.05-0.15-2.98-0.45s-1.73-0.74-2.41-1.34c-0.68-0.59-1.22-1.35-1.63-2.26c-0.4-0.91-0.61-1.99-0.61-3.23
			c0-1.08,0.3-2.12,0.89-3.12c0.59-1,1.55-1.89,2.87-2.66c1.32-0.78,3.05-1.41,5.18-1.91c2.14-0.5,4.75-0.74,7.84-0.74v-2.14
			c0-2.13-0.45-3.74-1.36-4.84c-0.91-1.09-2.25-1.64-4.03-1.64c-1.17,0-2.15,0.15-2.95,0.44c-0.8,0.3-1.49,0.63-2.07,1
			c-0.58,0.37-1.09,0.7-1.51,1c-0.42,0.3-0.84,0.44-1.25,0.44c-0.32,0-0.61-0.09-0.85-0.26c-0.24-0.17-0.44-0.38-0.58-0.63
			l-0.86-1.53c1.51-1.46,3.13-2.54,4.88-3.26c1.74-0.72,3.67-1.08,5.79-1.08c1.53,0,2.88,0.25,4.07,0.75c1.18,0.5,2.18,1.2,2.99,2.1
			c0.81,0.9,1.42,1.98,1.83,3.26c0.41,1.27,0.62,2.67,0.62,4.2V491.35z M228.49,488.41c0.84,0,1.62-0.08,2.32-0.26
			c0.7-0.17,1.36-0.41,1.98-0.73c0.62-0.31,1.21-0.7,1.78-1.14c0.57-0.45,1.12-0.96,1.66-1.53v-5.63c-2.21,0-4.08,0.14-5.63,0.42
			s-2.8,0.65-3.77,1.1c-0.97,0.45-1.67,0.98-2.12,1.6c-0.44,0.61-0.66,1.3-0.66,2.06c0,0.72,0.12,1.35,0.35,1.87
			c0.23,0.52,0.55,0.95,0.94,1.29c0.4,0.33,0.86,0.58,1.4,0.73C227.28,488.34,227.86,488.41,228.49,488.41z"/>
		<path d="M248.2,491.35v-27.28h2.75c0.52,0,0.88,0.1,1.08,0.3c0.2,0.2,0.33,0.54,0.4,1.02l0.32,4.26c0.93-1.9,2.09-3.39,3.46-4.46
			c1.37-1.07,2.99-1.6,4.83-1.6c0.75,0,1.44,0.08,2.05,0.26s1.18,0.41,1.7,0.71l-0.62,3.58c-0.12,0.45-0.4,0.67-0.83,0.67
			c-0.25,0-0.64-0.08-1.16-0.26c-0.52-0.17-1.25-0.26-2.18-0.26c-1.67,0-3.07,0.48-4.19,1.45c-1.12,0.97-2.06,2.38-2.81,4.23v17.37
			H248.2z"/>
		<path d="M278.17,491.78c-2.15,0-3.81-0.6-4.97-1.8c-1.16-1.2-1.74-2.94-1.74-5.2v-16.7h-3.29c-0.29,0-0.53-0.08-0.73-0.26
			c-0.2-0.17-0.3-0.44-0.3-0.79v-1.91l4.47-0.57l1.1-8.43c0.04-0.27,0.15-0.49,0.35-0.66s0.45-0.26,0.75-0.26h2.42v9.4h7.81v3.47
			h-7.81v16.37c0,1.15,0.28,2,0.84,2.56c0.56,0.56,1.27,0.83,2.15,0.83c0.5,0,0.94-0.07,1.31-0.2s0.69-0.28,0.96-0.44
			c0.27-0.16,0.5-0.31,0.69-0.44c0.19-0.13,0.35-0.2,0.5-0.2c0.25,0,0.47,0.15,0.67,0.46l1.4,2.29c-0.83,0.77-1.82,1.38-2.99,1.82
			C280.62,491.56,279.41,491.78,278.17,491.78z"/>
		<path d="M305.62,468.56c-0.21,0.4-0.55,0.59-1,0.59c-0.27,0-0.58-0.1-0.92-0.3c-0.34-0.2-0.76-0.42-1.25-0.66
			c-0.49-0.24-1.08-0.47-1.76-0.67c-0.68-0.21-1.49-0.31-2.42-0.31c-0.81,0-1.54,0.1-2.18,0.31s-1.2,0.49-1.66,0.85
			c-0.46,0.36-0.81,0.78-1.05,1.25s-0.36,0.99-0.36,1.55c0,0.7,0.2,1.28,0.61,1.75s0.94,0.87,1.6,1.21s1.42,0.64,2.26,0.9
			c0.84,0.26,1.71,0.54,2.6,0.83c0.89,0.3,1.76,0.62,2.6,0.98c0.84,0.36,1.6,0.81,2.26,1.35c0.66,0.54,1.2,1.2,1.6,1.98
			c0.4,0.78,0.61,1.72,0.61,2.81c0,1.26-0.22,2.42-0.67,3.49c-0.45,1.07-1.11,1.99-1.99,2.77c-0.88,0.78-1.96,1.4-3.23,1.84
			c-1.28,0.45-2.75,0.67-4.42,0.67c-1.9,0-3.63-0.31-5.17-0.93c-1.54-0.62-2.85-1.41-3.93-2.38l1.13-1.83
			c0.14-0.23,0.31-0.41,0.51-0.54c0.2-0.12,0.46-0.19,0.78-0.19c0.32,0,0.66,0.13,1.02,0.38c0.36,0.25,0.79,0.53,1.31,0.83
			c0.51,0.31,1.13,0.58,1.86,0.83c0.73,0.25,1.64,0.38,2.73,0.38c0.93,0,1.75-0.12,2.45-0.36c0.7-0.24,1.28-0.57,1.75-0.98
			c0.47-0.41,0.81-0.89,1.04-1.43c0.22-0.54,0.34-1.11,0.34-1.72c0-0.75-0.2-1.38-0.61-1.87c-0.4-0.49-0.94-0.92-1.6-1.27
			c-0.66-0.35-1.42-0.66-2.28-0.92c-0.85-0.26-1.72-0.53-2.61-0.82c-0.89-0.29-1.76-0.61-2.61-0.98c-0.85-0.37-1.61-0.83-2.28-1.39
			s-1.2-1.24-1.6-2.06s-0.61-1.81-0.61-2.98c0-1.04,0.22-2.04,0.65-3c0.43-0.96,1.06-1.8,1.89-2.53c0.82-0.73,1.84-1.31,3.04-1.74
			c1.2-0.43,2.58-0.65,4.12-0.65c1.8,0,3.41,0.28,4.83,0.85c1.43,0.57,2.66,1.34,3.7,2.33L305.62,468.56z"/>
	</g>
</g>
<g id="References">
</g>
</svg>
