<svg width="900" height="900" viewBox="0 0 900 900" fill="none" xmlns="http://www.w3.org/2000/svg">
<rect width="900" height="900" fill="black"/>
<path d="M472.252 201.034C460.741 213.876 454.286 230.461 454.087 247.705C453.887 264.949 459.958 281.679 471.169 294.783" stroke="#B80C09" stroke-width="8.16495"/>
<path d="M440.813 185.366C425.504 202.444 416.919 224.501 416.654 247.434C416.389 270.367 424.463 292.616 439.373 310.042" stroke="#B80C09" stroke-width="10.8585"/>
<path d="M410.979 167.047C391.043 189.288 379.862 218.012 379.517 247.879C379.172 277.745 389.686 306.721 409.103 329.416" stroke="#B80C09" stroke-width="14.1414"/>
<path d="M504.102 322.902V214.652C504.102 178.174 533.762 148.473 570.197 148.473C606.631 148.473 636.291 178.172 636.291 214.652V322.902C636.291 359.381 606.631 389.081 570.197 389.081C533.762 389.081 504.102 359.383 504.102 322.902ZM661.06 370.534C654.856 366.508 646.559 368.274 642.538 374.486C626.541 399.125 599.528 413.883 570.213 413.883C540.897 413.883 513.839 399.169 497.888 374.486C493.866 368.274 485.569 366.523 479.365 370.534C473.161 374.561 471.412 382.869 475.419 389.081C493.896 417.596 523.675 435.946 556.822 439.855V479.432C556.822 486.827 562.831 492.844 570.216 492.844C577.602 492.844 583.611 486.827 583.611 479.432V439.855C616.755 435.948 646.533 417.596 665.014 389.081C669.036 382.868 667.272 374.561 661.068 370.534H661.06Z" fill="#B80C09"/>
<path d="M668.185 201.034C679.696 213.876 686.152 230.461 686.351 247.705C686.55 264.949 680.479 281.679 669.268 294.783" stroke="#B80C09" stroke-width="8.16495"/>
<path d="M699.625 185.366C714.933 202.444 723.518 224.501 723.783 247.434C724.048 270.367 715.975 292.616 701.065 310.042" stroke="#B80C09" stroke-width="10.8585"/>
<path d="M729.458 167.047C749.395 189.288 760.575 218.012 760.921 247.879C761.266 277.745 750.752 306.721 731.334 329.416" stroke="#B80C09" stroke-width="14.1414"/>
<path d="M221.242 492.62H142.464V380.102H164.983V470.1H221.242V492.62ZM256.002 385.752C256.002 387.739 255.609 389.596 254.825 391.323C254.092 393.049 253.072 394.566 251.765 395.873C250.457 397.129 248.914 398.149 247.135 398.934C245.409 399.666 243.552 400.032 241.564 400.032C239.577 400.032 237.693 399.666 235.915 398.934C234.189 398.149 232.672 397.129 231.364 395.873C230.109 394.566 229.089 393.049 228.304 391.323C227.572 389.596 227.205 387.739 227.205 385.752C227.205 383.816 227.572 381.985 228.304 380.259C229.089 378.481 230.109 376.964 231.364 375.708C232.672 374.401 234.189 373.38 235.915 372.648C237.693 371.864 239.577 371.471 241.564 371.471C243.552 371.471 245.409 371.864 247.135 372.648C248.914 373.38 250.457 374.401 251.765 375.708C253.072 376.964 254.092 378.481 254.825 380.259C255.609 381.985 256.002 383.816 256.002 385.752ZM252.314 492.62H230.736V408.585H252.314V492.62ZM292.566 492.62L260.553 408.585H284.955L303.316 460.999L321.598 408.585H346.078L314.065 492.62H292.566ZM385.153 472.062C385.99 472.324 386.827 472.507 387.664 472.611C388.501 472.664 389.338 472.69 390.175 472.69C392.268 472.69 394.281 472.402 396.217 471.827C398.152 471.251 399.957 470.44 401.631 469.394C403.357 468.296 404.874 466.988 406.182 465.471C407.542 463.902 408.64 462.176 409.477 460.292L425.17 476.064C423.182 478.888 420.881 481.425 418.265 483.675C415.702 485.924 412.904 487.833 409.87 489.403C406.888 490.972 403.723 492.149 400.376 492.933C397.08 493.77 393.68 494.189 390.175 494.189C384.264 494.189 378.693 493.09 373.462 490.893C368.284 488.696 363.733 485.636 359.81 481.713C355.939 477.79 352.879 473.134 350.629 467.747C348.38 462.306 347.255 456.343 347.255 449.857C347.255 443.213 348.38 437.146 350.629 431.653C352.879 426.161 355.939 421.479 359.81 417.608C363.733 413.737 368.284 410.729 373.462 408.585C378.693 406.44 384.264 405.368 390.175 405.368C393.68 405.368 397.106 405.786 400.454 406.623C403.802 407.46 406.966 408.663 409.948 410.232C412.982 411.802 415.807 413.737 418.422 416.039C421.038 418.288 423.339 420.825 425.327 423.65L385.153 472.062ZM396.138 427.887C395.145 427.521 394.151 427.285 393.157 427.181C392.215 427.076 391.221 427.024 390.175 427.024C387.246 427.024 384.473 427.573 381.858 428.671C379.295 429.718 377.046 431.235 375.11 433.222C373.227 435.21 371.736 437.616 370.638 440.441C369.539 443.213 368.99 446.352 368.99 449.857C368.99 450.641 369.016 451.531 369.068 452.525C369.173 453.518 369.304 454.538 369.461 455.585C369.67 456.578 369.905 457.546 370.167 458.488C370.428 459.429 370.768 460.266 371.187 460.999L396.138 427.887ZM457.733 492.62H436.155V375.159H457.733V492.62Z" fill="#B80C09"/>
<mask id="path-9-inside-1_19_2" fill="white">
<path d="M173.602 570.427V626.482H201.629C205.47 626.482 209.084 625.765 212.469 624.333C215.854 622.836 218.817 620.818 221.356 618.278C223.895 615.739 225.881 612.777 227.313 609.392C228.81 605.941 229.559 602.295 229.559 598.454C229.559 594.613 228.81 591 227.313 587.614C225.881 584.164 223.895 581.169 221.356 578.63C218.817 576.091 215.854 574.105 212.469 572.673C209.084 571.175 205.47 570.427 201.629 570.427H173.602ZM173.602 682.439H145.574V542.399H201.629C206.772 542.399 211.72 543.083 216.473 544.45C221.226 545.752 225.653 547.64 229.754 550.114C233.921 552.523 237.697 555.453 241.082 558.903C244.533 562.289 247.463 566.065 249.872 570.231C252.345 574.398 254.234 578.858 255.536 583.61C256.903 588.363 257.586 593.311 257.586 598.454C257.586 603.272 256.968 607.959 255.731 612.517C254.559 617.074 252.834 621.403 250.555 625.505C248.342 629.607 245.607 633.383 242.352 636.833C239.097 640.284 235.451 643.279 231.414 645.818L246.942 682.439H217.157L204.949 654.216L173.602 654.411V682.439Z"/>
<path d="M373.31 682.439H366.864L356.513 668.083C353.974 670.362 351.272 672.51 348.407 674.529C345.608 676.482 342.645 678.207 339.52 679.704C336.395 681.137 333.173 682.276 329.852 683.122C326.597 683.969 323.277 684.392 319.891 684.392C312.535 684.392 305.601 683.155 299.09 680.681C292.645 678.207 286.981 674.626 282.098 669.939C277.28 665.186 273.472 659.392 270.672 652.556C267.873 645.72 266.473 637.94 266.473 629.216C266.473 621.078 267.873 613.623 270.672 606.853C273.472 600.017 277.28 594.157 282.098 589.274C286.981 584.392 292.645 580.616 299.09 577.946C305.601 575.212 312.535 573.845 319.891 573.845C323.277 573.845 326.63 574.268 329.95 575.114C333.27 575.961 336.493 577.132 339.618 578.63C342.743 580.127 345.705 581.885 348.505 583.903C351.369 585.922 354.039 588.103 356.513 590.446L366.864 578.044H373.31V682.439ZM346.454 629.216C346.454 625.57 345.738 622.054 344.306 618.669C342.938 615.219 341.05 612.191 338.641 609.587C336.233 606.918 333.401 604.802 330.145 603.239C326.955 601.612 323.537 600.798 319.891 600.798C316.245 600.798 312.795 601.416 309.54 602.653C306.35 603.89 303.55 605.713 301.141 608.122C298.798 610.531 296.942 613.526 295.575 617.107C294.208 620.622 293.524 624.659 293.524 629.216C293.524 633.773 294.208 637.842 295.575 641.423C296.942 644.939 298.798 647.901 301.141 650.31C303.55 652.719 306.35 654.542 309.54 655.779C312.795 657.016 316.245 657.634 319.891 657.634C323.537 657.634 326.955 656.853 330.145 655.29C333.401 653.663 336.233 651.547 338.641 648.943C341.05 646.273 342.938 643.246 344.306 639.861C345.738 636.41 346.454 632.862 346.454 629.216Z"/>
<path d="M494.794 682.439H488.349L477.997 668.083C475.458 670.362 472.757 672.51 469.892 674.529C467.092 676.482 464.13 678.207 461.005 679.704C457.88 681.137 454.658 682.276 451.337 683.122C448.082 683.969 444.762 684.392 441.376 684.392C434.019 684.392 427.086 683.025 420.575 680.29C414.13 677.491 408.466 673.65 403.583 668.767C398.765 663.819 394.957 657.992 392.157 651.286C389.358 644.516 387.958 637.159 387.958 629.216C387.958 621.338 389.358 614.014 392.157 607.243C394.957 600.472 398.765 594.613 403.583 589.665C408.466 584.717 414.13 580.843 420.575 578.044C427.086 575.244 434.019 573.845 441.376 573.845C443.72 573.845 446.129 574.04 448.603 574.431C451.142 574.821 453.583 575.472 455.927 576.384C458.336 577.23 460.582 578.369 462.665 579.802C464.749 581.234 466.507 582.992 467.939 585.075V536.247H494.794V682.439ZM467.939 629.216C467.939 625.57 467.223 622.054 465.79 618.669C464.423 615.219 462.535 612.191 460.126 609.587C457.717 606.918 454.885 604.802 451.63 603.239C448.44 601.612 445.022 600.798 441.376 600.798C437.73 600.798 434.28 601.449 431.025 602.751C427.834 604.053 425.035 605.941 422.626 608.415C420.282 610.824 418.427 613.786 417.06 617.302C415.693 620.818 415.009 624.789 415.009 629.216C415.009 633.057 415.693 636.703 417.06 640.154C418.427 643.604 420.282 646.631 422.626 649.236C425.035 651.84 427.834 653.891 431.025 655.388C434.28 656.885 437.73 657.634 441.376 657.634C445.022 657.634 448.44 656.853 451.63 655.29C454.885 653.663 457.717 651.547 460.126 648.943C462.535 646.273 464.423 643.246 465.79 639.861C467.223 636.41 467.939 632.862 467.939 629.216Z"/>
<path d="M546.65 549.43C546.65 551.904 546.162 554.216 545.185 556.364C544.274 558.513 543.004 560.401 541.377 562.028C539.749 563.591 537.828 564.86 535.615 565.837C533.466 566.748 531.155 567.204 528.681 567.204C526.207 567.204 523.864 566.748 521.65 565.837C519.502 564.86 517.614 563.591 515.986 562.028C514.423 560.401 513.154 558.513 512.177 556.364C511.266 554.216 510.81 551.904 510.81 549.43C510.81 547.022 511.266 544.743 512.177 542.595C513.154 540.381 514.423 538.493 515.986 536.93C517.614 535.303 519.502 534.033 521.65 533.122C523.864 532.145 526.207 531.657 528.681 531.657C531.155 531.657 533.466 532.145 535.615 533.122C537.828 534.033 539.749 535.303 541.377 536.93C543.004 538.493 544.274 540.381 545.185 542.595C546.162 544.743 546.65 547.022 546.65 549.43ZM542.06 682.439H515.205V577.849H542.06V682.439Z"/>
<path d="M663.545 629.216C663.545 637.029 662.145 644.32 659.346 651.091C656.546 657.797 652.738 663.624 647.92 668.572C643.102 673.454 637.438 677.328 630.928 680.193C624.482 682.992 617.549 684.392 610.127 684.392C602.77 684.392 595.836 682.992 589.326 680.193C582.881 677.328 577.217 673.454 572.334 668.572C567.516 663.624 563.707 657.797 560.908 651.091C558.108 644.32 556.709 637.029 556.709 629.216C556.709 621.273 558.108 613.916 560.908 607.146C563.707 600.375 567.516 594.548 572.334 589.665C577.217 584.717 582.881 580.843 589.326 578.044C595.836 575.244 602.77 573.845 610.127 573.845C617.549 573.845 624.482 575.179 630.928 577.849C637.438 580.453 643.102 584.196 647.92 589.079C652.738 593.897 656.546 599.724 659.346 606.56C662.145 613.33 663.545 620.883 663.545 629.216ZM636.69 629.216C636.69 624.919 635.973 621.045 634.541 617.595C633.174 614.079 631.286 611.084 628.877 608.61C626.468 606.071 623.636 604.151 620.381 602.849C617.191 601.481 613.773 600.798 610.127 600.798C606.481 600.798 603.031 601.481 599.775 602.849C596.585 604.151 593.786 606.071 591.377 608.61C589.033 611.084 587.178 614.079 585.81 617.595C584.443 621.045 583.76 624.919 583.76 629.216C583.76 633.252 584.443 636.996 585.81 640.446C587.178 643.897 589.033 646.892 591.377 649.431C593.786 651.97 596.585 653.988 599.775 655.486C603.031 656.918 606.481 657.634 610.127 657.634C613.773 657.634 617.191 656.95 620.381 655.583C623.636 654.216 626.468 652.296 628.877 649.822C631.286 647.348 633.174 644.353 634.541 640.837C635.973 637.321 636.69 633.448 636.69 629.216Z"/>
</mask>
<path d="M173.602 570.427V626.482H201.629C205.47 626.482 209.084 625.765 212.469 624.333C215.854 622.836 218.817 620.818 221.356 618.278C223.895 615.739 225.881 612.777 227.313 609.392C228.81 605.941 229.559 602.295 229.559 598.454C229.559 594.613 228.81 591 227.313 587.614C225.881 584.164 223.895 581.169 221.356 578.63C218.817 576.091 215.854 574.105 212.469 572.673C209.084 571.175 205.47 570.427 201.629 570.427H173.602ZM173.602 682.439H145.574V542.399H201.629C206.772 542.399 211.72 543.083 216.473 544.45C221.226 545.752 225.653 547.64 229.754 550.114C233.921 552.523 237.697 555.453 241.082 558.903C244.533 562.289 247.463 566.065 249.872 570.231C252.345 574.398 254.234 578.858 255.536 583.61C256.903 588.363 257.586 593.311 257.586 598.454C257.586 603.272 256.968 607.959 255.731 612.517C254.559 617.074 252.834 621.403 250.555 625.505C248.342 629.607 245.607 633.383 242.352 636.833C239.097 640.284 235.451 643.279 231.414 645.818L246.942 682.439H217.157L204.949 654.216L173.602 654.411V682.439Z" fill="#B80C09"/>
<path d="M373.31 682.439H366.864L356.513 668.083C353.974 670.362 351.272 672.51 348.407 674.529C345.608 676.482 342.645 678.207 339.52 679.704C336.395 681.137 333.173 682.276 329.852 683.122C326.597 683.969 323.277 684.392 319.891 684.392C312.535 684.392 305.601 683.155 299.09 680.681C292.645 678.207 286.981 674.626 282.098 669.939C277.28 665.186 273.472 659.392 270.672 652.556C267.873 645.72 266.473 637.94 266.473 629.216C266.473 621.078 267.873 613.623 270.672 606.853C273.472 600.017 277.28 594.157 282.098 589.274C286.981 584.392 292.645 580.616 299.09 577.946C305.601 575.212 312.535 573.845 319.891 573.845C323.277 573.845 326.63 574.268 329.95 575.114C333.27 575.961 336.493 577.132 339.618 578.63C342.743 580.127 345.705 581.885 348.505 583.903C351.369 585.922 354.039 588.103 356.513 590.446L366.864 578.044H373.31V682.439ZM346.454 629.216C346.454 625.57 345.738 622.054 344.306 618.669C342.938 615.219 341.05 612.191 338.641 609.587C336.233 606.918 333.401 604.802 330.145 603.239C326.955 601.612 323.537 600.798 319.891 600.798C316.245 600.798 312.795 601.416 309.54 602.653C306.35 603.89 303.55 605.713 301.141 608.122C298.798 610.531 296.942 613.526 295.575 617.107C294.208 620.622 293.524 624.659 293.524 629.216C293.524 633.773 294.208 637.842 295.575 641.423C296.942 644.939 298.798 647.901 301.141 650.31C303.55 652.719 306.35 654.542 309.54 655.779C312.795 657.016 316.245 657.634 319.891 657.634C323.537 657.634 326.955 656.853 330.145 655.29C333.401 653.663 336.233 651.547 338.641 648.943C341.05 646.273 342.938 643.246 344.306 639.861C345.738 636.41 346.454 632.862 346.454 629.216Z" fill="#B80C09"/>
<path d="M494.794 682.439H488.349L477.997 668.083C475.458 670.362 472.757 672.51 469.892 674.529C467.092 676.482 464.13 678.207 461.005 679.704C457.88 681.137 454.658 682.276 451.337 683.122C448.082 683.969 444.762 684.392 441.376 684.392C434.019 684.392 427.086 683.025 420.575 680.29C414.13 677.491 408.466 673.65 403.583 668.767C398.765 663.819 394.957 657.992 392.157 651.286C389.358 644.516 387.958 637.159 387.958 629.216C387.958 621.338 389.358 614.014 392.157 607.243C394.957 600.472 398.765 594.613 403.583 589.665C408.466 584.717 414.13 580.843 420.575 578.044C427.086 575.244 434.019 573.845 441.376 573.845C443.72 573.845 446.129 574.04 448.603 574.431C451.142 574.821 453.583 575.472 455.927 576.384C458.336 577.23 460.582 578.369 462.665 579.802C464.749 581.234 466.507 582.992 467.939 585.075V536.247H494.794V682.439ZM467.939 629.216C467.939 625.57 467.223 622.054 465.79 618.669C464.423 615.219 462.535 612.191 460.126 609.587C457.717 606.918 454.885 604.802 451.63 603.239C448.44 601.612 445.022 600.798 441.376 600.798C437.73 600.798 434.28 601.449 431.025 602.751C427.834 604.053 425.035 605.941 422.626 608.415C420.282 610.824 418.427 613.786 417.06 617.302C415.693 620.818 415.009 624.789 415.009 629.216C415.009 633.057 415.693 636.703 417.06 640.154C418.427 643.604 420.282 646.631 422.626 649.236C425.035 651.84 427.834 653.891 431.025 655.388C434.28 656.885 437.73 657.634 441.376 657.634C445.022 657.634 448.44 656.853 451.63 655.29C454.885 653.663 457.717 651.547 460.126 648.943C462.535 646.273 464.423 643.246 465.79 639.861C467.223 636.41 467.939 632.862 467.939 629.216Z" fill="#B80C09"/>
<path d="M546.65 549.43C546.65 551.904 546.162 554.216 545.185 556.364C544.274 558.513 543.004 560.401 541.377 562.028C539.749 563.591 537.828 564.86 535.615 565.837C533.466 566.748 531.155 567.204 528.681 567.204C526.207 567.204 523.864 566.748 521.65 565.837C519.502 564.86 517.614 563.591 515.986 562.028C514.423 560.401 513.154 558.513 512.177 556.364C511.266 554.216 510.81 551.904 510.81 549.43C510.81 547.022 511.266 544.743 512.177 542.595C513.154 540.381 514.423 538.493 515.986 536.93C517.614 535.303 519.502 534.033 521.65 533.122C523.864 532.145 526.207 531.657 528.681 531.657C531.155 531.657 533.466 532.145 535.615 533.122C537.828 534.033 539.749 535.303 541.377 536.93C543.004 538.493 544.274 540.381 545.185 542.595C546.162 544.743 546.65 547.022 546.65 549.43ZM542.06 682.439H515.205V577.849H542.06V682.439Z" fill="#B80C09"/>
<path d="M663.545 629.216C663.545 637.029 662.145 644.32 659.346 651.091C656.546 657.797 652.738 663.624 647.92 668.572C643.102 673.454 637.438 677.328 630.928 680.193C624.482 682.992 617.549 684.392 610.127 684.392C602.77 684.392 595.836 682.992 589.326 680.193C582.881 677.328 577.217 673.454 572.334 668.572C567.516 663.624 563.707 657.797 560.908 651.091C558.108 644.32 556.709 637.029 556.709 629.216C556.709 621.273 558.108 613.916 560.908 607.146C563.707 600.375 567.516 594.548 572.334 589.665C577.217 584.717 582.881 580.843 589.326 578.044C595.836 575.244 602.77 573.845 610.127 573.845C617.549 573.845 624.482 575.179 630.928 577.849C637.438 580.453 643.102 584.196 647.92 589.079C652.738 593.897 656.546 599.724 659.346 606.56C662.145 613.33 663.545 620.883 663.545 629.216ZM636.69 629.216C636.69 624.919 635.973 621.045 634.541 617.595C633.174 614.079 631.286 611.084 628.877 608.61C626.468 606.071 623.636 604.151 620.381 602.849C617.191 601.481 613.773 600.798 610.127 600.798C606.481 600.798 603.031 601.481 599.775 602.849C596.585 604.151 593.786 606.071 591.377 608.61C589.033 611.084 587.178 614.079 585.81 617.595C584.443 621.045 583.76 624.919 583.76 629.216C583.76 633.252 584.443 636.996 585.81 640.446C587.178 643.897 589.033 646.892 591.377 649.431C593.786 651.97 596.585 653.988 599.775 655.486C603.031 656.918 606.481 657.634 610.127 657.634C613.773 657.634 617.191 656.95 620.381 655.583C623.636 654.216 626.468 652.296 628.877 649.822C631.286 647.348 633.174 644.353 634.541 640.837C635.973 637.321 636.69 633.448 636.69 629.216Z" fill="#B80C09"/>
<path d="M173.602 570.427V626.482H201.629C205.47 626.482 209.084 625.765 212.469 624.333C215.854 622.836 218.817 620.818 221.356 618.278C223.895 615.739 225.881 612.777 227.313 609.392C228.81 605.941 229.559 602.295 229.559 598.454C229.559 594.613 228.81 591 227.313 587.614C225.881 584.164 223.895 581.169 221.356 578.63C218.817 576.091 215.854 574.105 212.469 572.673C209.084 571.175 205.47 570.427 201.629 570.427H173.602ZM173.602 682.439H145.574V542.399H201.629C206.772 542.399 211.72 543.083 216.473 544.45C221.226 545.752 225.653 547.64 229.754 550.114C233.921 552.523 237.697 555.453 241.082 558.903C244.533 562.289 247.463 566.065 249.872 570.231C252.345 574.398 254.234 578.858 255.536 583.61C256.903 588.363 257.586 593.311 257.586 598.454C257.586 603.272 256.968 607.959 255.731 612.517C254.559 617.074 252.834 621.403 250.555 625.505C248.342 629.607 245.607 633.383 242.352 636.833C239.097 640.284 235.451 643.279 231.414 645.818L246.942 682.439H217.157L204.949 654.216L173.602 654.411V682.439Z" stroke="black" stroke-width="6.20488" mask="url(#path-9-inside-1_19_2)"/>
<path d="M373.31 682.439H366.864L356.513 668.083C353.974 670.362 351.272 672.51 348.407 674.529C345.608 676.482 342.645 678.207 339.52 679.704C336.395 681.137 333.173 682.276 329.852 683.122C326.597 683.969 323.277 684.392 319.891 684.392C312.535 684.392 305.601 683.155 299.09 680.681C292.645 678.207 286.981 674.626 282.098 669.939C277.28 665.186 273.472 659.392 270.672 652.556C267.873 645.72 266.473 637.94 266.473 629.216C266.473 621.078 267.873 613.623 270.672 606.853C273.472 600.017 277.28 594.157 282.098 589.274C286.981 584.392 292.645 580.616 299.09 577.946C305.601 575.212 312.535 573.845 319.891 573.845C323.277 573.845 326.63 574.268 329.95 575.114C333.27 575.961 336.493 577.132 339.618 578.63C342.743 580.127 345.705 581.885 348.505 583.903C351.369 585.922 354.039 588.103 356.513 590.446L366.864 578.044H373.31V682.439ZM346.454 629.216C346.454 625.57 345.738 622.054 344.306 618.669C342.938 615.219 341.05 612.191 338.641 609.587C336.233 606.918 333.401 604.802 330.145 603.239C326.955 601.612 323.537 600.798 319.891 600.798C316.245 600.798 312.795 601.416 309.54 602.653C306.35 603.89 303.55 605.713 301.141 608.122C298.798 610.531 296.942 613.526 295.575 617.107C294.208 620.622 293.524 624.659 293.524 629.216C293.524 633.773 294.208 637.842 295.575 641.423C296.942 644.939 298.798 647.901 301.141 650.31C303.55 652.719 306.35 654.542 309.54 655.779C312.795 657.016 316.245 657.634 319.891 657.634C323.537 657.634 326.955 656.853 330.145 655.29C333.401 653.663 336.233 651.547 338.641 648.943C341.05 646.273 342.938 643.246 344.306 639.861C345.738 636.41 346.454 632.862 346.454 629.216Z" stroke="black" stroke-width="6.20488" mask="url(#path-9-inside-1_19_2)"/>
<path d="M494.794 682.439H488.349L477.997 668.083C475.458 670.362 472.757 672.51 469.892 674.529C467.092 676.482 464.13 678.207 461.005 679.704C457.88 681.137 454.658 682.276 451.337 683.122C448.082 683.969 444.762 684.392 441.376 684.392C434.019 684.392 427.086 683.025 420.575 680.29C414.13 677.491 408.466 673.65 403.583 668.767C398.765 663.819 394.957 657.992 392.157 651.286C389.358 644.516 387.958 637.159 387.958 629.216C387.958 621.338 389.358 614.014 392.157 607.243C394.957 600.472 398.765 594.613 403.583 589.665C408.466 584.717 414.13 580.843 420.575 578.044C427.086 575.244 434.019 573.845 441.376 573.845C443.72 573.845 446.129 574.04 448.603 574.431C451.142 574.821 453.583 575.472 455.927 576.384C458.336 577.23 460.582 578.369 462.665 579.802C464.749 581.234 466.507 582.992 467.939 585.075V536.247H494.794V682.439ZM467.939 629.216C467.939 625.57 467.223 622.054 465.79 618.669C464.423 615.219 462.535 612.191 460.126 609.587C457.717 606.918 454.885 604.802 451.63 603.239C448.44 601.612 445.022 600.798 441.376 600.798C437.73 600.798 434.28 601.449 431.025 602.751C427.834 604.053 425.035 605.941 422.626 608.415C420.282 610.824 418.427 613.786 417.06 617.302C415.693 620.818 415.009 624.789 415.009 629.216C415.009 633.057 415.693 636.703 417.06 640.154C418.427 643.604 420.282 646.631 422.626 649.236C425.035 651.84 427.834 653.891 431.025 655.388C434.28 656.885 437.73 657.634 441.376 657.634C445.022 657.634 448.44 656.853 451.63 655.29C454.885 653.663 457.717 651.547 460.126 648.943C462.535 646.273 464.423 643.246 465.79 639.861C467.223 636.41 467.939 632.862 467.939 629.216Z" stroke="black" stroke-width="6.20488" mask="url(#path-9-inside-1_19_2)"/>
<path d="M546.65 549.43C546.65 551.904 546.162 554.216 545.185 556.364C544.274 558.513 543.004 560.401 541.377 562.028C539.749 563.591 537.828 564.86 535.615 565.837C533.466 566.748 531.155 567.204 528.681 567.204C526.207 567.204 523.864 566.748 521.65 565.837C519.502 564.86 517.614 563.591 515.986 562.028C514.423 560.401 513.154 558.513 512.177 556.364C511.266 554.216 510.81 551.904 510.81 549.43C510.81 547.022 511.266 544.743 512.177 542.595C513.154 540.381 514.423 538.493 515.986 536.93C517.614 535.303 519.502 534.033 521.65 533.122C523.864 532.145 526.207 531.657 528.681 531.657C531.155 531.657 533.466 532.145 535.615 533.122C537.828 534.033 539.749 535.303 541.377 536.93C543.004 538.493 544.274 540.381 545.185 542.595C546.162 544.743 546.65 547.022 546.65 549.43ZM542.06 682.439H515.205V577.849H542.06V682.439Z" stroke="black" stroke-width="6.20488" mask="url(#path-9-inside-1_19_2)"/>
<path d="M663.545 629.216C663.545 637.029 662.145 644.32 659.346 651.091C656.546 657.797 652.738 663.624 647.92 668.572C643.102 673.454 637.438 677.328 630.928 680.193C624.482 682.992 617.549 684.392 610.127 684.392C602.77 684.392 595.836 682.992 589.326 680.193C582.881 677.328 577.217 673.454 572.334 668.572C567.516 663.624 563.707 657.797 560.908 651.091C558.108 644.32 556.709 637.029 556.709 629.216C556.709 621.273 558.108 613.916 560.908 607.146C563.707 600.375 567.516 594.548 572.334 589.665C577.217 584.717 582.881 580.843 589.326 578.044C595.836 575.244 602.77 573.845 610.127 573.845C617.549 573.845 624.482 575.179 630.928 577.849C637.438 580.453 643.102 584.196 647.92 589.079C652.738 593.897 656.546 599.724 659.346 606.56C662.145 613.33 663.545 620.883 663.545 629.216ZM636.69 629.216C636.69 624.919 635.973 621.045 634.541 617.595C633.174 614.079 631.286 611.084 628.877 608.61C626.468 606.071 623.636 604.151 620.381 602.849C617.191 601.481 613.773 600.798 610.127 600.798C606.481 600.798 603.031 601.481 599.775 602.849C596.585 604.151 593.786 606.071 591.377 608.61C589.033 611.084 587.178 614.079 585.81 617.595C584.443 621.045 583.76 624.919 583.76 629.216C583.76 633.252 584.443 636.996 585.81 640.446C587.178 643.897 589.033 646.892 591.377 649.431C593.786 651.97 596.585 653.988 599.775 655.486C603.031 656.918 606.481 657.634 610.127 657.634C613.773 657.634 617.191 656.95 620.381 655.583C623.636 654.216 626.468 652.296 628.877 649.822C631.286 647.348 633.174 644.353 634.541 640.837C635.973 637.321 636.69 633.448 636.69 629.216Z" stroke="black" stroke-width="6.20488" mask="url(#path-9-inside-1_19_2)"/>
<path d="M154.563 780.931C152.66 780.931 150.832 780.633 149.078 780.037C147.324 779.442 145.793 778.589 144.486 777.481C143.179 776.356 142.244 775.024 141.682 773.485L146.521 771.673C146.803 772.467 147.34 773.179 148.135 773.808C148.945 774.42 149.905 774.9 151.014 775.247C152.139 775.595 153.322 775.768 154.563 775.768C155.887 775.768 157.128 775.553 158.286 775.123C159.461 774.693 160.404 774.097 161.115 773.336C161.843 772.575 162.207 771.681 162.207 770.655C162.207 769.597 161.827 768.728 161.066 768.049C160.321 767.371 159.361 766.833 158.187 766.436C157.028 766.039 155.82 765.741 154.563 765.543C152.131 765.146 149.947 764.566 148.011 763.805C146.091 763.044 144.569 761.977 143.444 760.604C142.335 759.23 141.781 757.443 141.781 755.243C141.781 753.174 142.368 751.371 143.543 749.832C144.734 748.293 146.298 747.102 148.234 746.258C150.186 745.397 152.296 744.967 154.563 744.967C156.433 744.967 158.236 745.265 159.974 745.861C161.728 746.44 163.266 747.292 164.59 748.417C165.93 749.526 166.89 750.874 167.469 752.463L162.58 754.225C162.298 753.414 161.761 752.711 160.966 752.115C160.172 751.503 159.212 751.023 158.087 750.676C156.979 750.328 155.804 750.155 154.563 750.155C153.239 750.138 151.998 750.353 150.84 750.8C149.698 751.23 148.763 751.826 148.035 752.587C147.307 753.348 146.943 754.233 146.943 755.243C146.943 756.484 147.283 757.427 147.961 758.072C148.639 758.717 149.549 759.197 150.691 759.512C151.849 759.809 153.14 760.082 154.563 760.331C156.846 760.695 158.956 761.299 160.892 762.142C162.844 762.986 164.408 764.111 165.583 765.518C166.774 766.908 167.37 768.62 167.37 770.655C167.37 772.707 166.774 774.511 165.583 776.066C164.408 777.605 162.844 778.805 160.892 779.665C158.956 780.509 156.846 780.931 154.563 780.931Z" fill="#B80C09"/>
<path d="M262.563 745.538V750.701H251.493V780.285H246.331V750.701H235.286V745.538H262.563Z" fill="#B80C09"/>
<path d="M339.112 745.538H345.143L357.776 780.285H352.316L349.908 773.683H334.346L331.964 780.285H326.478L339.112 745.538ZM336.257 768.521H347.997L342.115 752.388L336.257 768.521Z" fill="#B80C09"/>
<path d="M448.971 745.538V750.701H437.901V780.285H432.739V750.701H421.694V745.538H448.971Z" fill="#B80C09"/>
<path d="M519.229 780.285V745.538H524.392V780.285H519.229Z" fill="#B80C09"/>
<path d="M611.752 780.931C609.402 780.931 607.193 780.467 605.125 779.541C603.056 778.598 601.236 777.299 599.664 775.644C598.093 773.99 596.86 772.078 595.966 769.911C595.073 767.727 594.626 765.394 594.626 762.912C594.626 760.43 595.073 758.105 595.966 755.938C596.86 753.753 598.093 751.834 599.664 750.179C601.236 748.525 603.056 747.234 605.125 746.308C607.193 745.364 609.402 744.893 611.752 744.893C614.118 744.893 616.335 745.364 618.403 746.308C620.471 747.234 622.292 748.525 623.863 750.179C625.435 751.834 626.66 753.753 627.537 755.938C628.43 758.105 628.877 760.43 628.877 762.912C628.877 765.394 628.43 767.727 627.537 769.911C626.66 772.078 625.435 773.99 623.863 775.644C622.292 777.299 620.471 778.598 618.403 779.541C616.335 780.467 614.118 780.931 611.752 780.931ZM611.752 775.768C613.406 775.768 614.953 775.429 616.393 774.751C617.832 774.072 619.098 773.146 620.19 771.971C621.299 770.78 622.159 769.415 622.771 767.876C623.4 766.32 623.715 764.666 623.715 762.912C623.715 761.158 623.4 759.503 622.771 757.948C622.159 756.393 621.299 755.027 620.19 753.853C619.098 752.661 617.832 751.735 616.393 751.073C614.953 750.394 613.406 750.055 611.752 750.055C610.097 750.055 608.55 750.394 607.11 751.073C605.671 751.751 604.397 752.686 603.288 753.877C602.196 755.052 601.336 756.417 600.707 757.973C600.095 759.512 599.789 761.158 599.789 762.912C599.789 764.682 600.095 766.345 600.707 767.901C601.336 769.439 602.196 770.804 603.288 771.996C604.397 773.171 605.671 774.097 607.11 774.776C608.55 775.437 610.097 775.768 611.752 775.768Z" fill="#B80C09"/>
<path d="M698.106 780.285V745.538H703.69L719.649 770.953V745.538H724.812V780.285H719.227L703.268 754.87V780.285H698.106Z" fill="#B80C09"/>
</svg>
