<svg width="960" height="753" viewBox="0 0 960 753" fill="none" xmlns="http://www.w3.org/2000/svg">
<rect width="960" height="753" fill="#023047"/>
<path d="M360.48 339.251H291.639L290.024 283.836H287.602L281.949 339.251H212.032L197.086 244.951H248.416L252.057 305.036H255.825L259.467 244.951H314.027L317.668 305.036H321.436L325.078 244.951H375.458L360.512 339.251H360.48Z" fill="#FFB703"/>
<path d="M423.383 325.793L422.164 339.267H370.439L387.823 244.967H473.098L490.483 339.267H437.949L436.73 325.793H423.399H423.383ZM432.266 275.128H427.817L425.663 300.318H434.561L432.266 275.128Z" fill="#FFB703"/>
<path d="M574.792 282.142H555.666V339.267H505.286V282.142H486.16V244.967H574.792V282.142Z" fill="#FFB703"/>
<path d="M666.654 282.142H647.528V339.267H597.148V282.142H578.022V244.967H666.654V282.142Z" fill="#FFB703"/>
<path d="M762.014 246.17L760.526 280.923C755.539 277.282 745.849 275.002 735.336 275.002C726.85 275.002 723.351 276.348 723.351 280.385C752.182 280.385 765.117 289.014 765.117 310.293C765.117 333.06 750.567 341.943 712.711 341.943C698.699 341.943 684.956 340.723 669.472 338.032L671.087 301.791C676.881 305.559 687.933 307.981 699.649 307.981C708.674 307.981 712.315 306.636 712.315 302.456C682.28 302.456 669.203 294.239 669.203 273.498C669.203 251.142 683.879 242.244 722.005 242.244C736.017 242.244 749.348 243.463 762.014 246.154V246.17Z" fill="#FFB703"/>
<path d="M318.46 444.729H249.619L245.977 387.335H243.555L239.914 444.729H169.996L155.05 350.429H206.38L210.021 410.514H213.79L217.431 350.429H271.991L275.806 407.554H279.575L283.026 350.429H333.406L318.46 444.729Z" fill="#FFB703"/>
<path d="M404.922 350.429C438.329 350.429 450.457 359.596 450.457 384.786C450.457 398.26 446.958 406.065 438.741 411.195L453.291 444.745H399.951L392.541 419.951H388.092V444.745H337.839V350.445H404.922V350.429ZM388.092 374.954V395.426H390.245C396.974 395.426 399.413 392.734 399.413 385.182C399.413 377.63 396.99 374.938 390.245 374.938H388.092V374.954Z" fill="#FFB703"/>
<path d="M570.612 397.579C570.612 431.936 552.42 447.42 512.142 447.42C471.863 447.42 453.671 431.92 453.671 397.579C453.671 363.238 471.863 347.738 512.142 347.738C552.42 347.738 570.612 363.222 570.612 397.579ZM506.22 397.579C506.22 408.63 507.709 412.256 512.142 412.256C516.575 412.256 518.063 408.614 518.063 397.579C518.063 386.544 516.575 382.902 512.142 382.902C507.709 382.902 506.22 386.544 506.22 397.579Z" fill="#FFB703"/>
<path d="M633.785 444.729L626.248 396.629H622.338V444.729H577.214V350.429H645.374L652.911 398.529H656.014V350.429H701.137V444.729H633.785Z" fill="#FFB703"/>
<path d="M803.781 350.571L802.166 390.042C793.537 389.235 784.512 388.697 778.464 388.697C765.26 388.697 760.272 391.261 760.272 398.402C760.272 404.466 763.645 407.3 771.181 407.3V397.468H805V443.272C794.487 446.106 783.04 447.452 769.835 447.452C725.915 447.452 707.739 432.775 707.739 397.61C707.739 362.446 726.2 347.769 770.912 347.769C781.425 347.769 791.526 348.576 803.781 350.603V350.571Z" fill="#FFB703"/>
<path d="M340.99 499.083H347.94C348.479 499.083 348.938 499.273 349.334 499.637C349.729 500.001 349.919 500.46 349.919 500.999C349.919 501.537 349.729 501.98 349.334 502.36C348.938 502.74 348.479 502.914 347.94 502.914H340.752C339.834 502.914 338.884 502.629 337.918 502.044C336.937 501.458 336.256 500.809 335.876 500.096L331.427 491.499C330.825 490.264 330.54 488.997 330.54 487.699C330.54 486.258 330.825 485.023 331.395 483.963L335.892 475.46C336.319 474.669 336.984 473.972 337.887 473.37C338.789 472.769 339.66 472.468 340.499 472.468H348.099C348.637 472.468 349.08 472.658 349.46 473.038C349.84 473.418 350.03 473.877 350.03 474.384C350.03 474.89 349.84 475.381 349.46 475.777C349.08 476.173 348.637 476.363 348.099 476.363H340.768C340.151 476.363 339.66 476.727 339.28 477.439L335.005 485.403C334.672 486.037 334.498 486.765 334.498 487.62C334.498 488.522 334.673 489.314 335.037 490.011L339.106 497.848C339.486 498.655 340.119 499.067 340.99 499.067V499.083Z" fill="white"/>
<path d="M378.165 487.778V495.916C378.165 497.642 377.358 499.241 375.727 500.698C374.096 502.154 372.418 502.898 370.692 502.898H366.18C364.422 502.898 362.744 502.154 361.145 500.666C359.546 499.178 358.738 497.594 358.738 495.916V487.778C358.738 486.1 359.53 484.517 361.082 483.028C362.649 481.54 364.343 480.796 366.18 480.796H370.692C372.418 480.764 374.096 481.477 375.727 482.949C377.358 484.422 378.165 486.021 378.165 487.778ZM362.633 487.936V495.726C362.633 496.423 362.886 496.993 363.393 497.404L364.834 498.639C365.151 498.908 365.61 499.051 366.18 499.051H370.645C371.294 499.051 371.895 498.813 372.434 498.339L373.605 497.309C374.08 496.945 374.318 496.439 374.318 495.774V487.984C374.318 487.224 374.08 486.654 373.605 486.29L372.259 485.213C371.8 484.833 371.262 484.643 370.66 484.643H366.67C365.8 484.643 365.135 484.849 364.66 485.261L363.346 486.385C362.871 486.781 362.633 487.303 362.633 487.936Z" fill="white"/>
<path d="M387.126 501.014V482.759C387.126 482.221 387.316 481.762 387.696 481.366C388.076 480.97 388.52 480.78 389.058 480.78C389.596 480.78 390.04 480.97 390.42 481.35C390.8 481.73 390.99 482.205 390.99 482.743V485.15L394.124 482.474C395.423 481.366 396.689 480.828 397.924 480.828H400.743C402.326 480.828 403.687 481.398 404.827 482.522C405.952 483.646 406.522 485.007 406.522 486.607V487.636C406.522 488.19 406.332 488.649 405.967 489.029C405.603 489.409 405.144 489.599 404.606 489.599C404.067 489.599 403.624 489.409 403.244 489.045C402.864 488.681 402.69 488.222 402.69 487.683V486.607C402.69 486.068 402.5 485.625 402.136 485.245C401.772 484.865 401.313 484.691 400.774 484.691H398.273C397.734 484.691 397.149 484.976 396.484 485.546L391.005 490.296V501.046C391.005 501.584 390.815 502.028 390.435 502.408C390.055 502.788 389.596 502.962 389.09 502.962C388.583 502.962 388.108 502.772 387.728 502.408C387.348 502.028 387.158 501.584 387.158 501.046L387.126 501.014Z" fill="white"/>
<path d="M419.362 500.745V509.263C419.362 509.817 419.172 510.276 418.808 510.656C418.428 511.036 417.984 511.226 417.446 511.226C416.908 511.226 416.449 511.036 416.053 510.656C415.657 510.276 415.467 509.801 415.467 509.263V481.809C415.467 481.287 415.657 480.843 416.037 480.463C416.417 480.083 416.892 479.893 417.43 479.893C417.953 479.893 418.396 480.083 418.776 480.463C419.156 480.843 419.346 481.303 419.346 481.809V483.044C421.214 480.97 423.051 479.925 424.872 479.925H425.758C427.12 479.925 428.371 480.432 429.511 481.445L432.725 484.216C434.134 485.435 434.83 486.986 434.83 488.871V494.871C434.83 496.771 434.07 498.37 432.566 499.653L429.432 502.36C428.387 503.31 427.088 503.785 425.489 503.785H424.634C423.13 503.785 421.863 503.263 420.834 502.233L419.346 500.745H419.362ZM424.777 499.89H425.758C426.233 499.89 426.74 499.653 427.278 499.178L430.286 496.549C430.793 496.154 431.046 495.615 431.046 494.919V488.712C431.046 488.095 430.761 487.556 430.191 487.081L426.962 484.311C426.597 483.994 426.202 483.836 425.774 483.836H424.65C424.223 483.836 423.668 484.184 422.972 484.897L420.106 487.731C419.599 488.237 419.346 488.807 419.346 489.425V494.349C419.346 494.95 419.631 495.52 420.201 496.09L422.972 498.861C423.653 499.542 424.254 499.89 424.777 499.89Z" fill="white"/>
<path d="M463.187 487.778V495.916C463.187 497.642 462.379 499.241 460.749 500.698C459.118 502.154 457.44 502.898 455.714 502.898H451.202C449.444 502.898 447.766 502.154 446.167 500.666C444.568 499.178 443.76 497.594 443.76 495.916V487.778C443.76 486.1 444.536 484.517 446.103 483.028C447.671 481.54 449.365 480.796 451.202 480.796H455.714C457.44 480.764 459.118 481.477 460.749 482.949C462.379 484.422 463.187 486.021 463.187 487.778ZM447.655 487.936V495.726C447.655 496.423 447.908 496.993 448.415 497.404L449.856 498.639C450.172 498.908 450.632 499.051 451.202 499.051H455.666C456.315 499.051 456.917 498.813 457.455 498.339L458.627 497.309C459.102 496.945 459.34 496.439 459.34 495.774V487.984C459.34 487.224 459.102 486.654 458.627 486.29L457.281 485.213C456.822 484.833 456.284 484.643 455.682 484.643H451.692C450.822 484.643 450.157 484.849 449.682 485.261L448.367 486.385C447.892 486.781 447.655 487.303 447.655 487.936Z" fill="white"/>
<path d="M472.148 501.014V482.759C472.148 482.221 472.338 481.762 472.702 481.366C473.067 480.97 473.526 480.78 474.064 480.78C474.602 480.78 475.046 480.97 475.426 481.35C475.806 481.73 475.98 482.205 475.98 482.743V485.15L479.115 482.474C480.413 481.366 481.68 480.828 482.914 480.828H485.733C487.316 480.828 488.678 481.398 489.818 482.522C490.958 483.646 491.512 485.007 491.512 486.607V487.636C491.512 488.19 491.322 488.649 490.958 489.029C490.593 489.409 490.134 489.599 489.596 489.599C489.058 489.599 488.614 489.409 488.234 489.045C487.854 488.681 487.68 488.222 487.68 487.683V486.607C487.68 486.068 487.49 485.625 487.126 485.245C486.762 484.865 486.303 484.691 485.764 484.691H483.263C482.725 484.691 482.139 484.976 481.474 485.546L475.996 490.296V501.046C475.996 501.584 475.806 502.028 475.426 502.408C475.046 502.788 474.586 502.962 474.08 502.962C473.573 502.962 473.098 502.772 472.718 502.408C472.338 502.043 472.164 501.584 472.164 501.046L472.148 501.014Z" fill="white"/>
<path d="M506.22 489.06H513.773C514.184 489.06 514.786 489.155 515.562 489.33L515.514 486.606C515.514 486.068 515.324 485.625 514.944 485.245C514.564 484.865 514.121 484.691 513.583 484.691H506.252C505.729 484.691 505.286 484.501 504.89 484.121C504.51 483.741 504.32 483.281 504.32 482.775C504.32 482.268 504.51 481.793 504.875 481.413C505.255 481.033 505.698 480.859 506.236 480.859H513.551C515.134 480.859 516.496 481.413 517.62 482.537C518.744 483.661 519.33 485.023 519.377 486.638L519.852 501.046C519.852 501.584 519.662 502.027 519.282 502.407C518.902 502.787 518.443 502.962 517.937 502.962C517.382 502.962 516.923 502.772 516.543 502.407C516.163 502.043 515.973 501.584 515.973 501.046L512.712 502.977H506.189C504.574 502.977 503.196 502.407 502.056 501.283C500.932 500.159 500.362 498.782 500.362 497.167V494.918C500.362 493.319 500.932 491.942 502.072 490.802C503.212 489.662 504.59 489.092 506.189 489.092L506.22 489.06ZM515.847 496.549L515.736 494.918C515.736 494.364 515.53 493.905 515.166 493.541C514.802 493.177 514.342 492.987 513.82 492.987H506.236C505.698 492.987 505.255 493.177 504.875 493.541C504.495 493.921 504.32 494.364 504.32 494.903V497.056C504.32 497.578 504.51 498.022 504.89 498.402C505.27 498.782 505.729 498.972 506.236 498.972H511.667L515.862 496.518L515.847 496.549Z" fill="white"/>
<path d="M542.335 502.946H538.487C536.904 502.946 535.527 502.376 534.387 501.252C533.247 500.128 532.677 498.766 532.677 497.167V484.675H530.698C530.159 484.675 529.716 484.485 529.336 484.121C528.956 483.756 528.782 483.297 528.782 482.743C528.782 482.189 528.972 481.761 529.336 481.382C529.7 481.002 530.159 480.827 530.698 480.827H532.708V476.109C532.708 475.571 532.898 475.128 533.263 474.748C533.627 474.368 534.086 474.193 534.624 474.193C535.131 474.193 535.574 474.383 535.97 474.763C536.366 475.143 536.556 475.603 536.556 476.109V480.827H544.298C544.821 480.827 545.264 481.017 545.644 481.397C546.024 481.777 546.214 482.237 546.214 482.743C546.214 483.25 546.024 483.725 545.644 484.105C545.264 484.485 544.805 484.659 544.298 484.659H536.508V497.151C536.508 497.673 536.698 498.117 537.094 498.497C537.49 498.877 537.949 499.067 538.487 499.067H542.24C543.269 499.067 543.95 498.513 544.282 497.404C544.615 496.296 545.264 495.742 546.23 495.742C546.8 495.742 547.259 495.932 547.623 496.296C547.987 496.66 548.161 497.135 548.161 497.705C548.161 498.861 547.607 500.017 546.515 501.172C545.422 502.328 544.029 502.898 542.335 502.898V502.946Z" fill="white"/>
<path d="M572.702 502.898H560.97C560.432 502.898 559.988 502.708 559.608 502.344C559.228 501.964 559.054 501.521 559.054 500.983C559.054 500.444 559.244 500.017 559.608 499.637C559.988 499.257 560.432 499.067 560.97 499.067H564.912V484.706H561.017C560.479 484.706 560.036 484.517 559.656 484.137C559.276 483.757 559.102 483.297 559.102 482.791C559.102 482.284 559.292 481.793 559.656 481.397C560.02 481.002 560.479 480.812 561.017 480.812H566.876C567.414 480.812 567.857 481.002 568.237 481.397C568.617 481.793 568.791 482.252 568.791 482.791V499.083H572.639C573.177 499.083 573.636 499.273 574.032 499.637C574.428 500.001 574.618 500.46 574.618 500.998C574.618 501.537 574.428 501.98 574.048 502.36C573.668 502.74 573.209 502.914 572.702 502.914V502.898ZM564.865 470.79H566.876C567.414 470.79 567.857 470.98 568.237 471.344C568.617 471.708 568.791 472.167 568.791 472.705V474.352C568.791 474.89 568.601 475.349 568.237 475.745C567.857 476.141 567.414 476.331 566.876 476.331H564.817C564.263 476.331 563.804 476.141 563.424 475.729C563.044 475.318 562.87 474.89 562.886 474.399L562.933 472.705C562.933 472.167 563.123 471.724 563.487 471.344C563.851 470.964 564.311 470.79 564.849 470.79H564.865Z" fill="white"/>
<path d="M604.89 487.778V495.916C604.89 497.642 604.082 499.241 602.452 500.698C600.821 502.154 599.143 502.898 597.417 502.898H592.905C591.147 502.898 589.469 502.154 587.87 500.666C586.271 499.178 585.463 497.594 585.463 495.916V487.778C585.463 486.1 586.239 484.517 587.806 483.028C589.374 481.54 591.068 480.796 592.905 480.796H597.417C599.143 480.764 600.821 481.477 602.452 482.949C604.082 484.422 604.89 486.021 604.89 487.778ZM589.358 487.936V495.726C589.358 496.423 589.611 496.993 590.118 497.404L591.559 498.639C591.875 498.908 592.335 499.051 592.905 499.051H597.369C598.034 499.051 598.62 498.813 599.158 498.339L600.33 497.309C600.805 496.945 601.043 496.439 601.043 495.774V487.984C601.043 487.224 600.805 486.654 600.33 486.29L598.984 485.213C598.525 484.833 597.987 484.643 597.385 484.643H593.395C592.525 484.643 591.86 484.849 591.385 485.261L590.07 486.385C589.595 486.781 589.358 487.303 589.358 487.936Z" fill="white"/>
<path d="M622.955 485.292L617.699 488.712V501.014C617.699 501.537 617.509 501.98 617.129 502.36C616.749 502.74 616.289 502.93 615.783 502.93C615.276 502.93 614.817 502.74 614.437 502.36C614.057 501.98 613.867 501.521 613.867 501.014V482.759C613.867 482.221 614.057 481.762 614.421 481.366C614.785 480.97 615.245 480.78 615.783 480.78C616.321 480.78 616.749 480.97 617.129 481.366C617.509 481.762 617.699 482.221 617.699 482.759V484.042L621.213 481.904C622.385 481.16 623.715 480.78 625.203 480.78H626.992C628.528 480.78 629.842 481.318 630.966 482.411C632.091 483.503 632.676 484.833 632.74 486.417L633.262 501.014C633.262 501.537 633.088 501.98 632.708 502.36C632.328 502.74 631.869 502.93 631.331 502.93C630.824 502.93 630.381 502.756 630.001 502.408C629.621 502.059 629.415 501.6 629.399 500.999L628.829 486.638C628.782 485.292 628.085 484.627 626.723 484.627H624.839C624.253 484.627 623.636 484.849 622.955 485.292Z" fill="white"/>
<path d="M289.866 263.555L273.621 338C273.621 338 264.233 337.114 262.238 337.224C262.966 338.855 278.435 429.878 278.435 429.878L286.319 351.331C286.319 351.331 297.133 352.044 302.516 352.487C301.218 346.376 289.85 263.539 289.85 263.539L289.866 263.555Z" fill="white"/>
</svg>
