<?xml version="1.0" encoding="utf-8"?>
<!-- Generator: Adobe Illustrator 28.0.0, SVG Export Plug-In . SVG Version: 6.00 Build 0)  -->
<svg version="1.1" xmlns="http://www.w3.org/2000/svg" xmlns:xlink="http://www.w3.org/1999/xlink" x="0px" y="0px"
	 viewBox="0 0 511.68 511.68" style="enable-background:new 0 0 511.68 511.68;" xml:space="preserve">
<style type="text/css">
	.st0{display:none;}
	.st1{fill:url(#SVGID_1_);}
	.st2{fill:url(#SVGID_00000080170945361327812400000018221971843148959137_);}
	.st3{fill:url(#SVGID_00000008842057664236822480000012961226269477654184_);}
	.st4{fill:none;stroke:#FFFFFF;stroke-width:15;stroke-miterlimit:10;}
	.st5{fill:#FFFFFF;}
	.st6{fill:none;stroke:#FFFFFF;stroke-width:9;stroke-miterlimit:10;}
	.st7{fill:url(#SVGID_00000070811223346498346720000011933798402286917551_);}
	.st8{fill:none;stroke:#FFFFFF;stroke-width:15;stroke-linecap:round;stroke-linejoin:round;stroke-miterlimit:10;}
	.st9{fill:none;stroke:#FFFFFF;stroke-width:10;stroke-linecap:round;stroke-linejoin:round;stroke-miterlimit:10;}
	.st10{fill:url(#SVGID_00000138558352759963351510000013062837844719141561_);}
	.st11{fill:url(#SVGID_00000124141747355544007060000002398787130724619649_);}
	.st12{fill:url(#SVGID_00000076588758115236008340000006021095278856454574_);}
	.st13{fill:url(#SVGID_00000158017543479148701710000012141363928390898600_);}
	.st14{fill:url(#SVGID_00000101794914693451851130000012714232492551593126_);}
	.st15{fill:url(#SVGID_00000166661328023080207690000015755254156202649729_);}
	.st16{fill:url(#SVGID_00000177455765575272574210000010570266892064808093_);}
	.st17{fill:url(#SVGID_00000086671383752582378630000006840518295036300713_);}
	.st18{fill:url(#SVGID_00000155851727485285323520000008798402414321715363_);}
	.st19{fill:url(#SVGID_00000126310313437773257700000009960344791437189819_);}
	.st20{fill:url(#SVGID_00000066498802047431514850000004331746197215953801_);}
	.st21{fill:url(#SVGID_00000169529275591325972080000014127884866503495046_);}
	.st22{fill:url(#SVGID_00000034082564747410356650000015120044307675159425_);}
	.st23{fill:url(#SVGID_00000183235071455917424490000009789643838844540349_);}
	.st24{fill:url(#SVGID_00000174564884014951251710000017910709399079523515_);}
	.st25{fill:url(#SVGID_00000033338558224880673080000015875480681594944666_);}
	.st26{fill:url(#SVGID_00000065793547075540260080000009971889305180040070_);}
	.st27{fill:url(#SVGID_00000106118750265447134450000016304852061754668683_);}
	.st28{fill:#BCBEC0;}
	.st29{fill:url(#SVGID_00000134961813807556571820000017271905216083287190_);}
	.st30{fill:url(#SVGID_00000178924159254938585920000002971753954541430196_);}
	.st31{fill-rule:evenodd;clip-rule:evenodd;fill:#FFFFFF;}
	.st32{fill:none;stroke:#FFFFFF;stroke-width:9.8091;stroke-linecap:round;stroke-linejoin:round;stroke-miterlimit:10;}
	.st33{clip-path:url(#SVGID_00000040545397289287042320000002716806382825267618_);}
	.st34{fill:none;stroke:#FFFFFF;stroke-width:6.402;stroke-miterlimit:10;}
	.st35{fill:url(#SVGID_00000106834808435131792310000017727682212466156672_);}
	.st36{fill:none;stroke:#FFFFFF;stroke-width:14.3924;stroke-linecap:round;stroke-linejoin:round;stroke-miterlimit:10;}
	.st37{fill:none;stroke:#FFFFFF;stroke-width:8;stroke-linecap:round;stroke-linejoin:round;stroke-miterlimit:10;}
	.st38{fill:url(#SVGID_00000154409634832967156340000015496625908874508728_);}
	.st39{fill:#FFFFFF;stroke:#FFFFFF;stroke-width:2.9178;stroke-miterlimit:10;}
	.st40{fill:url(#SVGID_00000130642527937659369760000003151295409953063300_);}
	.st41{fill:url(#SVGID_00000082336377624634121240000005756865675609086594_);}
	.st42{fill:url(#SVGID_00000168833694674862117490000012722832093207946639_);}
	.st43{fill:none;stroke:#FFFFFF;stroke-width:10.1249;stroke-linecap:round;stroke-linejoin:round;stroke-miterlimit:10;}
	.st44{fill:url(#SVGID_00000140720633840207947470000000664227895757315466_);}
	.st45{fill:url(#SVGID_00000103241816456620642190000015855279938367297704_);}
	.st46{fill:url(#SVGID_00000101075269483757203310000018346478415451775896_);}
</style>
<g id="GPS">
</g>
<g id="References" class="st0">
</g>
<g id="Icons">
	<g>
		<path d="M200.72,460.51c-0.16,0.27-0.33,0.47-0.51,0.61c-0.18,0.13-0.41,0.2-0.7,0.2c-0.31,0-0.66-0.15-1.06-0.46
			c-0.4-0.3-0.92-0.64-1.54-1.01c-0.62-0.37-1.36-0.7-2.23-1.01c-0.87-0.3-1.93-0.46-3.16-0.46c-1.17,0-2.2,0.16-3.1,0.47
			c-0.9,0.31-1.65,0.74-2.25,1.28c-0.6,0.54-1.05,1.17-1.36,1.9c-0.3,0.73-0.46,1.51-0.46,2.36c0,1.08,0.26,1.97,0.79,2.68
			c0.53,0.71,1.23,1.32,2.1,1.82c0.87,0.5,1.86,0.94,2.96,1.31c1.1,0.37,2.24,0.75,3.39,1.14c1.16,0.4,2.29,0.84,3.39,1.33
			c1.1,0.49,2.09,1.12,2.96,1.87c0.87,0.75,1.57,1.68,2.1,2.77c0.53,1.1,0.79,2.44,0.79,4.04c0,1.69-0.29,3.27-0.86,4.75
			c-0.58,1.48-1.41,2.77-2.52,3.87c-1.1,1.09-2.46,1.96-4.07,2.58s-3.43,0.94-5.48,0.94c-2.5,0-4.77-0.45-6.83-1.36
			c-2.06-0.91-3.81-2.13-5.27-3.68l1.51-2.48c0.14-0.2,0.32-0.36,0.53-0.5c0.21-0.13,0.44-0.2,0.69-0.2c0.38,0,0.81,0.2,1.29,0.61
			c0.49,0.4,1.09,0.85,1.82,1.33c0.73,0.48,1.61,0.93,2.64,1.33c1.03,0.4,2.29,0.61,3.78,0.61c1.24,0,2.34-0.17,3.31-0.51
			c0.97-0.34,1.79-0.82,2.46-1.44s1.19-1.36,1.55-2.22c0.36-0.86,0.54-1.82,0.54-2.88c0-1.17-0.26-2.12-0.79-2.87
			c-0.53-0.75-1.23-1.37-2.09-1.87c-0.86-0.5-1.85-0.93-2.95-1.28c-1.1-0.35-2.24-0.71-3.39-1.08c-1.16-0.37-2.29-0.79-3.39-1.28
			c-1.1-0.48-2.09-1.11-2.95-1.88c-0.86-0.77-1.56-1.74-2.09-2.9c-0.53-1.16-0.79-2.59-0.79-4.29c0-1.36,0.26-2.68,0.79-3.96
			c0.53-1.27,1.3-2.41,2.3-3.39s2.25-1.78,3.73-2.37c1.48-0.59,3.18-0.89,5.1-0.89c2.16,0,4.12,0.34,5.9,1.02
			c1.78,0.68,3.33,1.67,4.66,2.96L200.72,460.51z"/>
		<path d="M217.01,493.5c-2.15,0-3.81-0.6-4.97-1.8c-1.16-1.2-1.74-2.94-1.74-5.2v-16.7h-3.29c-0.29,0-0.53-0.08-0.73-0.26
			c-0.2-0.17-0.3-0.44-0.3-0.79v-1.91l4.47-0.57l1.1-8.43c0.04-0.27,0.15-0.49,0.35-0.66c0.2-0.17,0.45-0.26,0.75-0.26h2.42v9.4
			h7.81v3.47h-7.81v16.37c0,1.15,0.28,2,0.83,2.56s1.27,0.83,2.15,0.83c0.5,0,0.94-0.07,1.31-0.2c0.37-0.13,0.69-0.28,0.96-0.44
			c0.27-0.16,0.5-0.31,0.69-0.44s0.35-0.2,0.5-0.2c0.25,0,0.48,0.15,0.67,0.46l1.4,2.29c-0.83,0.77-1.82,1.38-2.99,1.82
			C219.46,493.28,218.25,493.5,217.01,493.5z"/>
		<path d="M239.88,465.36c1.99,0,3.79,0.33,5.4,1s2.97,1.61,4.09,2.83c1.12,1.22,1.98,2.7,2.59,4.43c0.6,1.73,0.9,3.67,0.9,5.8
			c0,2.15-0.3,4.09-0.9,5.82s-1.46,3.2-2.59,4.42c-1.12,1.22-2.49,2.16-4.09,2.81c-1.61,0.65-3.41,0.98-5.4,0.98
			c-1.99,0-3.79-0.33-5.4-0.98c-1.61-0.66-2.98-1.59-4.11-2.81c-1.13-1.22-2-2.69-2.61-4.42c-0.61-1.72-0.92-3.66-0.92-5.82
			c0-2.14,0.3-4.07,0.92-5.8c0.61-1.73,1.48-3.21,2.61-4.43c1.13-1.22,2.5-2.16,4.11-2.83S237.89,465.36,239.88,465.36z
			 M239.88,489.71c2.69,0,4.7-0.9,6.03-2.71c1.33-1.8,1.99-4.32,1.99-7.55c0-3.25-0.66-5.78-1.99-7.59s-3.34-2.72-6.03-2.72
			c-1.37,0-2.55,0.23-3.55,0.7c-1.01,0.47-1.85,1.14-2.52,2.02s-1.18,1.96-1.51,3.25c-0.33,1.28-0.5,2.73-0.5,4.35
			c0,1.62,0.17,3.06,0.5,4.34s0.84,2.35,1.51,3.22c0.67,0.87,1.51,1.54,2.52,2.01C237.33,489.47,238.51,489.71,239.88,489.71z"/>
		<path d="M258.78,493.07v-27.28h2.75c0.52,0,0.88,0.1,1.08,0.3c0.2,0.2,0.33,0.54,0.4,1.02l0.32,4.26c0.93-1.9,2.09-3.39,3.46-4.46
			c1.37-1.07,2.98-1.6,4.83-1.6c0.75,0,1.44,0.08,2.05,0.26c0.61,0.17,1.18,0.41,1.7,0.71l-0.62,3.58c-0.13,0.45-0.4,0.67-0.83,0.67
			c-0.25,0-0.64-0.08-1.16-0.26c-0.52-0.17-1.25-0.26-2.18-0.26c-1.67,0-3.07,0.48-4.19,1.45c-1.12,0.97-2.06,2.38-2.81,4.23v17.37
			H258.78z"/>
		<path d="M291.29,465.36c1.63,0,3.14,0.27,4.53,0.82c1.38,0.55,2.58,1.34,3.58,2.37c1,1.03,1.79,2.31,2.36,3.82
			c0.57,1.52,0.85,3.25,0.85,5.18c0,0.75-0.08,1.26-0.24,1.51c-0.16,0.25-0.47,0.38-0.91,0.38h-18.15c0.04,1.72,0.27,3.22,0.7,4.5
			c0.43,1.28,1.02,2.34,1.78,3.19c0.75,0.85,1.65,1.49,2.69,1.91s2.21,0.63,3.5,0.63c1.2,0,2.24-0.14,3.11-0.42
			c0.87-0.28,1.62-0.58,2.25-0.9s1.15-0.62,1.58-0.9c0.42-0.28,0.79-0.42,1.09-0.42c0.39,0,0.7,0.15,0.92,0.46l1.35,1.75
			c-0.59,0.72-1.3,1.34-2.13,1.87s-1.71,0.96-2.65,1.31c-0.94,0.34-1.92,0.6-2.92,0.77c-1.01,0.17-2,0.26-2.99,0.26
			c-1.88,0-3.62-0.32-5.21-0.96c-1.59-0.64-2.96-1.57-4.12-2.8c-1.16-1.23-2.06-2.75-2.71-4.56c-0.65-1.81-0.97-3.9-0.97-6.25
			c0-1.9,0.29-3.68,0.88-5.33c0.58-1.65,1.42-3.08,2.52-4.29c1.09-1.21,2.43-2.16,4.01-2.86
			C287.54,465.71,289.31,465.36,291.29,465.36z M291.4,468.89c-2.31,0-4.14,0.67-5.47,2.01c-1.33,1.34-2.15,3.19-2.48,5.56h14.84
			c0-1.11-0.15-2.13-0.46-3.06c-0.31-0.92-0.75-1.72-1.35-2.4c-0.59-0.67-1.31-1.19-2.17-1.56
			C293.47,469.07,292.49,468.89,291.4,468.89z"/>
		<path d="M324.33,470.29c-0.21,0.4-0.55,0.59-1,0.59c-0.27,0-0.58-0.1-0.92-0.3s-0.76-0.42-1.25-0.66
			c-0.49-0.24-1.08-0.47-1.76-0.67c-0.68-0.21-1.49-0.31-2.42-0.31c-0.81,0-1.54,0.1-2.18,0.31s-1.2,0.49-1.66,0.85
			c-0.46,0.36-0.81,0.78-1.05,1.25s-0.36,0.99-0.36,1.55c0,0.7,0.2,1.28,0.61,1.75c0.4,0.47,0.94,0.87,1.6,1.21s1.42,0.64,2.26,0.9
			c0.84,0.26,1.71,0.54,2.6,0.83c0.89,0.3,1.75,0.62,2.6,0.98c0.84,0.36,1.6,0.81,2.26,1.35c0.66,0.54,1.2,1.2,1.6,1.98
			c0.4,0.78,0.61,1.72,0.61,2.81c0,1.26-0.22,2.42-0.67,3.49c-0.45,1.07-1.11,1.99-1.99,2.77c-0.88,0.78-1.96,1.4-3.23,1.84
			c-1.28,0.45-2.75,0.67-4.42,0.67c-1.9,0-3.63-0.31-5.17-0.93s-2.85-1.41-3.93-2.38l1.13-1.83c0.14-0.23,0.31-0.41,0.51-0.54
			c0.2-0.12,0.46-0.19,0.78-0.19s0.66,0.13,1.02,0.38c0.36,0.25,0.79,0.53,1.31,0.83c0.51,0.31,1.13,0.58,1.86,0.83
			c0.73,0.25,1.64,0.38,2.73,0.38c0.93,0,1.75-0.12,2.45-0.36s1.28-0.57,1.75-0.98c0.47-0.41,0.81-0.89,1.04-1.43
			c0.22-0.54,0.34-1.11,0.34-1.72c0-0.75-0.2-1.38-0.61-1.87c-0.4-0.49-0.94-0.92-1.6-1.27c-0.66-0.35-1.42-0.66-2.28-0.92
			c-0.85-0.26-1.72-0.53-2.61-0.82c-0.89-0.29-1.76-0.61-2.61-0.98s-1.61-0.83-2.28-1.39c-0.67-0.56-1.2-1.24-1.6-2.06
			s-0.61-1.81-0.61-2.98c0-1.04,0.22-2.04,0.65-3c0.43-0.96,1.06-1.8,1.89-2.53c0.83-0.73,1.84-1.31,3.04-1.74
			c1.2-0.43,2.58-0.65,4.12-0.65c1.8,0,3.41,0.28,4.83,0.85c1.43,0.57,2.66,1.34,3.7,2.33L324.33,470.29z"/>
	</g>
	<g>
		<g>
			<g>
				<g>
					<linearGradient id="SVGID_1_" gradientUnits="userSpaceOnUse" x1="54.8303" y1="224.9683" x2="456.8506" y2="224.9683">
						<stop  offset="0" style="stop-color:#F15D22"/>
						<stop  offset="1" style="stop-color:#ED2024"/>
					</linearGradient>
					<path class="st1" d="M255.84,23.96c-111.01,0-201.01,90-201.01,201.01c0,111.01,90,201.01,201.01,201.01
						c111.01,0,201.01-90,201.01-201.01C456.85,113.95,366.86,23.96,255.84,23.96z"/>
				</g>
			</g>
		</g>
		<path class="st5" d="M347.7,187.4c-6.02-9.67-11.76-19.55-18.44-28.75c-2.27-3.12-7.01-6.25-10.66-6.29
			c-7.15-0.07-12.48-0.18-12.48-0.18v-15.56h-36.55v15.44c-8.79-0.02-17.57-0.02-26.36-0.01v-15.44h-36.55v15.56h0.1
			c-4.56,0.03-9.13,0.05-13.69,0.08c-3.09,0.02-7.38,1.91-9.05,4.35c-7.93,11.61-15.88,23.32-22.43,35.73
			c-7.74,14.66-0.91,31.85,13.28,38.01c-0.01,6.25-0.04,53.51,0.01,69.8c0.03,9.77,3.54,13.15,13.47,13.15c45,0.01,90,0.02,135.01,0
			c10.4,0,13.72-3.24,13.76-13.55c0.05-15.51-0.31-60.24-0.38-69.07c2.72-1.13,5.27-2.73,7.57-4.81
			C354.94,216.24,356.3,201.21,347.7,187.4z M194.73,272.48v-41.03c5.15-1.6,9.85-4.62,14.19-8.53
			c18.59,13.11,29.29,13.12,47.07,0.01c17.44,13.13,26.66,13.12,47.02,0.16c0.87,0.64,1.78,1.28,2.66,1.97
			c3.5,2.72,7.22,4.72,11,5.98v41.43C275.66,272.48,235.49,272.48,194.73,272.48z"/>
	</g>
</g>
</svg>
