<?xml version="1.0" encoding="utf-8"?>
<!-- Generator: Adobe Illustrator 28.0.0, SVG Export Plug-In . SVG Version: 6.00 Build 0)  -->
<svg version="1.1" xmlns="http://www.w3.org/2000/svg" xmlns:xlink="http://www.w3.org/1999/xlink" x="0px" y="0px"
	 viewBox="0 0 511.68 511.68" style="enable-background:new 0 0 511.68 511.68;" xml:space="preserve">
<style type="text/css">
	.st0{fill:url(#SVGID_1_);}
	.st1{fill:url(#SVGID_00000049203158188723511830000013402123377591468704_);}
	.st2{fill:url(#SVGID_00000031198686902554435450000012241115919957278111_);}
	.st3{fill:none;stroke:#FFFFFF;stroke-width:15;stroke-miterlimit:10;}
	.st4{fill:#FFFFFF;}
	.st5{fill:none;stroke:#FFFFFF;stroke-width:9;stroke-miterlimit:10;}
	.st6{fill:url(#SVGID_00000181781639017511236620000017938788574789702302_);}
	.st7{fill:none;stroke:#FFFFFF;stroke-width:15;stroke-linecap:round;stroke-linejoin:round;stroke-miterlimit:10;}
	.st8{fill:none;stroke:#FFFFFF;stroke-width:10;stroke-linecap:round;stroke-linejoin:round;stroke-miterlimit:10;}
	.st9{fill:url(#SVGID_00000008122570485174118230000014502256964003237533_);}
	.st10{fill:url(#SVGID_00000091716693841876538360000000285099556595915938_);}
	.st11{fill:url(#SVGID_00000065045705580171769320000003175224125514082986_);}
	.st12{fill:url(#SVGID_00000079467138215460498930000003243875248533905586_);}
	.st13{fill:url(#SVGID_00000074408879140579716810000012892917562224568736_);}
	.st14{fill:url(#SVGID_00000025437357472129372490000004717987652551880376_);}
	.st15{fill:url(#SVGID_00000181056127608132453620000013818181612535822492_);}
	.st16{fill:url(#SVGID_00000153671890724516240060000006338336130791294109_);}
	.st17{fill:url(#SVGID_00000155845843895519865470000003878013050865251485_);}
	.st18{fill:url(#SVGID_00000035507790089695766860000016726705971118511273_);}
	.st19{fill:url(#SVGID_00000001628064202107472420000004635848986852513202_);}
	.st20{fill:url(#SVGID_00000061470545466736927890000011549654332209109647_);}
	.st21{fill:url(#SVGID_00000038383366234176255560000017168743087299770298_);}
	.st22{fill:url(#SVGID_00000172402635744605251330000012069035663796914079_);}
	.st23{fill:url(#SVGID_00000150086176027593830260000014344131447509361336_);}
	.st24{fill:url(#SVGID_00000124870579913515039760000006174108426874135938_);}
	.st25{fill:url(#SVGID_00000088096511650475537230000007591400771691031733_);}
	.st26{fill:url(#SVGID_00000112600152519622719030000016468625941245641653_);}
	.st27{fill:#BCBEC0;}
	.st28{fill:url(#SVGID_00000040563990705736098300000011208038506040885378_);}
	.st29{fill:url(#SVGID_00000066506440484540842020000014785827055847225268_);}
	.st30{fill-rule:evenodd;clip-rule:evenodd;fill:#FFFFFF;}
	.st31{clip-path:url(#SVGID_00000113344573594518995150000013628816092741985174_);}
	.st32{fill:none;stroke:#FFFFFF;stroke-width:15.6378;stroke-miterlimit:10;}
	.st33{fill:none;stroke:#FFFFFF;stroke-width:9.8091;stroke-linecap:round;stroke-linejoin:round;stroke-miterlimit:10;}
	.st34{fill:url(#SVGID_00000180328525241259156230000008406045496930537611_);}
	.st35{fill:none;stroke:#FFFFFF;stroke-width:14.3924;stroke-linecap:round;stroke-linejoin:round;stroke-miterlimit:10;}
	.st36{fill:none;stroke:#FFFFFF;stroke-width:8;stroke-linecap:round;stroke-linejoin:round;stroke-miterlimit:10;}
	.st37{fill:url(#SVGID_00000169559995871822549530000011164214235073668274_);}
	.st38{fill:#FFFFFF;stroke:#FFFFFF;stroke-width:2.9178;stroke-miterlimit:10;}
</style>
<g id="GPS">
</g>
<g id="Icons">
	<circle class="st4" cx="165.18" cy="355.76" r="11.3"/>
	<circle class="st4" cx="193.08" cy="355.76" r="11.3"/>
	<g>
		<linearGradient id="SVGID_1_" gradientUnits="userSpaceOnUse" x1="50.2371" y1="228.7271" x2="457.7816" y2="228.7271">
			<stop  offset="0" style="stop-color:#F15D22"/>
			<stop  offset="1" style="stop-color:#ED2024"/>
		</linearGradient>
		<path class="st0" d="M254.01,24.95c-112.54,0-203.77,91.23-203.77,203.77c0,112.54,91.23,203.77,203.77,203.77
			c112.54,0,203.77-91.23,203.77-203.77C457.78,116.19,366.55,24.95,254.01,24.95z"/>
	</g>
	<g>
		<path d="M124.97,476.91v14.44h-5.2v-38.59h11.39c2.44,0,4.56,0.28,6.37,0.85s3.3,1.37,4.48,2.41c1.18,1.04,2.07,2.3,2.65,3.77
			c0.58,1.47,0.88,3.12,0.88,4.93c0,1.79-0.31,3.44-0.94,4.93s-1.55,2.77-2.76,3.85s-2.72,1.92-4.51,2.52
			c-1.79,0.6-3.85,0.9-6.17,0.9H124.97z M124.97,472.77h6.19c1.49,0,2.8-0.2,3.95-0.59c1.14-0.39,2.1-0.95,2.87-1.66
			c0.77-0.71,1.36-1.56,1.75-2.54c0.39-0.99,0.59-2.07,0.59-3.26c0-2.46-0.76-4.38-2.28-5.76c-1.52-1.38-3.81-2.07-6.88-2.07h-6.19
			V472.77z"/>
		<path d="M161.63,463.64c1.99,0,3.79,0.33,5.4,1s2.97,1.61,4.09,2.83s1.98,2.7,2.58,4.43c0.6,1.73,0.9,3.67,0.9,5.8
			c0,2.15-0.3,4.09-0.9,5.82s-1.46,3.2-2.58,4.42s-2.49,2.16-4.09,2.81c-1.61,0.65-3.41,0.98-5.4,0.98s-3.79-0.33-5.4-0.98
			c-1.61-0.66-2.98-1.59-4.11-2.81s-2-2.69-2.61-4.42s-0.92-3.66-0.92-5.82c0-2.14,0.31-4.07,0.92-5.8
			c0.61-1.73,1.48-3.21,2.61-4.43s2.5-2.16,4.11-2.83C157.83,463.97,159.63,463.64,161.63,463.64z M161.63,487.98
			c2.69,0,4.7-0.9,6.03-2.71c1.33-1.8,1.99-4.32,1.99-7.55c0-3.25-0.66-5.78-1.99-7.59s-3.34-2.72-6.03-2.72
			c-1.37,0-2.55,0.23-3.55,0.7c-1.01,0.47-1.84,1.14-2.52,2.02c-0.67,0.88-1.18,1.96-1.51,3.25c-0.33,1.28-0.5,2.73-0.5,4.35
			c0,1.62,0.17,3.06,0.5,4.34c0.33,1.27,0.83,2.35,1.51,3.22c0.67,0.87,1.51,1.54,2.52,2.01
			C159.08,487.75,160.26,487.98,161.63,487.98z"/>
		<path d="M176.98,464.07h3.77c0.39,0,0.72,0.1,0.97,0.3c0.25,0.2,0.42,0.43,0.51,0.7l5.22,17.56c0.14,0.65,0.28,1.27,0.4,1.87
			s0.23,1.21,0.32,1.82c0.14-0.61,0.3-1.22,0.48-1.82s0.37-1.23,0.57-1.87l5.76-17.67c0.09-0.27,0.25-0.49,0.47-0.67
			c0.22-0.18,0.51-0.27,0.85-0.27h2.07c0.36,0,0.66,0.09,0.89,0.27s0.39,0.4,0.48,0.67l5.63,17.67c0.2,0.63,0.37,1.25,0.53,1.86
			c0.15,0.61,0.3,1.21,0.44,1.8c0.09-0.59,0.21-1.21,0.35-1.86c0.14-0.65,0.3-1.25,0.46-1.8l5.33-17.56
			c0.09-0.29,0.26-0.52,0.51-0.71c0.25-0.19,0.55-0.28,0.89-0.28h3.61l-8.83,27.28h-3.8c-0.47,0-0.79-0.3-0.97-0.92l-6.03-18.5
			c-0.14-0.41-0.26-0.83-0.35-1.25s-0.18-0.84-0.27-1.25c-0.09,0.41-0.18,0.83-0.27,1.27s-0.21,0.85-0.35,1.27l-6.11,18.47
			c-0.2,0.61-0.57,0.92-1.1,0.92h-3.61L176.98,464.07z"/>
		<path d="M232.59,463.64c1.63,0,3.14,0.27,4.52,0.82c1.38,0.55,2.58,1.34,3.58,2.37c1,1.03,1.79,2.31,2.36,3.82
			s0.85,3.25,0.85,5.18c0,0.75-0.08,1.26-0.24,1.51c-0.16,0.25-0.47,0.38-0.92,0.38h-18.15c0.04,1.72,0.27,3.22,0.7,4.5
			c0.43,1.28,1.02,2.34,1.78,3.19c0.75,0.85,1.65,1.49,2.69,1.91s2.21,0.63,3.5,0.63c1.2,0,2.24-0.14,3.11-0.42
			c0.87-0.28,1.62-0.58,2.25-0.9s1.15-0.62,1.58-0.9c0.42-0.28,0.79-0.42,1.09-0.42c0.4,0,0.7,0.15,0.92,0.46l1.35,1.75
			c-0.59,0.72-1.3,1.34-2.13,1.87s-1.71,0.96-2.65,1.31c-0.94,0.34-1.92,0.6-2.92,0.77c-1.01,0.17-2,0.26-2.99,0.26
			c-1.89,0-3.62-0.32-5.21-0.96s-2.96-1.57-4.12-2.8c-1.16-1.23-2.06-2.75-2.71-4.56c-0.65-1.81-0.97-3.9-0.97-6.25
			c0-1.9,0.29-3.68,0.88-5.33c0.58-1.65,1.42-3.08,2.52-4.29c1.09-1.21,2.43-2.16,4.01-2.86
			C228.84,463.98,230.61,463.64,232.59,463.64z M232.7,467.16c-2.32,0-4.14,0.67-5.47,2.01c-1.33,1.34-2.15,3.19-2.48,5.56h14.84
			c0-1.11-0.15-2.13-0.46-3.06s-0.75-1.72-1.35-2.4c-0.59-0.67-1.32-1.19-2.17-1.56S233.79,467.16,232.7,467.16z"/>
		<path d="M250.01,491.35v-27.28h2.75c0.52,0,0.88,0.1,1.08,0.3c0.2,0.2,0.33,0.54,0.4,1.02l0.32,4.26c0.93-1.9,2.09-3.39,3.46-4.46
			c1.37-1.07,2.98-1.6,4.83-1.6c0.75,0,1.44,0.08,2.05,0.26c0.61,0.17,1.18,0.41,1.7,0.71l-0.62,3.58c-0.13,0.45-0.4,0.67-0.83,0.67
			c-0.25,0-0.64-0.08-1.16-0.26s-1.25-0.26-2.18-0.26c-1.67,0-3.07,0.48-4.19,1.45s-2.06,2.38-2.81,4.23v17.37H250.01z"/>
		<path d="M300.08,487.55c1.04,0,2-0.05,2.87-0.15c0.87-0.1,1.69-0.25,2.46-0.44c0.77-0.2,1.5-0.44,2.18-0.71
			c0.68-0.28,1.36-0.6,2.05-0.96v-8.51h-5.98c-0.34,0-0.62-0.1-0.82-0.3c-0.21-0.2-0.31-0.44-0.31-0.73v-2.96h11.85v14.81
			c-0.97,0.7-1.98,1.31-3.03,1.83c-1.05,0.52-2.17,0.96-3.37,1.31c-1.19,0.35-2.47,0.61-3.84,0.78c-1.37,0.17-2.85,0.26-4.44,0.26
			c-2.8,0-5.37-0.48-7.7-1.44c-2.33-0.96-4.34-2.31-6.03-4.04c-1.69-1.73-3-3.81-3.95-6.23s-1.41-5.09-1.41-8
			c0-2.94,0.46-5.63,1.39-8.05s2.24-4.5,3.96-6.23s3.79-3.08,6.22-4.03c2.43-0.95,5.16-1.43,8.17-1.43c1.53,0,2.94,0.11,4.26,0.34
			c1.31,0.22,2.53,0.55,3.65,0.97s2.16,0.93,3.11,1.54c0.95,0.6,1.84,1.28,2.67,2.03l-1.48,2.37c-0.31,0.48-0.7,0.73-1.19,0.73
			c-0.29,0-0.6-0.1-0.94-0.3c-0.45-0.25-0.95-0.56-1.51-0.92c-0.56-0.36-1.23-0.7-2.03-1.04c-0.8-0.33-1.74-0.61-2.83-0.85
			s-2.37-0.35-3.86-0.35c-2.17,0-4.14,0.35-5.9,1.06c-1.76,0.71-3.26,1.72-4.5,3.04c-1.24,1.32-2.19,2.92-2.85,4.79
			c-0.67,1.88-1,3.98-1,6.31c0,2.44,0.35,4.62,1.04,6.53s1.67,3.53,2.92,4.86s2.75,2.34,4.47,3.04S297.99,487.55,300.08,487.55z"/>
		<path d="M321.65,491.35v-27.28h2.75c0.52,0,0.88,0.1,1.08,0.3c0.2,0.2,0.33,0.54,0.4,1.02l0.32,4.26c0.93-1.9,2.09-3.39,3.46-4.46
			c1.37-1.07,2.98-1.6,4.83-1.6c0.75,0,1.44,0.08,2.05,0.26c0.61,0.17,1.18,0.41,1.7,0.71l-0.62,3.58c-0.13,0.45-0.4,0.67-0.83,0.67
			c-0.25,0-0.64-0.08-1.16-0.26s-1.25-0.26-2.18-0.26c-1.67,0-3.07,0.48-4.19,1.45s-2.06,2.38-2.81,4.23v17.37H321.65z"/>
		<path d="M349.76,455.5c0,0.47-0.09,0.9-0.28,1.31s-0.44,0.76-0.75,1.08c-0.31,0.31-0.68,0.56-1.09,0.74
			c-0.41,0.18-0.85,0.27-1.32,0.27s-0.9-0.09-1.31-0.27c-0.4-0.18-0.76-0.43-1.08-0.74s-0.56-0.67-0.74-1.08
			c-0.18-0.4-0.27-0.84-0.27-1.31c0-0.47,0.09-0.91,0.27-1.33c0.18-0.42,0.43-0.79,0.74-1.1c0.31-0.31,0.67-0.56,1.08-0.74
			c0.4-0.18,0.84-0.27,1.31-0.27s0.91,0.09,1.32,0.27c0.41,0.18,0.78,0.43,1.09,0.74c0.31,0.31,0.57,0.68,0.75,1.1
			S349.76,455.04,349.76,455.5z M348.69,464.07v27.28h-4.79v-27.28H348.69z"/>
		<path d="M376.35,491.35c-0.68,0-1.11-0.33-1.29-1l-0.43-3.31c-1.17,1.42-2.5,2.55-4,3.41c-1.5,0.85-3.22,1.28-5.16,1.28
			c-1.56,0-2.98-0.3-4.25-0.9c-1.28-0.6-2.36-1.49-3.26-2.65c-0.9-1.17-1.59-2.62-2.07-4.36c-0.48-1.74-0.73-3.74-0.73-6
			c0-2.01,0.27-3.88,0.81-5.62c0.54-1.73,1.31-3.24,2.33-4.51c1.01-1.27,2.25-2.28,3.7-3c1.45-0.73,3.11-1.09,4.96-1.09
			c1.67,0,3.1,0.28,4.28,0.85c1.19,0.57,2.24,1.36,3.18,2.38v-15.14h4.79v39.67H376.35z M367.05,487.85c1.56,0,2.93-0.36,4.11-1.08
			s2.26-1.73,3.25-3.04v-13.2c-0.88-1.19-1.85-2.02-2.9-2.49c-1.05-0.48-2.21-0.71-3.49-0.71c-2.55,0-4.51,0.91-5.87,2.72
			c-1.37,1.81-2.05,4.4-2.05,7.76c0,1.78,0.15,3.3,0.46,4.56c0.3,1.27,0.75,2.31,1.35,3.12c0.59,0.82,1.32,1.41,2.18,1.79
			C364.95,487.66,365.94,487.85,367.05,487.85z"/>
	</g>
	<g>
		<line class="st33" x1="230.85" y1="142.79" x2="210.43" y2="312.83"/>
		<line class="st33" x1="273.28" y1="142.79" x2="291.91" y2="312.83"/>
		<line class="st33" x1="220.06" y1="231.32" x2="291.91" y2="312.83"/>
		<line class="st33" x1="283.39" y1="233.26" x2="210.43" y2="312.83"/>
		<line class="st33" x1="220.06" y1="231.32" x2="276.04" y2="171.29"/>
		<line class="st33" x1="225.68" y1="171.91" x2="283.47" y2="232.69"/>
		<line class="st33" x1="273.28" y1="142.79" x2="230.85" y2="142.79"/>
		<line class="st33" x1="230.85" y1="142.79" x2="191.06" y2="171.91"/>
		<line class="st33" x1="316.95" y1="171.91" x2="191.06" y2="171.91"/>
		<line class="st33" x1="273.28" y1="142.79" x2="316.95" y2="171.91"/>
	</g>
</g>
<g id="References">
</g>
</svg>
