<?xml version="1.0" encoding="utf-8"?>
<!-- Generator: Adobe Illustrator 28.0.0, SVG Export Plug-In . SVG Version: 6.00 Build 0)  -->
<svg version="1.1" xmlns="http://www.w3.org/2000/svg" xmlns:xlink="http://www.w3.org/1999/xlink" x="0px" y="0px"
	 viewBox="0 0 511.68 511.68" style="enable-background:new 0 0 511.68 511.68;" xml:space="preserve">
<style type="text/css">
	.st0{fill:url(#SVGID_1_);}
	.st1{fill:url(#SVGID_00000171692588000327894390000005789845375052714117_);}
	.st2{fill:url(#SVGID_00000011013601764435427920000009787811830706090382_);}
	.st3{fill:none;stroke:#FFFFFF;stroke-width:15;stroke-miterlimit:10;}
	.st4{fill:#FFFFFF;}
	.st5{fill:none;stroke:#FFFFFF;stroke-width:9;stroke-miterlimit:10;}
	.st6{fill:url(#SVGID_00000013161308214513511380000005115696045183233934_);}
	.st7{fill:none;stroke:#FFFFFF;stroke-width:15;stroke-linecap:round;stroke-linejoin:round;stroke-miterlimit:10;}
	.st8{fill:none;stroke:#FFFFFF;stroke-width:10;stroke-linecap:round;stroke-linejoin:round;stroke-miterlimit:10;}
	.st9{fill:url(#SVGID_00000102531015584121996540000000864657548427770047_);}
	.st10{fill:url(#SVGID_00000044871811021608728480000010780509476012945548_);}
	.st11{fill:url(#SVGID_00000119817064964877432260000007591234794089723812_);}
	.st12{fill:url(#SVGID_00000060746101926039664820000001594389733000996481_);}
	.st13{fill:url(#SVGID_00000030469527047095430800000010839621337175807897_);}
	.st14{fill:url(#SVGID_00000127737375339246815950000011834326991154680199_);}
	.st15{fill:url(#SVGID_00000119817572515706622790000003643041960990119589_);}
	.st16{fill:url(#SVGID_00000033357903561506080550000004239615535601635716_);}
	.st17{fill:url(#SVGID_00000067957391940474795580000006326537161377933990_);}
	.st18{fill:url(#SVGID_00000119804109935007106960000012671956499394018181_);}
	.st19{fill:url(#SVGID_00000143596558446491418140000000051657759784654266_);}
	.st20{fill:url(#SVGID_00000112612650274225221170000007366895613695173512_);}
	.st21{fill:url(#SVGID_00000150799562951635196940000015415835514570745491_);}
	.st22{fill:url(#SVGID_00000029030101964778650670000017011840942449774781_);}
	.st23{fill:url(#SVGID_00000104697708693412950270000006422007560980808865_);}
	.st24{fill:url(#SVGID_00000059276119931249645470000000584000163381440182_);}
	.st25{fill:url(#SVGID_00000137842620531362182000000007199659809135430807_);}
	.st26{fill:url(#SVGID_00000056418742921386972770000008712152621776763310_);}
	.st27{fill:#BCBEC0;}
	.st28{fill:url(#SVGID_00000052103417002377547720000005787893733405924250_);}
	.st29{fill:url(#SVGID_00000173132232440167981840000009607547382222880436_);}
	.st30{fill-rule:evenodd;clip-rule:evenodd;fill:#FFFFFF;}
	.st31{clip-path:url(#SVGID_00000181053465824386337280000002095664451604777122_);}
	.st32{fill:none;stroke:#FFFFFF;stroke-width:15.6378;stroke-miterlimit:10;}
	.st33{fill:none;stroke:#FFFFFF;stroke-width:9.8091;stroke-linecap:round;stroke-linejoin:round;stroke-miterlimit:10;}
	.st34{fill:url(#SVGID_00000038410537556937462660000018061914715714587027_);}
	.st35{fill:none;stroke:#FFFFFF;stroke-width:14.3924;stroke-linecap:round;stroke-linejoin:round;stroke-miterlimit:10;}
	.st36{fill:none;stroke:#FFFFFF;stroke-width:8;stroke-linecap:round;stroke-linejoin:round;stroke-miterlimit:10;}
	.st37{fill:url(#SVGID_00000009559488260931938230000013407495958206138274_);}
	.st38{fill:#FFFFFF;stroke:#FFFFFF;stroke-width:2.9178;stroke-miterlimit:10;}
</style>
<g id="GPS">
</g>
<g id="Icons">
	<g>
		<linearGradient id="SVGID_1_" gradientUnits="userSpaceOnUse" x1="49.318" y1="227.0344" x2="455.0839" y2="227.0344">
			<stop  offset="0" style="stop-color:#F15D22"/>
			<stop  offset="1" style="stop-color:#ED2024"/>
		</linearGradient>
		<path class="st0" d="M252.2,24.15c-112.05,0-202.88,90.83-202.88,202.88c0,112.05,90.83,202.88,202.88,202.88
			c112.05,0,202.88-90.83,202.88-202.88C455.08,114.99,364.25,24.15,252.2,24.15z"/>
		<g>
			<line class="st7" x1="331.1" y1="158.89" x2="180.69" y2="158.89"/>
			<line class="st7" x1="331.1" y1="205.86" x2="180.69" y2="205.86"/>
			<line class="st7" x1="331.1" y1="252.83" x2="180.69" y2="252.83"/>
			<line class="st7" x1="331.1" y1="291.65" x2="180.69" y2="291.65"/>
			<circle class="st4" cx="209.38" cy="158.5" r="18.13"/>
			<circle class="st4" cx="263.72" cy="205.86" r="18.13"/>
			<circle class="st4" cx="308.34" cy="252.83" r="18.13"/>
			<circle class="st4" cx="230.68" cy="291.65" r="18.13"/>
		</g>
	</g>
	<g>
		<path d="M118.16,483.38c0.29,0,0.55,0.12,0.78,0.35l2.05,2.23c-1.58,1.83-3.5,3.26-5.75,4.28c-2.25,1.02-4.97,1.54-8.15,1.54
			c-2.78,0-5.3-0.48-7.57-1.44c-2.26-0.96-4.19-2.31-5.79-4.04c-1.6-1.73-2.84-3.81-3.72-6.23c-0.88-2.42-1.32-5.09-1.32-8
			c0-2.91,0.47-5.57,1.41-8s2.27-4.51,3.97-6.25c1.71-1.74,3.75-3.09,6.13-4.05c2.38-0.96,5-1.44,7.88-1.44
			c2.84,0,5.28,0.44,7.34,1.32c2.05,0.88,3.88,2.07,5.48,3.58l-1.7,2.4c-0.12,0.18-0.27,0.33-0.43,0.44s-0.4,0.17-0.7,0.17
			c-0.23,0-0.48-0.08-0.74-0.26c-0.26-0.17-0.57-0.38-0.93-0.63c-0.36-0.25-0.78-0.52-1.27-0.81s-1.06-0.56-1.72-0.81
			c-0.67-0.25-1.44-0.46-2.32-0.63c-0.88-0.17-1.89-0.26-3.04-0.26c-2.06,0-3.95,0.35-5.67,1.06c-1.71,0.71-3.19,1.72-4.43,3.03
			c-1.24,1.31-2.21,2.91-2.9,4.79c-0.69,1.88-1.04,4-1.04,6.33c0,2.41,0.34,4.55,1.04,6.44c0.69,1.88,1.63,3.48,2.83,4.78
			c1.19,1.3,2.61,2.29,4.24,2.98s3.39,1.02,5.28,1.02c1.15,0,2.18-0.07,3.1-0.2c0.92-0.13,1.76-0.35,2.54-0.63
			c0.78-0.29,1.51-0.65,2.18-1.09c0.67-0.44,1.35-0.96,2.03-1.58C117.58,483.51,117.87,483.38,118.16,483.38z"/>
		<path d="M138.14,463.64c1.99,0,3.79,0.33,5.4,1c1.61,0.66,2.97,1.61,4.09,2.83s1.98,2.7,2.59,4.43c0.6,1.73,0.9,3.67,0.9,5.8
			c0,2.15-0.3,4.09-0.9,5.82s-1.46,3.2-2.59,4.42s-2.49,2.16-4.09,2.81c-1.61,0.65-3.41,0.98-5.4,0.98s-3.79-0.33-5.4-0.98
			c-1.61-0.66-2.98-1.59-4.11-2.81s-2-2.69-2.61-4.42s-0.92-3.66-0.92-5.82c0-2.14,0.3-4.07,0.92-5.8c0.61-1.73,1.48-3.21,2.61-4.43
			s2.5-2.16,4.11-2.83C134.35,463.97,136.15,463.64,138.14,463.64z M138.14,487.98c2.69,0,4.7-0.9,6.03-2.71
			c1.33-1.8,1.99-4.32,1.99-7.55c0-3.25-0.66-5.78-1.99-7.59c-1.33-1.81-3.34-2.72-6.03-2.72c-1.36,0-2.55,0.23-3.55,0.7
			c-1.01,0.47-1.84,1.14-2.52,2.02c-0.67,0.88-1.18,1.96-1.51,3.25c-0.33,1.28-0.5,2.73-0.5,4.35c0,1.62,0.17,3.06,0.5,4.34
			s0.83,2.35,1.51,3.22c0.67,0.87,1.51,1.54,2.52,2.01C135.59,487.75,136.78,487.98,138.14,487.98z"/>
		<path d="M157.05,491.35v-27.28h2.86c0.68,0,1.11,0.33,1.29,1l0.38,2.96c1.18-1.31,2.51-2.37,3.97-3.18
			c1.46-0.81,3.16-1.21,5.08-1.21c1.49,0,2.8,0.25,3.95,0.74c1.14,0.49,2.09,1.19,2.85,2.1c0.76,0.91,1.34,2,1.74,3.27
			c0.39,1.27,0.59,2.68,0.59,4.23v17.37h-4.79v-17.37c0-2.06-0.47-3.67-1.41-4.81c-0.94-1.14-2.38-1.71-4.32-1.71
			c-1.42,0-2.74,0.34-3.97,1.02c-1.23,0.68-2.37,1.61-3.41,2.77v20.09H157.05z"/>
		<path d="M195.26,491.78c-2.16,0-3.81-0.6-4.97-1.8c-1.16-1.2-1.74-2.94-1.74-5.2v-16.7h-3.29c-0.29,0-0.53-0.08-0.73-0.26
			c-0.2-0.17-0.3-0.44-0.3-0.79v-1.91l4.47-0.57l1.1-8.43c0.04-0.27,0.15-0.49,0.35-0.66c0.2-0.17,0.45-0.26,0.76-0.26h2.42v9.4
			h7.81v3.47h-7.81v16.37c0,1.15,0.28,2,0.83,2.56s1.28,0.83,2.15,0.83c0.5,0,0.94-0.07,1.31-0.2c0.37-0.13,0.69-0.28,0.96-0.44
			c0.27-0.16,0.5-0.31,0.69-0.44c0.19-0.13,0.35-0.2,0.5-0.2c0.25,0,0.48,0.15,0.67,0.46l1.4,2.29c-0.83,0.77-1.82,1.38-2.99,1.82
			C197.71,491.56,196.5,491.78,195.26,491.78z"/>
		<path d="M207.08,491.35v-27.28h2.75c0.52,0,0.88,0.1,1.08,0.3c0.2,0.2,0.33,0.54,0.4,1.02l0.32,4.26c0.93-1.9,2.09-3.39,3.46-4.46
			c1.37-1.07,2.98-1.6,4.83-1.6c0.75,0,1.44,0.08,2.05,0.26c0.61,0.17,1.18,0.41,1.7,0.71l-0.62,3.58c-0.12,0.45-0.4,0.67-0.83,0.67
			c-0.25,0-0.64-0.08-1.16-0.26c-0.52-0.17-1.25-0.26-2.18-0.26c-1.67,0-3.07,0.48-4.19,1.45c-1.12,0.97-2.06,2.38-2.81,4.23v17.37
			H207.08z"/>
		<path d="M239.83,463.64c1.99,0,3.79,0.33,5.4,1s2.97,1.61,4.09,2.83c1.12,1.22,1.98,2.7,2.59,4.43c0.6,1.73,0.9,3.67,0.9,5.8
			c0,2.15-0.3,4.09-0.9,5.82c-0.6,1.72-1.46,3.2-2.59,4.42c-1.12,1.22-2.49,2.16-4.09,2.81c-1.61,0.65-3.41,0.98-5.4,0.98
			c-1.99,0-3.79-0.33-5.4-0.98c-1.61-0.66-2.98-1.59-4.11-2.81s-2-2.69-2.61-4.42c-0.61-1.72-0.91-3.66-0.91-5.82
			c0-2.14,0.3-4.07,0.91-5.8c0.61-1.73,1.48-3.21,2.61-4.43s2.5-2.16,4.11-2.83C236.04,463.97,237.84,463.64,239.83,463.64z
			 M239.83,487.98c2.69,0,4.71-0.9,6.03-2.71c1.33-1.8,1.99-4.32,1.99-7.55c0-3.25-0.66-5.78-1.99-7.59s-3.34-2.72-6.03-2.72
			c-1.36,0-2.55,0.23-3.55,0.7s-1.84,1.14-2.52,2.02s-1.18,1.96-1.51,3.25c-0.33,1.28-0.5,2.73-0.5,4.35c0,1.62,0.17,3.06,0.5,4.34
			s0.83,2.35,1.51,3.22c0.67,0.87,1.51,1.54,2.52,2.01S238.47,487.98,239.83,487.98z"/>
		<path d="M264.07,451.68v39.67h-4.79v-39.67H264.07z"/>
		<path d="M289.41,476.91v14.44h-5.2v-38.59h11.39c2.44,0,4.56,0.28,6.37,0.85s3.3,1.37,4.48,2.41c1.18,1.04,2.07,2.3,2.65,3.77
			c0.58,1.47,0.88,3.12,0.88,4.93c0,1.79-0.31,3.44-0.94,4.93c-0.63,1.49-1.55,2.77-2.76,3.85c-1.21,1.08-2.71,1.92-4.51,2.52
			c-1.8,0.6-3.85,0.9-6.17,0.9H289.41z M289.41,472.77h6.2c1.49,0,2.8-0.2,3.95-0.59s2.1-0.95,2.87-1.66
			c0.77-0.71,1.36-1.56,1.75-2.54c0.39-0.99,0.59-2.07,0.59-3.26c0-2.46-0.76-4.38-2.28-5.76c-1.52-1.38-3.81-2.07-6.88-2.07h-6.2
			V472.77z"/>
		<path d="M334.52,491.35h-2.13c-0.47,0-0.84-0.07-1.13-0.22c-0.29-0.14-0.48-0.45-0.57-0.92l-0.54-2.53
			c-0.72,0.65-1.42,1.23-2.1,1.74c-0.68,0.51-1.4,0.94-2.15,1.29c-0.75,0.35-1.56,0.62-2.41,0.79c-0.85,0.18-1.8,0.27-2.84,0.27
			c-1.06,0-2.05-0.15-2.98-0.45c-0.92-0.3-1.73-0.74-2.41-1.34c-0.68-0.59-1.22-1.35-1.63-2.26c-0.4-0.91-0.61-1.99-0.61-3.23
			c0-1.08,0.29-2.12,0.89-3.12c0.59-1,1.55-1.89,2.87-2.66c1.32-0.78,3.05-1.41,5.19-1.91c2.14-0.5,4.75-0.74,7.84-0.74v-2.14
			c0-2.13-0.45-3.74-1.36-4.84c-0.91-1.09-2.25-1.64-4.03-1.64c-1.17,0-2.15,0.15-2.95,0.44c-0.8,0.3-1.49,0.63-2.07,1
			c-0.58,0.37-1.09,0.7-1.51,1c-0.42,0.3-0.84,0.44-1.25,0.44c-0.32,0-0.61-0.09-0.85-0.26c-0.24-0.17-0.44-0.38-0.58-0.63
			l-0.86-1.53c1.51-1.46,3.13-2.54,4.88-3.26s3.67-1.08,5.79-1.08c1.53,0,2.88,0.25,4.07,0.75s2.18,1.2,2.99,2.1
			c0.81,0.9,1.42,1.98,1.83,3.26c0.41,1.27,0.62,2.67,0.62,4.2V491.35z M322.08,488.41c0.84,0,1.62-0.08,2.32-0.26
			c0.7-0.17,1.36-0.41,1.98-0.73c0.62-0.31,1.21-0.7,1.78-1.14c0.57-0.45,1.12-0.96,1.66-1.53v-5.63c-2.21,0-4.08,0.14-5.63,0.42
			c-1.54,0.28-2.8,0.65-3.77,1.1c-0.97,0.45-1.67,0.98-2.11,1.6c-0.44,0.61-0.66,1.3-0.66,2.06c0,0.72,0.12,1.35,0.35,1.87
			c0.23,0.52,0.55,0.95,0.94,1.29c0.39,0.33,0.86,0.58,1.4,0.73C320.87,488.34,321.45,488.41,322.08,488.41z"/>
		<path d="M341.79,491.35v-27.28h2.86c0.68,0,1.11,0.33,1.29,1l0.38,2.96c1.19-1.31,2.51-2.37,3.97-3.18
			c1.46-0.81,3.16-1.21,5.08-1.21c1.49,0,2.81,0.25,3.95,0.74c1.14,0.49,2.09,1.19,2.86,2.1c0.76,0.91,1.34,2,1.74,3.27
			c0.4,1.27,0.59,2.68,0.59,4.23v17.37h-4.79v-17.37c0-2.06-0.47-3.67-1.41-4.81c-0.94-1.14-2.38-1.71-4.32-1.71
			c-1.42,0-2.74,0.34-3.97,1.02c-1.23,0.68-2.37,1.61-3.41,2.77v20.09H341.79z"/>
		<path d="M382.54,463.64c1.63,0,3.14,0.27,4.52,0.82s2.58,1.34,3.58,2.37s1.79,2.31,2.36,3.82c0.56,1.52,0.85,3.25,0.85,5.18
			c0,0.75-0.08,1.26-0.24,1.51c-0.16,0.25-0.47,0.38-0.92,0.38h-18.15c0.04,1.72,0.27,3.22,0.7,4.5c0.43,1.28,1.02,2.34,1.78,3.19
			c0.75,0.85,1.65,1.49,2.69,1.91s2.21,0.63,3.5,0.63c1.2,0,2.24-0.14,3.11-0.42s1.62-0.58,2.25-0.9s1.15-0.62,1.58-0.9
			s0.79-0.42,1.09-0.42c0.4,0,0.7,0.15,0.92,0.46l1.35,1.75c-0.59,0.72-1.3,1.34-2.13,1.87s-1.71,0.96-2.65,1.31
			c-0.94,0.34-1.92,0.6-2.92,0.77c-1.01,0.17-2,0.26-2.99,0.26c-1.89,0-3.62-0.32-5.21-0.96c-1.59-0.64-2.96-1.57-4.12-2.8
			c-1.16-1.23-2.06-2.75-2.71-4.56s-0.97-3.9-0.97-6.25c0-1.9,0.29-3.68,0.88-5.33c0.58-1.65,1.42-3.08,2.52-4.29
			s2.43-2.16,4.01-2.86C378.79,463.98,380.57,463.64,382.54,463.64z M382.65,467.16c-2.32,0-4.14,0.67-5.47,2.01
			c-1.33,1.34-2.15,3.19-2.48,5.56h14.84c0-1.11-0.15-2.13-0.46-3.06c-0.3-0.92-0.75-1.72-1.35-2.4c-0.59-0.67-1.32-1.19-2.17-1.56
			C384.72,467.35,383.74,467.16,382.65,467.16z"/>
		<path d="M405.3,451.68v39.67h-4.79v-39.67H405.3z"/>
	</g>
</g>
<g id="References">
</g>
</svg>
