<?xml version="1.0" encoding="utf-8"?>
<!-- Generator: Adobe Illustrator 28.0.0, SVG Export Plug-In . SVG Version: 6.00 Build 0)  -->
<svg version="1.1" xmlns="http://www.w3.org/2000/svg" xmlns:xlink="http://www.w3.org/1999/xlink" x="0px" y="0px"
	 viewBox="0 0 511.68 511.68" style="enable-background:new 0 0 511.68 511.68;" xml:space="preserve">
<style type="text/css">
	.st0{fill:url(#SVGID_1_);}
	.st1{fill:url(#SVGID_00000015319356435993407910000006737087475308231326_);}
	.st2{fill:url(#SVGID_00000132057857790717948070000010377646535673446589_);}
	.st3{fill:none;stroke:#FFFFFF;stroke-width:15;stroke-miterlimit:10;}
	.st4{fill:#FFFFFF;}
	.st5{fill:none;stroke:#FFFFFF;stroke-width:9;stroke-miterlimit:10;}
	.st6{fill:url(#SVGID_00000100374668579616190320000011795865481171879831_);}
	.st7{fill:none;stroke:#FFFFFF;stroke-width:15;stroke-linecap:round;stroke-linejoin:round;stroke-miterlimit:10;}
	.st8{fill:none;stroke:#FFFFFF;stroke-width:10;stroke-linecap:round;stroke-linejoin:round;stroke-miterlimit:10;}
	.st9{fill:url(#SVGID_00000032637002280006782200000014344258063158819248_);}
	.st10{fill:url(#SVGID_00000078756504301843529210000015386086107809821325_);}
	.st11{fill:url(#SVGID_00000172414174004731613880000012590108321006941110_);}
	.st12{fill:url(#SVGID_00000011002166117253709730000009947285549656018841_);}
	.st13{fill:url(#SVGID_00000117638002294267876630000002793695044691281305_);}
	.st14{fill:url(#SVGID_00000015317848030218151870000017569665655509881010_);}
	.st15{fill:url(#SVGID_00000018944779668610371220000012021636140993588357_);}
	.st16{fill:url(#SVGID_00000073683561215073397080000008651145233785478835_);}
	.st17{fill:url(#SVGID_00000092445380206892844290000004063875382946173848_);}
	.st18{fill:url(#SVGID_00000032630876167489874030000010114690089442033577_);}
	.st19{fill:url(#SVGID_00000165922763055667645920000004925569585180892081_);}
	.st20{fill:url(#SVGID_00000108988441348382406910000007155697058552670101_);}
	.st21{fill:url(#SVGID_00000027594253456756084750000001164686654786993544_);}
	.st22{fill:url(#SVGID_00000000200168828277284730000012467318622269406103_);}
	.st23{fill:url(#SVGID_00000141416612595284613840000007542126023749935769_);}
	.st24{fill:url(#SVGID_00000133531264014743068790000000062063145421685394_);}
	.st25{fill:url(#SVGID_00000020368651038580385970000012111118324546943388_);}
	.st26{fill:url(#SVGID_00000077290847411880459160000004940527719517863585_);}
	.st27{fill:#BCBEC0;}
	.st28{fill:url(#SVGID_00000065052458127922440870000012086223620265686441_);}
	.st29{fill:url(#SVGID_00000069360985789276333120000001346108089258602403_);}
	.st30{fill-rule:evenodd;clip-rule:evenodd;fill:#FFFFFF;}
	.st31{clip-path:url(#SVGID_00000116214104279629599760000016718002924432631198_);}
	.st32{fill:none;stroke:#FFFFFF;stroke-width:15.6378;stroke-miterlimit:10;}
	.st33{fill:none;stroke:#FFFFFF;stroke-width:9.8091;stroke-linecap:round;stroke-linejoin:round;stroke-miterlimit:10;}
	.st34{fill:url(#SVGID_00000155127579151069859090000009738945581796709524_);}
	.st35{fill:none;stroke:#FFFFFF;stroke-width:14.3924;stroke-linecap:round;stroke-linejoin:round;stroke-miterlimit:10;}
	.st36{fill:none;stroke:#FFFFFF;stroke-width:8;stroke-linecap:round;stroke-linejoin:round;stroke-miterlimit:10;}
	.st37{fill:url(#SVGID_00000140727502024598397320000013634030161090329007_);}
	.st38{fill:#FFFFFF;stroke:#FFFFFF;stroke-width:2.9178;stroke-miterlimit:10;}
</style>
<g id="GPS">
</g>
<g id="Icons">
	<g>
		<linearGradient id="SVGID_1_" gradientUnits="userSpaceOnUse" x1="60.3632" y1="224.9683" x2="462.3835" y2="224.9683">
			<stop  offset="0" style="stop-color:#F15D22"/>
			<stop  offset="1" style="stop-color:#ED2024"/>
		</linearGradient>
		<path class="st0" d="M261.37,23.96c-111.01,0-201.01,90-201.01,201.01c0,111.01,90,201.01,201.01,201.01
			c111.01,0,201.01-90,201.01-201.01C462.38,113.95,372.39,23.96,261.37,23.96z"/>
		<g>
			<path class="st4" d="M347.31,162.47c0-12.94-10.49-23.44-23.44-23.44h-31.25c-4.31,0-7.81,3.5-7.81,7.81s3.5,7.81,7.81,7.81
				h31.25c4.31,0,7.81,3.5,7.81,7.81v31.25c0,4.31,3.5,7.81,7.81,7.81c4.31,0,7.81-3.5,7.81-7.81V162.47z"/>
			<path class="st4" d="M347.31,256.22c0-4.31-3.5-7.81-7.81-7.81c-4.31,0-7.81,3.5-7.81,7.81v31.25c0,4.31-3.5,7.81-7.81,7.81
				h-31.25c-4.31,0-7.81,3.5-7.81,7.81c0,4.31,3.5,7.81,7.81,7.81h31.25c12.94,0,23.44-10.49,23.44-23.44V256.22z"/>
			<path class="st4" d="M198.88,295.28c-4.31,0-7.81-3.5-7.81-7.81v-31.25c0-4.31-3.5-7.81-7.81-7.81c-4.31,0-7.81,3.5-7.81,7.81
				v31.25c0,12.94,10.49,23.44,23.44,23.44h31.25c4.31,0,7.81-3.5,7.81-7.81c0-4.31-3.5-7.81-7.81-7.81H198.88z"/>
			<path class="st4" d="M175.44,193.72c0,4.31,3.5,7.81,7.81,7.81c4.31,0,7.81-3.5,7.81-7.81v-31.25c0-4.31,3.5-7.81,7.81-7.81
				h31.25c4.31,0,7.81-3.5,7.81-7.81s-3.5-7.81-7.81-7.81h-31.25c-12.94,0-23.44,10.49-23.44,23.44V193.72z"/>
			<path class="st30" d="M253.56,178.1c0-4.31-3.5-7.81-7.81-7.81H214.5c-4.31,0-7.81,3.5-7.81,7.81v31.25
				c0,4.31,3.5,7.81,7.81,7.81h31.25c4.31,0,7.81-3.5,7.81-7.81V178.1z M237.94,189.81c0-2.16-1.75-3.91-3.91-3.91h-7.81
				c-2.16,0-3.91,1.75-3.91,3.91v7.81c0,2.16,1.75,3.91,3.91,3.91h7.81c2.16,0,3.91-1.75,3.91-3.91V189.81z"/>
			<path class="st30" d="M308.25,232.78c4.31,0,7.81,3.5,7.81,7.81v31.25c0,4.31-3.5,7.81-7.81,7.81H277c-4.31,0-7.81-3.5-7.81-7.81
				v-31.25c0-4.31,3.5-7.81,7.81-7.81H308.25z M284.81,252.31c0-2.16,1.75-3.91,3.91-3.91h7.81c2.16,0,3.91,1.75,3.91,3.91v7.81
				c0,2.16-1.75,3.91-3.91,3.91h-7.81c-2.16,0-3.91-1.75-3.91-3.91V252.31z"/>
			<path class="st4" d="M277,170.28c-4.31,0-7.81,3.5-7.81,7.81c0,4.31,3.5,7.81,7.81,7.81h19.53c2.16,0,3.91,1.75,3.91,3.91v19.53
				c0,4.31,3.5,7.81,7.81,7.81c4.31,0,7.81-3.5,7.81-7.81V178.1c0-4.31-3.5-7.81-7.81-7.81H277z"/>
			<path class="st4" d="M277,193.72c-4.31,0-7.81,3.5-7.81,7.81v7.81c0,4.31,3.5,7.81,7.81,7.81s7.81-3.5,7.81-7.81v-7.81
				C284.81,197.22,281.31,193.72,277,193.72z"/>
			<path class="st4" d="M214.5,232.78c-4.31,0-7.81,3.5-7.81,7.81v15.62c0,4.31,3.5,7.81,7.81,7.81c4.31,0,7.81-3.5,7.81-7.81v-3.91
				c0-2.16,1.75-3.91,3.91-3.91h19.53c4.31,0,7.81-3.5,7.81-7.81c0-4.31-3.5-7.81-7.81-7.81H214.5z"/>
			<path class="st4" d="M245.75,264.03c-4.31,0-7.81,3.5-7.81,7.81c0,4.31,3.5,7.81,7.81,7.81c4.31,0,7.81-3.5,7.81-7.81
				C253.56,267.53,250.06,264.03,245.75,264.03z"/>
		</g>
	</g>
</g>
<g id="References">
	<g>
		<path d="M262.85,472.07c0,1.81-0.18,3.54-0.55,5.17c-0.37,1.63-0.9,3.16-1.6,4.57s-1.55,2.69-2.56,3.84
			c-1.01,1.15-2.14,2.15-3.39,2.99l9.91,10.69h-4.31c-0.65,0-1.22-0.09-1.72-0.27c-0.5-0.18-0.96-0.49-1.37-0.94l-6.79-7.38
			c-1.02,0.32-2.09,0.57-3.19,0.75c-1.1,0.18-2.26,0.27-3.46,0.27c-2.84,0-5.42-0.48-7.76-1.44c-2.33-0.96-4.34-2.31-6.01-4.05
			c-1.67-1.74-2.96-3.82-3.88-6.23c-0.92-2.42-1.37-5.07-1.37-7.96c0-2.89,0.46-5.54,1.37-7.96c0.92-2.41,2.21-4.5,3.88-6.25
			c1.67-1.75,3.67-3.11,6.01-4.08c2.33-0.97,4.92-1.45,7.76-1.45s5.43,0.49,7.77,1.45c2.34,0.97,4.35,2.33,6.02,4.08
			c1.67,1.75,2.96,3.83,3.88,6.25C262.39,466.52,262.85,469.18,262.85,472.07z M257.49,472.07c0-2.37-0.32-4.5-0.97-6.38
			c-0.65-1.89-1.56-3.48-2.75-4.78c-1.18-1.3-2.62-2.3-4.31-3s-3.57-1.05-5.66-1.05c-2.07,0-3.94,0.35-5.63,1.05s-3.13,1.7-4.32,3
			s-2.11,2.89-2.76,4.78c-0.65,1.88-0.97,4.01-0.97,6.38c0,2.37,0.32,4.49,0.97,6.37s1.57,3.46,2.76,4.77s2.63,2.3,4.32,2.99
			s3.56,1.04,5.63,1.04c2.08,0,3.97-0.35,5.66-1.04s3.12-1.69,4.31-2.99c1.19-1.3,2.1-2.89,2.75-4.77
			C257.16,476.56,257.49,474.44,257.49,472.07z"/>
		<path d="M275.72,475.24v16.1h-5.2v-38.59h10.91c2.44,0,4.55,0.25,6.33,0.74c1.78,0.49,3.25,1.21,4.4,2.14s2.01,2.06,2.57,3.38
			s0.83,2.8,0.83,4.43c0,1.36-0.21,2.64-0.65,3.82c-0.43,1.18-1.05,2.25-1.87,3.19c-0.82,0.94-1.81,1.75-2.99,2.41
			s-2.51,1.17-4,1.51c0.65,0.38,1.22,0.92,1.72,1.64l11.26,15.32h-4.63c-0.95,0-1.65-0.37-2.1-1.1l-10.02-13.79
			c-0.3-0.43-0.64-0.74-1-0.93s-0.9-0.28-1.62-0.28H275.72z M275.72,471.45h5.47c1.53,0,2.87-0.18,4.03-0.55s2.13-0.89,2.91-1.56
			c0.78-0.67,1.37-1.48,1.76-2.41c0.39-0.93,0.59-1.97,0.59-3.1c0-2.3-0.76-4.03-2.28-5.2c-1.52-1.17-3.78-1.75-6.77-1.75h-5.71
			V471.45z"/>
	</g>
</g>
</svg>
