<?xml version="1.0" encoding="utf-8"?>
<!-- Generator: Adobe Illustrator 28.0.0, SVG Export Plug-In . SVG Version: 6.00 Build 0)  -->
<svg version="1.1" xmlns="http://www.w3.org/2000/svg" xmlns:xlink="http://www.w3.org/1999/xlink" x="0px" y="0px"
	 viewBox="0 0 511.68 511.68" style="enable-background:new 0 0 511.68 511.68;" xml:space="preserve">
<style type="text/css">
	.st0{display:none;}
	.st1{fill:url(#SVGID_1_);}
	.st2{fill:none;stroke:#FFFFFF;stroke-width:15;stroke-miterlimit:10;}
	.st3{fill:#FFFFFF;}
	.st4{fill:none;stroke:#FFFFFF;stroke-width:9;stroke-miterlimit:10;}
	.st5{fill:url(#SVGID_00000130639584752245614430000017464949180959987347_);}
	.st6{fill:none;stroke:#FFFFFF;stroke-width:15;stroke-linecap:round;stroke-linejoin:round;stroke-miterlimit:10;}
	.st7{fill:none;stroke:#FFFFFF;stroke-width:10;stroke-linecap:round;stroke-linejoin:round;stroke-miterlimit:10;}
	.st8{fill:url(#SVGID_00000064348596335911990330000004360729582798934455_);}
	.st9{fill:url(#SVGID_00000116231550193987046710000006319153429723048875_);}
	.st10{fill:url(#SVGID_00000095337118767467355940000001238879664937870502_);}
	.st11{fill:url(#SVGID_00000100340222568168725290000008904791836412576425_);}
	.st12{fill:url(#SVGID_00000091700307793589570540000009279574860792511642_);}
	.st13{fill:url(#SVGID_00000030476161632687469420000005722354711593808561_);}
	.st14{fill:url(#SVGID_00000037684021924683359470000015094150055124984754_);}
	.st15{fill:url(#SVGID_00000026142950465524950790000009299405233055057824_);}
	.st16{fill:url(#SVGID_00000047755267589261127710000017894594717076304537_);}
	.st17{fill:url(#SVGID_00000168837249341901814140000009102267779176062135_);}
	.st18{fill:url(#SVGID_00000153693712128587927580000007069154097015710632_);}
	.st19{fill:url(#SVGID_00000002377416248699981660000008855957243355011480_);}
	.st20{fill:url(#SVGID_00000052818898579767786880000002919736075386854559_);}
	.st21{fill:url(#SVGID_00000154423097827554999840000000334407022269115833_);}
	.st22{fill:url(#SVGID_00000029765526956458695970000011794207515108291225_);}
	.st23{fill:url(#SVGID_00000137133152348938786500000001648480204087637411_);}
	.st24{fill:url(#SVGID_00000176001387954096144580000007227809432117953691_);}
	.st25{fill:#BCBEC0;}
	.st26{fill:url(#SVGID_00000081645638729598877080000000175663195087391372_);}
	.st27{fill:url(#SVGID_00000038411535234819935190000012835487714880976774_);}
	.st28{fill-rule:evenodd;clip-rule:evenodd;fill:#FFFFFF;}
	.st29{fill:url(#SVGID_00000056400763143115774440000008599020296619880115_);}
	.st30{fill:none;stroke:#FFFFFF;stroke-width:9.8091;stroke-linecap:round;stroke-linejoin:round;stroke-miterlimit:10;}
	.st31{fill:url(#SVGID_00000129203146303518125970000007352175882706327471_);}
	.st32{fill:url(#SVGID_00000160872743269792579970000006377008219097104268_);}
	.st33{clip-path:url(#SVGID_00000099619741799528869700000017545918284124811958_);}
	.st34{fill:none;stroke:#FFFFFF;stroke-width:6.402;stroke-miterlimit:10;}
	.st35{fill:url(#SVGID_00000001622753379899870250000008991110000838181001_);}
	.st36{fill:none;stroke:#FFFFFF;stroke-width:14.3924;stroke-linecap:round;stroke-linejoin:round;stroke-miterlimit:10;}
	.st37{fill:none;stroke:#FFFFFF;stroke-width:8;stroke-linecap:round;stroke-linejoin:round;stroke-miterlimit:10;}
	.st38{fill:url(#SVGID_00000142863290056256215720000017189786576784883622_);}
	.st39{fill:#FFFFFF;stroke:#FFFFFF;stroke-width:2.9178;stroke-miterlimit:10;}
	.st40{fill:url(#SVGID_00000001662883443319706470000006345967531243434909_);}
	.st41{fill:url(#SVGID_00000056420627530638736920000016585727077684441009_);}
	.st42{fill:url(#SVGID_00000137852192001081846350000004979146079707317136_);}
	.st43{fill:none;stroke:#FFFFFF;stroke-width:10.1249;stroke-linecap:round;stroke-linejoin:round;stroke-miterlimit:10;}
	.st44{fill:url(#SVGID_00000078030349963354908610000014189051243183721640_);}
	.st45{fill:url(#SVGID_00000138549798836063868860000008946948964273012158_);}
	.st46{fill:url(#SVGID_00000041981497760978706210000010224293791857733548_);}
	.st47{fill:url(#SVGID_00000172426023342469164360000004393422691211142574_);}
	.st48{fill:#FFFFFF;stroke:#FFFFFF;stroke-width:7.9684;stroke-linecap:round;stroke-linejoin:round;stroke-miterlimit:10;}
	.st49{fill:url(#SVGID_00000044150917373130985820000007402615604828343443_);}
	.st50{fill:url(#SVGID_00000100341011553965194750000008979164437442174655_);}
	.st51{fill:url(#SVGID_00000137827172644361354050000003847560691897662367_);}
	.st52{fill:url(#SVGID_00000030460153871444264010000015370509581811570366_);}
	.st53{fill:url(#SVGID_00000118372674069747051020000001522815083090274740_);}
	.st54{fill:url(#SVGID_00000145754175753037117950000003876772195107279765_);}
	.st55{fill:url(#SVGID_00000143584002805628086810000001399360907407975324_);}
	.st56{fill:url(#SVGID_00000118366564968839543220000004355436985128602296_);}
	.st57{fill:url(#SVGID_00000010308880622510713460000009633093516811814023_);}
	.st58{fill:url(#SVGID_00000117648070576653044460000018191751292571531963_);}
	.st59{fill:url(#SVGID_00000131326247507765762960000008984424455082090157_);}
	.st60{fill:url(#SVGID_00000006684773519287566090000007875805100468422285_);}
	.st61{fill:url(#SVGID_00000041267904690506436980000017730289754800390302_);}
	.st62{fill:url(#SVGID_00000095334748679395225030000008105366065032342939_);}
	.st63{fill:url(#SVGID_00000153670220657534165650000002489629077772629646_);}
	.st64{fill:url(#SVGID_00000176729466187713558670000008376779587384425915_);}
	.st65{fill:url(#SVGID_00000162344636663468494210000012687194870374159272_);}
	.st66{fill:url(#SVGID_00000125601142778457297130000015115335172578205569_);}
	.st67{fill:url(#SVGID_00000031178058920425444180000017292238454867248825_);}
	.st68{fill:url(#SVGID_00000181769620557074128630000013253006655251707579_);}
	.st69{fill:url(#SVGID_00000096054853255576365790000010278725276968870541_);}
	.st70{fill:url(#SVGID_00000106849182388835618960000013252276258200554682_);}
	.st71{fill:url(#SVGID_00000016761548315076159340000014628548568864103297_);}
	.st72{fill:url(#SVGID_00000098207356568259907510000009748971703937100728_);}
	.st73{clip-path:url(#SVGID_00000107562558202345678580000006524174488082272423_);}
	.st74{fill:url(#SVGID_00000023981834957484981380000001563256609165464980_);}
	.st75{fill:url(#SVGID_00000032609253483895351140000008626177937301797256_);}
	.st76{fill:url(#SVGID_00000139282900388935772890000015290526943198899597_);}
	.st77{fill:url(#SVGID_00000063632028947925136570000016983065335713435828_);}
	.st78{fill:url(#SVGID_00000028284560059351718170000000680731303892638390_);}
	.st79{fill:url(#SVGID_00000161621992641178693650000007566588237001447569_);}
	.st80{fill:url(#SVGID_00000154412167399830405250000005030347857253656481_);}
	.st81{fill:url(#SVGID_00000127762090496822369060000014997451504790620600_);}
	.st82{fill:url(#SVGID_00000060019842997471756300000009671679067857044868_);}
</style>
<g id="GPS">
</g>
<g id="References" class="st0">
</g>
<g id="Icons">
	<g>
		<linearGradient id="SVGID_1_" gradientUnits="userSpaceOnUse" x1="60.3632" y1="260.0511" x2="462.3835" y2="260.0511">
			<stop  offset="0" style="stop-color:#F15D22"/>
			<stop  offset="1" style="stop-color:#ED2024"/>
		</linearGradient>
		<path class="st1" d="M261.37,59.04c-111.01,0-201.01,90-201.01,201.01c0,111.01,90,201.01,201.01,201.01
			c111.01,0,201.01-90,201.01-201.01C462.38,149.04,372.39,59.04,261.37,59.04z"/>
		<g>
			<path class="st3" d="M347.31,197.56c0-12.94-10.49-23.44-23.44-23.44h-31.25c-4.31,0-7.81,3.5-7.81,7.81s3.5,7.81,7.81,7.81
				h31.25c4.31,0,7.81,3.5,7.81,7.81v31.25c0,4.31,3.5,7.81,7.81,7.81c4.31,0,7.81-3.5,7.81-7.81V197.56z"/>
			<path class="st3" d="M347.31,291.3c0-4.31-3.5-7.81-7.81-7.81c-4.31,0-7.81,3.5-7.81,7.81v31.25c0,4.31-3.5,7.81-7.81,7.81
				h-31.25c-4.31,0-7.81,3.5-7.81,7.81c0,4.31,3.5,7.81,7.81,7.81h31.25c12.94,0,23.44-10.49,23.44-23.44V291.3z"/>
			<path class="st3" d="M198.88,330.36c-4.31,0-7.81-3.5-7.81-7.81V291.3c0-4.31-3.5-7.81-7.81-7.81c-4.31,0-7.81,3.5-7.81,7.81
				v31.25c0,12.94,10.49,23.44,23.44,23.44h31.25c4.31,0,7.81-3.5,7.81-7.81c0-4.31-3.5-7.81-7.81-7.81H198.88z"/>
			<path class="st3" d="M175.44,228.8c0,4.31,3.5,7.81,7.81,7.81c4.31,0,7.81-3.5,7.81-7.81v-31.25c0-4.31,3.5-7.81,7.81-7.81h31.25
				c4.31,0,7.81-3.5,7.81-7.81s-3.5-7.81-7.81-7.81h-31.25c-12.94,0-23.44,10.49-23.44,23.44V228.8z"/>
			<path class="st28" d="M253.56,213.18c0-4.31-3.5-7.81-7.81-7.81H214.5c-4.31,0-7.81,3.5-7.81,7.81v31.25
				c0,4.31,3.5,7.81,7.81,7.81h31.25c4.31,0,7.81-3.5,7.81-7.81V213.18z M237.94,224.9c0-2.16-1.75-3.91-3.91-3.91h-7.81
				c-2.16,0-3.91,1.75-3.91,3.91v7.81c0,2.16,1.75,3.91,3.91,3.91h7.81c2.16,0,3.91-1.75,3.91-3.91V224.9z"/>
			<path class="st28" d="M308.25,267.86c4.31,0,7.81,3.5,7.81,7.81v31.25c0,4.31-3.5,7.81-7.81,7.81H277c-4.31,0-7.81-3.5-7.81-7.81
				v-31.25c0-4.31,3.5-7.81,7.81-7.81H308.25z M284.81,287.39c0-2.16,1.75-3.91,3.91-3.91h7.81c2.16,0,3.91,1.75,3.91,3.91v7.81
				c0,2.16-1.75,3.91-3.91,3.91h-7.81c-2.16,0-3.91-1.75-3.91-3.91V287.39z"/>
			<path class="st3" d="M277,205.37c-4.31,0-7.81,3.5-7.81,7.81c0,4.31,3.5,7.81,7.81,7.81h19.53c2.16,0,3.91,1.75,3.91,3.91v19.53
				c0,4.31,3.5,7.81,7.81,7.81c4.31,0,7.81-3.5,7.81-7.81v-31.25c0-4.31-3.5-7.81-7.81-7.81H277z"/>
			<path class="st3" d="M277,228.8c-4.31,0-7.81,3.5-7.81,7.81v7.81c0,4.31,3.5,7.81,7.81,7.81s7.81-3.5,7.81-7.81v-7.81
				C284.81,232.3,281.31,228.8,277,228.8z"/>
			<path class="st3" d="M214.5,267.86c-4.31,0-7.81,3.5-7.81,7.81v15.62c0,4.31,3.5,7.81,7.81,7.81c4.31,0,7.81-3.5,7.81-7.81v-3.91
				c0-2.16,1.75-3.91,3.91-3.91h19.53c4.31,0,7.81-3.5,7.81-7.81s-3.5-7.81-7.81-7.81H214.5z"/>
			<path class="st3" d="M245.75,299.11c-4.31,0-7.81,3.5-7.81,7.81c0,4.31,3.5,7.81,7.81,7.81c4.31,0,7.81-3.5,7.81-7.81
				C253.56,302.61,250.06,299.11,245.75,299.11z"/>
		</g>
	</g>
</g>
</svg>
