<?xml version="1.0" encoding="utf-8"?>
<!-- Generator: Adobe Illustrator 28.0.0, SVG Export Plug-In . SVG Version: 6.00 Build 0)  -->
<svg version="1.1" xmlns="http://www.w3.org/2000/svg" xmlns:xlink="http://www.w3.org/1999/xlink" x="0px" y="0px"
	 viewBox="0 0 511.68 511.68" style="enable-background:new 0 0 511.68 511.68;" xml:space="preserve">
<style type="text/css">
	.st0{fill:url(#SVGID_1_);}
	.st1{fill:url(#SVGID_00000173869117486048556800000007690086823844110496_);}
	.st2{fill:url(#SVGID_00000176002367773681239020000012089811717373092798_);}
	.st3{fill:none;stroke:#FFFFFF;stroke-width:15;stroke-miterlimit:10;}
	.st4{fill:#FFFFFF;}
	.st5{fill:none;stroke:#FFFFFF;stroke-width:9;stroke-miterlimit:10;}
	.st6{fill:url(#SVGID_00000085969409704371866010000003432456543205542301_);}
	.st7{fill:none;stroke:#FFFFFF;stroke-width:15;stroke-linecap:round;stroke-linejoin:round;stroke-miterlimit:10;}
	.st8{fill:none;stroke:#FFFFFF;stroke-width:10;stroke-linecap:round;stroke-linejoin:round;stroke-miterlimit:10;}
	.st9{fill:url(#SVGID_00000165228235342871909720000001484251546400309393_);}
	.st10{fill:url(#SVGID_00000048478847749870646780000008519085085172892857_);}
	.st11{fill:url(#SVGID_00000052817678426619884000000005554026215426813341_);}
	.st12{fill:url(#SVGID_00000170250365191864870910000006765937187103713679_);}
	.st13{fill:url(#SVGID_00000010293846091428598700000012358096490639547779_);}
	.st14{fill:url(#SVGID_00000080166394545231434130000008083739517209350317_);}
	.st15{fill:url(#SVGID_00000006667248321529582720000002586683002367121071_);}
	.st16{fill:url(#SVGID_00000042004844509057639640000009179345208426833327_);}
	.st17{fill:url(#SVGID_00000034075581553661596230000007956445998469762489_);}
	.st18{fill:url(#SVGID_00000139999668442759859240000000109250574131038106_);}
	.st19{fill:url(#SVGID_00000027587743260988439600000003848387646215511730_);}
	.st20{fill:url(#SVGID_00000041270767973233565030000001832100764776575400_);}
	.st21{fill:url(#SVGID_00000025404481762205711750000015775957192433750712_);}
	.st22{fill:url(#SVGID_00000102531501903701006710000014987089179014162847_);}
	.st23{fill:url(#SVGID_00000075136351940601609190000005558254518514584452_);}
	.st24{fill:url(#SVGID_00000148651465103049431860000004496052315900350636_);}
	.st25{fill:url(#SVGID_00000018942212888018110850000006976662524624014983_);}
	.st26{fill:url(#SVGID_00000137825084168649643990000001183272962593200548_);}
	.st27{fill:#BCBEC0;}
	.st28{fill:url(#SVGID_00000181771947437413350810000014043978584052621960_);}
	.st29{fill:url(#SVGID_00000172421612513877953480000008450702160227339653_);}
	.st30{fill-rule:evenodd;clip-rule:evenodd;fill:#FFFFFF;}
	.st31{clip-path:url(#SVGID_00000085956953008397741590000012368751699255757989_);}
	.st32{fill:none;stroke:#FFFFFF;stroke-width:15.6378;stroke-miterlimit:10;}
	.st33{fill:none;stroke:#FFFFFF;stroke-width:9.8091;stroke-linecap:round;stroke-linejoin:round;stroke-miterlimit:10;}
	.st34{fill:url(#SVGID_00000047741634315338280410000001690394291848379025_);}
	.st35{fill:none;stroke:#FFFFFF;stroke-width:14.3924;stroke-linecap:round;stroke-linejoin:round;stroke-miterlimit:10;}
	.st36{fill:none;stroke:#FFFFFF;stroke-width:8;stroke-linecap:round;stroke-linejoin:round;stroke-miterlimit:10;}
	.st37{fill:url(#SVGID_00000153669846869750233450000002909110232644489626_);}
	.st38{fill:#FFFFFF;stroke:#FFFFFF;stroke-width:2.9178;stroke-miterlimit:10;}
</style>
<g id="GPS">
</g>
<g id="Icons">
</g>
<g id="References">
	<g>
		<path d="M88.52,492.21v-38.59h12.31c2.37,0,4.41,0.23,6.13,0.7c1.71,0.47,3.12,1.13,4.23,1.99c1.1,0.86,1.92,1.92,2.45,3.17
			s0.79,2.65,0.79,4.21c0,0.95-0.15,1.87-0.44,2.75c-0.3,0.88-0.75,1.7-1.35,2.45s-1.36,1.43-2.26,2.02
			c-0.91,0.59-1.97,1.08-3.19,1.45c2.82,0.56,4.95,1.57,6.38,3.04c1.44,1.47,2.15,3.41,2.15,5.82c0,1.63-0.3,3.12-0.9,4.47
			s-1.48,2.5-2.64,3.47c-1.16,0.97-2.58,1.72-4.26,2.25c-1.68,0.53-3.6,0.79-5.75,0.79H88.52z M93.74,470.91h6.89
			c1.47,0,2.75-0.16,3.82-0.48c1.08-0.32,1.97-0.77,2.68-1.35c0.71-0.57,1.23-1.27,1.58-2.09c0.34-0.82,0.51-1.71,0.51-2.68
			c0-2.26-0.68-3.92-2.05-4.98c-1.37-1.06-3.48-1.59-6.36-1.59h-7.08V470.91z M93.74,474.62v13.44h8.35c1.49,0,2.77-0.17,3.84-0.51
			c1.07-0.34,1.95-0.82,2.64-1.44c0.69-0.62,1.2-1.36,1.52-2.21c0.32-0.85,0.48-1.79,0.48-2.81c0-1.99-0.71-3.57-2.11-4.73
			c-1.41-1.16-3.54-1.74-6.4-1.74H93.74z"/>
		<path d="M122.61,492.21v-27.28h2.75c0.52,0,0.88,0.1,1.08,0.3c0.2,0.2,0.33,0.54,0.4,1.02l0.32,4.26c0.93-1.9,2.09-3.39,3.46-4.46
			c1.37-1.07,2.99-1.6,4.83-1.6c0.75,0,1.44,0.08,2.05,0.26s1.18,0.41,1.7,0.71l-0.62,3.58c-0.12,0.45-0.4,0.67-0.83,0.67
			c-0.25,0-0.64-0.08-1.16-0.26c-0.52-0.17-1.25-0.26-2.18-0.26c-1.67,0-3.07,0.48-4.19,1.45c-1.12,0.97-2.06,2.38-2.81,4.23v17.37
			H122.61z"/>
		<path d="M150.73,456.36c0,0.47-0.09,0.9-0.28,1.31s-0.44,0.76-0.75,1.08s-0.68,0.56-1.09,0.74c-0.41,0.18-0.85,0.27-1.32,0.27
			s-0.9-0.09-1.31-0.27c-0.4-0.18-0.76-0.43-1.08-0.74s-0.56-0.67-0.74-1.08c-0.18-0.4-0.27-0.84-0.27-1.31
			c0-0.47,0.09-0.91,0.27-1.33c0.18-0.42,0.43-0.79,0.74-1.1c0.31-0.31,0.67-0.56,1.08-0.74c0.4-0.18,0.84-0.27,1.31-0.27
			s0.91,0.09,1.32,0.27c0.41,0.18,0.78,0.43,1.09,0.74c0.31,0.31,0.57,0.68,0.75,1.1S150.73,455.9,150.73,456.36z M149.65,464.93
			v27.28h-4.79v-27.28H149.65z"/>
		<path d="M176.72,469.78c-0.14,0.2-0.29,0.35-0.43,0.46c-0.14,0.11-0.35,0.16-0.62,0.16s-0.56-0.11-0.88-0.34
			c-0.31-0.22-0.71-0.47-1.2-0.74s-1.07-0.52-1.76-0.74s-1.54-0.34-2.54-0.34c-1.33,0-2.5,0.24-3.53,0.71s-1.88,1.16-2.57,2.06
			c-0.69,0.9-1.21,1.98-1.56,3.26c-0.35,1.28-0.52,2.7-0.52,4.28c0,1.65,0.19,3.12,0.57,4.4c0.38,1.28,0.91,2.36,1.59,3.23
			c0.68,0.87,1.51,1.54,2.49,1.99s2.08,0.69,3.3,0.69c1.17,0,2.13-0.14,2.88-0.42c0.75-0.28,1.38-0.59,1.89-0.93
			c0.5-0.34,0.92-0.65,1.24-0.93s0.65-0.42,0.97-0.42c0.41,0,0.72,0.15,0.92,0.46l1.35,1.75c-1.19,1.45-2.67,2.52-4.44,3.19
			c-1.78,0.67-3.65,1.01-5.63,1.01c-1.71,0-3.29-0.31-4.75-0.94s-2.73-1.54-3.81-2.73c-1.08-1.19-1.93-2.66-2.54-4.4
			s-0.93-3.73-0.93-5.95c0-2.03,0.28-3.91,0.85-5.63c0.57-1.72,1.39-3.21,2.48-4.46c1.09-1.25,2.43-2.22,4.03-2.92
			c1.6-0.7,3.43-1.05,5.49-1.05c1.9,0,3.59,0.31,5.06,0.93c1.47,0.62,2.77,1.5,3.9,2.63L176.72,469.78z"/>
		<path d="M188.24,452.54v23.35h1.24c0.36,0,0.65-0.05,0.89-0.15c0.23-0.1,0.49-0.3,0.78-0.61l8.62-9.24
			c0.27-0.29,0.54-0.52,0.81-0.7c0.27-0.18,0.63-0.27,1.08-0.27h4.36l-10.04,10.69c-0.25,0.31-0.5,0.58-0.74,0.81
			c-0.24,0.23-0.52,0.44-0.82,0.62c0.32,0.21,0.62,0.46,0.88,0.74s0.51,0.6,0.74,0.96l10.67,13.47h-4.31
			c-0.39,0-0.73-0.08-1.01-0.23c-0.28-0.15-0.54-0.39-0.79-0.71l-8.97-11.18c-0.27-0.38-0.54-0.62-0.81-0.74s-0.67-0.18-1.21-0.18
			h-1.35v13.04h-4.82v-39.67H188.24z"/>
		<path d="M248.08,472.93c0,2.89-0.46,5.54-1.37,7.96c-0.92,2.42-2.21,4.49-3.88,6.23s-3.68,3.09-6.02,4.05
			c-2.34,0.96-4.93,1.44-7.77,1.44c-2.84,0-5.42-0.48-7.76-1.44c-2.33-0.96-4.34-2.31-6.01-4.05s-2.96-3.82-3.88-6.23
			c-0.92-2.42-1.38-5.07-1.38-7.96c0-2.89,0.46-5.54,1.38-7.96c0.91-2.41,2.21-4.5,3.88-6.25c1.67-1.75,3.67-3.11,6.01-4.08
			c2.33-0.97,4.92-1.45,7.76-1.45c2.84,0,5.43,0.49,7.77,1.45c2.34,0.97,4.35,2.33,6.02,4.08c1.67,1.75,2.96,3.83,3.88,6.25
			C247.62,467.38,248.08,470.04,248.08,472.93z M242.72,472.93c0-2.37-0.32-4.5-0.97-6.38c-0.64-1.89-1.56-3.48-2.75-4.78
			s-2.62-2.3-4.31-3s-3.57-1.05-5.66-1.05c-2.06,0-3.94,0.35-5.63,1.05s-3.13,1.7-4.32,3s-2.11,2.89-2.76,4.78
			c-0.65,1.88-0.97,4.01-0.97,6.38c0,2.37,0.32,4.49,0.97,6.37s1.57,3.46,2.76,4.77s2.63,2.3,4.32,2.99s3.56,1.04,5.63,1.04
			c2.08,0,3.97-0.35,5.66-1.04s3.12-1.69,4.31-2.99s2.1-2.89,2.75-4.77C242.4,477.42,242.72,475.3,242.72,472.93z"/>
		<path d="M251.02,464.93h3.93c0.38,0,0.69,0.1,0.94,0.3c0.25,0.2,0.43,0.43,0.54,0.7l6.92,17.56c0.25,0.65,0.45,1.29,0.59,1.94
			c0.14,0.65,0.28,1.28,0.4,1.91c0.14-0.63,0.3-1.27,0.46-1.91c0.16-0.65,0.37-1.29,0.62-1.94l7-17.56
			c0.11-0.29,0.28-0.52,0.52-0.71c0.24-0.19,0.54-0.28,0.9-0.28h3.74l-11.12,27.28h-4.34L251.02,464.93z"/>
		<path d="M292.14,464.5c1.63,0,3.14,0.27,4.53,0.82c1.38,0.55,2.58,1.34,3.58,2.37c1,1.03,1.79,2.31,2.36,3.82
			c0.57,1.52,0.85,3.25,0.85,5.18c0,0.75-0.08,1.26-0.24,1.51c-0.16,0.25-0.47,0.38-0.91,0.38h-18.15c0.04,1.72,0.27,3.22,0.7,4.5
			c0.43,1.28,1.02,2.34,1.78,3.19c0.75,0.85,1.65,1.49,2.69,1.91s2.21,0.63,3.5,0.63c1.2,0,2.24-0.14,3.11-0.42
			c0.87-0.28,1.62-0.58,2.25-0.9s1.15-0.62,1.58-0.9c0.42-0.28,0.79-0.42,1.09-0.42c0.39,0,0.7,0.15,0.92,0.46l1.35,1.75
			c-0.59,0.72-1.3,1.34-2.13,1.87s-1.71,0.96-2.65,1.31c-0.94,0.34-1.92,0.6-2.92,0.77c-1.01,0.17-2,0.26-2.99,0.26
			c-1.88,0-3.62-0.32-5.21-0.96c-1.59-0.64-2.96-1.57-4.12-2.8c-1.16-1.23-2.06-2.75-2.71-4.56c-0.65-1.81-0.97-3.9-0.97-6.25
			c0-1.9,0.29-3.68,0.88-5.33c0.58-1.65,1.42-3.08,2.52-4.29c1.09-1.21,2.43-2.16,4.01-2.86
			C288.39,464.84,290.17,464.5,292.14,464.5z M292.25,468.03c-2.31,0-4.14,0.67-5.47,2.01c-1.33,1.34-2.15,3.19-2.48,5.56h14.84
			c0-1.11-0.15-2.13-0.46-3.06c-0.31-0.92-0.75-1.72-1.35-2.4c-0.59-0.67-1.31-1.19-2.17-1.56
			C294.32,468.21,293.35,468.03,292.25,468.03z"/>
		<path d="M309.57,492.21v-27.28h2.75c0.52,0,0.88,0.1,1.08,0.3c0.2,0.2,0.33,0.54,0.4,1.02l0.32,4.26c0.93-1.9,2.09-3.39,3.46-4.46
			c1.37-1.07,2.98-1.6,4.83-1.6c0.75,0,1.44,0.08,2.05,0.26c0.61,0.17,1.18,0.41,1.7,0.71l-0.62,3.58c-0.13,0.45-0.4,0.67-0.84,0.67
			c-0.25,0-0.64-0.08-1.16-0.26c-0.52-0.17-1.25-0.26-2.18-0.26c-1.67,0-3.06,0.48-4.19,1.45c-1.12,0.97-2.06,2.38-2.81,4.23v17.37
			H309.57z"/>
		<path d="M332.35,492.21v-23.19l-3.02-0.35c-0.38-0.09-0.69-0.23-0.93-0.42c-0.24-0.19-0.36-0.46-0.36-0.82v-1.97h4.31v-1.46
			c0-1.51,0.23-2.94,0.7-4.29s1.17-2.54,2.1-3.54c0.93-1,2.1-1.8,3.5-2.4s3.03-0.89,4.9-0.89c1.49,0,2.92,0.06,4.29,0.17
			c1.37,0.12,2.71,0.17,4,0.17h2.69v38.97h-4.79V456.5c-0.97,0-1.94,0-2.92,0s-1.83,0-2.54,0c-2.33,0-4.13,0.66-5.39,1.98
			c-1.26,1.32-1.88,3.17-1.88,5.55v1.44h7.11v3.47h-6.95v23.27H332.35z"/>
		<path d="M374.31,464.5c1.99,0,3.79,0.33,5.4,1c1.61,0.66,2.97,1.61,4.09,2.83c1.12,1.22,1.98,2.7,2.59,4.43
			c0.6,1.73,0.9,3.67,0.9,5.8c0,2.15-0.3,4.09-0.9,5.82s-1.46,3.2-2.59,4.42c-1.12,1.22-2.49,2.16-4.09,2.81
			c-1.61,0.65-3.41,0.98-5.4,0.98c-1.99,0-3.79-0.33-5.4-0.98c-1.61-0.66-2.98-1.59-4.11-2.81s-2-2.69-2.61-4.42
			c-0.61-1.72-0.92-3.66-0.92-5.82c0-2.14,0.3-4.07,0.92-5.8c0.61-1.73,1.48-3.21,2.61-4.43s2.5-2.16,4.11-2.83
			S372.31,464.5,374.31,464.5z M374.31,488.84c2.69,0,4.7-0.9,6.03-2.71c1.33-1.8,1.99-4.32,1.99-7.55c0-3.25-0.66-5.78-1.99-7.59
			c-1.33-1.81-3.34-2.72-6.03-2.72c-1.37,0-2.55,0.23-3.55,0.7c-1.01,0.47-1.85,1.14-2.52,2.02c-0.67,0.88-1.18,1.96-1.51,3.25
			c-0.33,1.28-0.5,2.73-0.5,4.35c0,1.62,0.17,3.06,0.5,4.34s0.84,2.35,1.51,3.22c0.67,0.87,1.51,1.54,2.52,2.01
			C371.76,488.61,372.94,488.84,374.31,488.84z"/>
		<path d="M389.66,464.93h3.77c0.39,0,0.72,0.1,0.97,0.3c0.25,0.2,0.42,0.43,0.51,0.7l5.22,17.56c0.14,0.65,0.28,1.27,0.4,1.87
			c0.13,0.6,0.23,1.21,0.32,1.82c0.14-0.61,0.3-1.22,0.48-1.82s0.37-1.23,0.57-1.87l5.76-17.67c0.09-0.27,0.25-0.49,0.47-0.67
			s0.51-0.27,0.85-0.27h2.07c0.36,0,0.65,0.09,0.89,0.27c0.23,0.18,0.39,0.4,0.48,0.67l5.63,17.67c0.2,0.63,0.37,1.25,0.53,1.86
			s0.3,1.21,0.44,1.8c0.09-0.59,0.21-1.21,0.35-1.86c0.14-0.65,0.29-1.25,0.46-1.8l5.33-17.56c0.09-0.29,0.26-0.52,0.51-0.71
			c0.25-0.19,0.55-0.28,0.89-0.28h3.61l-8.83,27.28h-3.8c-0.47,0-0.79-0.3-0.97-0.92l-6.03-18.5c-0.14-0.41-0.26-0.83-0.35-1.25
			s-0.18-0.84-0.27-1.25c-0.09,0.41-0.18,0.83-0.27,1.27s-0.21,0.85-0.35,1.27l-6.11,18.47c-0.2,0.61-0.57,0.92-1.11,0.92h-3.61
			L389.66,464.93z"/>
	</g>
	<g>
		<g>
			<g>
				<linearGradient id="SVGID_1_" gradientUnits="userSpaceOnUse" x1="60.3632" y1="224.9683" x2="462.3835" y2="224.9683">
					<stop  offset="0" style="stop-color:#F15D22"/>
					<stop  offset="1" style="stop-color:#ED2024"/>
				</linearGradient>
				<path class="st0" d="M261.37,23.96c-111.01,0-201.01,90-201.01,201.01c0,111.01,90,201.01,201.01,201.01
					c111.01,0,201.01-90,201.01-201.01C462.38,113.95,372.39,23.96,261.37,23.96z"/>
			</g>
		</g>
		<g>
			<path class="st38" d="M291.67,205.3c5.87-0.42,11.51,0.19,17.07,1.57c19.63,4.88,35.63,22.31,38.88,42.28
				c1.95,12.01,0.12,23.35-5.66,34.03c-0.87,1.61-1.06,3.18-0.67,4.93c0.84,3.7,1.65,7.42,2.37,11.15
				c1.2,6.16-3.93,11.14-10.03,9.67c-3.69-0.89-7.34-1.95-10.98-3.03c-1.98-0.59-3.78-0.46-5.7,0.38
				c-20.86,9.17-44.55,4.44-60.05-12.15c-9.95-10.65-14.57-23.42-14.14-38c0.03-0.87,0-1.75,0-2.69
				c-11.35,1.55-22.08-0.16-32.41-4.78c-1.15-0.52-2.74-0.57-4-0.27c-4.37,1.04-8.67,2.34-13.01,3.51
				c-6.73,1.81-11.98-3.16-10.58-10.02c0.87-4.28,1.92-8.53,2.63-12.83c0.23-1.38,0.05-3.11-0.61-4.32
				c-4.94-9.2-7.64-18.97-7.03-29.4c1.38-23.52,12.81-40.65,34.22-50.33c31.4-14.2,67.83,2.71,77.8,35.58
				C292.15,188.36,292.74,195.84,291.67,205.3z M190.74,244.14c4.3-1.18,8.35-2.15,12.32-3.43c4.02-1.29,7.76-0.97,11.61,0.76
				c10.35,4.66,21.05,5.45,32.11,2.76c24.72-6.03,40.96-31.83,35.63-56.8c-7.1-33.22-43.84-49.45-72.97-31.96
				c-14.4,8.64-22.12,21.77-23.38,38.55c-0.71,9.41,1.35,18.27,5.9,26.52c1.87,3.39,2.4,6.83,1.49,10.61
				C192.43,235.35,191.67,239.58,190.74,244.14z M335.64,301.02c-0.69-3.29-1.16-6.28-1.96-9.19c-1.34-4.83-0.74-9.17,1.64-13.7
				c5.4-10.25,6.28-21.13,3.16-32.29c-5.76-20.61-26.6-34.76-47.35-32.26c-1.18,0.14-1.57,0.6-1.91,1.62
				c-1.76,5.26-4.25,10.16-7.49,14.67c-7.29,10.16-16.84,17.26-28.73,21.19c-0.88,0.29-1.68,0.45-1.83,1.77
				c-0.76,6.93,0.04,13.65,2.34,20.22c5.84,16.7,21.79,28.62,39.32,29.5c7.49,0.38,14.64-0.88,21.45-4.01
				c3.2-1.47,6.4-1.74,9.79-0.71C327.76,298.96,331.51,299.9,335.64,301.02z"/>
			<g>
				<path class="st4" d="M251.19,194.82c0,1.7-0.18,3.33-0.53,4.88c-0.35,1.55-0.86,3-1.51,4.35c-0.66,1.35-1.46,2.59-2.41,3.72
					c-0.95,1.13-2.03,2.13-3.24,2.99l9.66,10.52h-5.84c-0.84,0-1.6-0.11-2.28-0.34c-0.67-0.23-1.29-0.65-1.85-1.26l-5.58-6.16
					c-0.89,0.25-1.81,0.43-2.75,0.55c-0.94,0.12-1.92,0.18-2.93,0.18c-2.88,0-5.5-0.49-7.88-1.46s-4.41-2.33-6.1-4.06
					s-3-3.79-3.93-6.17c-0.93-2.38-1.39-4.96-1.39-7.75c0-2.79,0.46-5.37,1.39-7.75s2.24-4.43,3.93-6.17s3.73-3.09,6.1-4.06
					s5-1.46,7.88-1.46c2.88,0,5.5,0.49,7.87,1.47c2.37,0.98,4.39,2.34,6.08,4.06s2.99,3.78,3.92,6.16S251.19,192.03,251.19,194.82z
					 M243.92,194.82c0-2.09-0.28-3.96-0.83-5.62c-0.55-1.66-1.35-3.07-2.38-4.22c-1.04-1.16-2.29-2.04-3.78-2.66
					c-1.48-0.61-3.15-0.92-5.01-0.92c-1.86,0-3.53,0.31-5.03,0.92c-1.49,0.61-2.76,1.5-3.8,2.66c-1.04,1.16-1.85,2.57-2.41,4.22
					s-0.84,3.53-0.84,5.62c0,2.09,0.28,3.96,0.84,5.62s1.36,3.06,2.41,4.21c1.04,1.15,2.31,2.03,3.8,2.64
					c1.49,0.61,3.17,0.92,5.03,0.92c1.86,0,3.53-0.31,5.01-0.92c1.48-0.61,2.74-1.5,3.78-2.64c1.03-1.15,1.83-2.55,2.38-4.21
					C243.65,198.78,243.92,196.91,243.92,194.82z"/>
			</g>
			<g>
				<path class="st4" d="M317.03,276.33h-5.47c-0.61,0-1.12-0.15-1.51-0.46s-0.68-0.69-0.85-1.14l-2.84-7.76h-15.76l-2.84,7.76
					c-0.14,0.4-0.42,0.77-0.83,1.1c-0.41,0.33-0.92,0.5-1.51,0.5h-5.5l14.94-38.04h7.24L317.03,276.33z M292.4,261.97h12.13
					l-4.63-12.65c-0.21-0.56-0.44-1.22-0.7-1.99c-0.25-0.76-0.5-1.59-0.75-2.49c-0.25,0.89-0.49,1.73-0.72,2.5
					c-0.24,0.77-0.47,1.45-0.7,2.03L292.4,261.97z"/>
			</g>
		</g>
	</g>
</g>
</svg>
