<?xml version="1.0" encoding="utf-8"?>
<!-- Generator: Adobe Illustrator 28.0.0, SVG Export Plug-In . SVG Version: 6.00 Build 0)  -->
<svg version="1.1" xmlns="http://www.w3.org/2000/svg" xmlns:xlink="http://www.w3.org/1999/xlink" x="0px" y="0px"
	 viewBox="0 0 511.68 511.68" style="enable-background:new 0 0 511.68 511.68;" xml:space="preserve">
<style type="text/css">
	.st0{display:none;}
	.st1{fill:url(#SVGID_1_);}
	.st2{fill:none;stroke:#FFFFFF;stroke-width:15;stroke-miterlimit:10;}
	.st3{fill:#FFFFFF;}
	.st4{fill:none;stroke:#FFFFFF;stroke-width:9;stroke-miterlimit:10;}
	.st5{fill:url(#SVGID_00000028292123188626327530000015280102532023525792_);}
	.st6{fill:none;stroke:#FFFFFF;stroke-width:15;stroke-linecap:round;stroke-linejoin:round;stroke-miterlimit:10;}
	.st7{fill:none;stroke:#FFFFFF;stroke-width:10;stroke-linecap:round;stroke-linejoin:round;stroke-miterlimit:10;}
	.st8{fill:url(#SVGID_00000004527642659897591280000015208357879742276783_);}
	.st9{fill:url(#SVGID_00000109013503134356494870000009583149706634120321_);}
	.st10{fill:url(#SVGID_00000014621382634464171220000005446369975301526207_);}
	.st11{fill:url(#SVGID_00000157281689814272657470000014055804795436743326_);}
	.st12{fill:url(#SVGID_00000110457842348033366540000013498752695387986601_);}
	.st13{fill:url(#SVGID_00000138568270270074370780000013777474596887853962_);}
	.st14{fill:url(#SVGID_00000179604029642571879000000001951825316351356300_);}
	.st15{fill:url(#SVGID_00000114047792638998118470000010710128576771738255_);}
	.st16{fill:url(#SVGID_00000022543971461010944760000009962359119980262043_);}
	.st17{fill:url(#SVGID_00000050665214115224791370000009648748719440049833_);}
	.st18{fill:url(#SVGID_00000172433518300521792480000001388169970708721847_);}
	.st19{fill:url(#SVGID_00000005950997254360670040000007336462532681003142_);}
	.st20{fill:url(#SVGID_00000168824598870856026140000001987877596303208637_);}
	.st21{fill:url(#SVGID_00000098221401876056649460000006305817821236605354_);}
	.st22{fill:url(#SVGID_00000075844130611573545880000014780521324121319089_);}
	.st23{fill:url(#SVGID_00000054954319357898522320000018352138019329790604_);}
	.st24{fill:url(#SVGID_00000041285580773343504670000003994122768640327350_);}
	.st25{fill:#BCBEC0;}
	.st26{fill:url(#SVGID_00000034779973669716505400000006935204914531622047_);}
	.st27{fill:url(#SVGID_00000092423984418999264080000004126429307720535735_);}
	.st28{fill-rule:evenodd;clip-rule:evenodd;fill:#FFFFFF;}
	.st29{fill:url(#SVGID_00000124865224910348868290000004601615108407163325_);}
	.st30{fill:none;stroke:#FFFFFF;stroke-width:9.8091;stroke-linecap:round;stroke-linejoin:round;stroke-miterlimit:10;}
	.st31{fill:url(#SVGID_00000103235305115884826820000001791886531199197071_);}
	.st32{fill:url(#SVGID_00000026879068209183551480000017237496786187483295_);}
	.st33{clip-path:url(#SVGID_00000090260830198729449410000016308729445674799496_);}
	.st34{fill:none;stroke:#FFFFFF;stroke-width:6.402;stroke-miterlimit:10;}
	.st35{fill:url(#SVGID_00000034777000959111326540000009929945862686693523_);}
	.st36{fill:none;stroke:#FFFFFF;stroke-width:14.3924;stroke-linecap:round;stroke-linejoin:round;stroke-miterlimit:10;}
	.st37{fill:none;stroke:#FFFFFF;stroke-width:8;stroke-linecap:round;stroke-linejoin:round;stroke-miterlimit:10;}
	.st38{fill:url(#SVGID_00000034795340433515192060000002137169346691096982_);}
	.st39{fill:#FFFFFF;stroke:#FFFFFF;stroke-width:2.9178;stroke-miterlimit:10;}
	.st40{fill:url(#SVGID_00000154385430271015776430000007629483601113875890_);}
	.st41{fill:url(#SVGID_00000060727235931586020030000001077014311138163124_);}
	.st42{fill:url(#SVGID_00000147918148403643231510000012856569835123673014_);}
	.st43{fill:none;stroke:#FFFFFF;stroke-width:10.1249;stroke-linecap:round;stroke-linejoin:round;stroke-miterlimit:10;}
	.st44{fill:url(#SVGID_00000039836771446038547520000013143011794927014323_);}
	.st45{fill:url(#SVGID_00000066500793199588911890000013214631764958943908_);}
	.st46{fill:url(#SVGID_00000116921405392224200520000010644775013611156142_);}
	.st47{fill:url(#SVGID_00000057132960640217315290000006530741407974966442_);}
	.st48{fill:#FFFFFF;stroke:#FFFFFF;stroke-width:7.9684;stroke-linecap:round;stroke-linejoin:round;stroke-miterlimit:10;}
	.st49{fill:url(#SVGID_00000110471425484837308130000012230123081037402272_);}
	.st50{fill:url(#SVGID_00000023242935263955516080000008573450390718122652_);}
	.st51{fill:url(#SVGID_00000099625453794849114610000004777335635574032301_);}
	.st52{fill:url(#SVGID_00000048471830302870140670000002791202117686987941_);}
	.st53{fill:url(#SVGID_00000108301316465479173460000014905392117329694610_);}
	.st54{fill:url(#SVGID_00000051354171421275947000000017990670451840682407_);}
	.st55{fill:url(#SVGID_00000118378618738662422750000006996460792984007613_);}
	.st56{fill:url(#SVGID_00000071522339148414672490000016822044211882786747_);}
	.st57{fill:url(#SVGID_00000083069024849878092360000006933284646128968617_);}
	.st58{fill:url(#SVGID_00000070087017951237994650000007298090609974649786_);}
	.st59{fill:url(#SVGID_00000013192667398801126200000004972639197357260934_);}
	.st60{fill:url(#SVGID_00000008148565667584113150000010906814584486183059_);}
	.st61{fill:url(#SVGID_00000062163106121099627530000007011445436007765124_);}
	.st62{fill:url(#SVGID_00000001663023498192630540000000103091960500979374_);}
	.st63{fill:url(#SVGID_00000104666780850526410370000002723767512262823855_);}
	.st64{fill:url(#SVGID_00000026154760794691620650000015032633915941441967_);}
	.st65{fill:url(#SVGID_00000008854765922065124180000009733923073049928104_);}
	.st66{fill:url(#SVGID_00000105427910449505147940000018216250420237814416_);}
	.st67{fill:url(#SVGID_00000049206012039380540000000002861653512085699767_);}
	.st68{fill:url(#SVGID_00000116928439536951840550000003138936614537112235_);}
	.st69{fill:url(#SVGID_00000160180534856527055650000015298842429598846634_);}
	.st70{fill:url(#SVGID_00000134242724418231628670000006815007731150500269_);}
	.st71{fill:url(#SVGID_00000039849595175985963710000017186479935042700935_);}
	.st72{fill:url(#SVGID_00000140012732556836989660000000539015713460105104_);}
	.st73{clip-path:url(#SVGID_00000043423316706338099740000003193850920964208523_);}
	.st74{fill:url(#SVGID_00000124844250777494725410000010367343753522336935_);}
	.st75{fill:url(#SVGID_00000175313481784113927160000016516471415833603750_);}
	.st76{fill:url(#SVGID_00000166662842894624143540000009877769557411973253_);}
	.st77{fill:url(#SVGID_00000010277261102782343280000002544256249534238907_);}
	.st78{fill:url(#SVGID_00000167375461092198073940000010384842206398823816_);}
	.st79{fill:url(#SVGID_00000147925547606549561160000016928333999210039457_);}
	.st80{fill:url(#SVGID_00000051343481160029753200000007165522986697335446_);}
	.st81{fill:url(#SVGID_00000125594491176216143310000003463251026655308210_);}
	.st82{fill:url(#SVGID_00000135680225732287605220000014885300786761607313_);}
</style>
<g id="GPS">
</g>
<g id="References" class="st0">
</g>
<g id="Icons">
	<g>
		<g>
			<g>
				<linearGradient id="SVGID_1_" gradientUnits="userSpaceOnUse" x1="60.3632" y1="260.0511" x2="462.3835" y2="260.0511">
					<stop  offset="0" style="stop-color:#F15D22"/>
					<stop  offset="1" style="stop-color:#ED2024"/>
				</linearGradient>
				<path class="st1" d="M261.37,59.04c-111.01,0-201.01,90-201.01,201.01c0,111.01,90,201.01,201.01,201.01
					c111.01,0,201.01-90,201.01-201.01C462.38,149.04,372.39,59.04,261.37,59.04z"/>
			</g>
		</g>
		<g>
			<path class="st39" d="M291.67,240.38c5.87-0.42,11.51,0.19,17.07,1.57c19.63,4.88,35.63,22.31,38.88,42.28
				c1.95,12.01,0.12,23.35-5.66,34.03c-0.87,1.61-1.06,3.18-0.67,4.93c0.84,3.7,1.65,7.42,2.37,11.15
				c1.2,6.16-3.93,11.14-10.03,9.67c-3.69-0.89-7.34-1.95-10.98-3.03c-1.98-0.59-3.78-0.46-5.7,0.38
				c-20.86,9.17-44.55,4.44-60.05-12.15c-9.95-10.65-14.57-23.42-14.14-38c0.03-0.87,0-1.75,0-2.69
				c-11.35,1.55-22.08-0.16-32.41-4.78c-1.15-0.52-2.74-0.57-4-0.27c-4.37,1.04-8.67,2.34-13.01,3.51
				c-6.73,1.81-11.98-3.16-10.58-10.02c0.87-4.28,1.92-8.53,2.63-12.83c0.23-1.38,0.05-3.11-0.61-4.32
				c-4.94-9.2-7.64-18.97-7.03-29.4c1.38-23.52,12.81-40.65,34.22-50.33c31.4-14.2,67.83,2.71,77.8,35.58
				C292.15,223.44,292.74,230.92,291.67,240.38z M190.74,279.23c4.3-1.18,8.35-2.15,12.32-3.43c4.02-1.29,7.76-0.97,11.61,0.76
				c10.35,4.66,21.05,5.45,32.11,2.76c24.72-6.03,40.96-31.83,35.63-56.8c-7.1-33.22-43.84-49.45-72.97-31.96
				c-14.4,8.64-22.12,21.77-23.38,38.55c-0.71,9.41,1.35,18.27,5.9,26.52c1.87,3.39,2.4,6.83,1.49,10.61
				C192.43,270.43,191.67,274.67,190.74,279.23z M335.64,336.11c-0.69-3.29-1.16-6.28-1.96-9.19c-1.34-4.83-0.74-9.17,1.64-13.7
				c5.4-10.25,6.28-21.13,3.16-32.29c-5.76-20.61-26.6-34.76-47.35-32.26c-1.18,0.14-1.57,0.6-1.91,1.62
				c-1.76,5.26-4.25,10.16-7.49,14.67c-7.29,10.16-16.84,17.26-28.73,21.19c-0.88,0.29-1.68,0.45-1.83,1.77
				c-0.76,6.93,0.04,13.65,2.34,20.22c5.84,16.7,21.79,28.62,39.32,29.5c7.49,0.38,14.64-0.88,21.45-4.01
				c3.2-1.47,6.4-1.74,9.79-0.71C327.76,334.04,331.51,334.98,335.64,336.11z"/>
			<g>
				<path class="st3" d="M251.18,229.9c0,1.7-0.18,3.33-0.53,4.88c-0.35,1.55-0.86,3-1.51,4.35c-0.66,1.35-1.46,2.59-2.41,3.72
					c-0.95,1.13-2.03,2.13-3.24,2.99l9.66,10.52h-5.84c-0.84,0-1.6-0.11-2.28-0.34c-0.67-0.23-1.29-0.65-1.85-1.26l-5.58-6.16
					c-0.89,0.25-1.81,0.43-2.75,0.55c-0.94,0.12-1.92,0.18-2.93,0.18c-2.88,0-5.5-0.49-7.88-1.46s-4.41-2.33-6.1-4.06
					c-1.69-1.74-3-3.79-3.93-6.17c-0.93-2.38-1.39-4.96-1.39-7.75c0-2.79,0.46-5.37,1.39-7.75s2.24-4.43,3.93-6.17
					c1.69-1.74,3.73-3.09,6.1-4.06s5-1.46,7.88-1.46c2.88,0,5.5,0.49,7.87,1.47s4.39,2.34,6.08,4.06s2.99,3.78,3.92,6.16
					S251.18,227.11,251.18,229.9z M243.92,229.9c0-2.09-0.28-3.96-0.83-5.62c-0.55-1.66-1.35-3.07-2.38-4.22
					c-1.04-1.16-2.29-2.04-3.78-2.66c-1.48-0.61-3.15-0.92-5.01-0.92c-1.86,0-3.54,0.31-5.03,0.92c-1.49,0.61-2.76,1.5-3.8,2.66
					c-1.04,1.16-1.85,2.57-2.41,4.22c-0.56,1.66-0.84,3.53-0.84,5.62c0,2.09,0.28,3.96,0.84,5.62c0.56,1.66,1.36,3.06,2.41,4.21
					c1.04,1.15,2.31,2.03,3.8,2.64c1.49,0.61,3.17,0.92,5.03,0.92c1.86,0,3.53-0.31,5.01-0.92c1.48-0.61,2.74-1.5,3.78-2.64
					c1.03-1.15,1.83-2.55,2.38-4.21C243.65,233.86,243.92,231.99,243.92,229.9z"/>
			</g>
			<g>
				<path class="st3" d="M317.03,311.41h-5.47c-0.62,0-1.12-0.15-1.51-0.46s-0.68-0.69-0.85-1.14l-2.84-7.76h-15.76l-2.84,7.76
					c-0.14,0.4-0.42,0.77-0.83,1.1c-0.41,0.33-0.92,0.5-1.51,0.5h-5.5l14.94-38.04h7.24L317.03,311.41z M292.4,297.05h12.13
					l-4.63-12.65c-0.21-0.56-0.44-1.22-0.7-1.99c-0.26-0.76-0.51-1.59-0.75-2.49c-0.25,0.89-0.49,1.73-0.72,2.5
					c-0.24,0.77-0.47,1.45-0.7,2.03L292.4,297.05z"/>
			</g>
		</g>
	</g>
</g>
</svg>
