<?xml version="1.0" encoding="utf-8"?>
<!-- Generator: Adobe Illustrator 28.0.0, SVG Export Plug-In . SVG Version: 6.00 Build 0)  -->
<svg version="1.1" xmlns="http://www.w3.org/2000/svg" xmlns:xlink="http://www.w3.org/1999/xlink" x="0px" y="0px"
	 viewBox="0 0 511.68 511.68" style="enable-background:new 0 0 511.68 511.68;" xml:space="preserve">
<style type="text/css">
	.st0{display:none;}
	.st1{fill:url(#SVGID_1_);}
	.st2{fill:none;stroke:#FFFFFF;stroke-width:15;stroke-miterlimit:10;}
	.st3{fill:#FFFFFF;}
	.st4{fill:none;stroke:#FFFFFF;stroke-width:9;stroke-miterlimit:10;}
	.st5{fill:url(#SVGID_00000109005763583760882480000006571146444128489662_);}
	.st6{fill:none;stroke:#FFFFFF;stroke-width:15;stroke-linecap:round;stroke-linejoin:round;stroke-miterlimit:10;}
	.st7{fill:none;stroke:#FFFFFF;stroke-width:10;stroke-linecap:round;stroke-linejoin:round;stroke-miterlimit:10;}
	.st8{fill:url(#SVGID_00000148619567604261610890000009947978104906006710_);}
	.st9{fill:url(#SVGID_00000124121191355860222300000009257465770915588498_);}
	.st10{fill:url(#SVGID_00000119092281659981672840000011841013600154307770_);}
	.st11{fill:url(#SVGID_00000091699657373205828610000003679640036104774794_);}
	.st12{fill:url(#SVGID_00000119820555983167866110000008865521204822211991_);}
	.st13{fill:url(#SVGID_00000083785321223083665430000003326913904434276506_);}
	.st14{fill:url(#SVGID_00000011742567310432695040000003275687983738515089_);}
	.st15{fill:url(#SVGID_00000127040067691813429580000000126525858117275322_);}
	.st16{fill:url(#SVGID_00000119800968479661853450000017261725767314245289_);}
	.st17{fill:url(#SVGID_00000172430535389830412110000017382145396832031679_);}
	.st18{fill:url(#SVGID_00000114056337382371497110000014878613567869391260_);}
	.st19{fill:url(#SVGID_00000166651727834595358250000007729709203998502046_);}
	.st20{fill:url(#SVGID_00000086689494528782215020000007476974354985669295_);}
	.st21{fill:url(#SVGID_00000021832431825743722760000002795331175672524933_);}
	.st22{fill:url(#SVGID_00000097488161242369748050000015187391425485249666_);}
	.st23{fill:url(#SVGID_00000162322336203908073670000017487338205352078264_);}
	.st24{fill:url(#SVGID_00000021085205515104079730000001337268115559280012_);}
	.st25{fill:#BCBEC0;}
	.st26{fill:url(#SVGID_00000078725948967759311290000015823462936984139679_);}
	.st27{fill:url(#SVGID_00000150096304455648915750000002711472053045439932_);}
	.st28{fill-rule:evenodd;clip-rule:evenodd;fill:#FFFFFF;}
	.st29{fill:url(#SVGID_00000072266453694846860510000003075351561023722391_);}
	.st30{fill:none;stroke:#FFFFFF;stroke-width:9.8091;stroke-linecap:round;stroke-linejoin:round;stroke-miterlimit:10;}
	.st31{fill:url(#SVGID_00000175296806057994704690000016385149035860925088_);}
	.st32{fill:url(#SVGID_00000052102266419096504760000018026935774472032944_);}
	.st33{clip-path:url(#SVGID_00000156569000117451022230000000263585044172975759_);}
	.st34{fill:none;stroke:#FFFFFF;stroke-width:6.402;stroke-miterlimit:10;}
	.st35{fill:url(#SVGID_00000154386488880680993270000009260756200308474553_);}
	.st36{fill:none;stroke:#FFFFFF;stroke-width:14.3924;stroke-linecap:round;stroke-linejoin:round;stroke-miterlimit:10;}
	.st37{fill:none;stroke:#FFFFFF;stroke-width:8;stroke-linecap:round;stroke-linejoin:round;stroke-miterlimit:10;}
	.st38{fill:url(#SVGID_00000013906350571430397920000005979656467092975520_);}
	.st39{fill:#FFFFFF;stroke:#FFFFFF;stroke-width:2.9178;stroke-miterlimit:10;}
	.st40{fill:url(#SVGID_00000008120944549474912700000011057028152636834204_);}
	.st41{fill:url(#SVGID_00000027594571049537369090000013376518832214169790_);}
	.st42{fill:url(#SVGID_00000078039548385844823960000006272137186230223496_);}
	.st43{fill:none;stroke:#FFFFFF;stroke-width:10.1249;stroke-linecap:round;stroke-linejoin:round;stroke-miterlimit:10;}
	.st44{fill:url(#SVGID_00000143616010635281331790000017303736327613069977_);}
	.st45{fill:url(#SVGID_00000023267826960158250890000014309713273905404291_);}
	.st46{fill:url(#SVGID_00000031196526808164378320000012497074097156577212_);}
	.st47{fill:url(#SVGID_00000163779435054626466230000007694407051170062503_);}
	.st48{fill:#FFFFFF;stroke:#FFFFFF;stroke-width:7.9684;stroke-linecap:round;stroke-linejoin:round;stroke-miterlimit:10;}
	.st49{fill:url(#SVGID_00000095337560503283300150000005099889346763299751_);}
	.st50{fill:url(#SVGID_00000158732041464560230930000011362689404450923174_);}
	.st51{fill:url(#SVGID_00000153685253313182645560000015089424158062885518_);}
	.st52{fill:url(#SVGID_00000083052026502808923900000006808282838423714484_);}
	.st53{fill:url(#SVGID_00000074433403245884445880000016988599986642840979_);}
	.st54{fill:url(#SVGID_00000124152774598463536880000009956242046169062808_);}
	.st55{fill:url(#SVGID_00000164512716558508351290000003447854276721129125_);}
	.st56{fill:url(#SVGID_00000097489013470545155490000001324264697879237511_);}
	.st57{fill:url(#SVGID_00000022551331697945970760000018310332574498922914_);}
	.st58{fill:url(#SVGID_00000004521767191320144540000015393679693575476621_);}
	.st59{fill:url(#SVGID_00000113323653938837077750000008945323884354827410_);}
	.st60{fill:url(#SVGID_00000021822943338187603250000013465826311573523339_);}
	.st61{fill:url(#SVGID_00000140000010882029195080000009672855213206054800_);}
	.st62{fill:url(#SVGID_00000125585951110118826660000000548402735560817584_);}
	.st63{fill:url(#SVGID_00000051370430950241947860000016324209913038030742_);}
	.st64{fill:url(#SVGID_00000156574150671041900960000014690952505978652067_);}
	.st65{fill:url(#SVGID_00000142878431096038079510000004674449723265435779_);}
	.st66{fill:url(#SVGID_00000113317351575816366160000017526391325528319369_);}
	.st67{fill:url(#SVGID_00000052075153914607247230000014851543833477819833_);}
	.st68{fill:url(#SVGID_00000121996249470805369160000004108927627939295396_);}
	.st69{fill:url(#SVGID_00000152259815326299358580000015072257090115857596_);}
	.st70{fill:url(#SVGID_00000140008613522906471620000018211081698117575315_);}
	.st71{fill:url(#SVGID_00000120519098252463380490000011160997910319172758_);}
	.st72{fill:url(#SVGID_00000112628180929812021500000001384002173618513070_);}
	.st73{clip-path:url(#SVGID_00000179634554669326108820000005408263233199375264_);}
	.st74{fill:url(#SVGID_00000018222953255202693490000004321162457249882500_);}
	.st75{fill:url(#SVGID_00000118380932173363548070000017820889002363417252_);}
	.st76{fill:url(#SVGID_00000065786649833734578790000009126425254866492803_);}
	.st77{fill:url(#SVGID_00000016051968648490090150000007608525563116794806_);}
	.st78{fill:url(#SVGID_00000091725852174212190330000012058510945771963036_);}
	.st79{fill:url(#SVGID_00000057831119748453015530000008890059545619877561_);}
	.st80{fill:url(#SVGID_00000145018851807744830300000015603920505222525333_);}
	.st81{fill:url(#SVGID_00000146459155257460867330000014821669417296611718_);}
	.st82{fill:url(#SVGID_00000144323375987826616500000017712101087937514413_);}
</style>
<g id="GPS">
</g>
<g id="References" class="st0">
</g>
<g id="Icons">
	<g>
		<g>
			<g>
				<linearGradient id="SVGID_1_" gradientUnits="userSpaceOnUse" x1="60.3632" y1="260.0511" x2="462.3835" y2="260.0511">
					<stop  offset="0" style="stop-color:#F15D22"/>
					<stop  offset="1" style="stop-color:#ED2024"/>
				</linearGradient>
				<path class="st1" d="M261.37,59.04c-111.01,0-201.01,90-201.01,201.01c0,111.01,90,201.01,201.01,201.01
					c111.01,0,201.01-90,201.01-201.01C462.38,149.04,372.39,59.04,261.37,59.04z"/>
			</g>
		</g>
		<path class="st3" d="M366.43,280.78c-10.01,0-19.68,0-29.61,0c0-16.45,0-32.82,0-49.37c9.88,0,19.63,0,29.61,0V216
			c-10.14,0-19.85,0-29.9,0c0-3.94,0-7.67,0-11.5c-5.11,0-9.87,0-14.96,0c0,4,0,7.74,0,11.49c-10.1,0-19.87,0-30.04,0
			c0-3.95,0-7.68,0-11.52c-5.18,0-9.95,0-15.14,0c0,3.95,0,7.68,0,11.53c-10.17,0-19.92,0-30.03,0c0-3.93,0-7.67,0-11.54
			c-5.13,0-9.9,0-15.02,0c0,3.96,0,7.7,0,11.53c-10.11,0-19.86,0-30.01,0c0-3.95,0-7.68,0-11.46c-5.28,0-10.16,0-15.41,0
			c0,4.02,0,7.75,0,11.85c-10.13,0-19.89,0-29.6,0c0,5.09,0,9.78,0,14.89c9.93,0,19.68,0,29.57,0c0,16.7,0,32.98,0,49.65
			c-9.93,0-19.69,0-29.49,0c0,5.16,0,9.93,0,15.07c10.01,0,19.77,0,29.89,0c0,6.47,0,12.57,0,18.66c5.17,0,9.96,0,15.15,0
			c0-6.33,0-12.42,0-18.64c10.15,0,19.9,0,30,0c0,6.3,0,12.41,0,18.65c5.12,0,9.89,0,15.01,0c0-6.33,0-12.43,0-18.65
			c10.1,0,19.86,0,30.02,0c0,6.3,0,12.39,0,18.67c5.17,0,9.94,0,15.12,0c0-6.31,0-12.4,0-18.59c10.26,0,20.11,0,30.29,0
			c0,6.38,0,12.48,0,18.61c5.02,0,9.69,0,14.82,0c0-6.39,0-12.58,0-18.61c10.09,0,19.73,0,29.73,0V280.78z M231.19,280.62
			c-9.71,0-19.45,0-29.59,0c0-16.42,0-32.68,0-49.18c9.9,0,19.63,0,29.59,0C231.19,247.84,231.19,264.09,231.19,280.62z
			 M276.19,280.66c-9.8,0-19.55,0-29.56,0c0-16.34,0-32.68,0-49.24c9.88,0,19.61,0,29.56,0
			C276.19,247.89,276.19,264.16,276.19,280.66z M321.47,280.64c-9.73,0-19.49,0-29.67,0c0-16.43,0-32.71,0-49.2
			c9.94,0,19.7,0,29.67,0C321.47,247.83,321.47,264.1,321.47,280.64z"/>
	</g>
</g>
</svg>
