<?xml version="1.0" encoding="utf-8"?>
<!-- Generator: Adobe Illustrator 28.0.0, SVG Export Plug-In . SVG Version: 6.00 Build 0)  -->
<svg version="1.1" xmlns="http://www.w3.org/2000/svg" xmlns:xlink="http://www.w3.org/1999/xlink" x="0px" y="0px"
	 viewBox="0 0 511.68 511.68" style="enable-background:new 0 0 511.68 511.68;" xml:space="preserve">
<style type="text/css">
	.st0{display:none;}
	.st1{fill:url(#SVGID_1_);}
	.st2{fill:url(#SVGID_00000124150166291323745350000010744594921428230818_);}
	.st3{fill:url(#SVGID_00000143596734018012160210000003267423208946207642_);}
	.st4{fill:none;stroke:#FFFFFF;stroke-width:15;stroke-miterlimit:10;}
	.st5{fill:#FFFFFF;}
	.st6{fill:none;stroke:#FFFFFF;stroke-width:9;stroke-miterlimit:10;}
	.st7{fill:url(#SVGID_00000044173474544950075190000002020923690908050570_);}
	.st8{fill:none;stroke:#FFFFFF;stroke-width:15;stroke-linecap:round;stroke-linejoin:round;stroke-miterlimit:10;}
	.st9{fill:none;stroke:#FFFFFF;stroke-width:10;stroke-linecap:round;stroke-linejoin:round;stroke-miterlimit:10;}
	.st10{fill:url(#SVGID_00000053526984437962959680000015916104836494150326_);}
	.st11{fill:url(#SVGID_00000134217498499889247770000018162163569822227331_);}
	.st12{fill:url(#SVGID_00000026868937484700263750000017689236503420718003_);}
	.st13{fill:url(#SVGID_00000106849884218844304040000009730785444200853695_);}
	.st14{fill:url(#SVGID_00000051345600795575422390000007152342386774311833_);}
	.st15{fill:url(#SVGID_00000132784504672559147300000005170757986324529596_);}
	.st16{fill:url(#SVGID_00000109732453549344439680000008997408230856724630_);}
	.st17{fill:url(#SVGID_00000095312823303924135660000011790984145299790762_);}
	.st18{fill:url(#SVGID_00000157299811704632254500000012976676321616984249_);}
	.st19{fill:url(#SVGID_00000093159148461347095260000015215563592625350064_);}
	.st20{fill:url(#SVGID_00000095332295640367891120000005253157634405618867_);}
	.st21{fill:url(#SVGID_00000090264083921237421530000011246668410598514561_);}
	.st22{fill:url(#SVGID_00000114790376246800279200000006868429952493081020_);}
	.st23{fill:url(#SVGID_00000040571998759047683920000005387236308634772134_);}
	.st24{fill:url(#SVGID_00000007417743290986036560000006627609019950591372_);}
	.st25{fill:url(#SVGID_00000103222816308087717040000002269955305376352651_);}
	.st26{fill:url(#SVGID_00000120556597248611081360000013081864779243182779_);}
	.st27{fill:url(#SVGID_00000083805443890720060490000002178893461705585341_);}
	.st28{fill:#BCBEC0;}
	.st29{fill:url(#SVGID_00000014625116308695348780000009163167589493230256_);}
	.st30{fill:url(#SVGID_00000065758341657419946930000012121403439206608537_);}
	.st31{fill-rule:evenodd;clip-rule:evenodd;fill:#FFFFFF;}
	.st32{fill:none;stroke:#FFFFFF;stroke-width:9.8091;stroke-linecap:round;stroke-linejoin:round;stroke-miterlimit:10;}
	.st33{clip-path:url(#SVGID_00000143587784321648463720000003620609794705891479_);}
	.st34{fill:none;stroke:#FFFFFF;stroke-width:6.402;stroke-miterlimit:10;}
	.st35{fill:url(#SVGID_00000181086317525827325600000006253111936093164448_);}
	.st36{fill:none;stroke:#FFFFFF;stroke-width:14.3924;stroke-linecap:round;stroke-linejoin:round;stroke-miterlimit:10;}
	.st37{fill:none;stroke:#FFFFFF;stroke-width:8;stroke-linecap:round;stroke-linejoin:round;stroke-miterlimit:10;}
	.st38{fill:url(#SVGID_00000091697902035995788030000003585674498647935934_);}
	.st39{fill:url(#SVGID_00000171694183446234590470000017075889478728577676_);}
	.st40{fill:#FFFFFF;stroke:#FFFFFF;stroke-width:2.9178;stroke-miterlimit:10;}
	.st41{fill:url(#SVGID_00000071556368532735381350000014176622958847763365_);}
	.st42{fill:url(#SVGID_00000119799701649452331940000012479214714093148292_);}
	.st43{fill:none;stroke:#FFFFFF;stroke-width:10.1249;stroke-linecap:round;stroke-linejoin:round;stroke-miterlimit:10;}
</style>
<g id="GPS">
</g>
<g id="References" class="st0">
</g>
<g id="Icons">
	<g>
		<path d="M190.64,454.05v4.39h-12.47v34.2h-5.23v-34.2h-12.52v-4.39H190.64z"/>
		<path d="M201.79,456.8c0,0.47-0.09,0.9-0.28,1.31s-0.44,0.76-0.75,1.08s-0.68,0.56-1.09,0.74c-0.41,0.18-0.85,0.27-1.32,0.27
			s-0.9-0.09-1.31-0.27c-0.4-0.18-0.76-0.43-1.08-0.74c-0.31-0.31-0.56-0.67-0.74-1.08s-0.27-0.84-0.27-1.31
			c0-0.47,0.09-0.91,0.27-1.33s0.43-0.79,0.74-1.1c0.31-0.31,0.67-0.56,1.08-0.74c0.4-0.18,0.84-0.27,1.31-0.27s0.91,0.09,1.32,0.27
			c0.41,0.18,0.78,0.43,1.09,0.74c0.31,0.31,0.57,0.68,0.75,1.1S201.79,456.33,201.79,456.8z M200.71,465.36v27.28h-4.79v-27.28
			H200.71z"/>
		<path d="M209.17,492.64v-27.28h2.85c0.68,0,1.11,0.33,1.29,1l0.35,2.8c1-1.24,2.13-2.25,3.38-3.04s2.7-1.18,4.35-1.18
			c1.85,0,3.34,0.51,4.48,1.54c1.14,1.02,1.96,2.41,2.46,4.15c0.38-0.99,0.88-1.84,1.5-2.56s1.31-1.31,2.09-1.78
			c0.77-0.47,1.59-0.81,2.46-1.02c0.87-0.22,1.75-0.32,2.65-0.32c1.44,0,2.71,0.23,3.84,0.69c1.12,0.46,2.07,1.13,2.85,2.01
			c0.78,0.88,1.38,1.96,1.79,3.25c0.41,1.28,0.62,2.75,0.62,4.4v17.37h-4.79v-17.37c0-2.14-0.47-3.76-1.4-4.86
			c-0.93-1.1-2.29-1.66-4.07-1.66c-0.79,0-1.54,0.14-2.25,0.42s-1.33,0.69-1.87,1.23c-0.54,0.54-0.97,1.22-1.28,2.03
			c-0.31,0.82-0.47,1.76-0.47,2.84v17.37h-4.79v-17.37c0-2.19-0.44-3.83-1.32-4.9s-2.16-1.62-3.85-1.62c-1.18,0-2.28,0.32-3.3,0.96
			s-1.94,1.5-2.79,2.6v20.33H209.17z"/>
		<path d="M264.19,464.93c1.63,0,3.14,0.27,4.52,0.82s2.58,1.34,3.58,2.37s1.79,2.31,2.36,3.82c0.56,1.52,0.85,3.25,0.85,5.18
			c0,0.75-0.08,1.26-0.24,1.51c-0.16,0.25-0.47,0.38-0.92,0.38h-18.15c0.04,1.72,0.27,3.22,0.7,4.5c0.43,1.28,1.02,2.34,1.78,3.19
			c0.75,0.85,1.65,1.49,2.69,1.91s2.21,0.63,3.5,0.63c1.2,0,2.24-0.14,3.11-0.42s1.62-0.58,2.25-0.9s1.15-0.62,1.58-0.9
			s0.79-0.42,1.09-0.42c0.4,0,0.7,0.15,0.92,0.46l1.35,1.75c-0.59,0.72-1.3,1.34-2.13,1.87s-1.71,0.96-2.65,1.31
			c-0.94,0.34-1.92,0.6-2.92,0.77c-1.01,0.17-2,0.26-2.99,0.26c-1.89,0-3.62-0.32-5.21-0.96s-2.96-1.57-4.12-2.8
			c-1.16-1.23-2.06-2.75-2.71-4.56s-0.97-3.9-0.97-6.25c0-1.9,0.29-3.68,0.88-5.33c0.58-1.65,1.42-3.08,2.52-4.29
			s2.43-2.16,4.01-2.86C260.43,465.28,262.21,464.93,264.19,464.93z M264.29,468.46c-2.32,0-4.14,0.67-5.47,2.01
			c-1.33,1.34-2.15,3.19-2.48,5.56h14.84c0-1.11-0.15-2.13-0.46-3.06c-0.3-0.92-0.75-1.72-1.35-2.4c-0.59-0.67-1.32-1.19-2.17-1.56
			C266.36,468.64,265.39,468.46,264.29,468.46z"/>
		<path d="M286.94,452.97v39.67h-4.79v-39.67H286.94z"/>
		<path d="M301.81,456.8c0,0.47-0.09,0.9-0.28,1.31s-0.44,0.76-0.75,1.08c-0.31,0.31-0.68,0.56-1.09,0.74
			c-0.41,0.18-0.85,0.27-1.32,0.27s-0.9-0.09-1.31-0.27c-0.4-0.18-0.76-0.43-1.08-0.74s-0.56-0.67-0.74-1.08
			c-0.18-0.4-0.27-0.84-0.27-1.31c0-0.47,0.09-0.91,0.27-1.33c0.18-0.42,0.43-0.79,0.74-1.1c0.31-0.31,0.67-0.56,1.08-0.74
			c0.4-0.18,0.84-0.27,1.31-0.27s0.91,0.09,1.32,0.27c0.41,0.18,0.78,0.43,1.09,0.74c0.31,0.31,0.57,0.68,0.75,1.1
			S301.81,456.33,301.81,456.8z M300.73,465.36v27.28h-4.79v-27.28H300.73z"/>
		<path d="M309.19,492.64v-27.28h2.86c0.68,0,1.11,0.33,1.29,1l0.38,2.96c1.19-1.31,2.51-2.37,3.97-3.18
			c1.46-0.81,3.16-1.21,5.08-1.21c1.49,0,2.81,0.25,3.95,0.74c1.14,0.49,2.09,1.19,2.86,2.1c0.76,0.91,1.34,2,1.74,3.27
			c0.4,1.27,0.59,2.68,0.59,4.23v17.37h-4.79v-17.37c0-2.06-0.47-3.67-1.41-4.81c-0.94-1.14-2.38-1.71-4.32-1.71
			c-1.42,0-2.74,0.34-3.97,1.02c-1.23,0.68-2.37,1.61-3.41,2.77v20.09H309.19z"/>
		<path d="M349.93,464.93c1.63,0,3.14,0.27,4.52,0.82c1.38,0.55,2.58,1.34,3.58,2.37c1,1.03,1.79,2.31,2.36,3.82
			s0.85,3.25,0.85,5.18c0,0.75-0.08,1.26-0.24,1.51c-0.16,0.25-0.47,0.38-0.92,0.38h-18.15c0.04,1.72,0.27,3.22,0.7,4.5
			c0.43,1.28,1.02,2.34,1.78,3.19c0.75,0.85,1.65,1.49,2.69,1.91s2.21,0.63,3.5,0.63c1.2,0,2.24-0.14,3.11-0.42
			c0.87-0.28,1.62-0.58,2.25-0.9s1.15-0.62,1.58-0.9c0.42-0.28,0.79-0.42,1.09-0.42c0.4,0,0.7,0.15,0.92,0.46l1.35,1.75
			c-0.59,0.72-1.3,1.34-2.13,1.87s-1.71,0.96-2.65,1.31c-0.94,0.34-1.92,0.6-2.92,0.77c-1.01,0.17-2,0.26-2.99,0.26
			c-1.89,0-3.62-0.32-5.21-0.96s-2.96-1.57-4.12-2.8c-1.16-1.23-2.06-2.75-2.71-4.56c-0.65-1.81-0.97-3.9-0.97-6.25
			c0-1.9,0.29-3.68,0.88-5.33c0.58-1.65,1.42-3.08,2.52-4.29c1.09-1.21,2.43-2.16,4.01-2.86
			C346.18,465.28,347.96,464.93,349.93,464.93z M350.04,468.46c-2.32,0-4.14,0.67-5.47,2.01c-1.33,1.34-2.15,3.19-2.48,5.56h14.84
			c0-1.11-0.15-2.13-0.46-3.06s-0.75-1.72-1.35-2.4c-0.59-0.67-1.32-1.19-2.17-1.56S351.14,468.46,350.04,468.46z"/>
	</g>
	<g>
		<g>
			<g>
				<linearGradient id="SVGID_1_" gradientUnits="userSpaceOnUse" x1="60.3632" y1="224.9683" x2="462.3835" y2="224.9683">
					<stop  offset="0" style="stop-color:#F15D22"/>
					<stop  offset="1" style="stop-color:#ED2024"/>
				</linearGradient>
				<path class="st1" d="M261.37,23.96c-111.01,0-201.01,90-201.01,201.01c0,111.01,90,201.01,201.01,201.01
					c111.01,0,201.01-90,201.01-201.01C462.38,113.95,372.39,23.96,261.37,23.96z"/>
			</g>
		</g>
	</g>
	<g>
		<path class="st8" d="M316.33,310.84H206.42c-16.65,0-30.15-13.5-30.15-30.15V170.78c0-16.65,13.5-30.15,30.15-30.15h109.92
			c16.65,0,30.15,13.5,30.15,30.15v109.92C346.48,297.34,332.98,310.84,316.33,310.84z"/>
		<g>
			<circle class="st5" cx="217.7" cy="183.67" r="13.75"/>
			<line class="st43" x1="246.16" y1="174.67" x2="309.15" y2="174.67"/>
			<line class="st43" x1="246.16" y1="189.6" x2="309.15" y2="189.6"/>
			<circle class="st5" cx="217.7" cy="228.48" r="13.75"/>
			<line class="st43" x1="246.16" y1="219.48" x2="309.15" y2="219.48"/>
			<line class="st43" x1="246.16" y1="234.41" x2="309.15" y2="234.41"/>
			<circle class="st5" cx="217.7" cy="273.29" r="13.75"/>
			<line class="st43" x1="246.16" y1="264.28" x2="309.15" y2="264.28"/>
			<line class="st43" x1="246.16" y1="279.22" x2="309.15" y2="279.22"/>
		</g>
	</g>
</g>
</svg>
