<?xml version="1.0" encoding="utf-8"?>
<!-- Generator: Adobe Illustrator 28.0.0, SVG Export Plug-In . SVG Version: 6.00 Build 0)  -->
<svg version="1.1" xmlns="http://www.w3.org/2000/svg" xmlns:xlink="http://www.w3.org/1999/xlink" x="0px" y="0px"
	 viewBox="0 0 511.68 511.68" style="enable-background:new 0 0 511.68 511.68;" xml:space="preserve">
<style type="text/css">
	.st0{display:none;}
	.st1{fill:url(#SVGID_1_);}
	.st2{fill:url(#SVGID_00000158026826991050089660000014282610280206367617_);}
	.st3{fill:url(#SVGID_00000171696914201387735320000003043688473522516636_);}
	.st4{fill:none;stroke:#FFFFFF;stroke-width:15;stroke-miterlimit:10;}
	.st5{fill:#FFFFFF;}
	.st6{fill:none;stroke:#FFFFFF;stroke-width:9;stroke-miterlimit:10;}
	.st7{fill:url(#SVGID_00000007395236884621507750000007392892392420062367_);}
	.st8{fill:none;stroke:#FFFFFF;stroke-width:15;stroke-linecap:round;stroke-linejoin:round;stroke-miterlimit:10;}
	.st9{fill:none;stroke:#FFFFFF;stroke-width:10;stroke-linecap:round;stroke-linejoin:round;stroke-miterlimit:10;}
	.st10{fill:url(#SVGID_00000029731155556536015540000011685886065515688634_);}
	.st11{fill:url(#SVGID_00000098936149448206745790000010872326085982317247_);}
	.st12{fill:url(#SVGID_00000182526220962589314690000014199826775203244684_);}
	.st13{fill:url(#SVGID_00000059282380279297912430000017581670236079840444_);}
	.st14{fill:url(#SVGID_00000085223631963947030110000010369897142690384829_);}
	.st15{fill:url(#SVGID_00000008130780238979061050000001859659690914716808_);}
	.st16{fill:url(#SVGID_00000145036855562703849580000016854752494645483939_);}
	.st17{fill:url(#SVGID_00000070077381332347438490000004531338043578020520_);}
	.st18{fill:url(#SVGID_00000007398669473427786090000013889775537203955628_);}
	.st19{fill:url(#SVGID_00000149369517770824210850000010544101196691241355_);}
	.st20{fill:url(#SVGID_00000138558468669836836550000000292156896974836658_);}
	.st21{fill:url(#SVGID_00000150823042679264054710000009419553849756744581_);}
	.st22{fill:url(#SVGID_00000178194125906547938230000016554139644125848969_);}
	.st23{fill:url(#SVGID_00000168804686771924834630000005513990751149415827_);}
	.st24{fill:url(#SVGID_00000106126367863175246830000011244770156171062425_);}
	.st25{fill:url(#SVGID_00000085962059888616825970000018105301017635634074_);}
	.st26{fill:url(#SVGID_00000142897186669558719760000006464309592546144935_);}
	.st27{fill:url(#SVGID_00000181786272873699504420000014949423947520095647_);}
	.st28{fill:#BCBEC0;}
	.st29{fill:url(#SVGID_00000088119386170647779520000005976282547659332505_);}
	.st30{fill:url(#SVGID_00000027587471550626445290000014360877432685504930_);}
	.st31{fill-rule:evenodd;clip-rule:evenodd;fill:#FFFFFF;}
	.st32{fill:none;stroke:#FFFFFF;stroke-width:9.8091;stroke-linecap:round;stroke-linejoin:round;stroke-miterlimit:10;}
	.st33{clip-path:url(#SVGID_00000004511782693137800830000009244111347012893065_);}
	.st34{fill:none;stroke:#FFFFFF;stroke-width:6.402;stroke-miterlimit:10;}
	.st35{fill:url(#SVGID_00000183927556780767127020000001861682580541310134_);}
	.st36{fill:none;stroke:#FFFFFF;stroke-width:14.3924;stroke-linecap:round;stroke-linejoin:round;stroke-miterlimit:10;}
	.st37{fill:none;stroke:#FFFFFF;stroke-width:8;stroke-linecap:round;stroke-linejoin:round;stroke-miterlimit:10;}
	.st38{fill:url(#SVGID_00000158008164927923161790000006132256444399261334_);}
	.st39{fill:#FFFFFF;stroke:#FFFFFF;stroke-width:2.9178;stroke-miterlimit:10;}
	.st40{fill:url(#SVGID_00000047043904031523765110000009113563360838422971_);}
	.st41{fill:url(#SVGID_00000163771816690796764030000007915031516937036198_);}
	.st42{fill:url(#SVGID_00000084506073903141624780000017866241410576746385_);}
	.st43{fill:none;stroke:#FFFFFF;stroke-width:10.1249;stroke-linecap:round;stroke-linejoin:round;stroke-miterlimit:10;}
	.st44{fill:url(#SVGID_00000043449374268103806790000012006350935482670235_);}
	.st45{fill:url(#SVGID_00000155131046986288788700000014950524023540897461_);}
	.st46{fill:url(#SVGID_00000062907241719491706350000000600722077561428375_);}
</style>
<g id="GPS">
</g>
<g id="References" class="st0">
</g>
<g id="Icons">
	<g>
		<path d="M170.09,478.21v14.44h-5.2v-38.59h11.39c2.44,0,4.56,0.28,6.37,0.85c1.8,0.57,3.3,1.37,4.48,2.41
			c1.19,1.04,2.07,2.3,2.65,3.77c0.58,1.47,0.88,3.12,0.88,4.93c0,1.79-0.31,3.44-0.94,4.93s-1.55,2.77-2.76,3.85
			c-1.21,1.08-2.72,1.92-4.51,2.52s-3.85,0.9-6.17,0.9H170.09z M170.09,474.06h6.19c1.49,0,2.8-0.2,3.95-0.59
			c1.14-0.39,2.1-0.95,2.87-1.66c0.77-0.71,1.36-1.56,1.75-2.54s0.59-2.07,0.59-3.26c0-2.46-0.76-4.38-2.28-5.76
			c-1.52-1.38-3.81-2.07-6.88-2.07h-6.19V474.06z"/>
		<path d="M201.84,452.97v39.67h-4.79v-39.67H201.84z"/>
		<path d="M230.33,492.64h-2.13c-0.47,0-0.84-0.07-1.13-0.22c-0.29-0.14-0.48-0.45-0.57-0.92l-0.54-2.53
			c-0.72,0.65-1.42,1.23-2.1,1.74c-0.68,0.51-1.4,0.94-2.15,1.29c-0.75,0.35-1.56,0.62-2.41,0.79c-0.85,0.18-1.8,0.27-2.84,0.27
			c-1.06,0-2.05-0.15-2.98-0.45s-1.73-0.74-2.41-1.34c-0.68-0.59-1.22-1.35-1.63-2.26c-0.4-0.91-0.61-1.99-0.61-3.23
			c0-1.08,0.3-2.12,0.89-3.12c0.59-1,1.55-1.89,2.87-2.66c1.32-0.78,3.05-1.41,5.19-1.91c2.14-0.5,4.75-0.74,7.84-0.74v-2.14
			c0-2.13-0.45-3.74-1.36-4.84c-0.91-1.09-2.25-1.64-4.03-1.64c-1.17,0-2.15,0.15-2.95,0.44c-0.8,0.3-1.49,0.63-2.07,1
			c-0.58,0.37-1.09,0.7-1.51,1c-0.42,0.3-0.84,0.44-1.25,0.44c-0.32,0-0.61-0.09-0.85-0.26c-0.24-0.17-0.44-0.38-0.58-0.63
			l-0.86-1.53c1.51-1.46,3.13-2.54,4.87-3.26c1.74-0.72,3.67-1.08,5.79-1.08c1.53,0,2.88,0.25,4.07,0.75c1.18,0.5,2.18,1.2,2.99,2.1
			s1.42,1.98,1.83,3.26c0.41,1.27,0.62,2.67,0.62,4.2V492.64z M217.89,489.71c0.84,0,1.62-0.08,2.32-0.26
			c0.7-0.17,1.36-0.41,1.98-0.73c0.62-0.31,1.21-0.7,1.78-1.14c0.57-0.45,1.12-0.96,1.66-1.53v-5.63c-2.21,0-4.08,0.14-5.63,0.42
			c-1.54,0.28-2.8,0.65-3.77,1.1c-0.97,0.45-1.67,0.98-2.11,1.6s-0.66,1.3-0.66,2.06c0,0.72,0.12,1.35,0.35,1.87
			c0.23,0.52,0.55,0.95,0.94,1.29c0.4,0.33,0.86,0.58,1.4,0.73C216.68,489.63,217.26,489.71,217.89,489.71z"/>
		<path d="M256.21,470.21c-0.14,0.2-0.29,0.35-0.43,0.46c-0.14,0.11-0.35,0.16-0.62,0.16s-0.56-0.11-0.88-0.34
			c-0.31-0.22-0.71-0.47-1.2-0.74s-1.07-0.52-1.76-0.74s-1.54-0.34-2.54-0.34c-1.33,0-2.5,0.24-3.53,0.71s-1.88,1.16-2.57,2.06
			c-0.69,0.9-1.21,1.98-1.56,3.26c-0.35,1.28-0.52,2.7-0.52,4.28c0,1.65,0.19,3.12,0.57,4.4c0.38,1.28,0.91,2.36,1.59,3.23
			c0.68,0.87,1.51,1.54,2.49,1.99s2.08,0.69,3.3,0.69c1.17,0,2.13-0.14,2.88-0.42c0.75-0.28,1.38-0.59,1.89-0.93
			c0.5-0.34,0.92-0.65,1.24-0.93s0.65-0.42,0.97-0.42c0.41,0,0.72,0.15,0.92,0.46l1.35,1.75c-1.19,1.45-2.67,2.52-4.44,3.19
			c-1.78,0.67-3.65,1.01-5.63,1.01c-1.71,0-3.29-0.31-4.75-0.94s-2.73-1.54-3.81-2.73c-1.08-1.19-1.93-2.66-2.54-4.4
			s-0.93-3.73-0.93-5.95c0-2.03,0.28-3.91,0.85-5.63c0.57-1.72,1.39-3.21,2.48-4.46c1.09-1.25,2.43-2.22,4.03-2.92
			c1.6-0.7,3.43-1.05,5.49-1.05c1.9,0,3.59,0.31,5.06,0.93c1.47,0.62,2.77,1.5,3.9,2.63L256.21,470.21z"/>
		<path d="M273.56,464.93c1.63,0,3.14,0.27,4.52,0.82s2.58,1.34,3.58,2.37s1.79,2.31,2.36,3.82c0.56,1.52,0.85,3.25,0.85,5.18
			c0,0.75-0.08,1.26-0.24,1.51c-0.16,0.25-0.47,0.38-0.92,0.38h-18.15c0.04,1.72,0.27,3.22,0.7,4.5c0.43,1.28,1.02,2.34,1.78,3.19
			c0.75,0.85,1.65,1.49,2.69,1.91s2.21,0.63,3.5,0.63c1.2,0,2.24-0.14,3.11-0.42s1.62-0.58,2.25-0.9s1.15-0.62,1.58-0.9
			s0.79-0.42,1.09-0.42c0.4,0,0.7,0.15,0.92,0.46l1.35,1.75c-0.59,0.72-1.3,1.34-2.13,1.87s-1.71,0.96-2.65,1.31
			c-0.94,0.34-1.92,0.6-2.92,0.77c-1.01,0.17-2,0.26-2.99,0.26c-1.89,0-3.62-0.32-5.21-0.96c-1.59-0.64-2.96-1.57-4.12-2.8
			c-1.16-1.23-2.06-2.75-2.71-4.56s-0.97-3.9-0.97-6.25c0-1.9,0.29-3.68,0.88-5.33c0.58-1.65,1.42-3.08,2.52-4.29
			s2.43-2.16,4.01-2.86C269.8,465.28,271.58,464.93,273.56,464.93z M273.67,468.46c-2.32,0-4.14,0.67-5.47,2.01
			c-1.33,1.34-2.15,3.19-2.48,5.56h14.84c0-1.11-0.15-2.13-0.46-3.06c-0.3-0.92-0.75-1.72-1.35-2.4c-0.59-0.67-1.32-1.19-2.17-1.56
			C275.73,468.64,274.76,468.46,273.67,468.46z"/>
		<path d="M297.47,470.96h1.97c0.68,0,1.22-0.08,1.63-0.26c0.4-0.17,0.79-0.46,1.14-0.88l12.85-14.54c0.39-0.45,0.78-0.77,1.14-0.96
			c0.37-0.19,0.84-0.28,1.41-0.28h4.44l-14.71,16.62c-0.38,0.41-0.73,0.76-1.06,1.05c-0.33,0.29-0.69,0.52-1.06,0.7
			c0.5,0.16,0.94,0.4,1.32,0.73s0.77,0.73,1.19,1.21l15.35,18.29h-4.52c-0.34,0-0.63-0.03-0.86-0.08s-0.44-0.12-0.61-0.21
			c-0.17-0.09-0.33-0.21-0.47-0.35c-0.14-0.14-0.29-0.3-0.43-0.46l-13.33-15.32c-0.2-0.22-0.38-0.4-0.55-0.55
			c-0.17-0.15-0.37-0.28-0.59-0.39c-0.22-0.11-0.48-0.18-0.78-0.23c-0.3-0.04-0.66-0.07-1.09-0.07h-2.37v17.67h-5.2v-38.59h5.2
			V470.96z"/>
		<path d="M334.07,456.8c0,0.47-0.09,0.9-0.28,1.31s-0.44,0.76-0.75,1.08c-0.31,0.31-0.68,0.56-1.09,0.74
			c-0.41,0.18-0.85,0.27-1.32,0.27s-0.9-0.09-1.31-0.27c-0.4-0.18-0.76-0.43-1.08-0.74s-0.56-0.67-0.74-1.08
			c-0.18-0.4-0.27-0.84-0.27-1.31c0-0.47,0.09-0.91,0.27-1.33c0.18-0.42,0.43-0.79,0.74-1.1c0.31-0.31,0.67-0.56,1.08-0.74
			c0.4-0.18,0.84-0.27,1.31-0.27s0.91,0.09,1.32,0.27c0.41,0.18,0.78,0.43,1.09,0.74c0.31,0.31,0.57,0.68,0.75,1.1
			S334.07,456.33,334.07,456.8z M332.99,465.36v27.28h-4.79v-27.28H332.99z"/>
		<path d="M349.72,493.07c-2.16,0-3.81-0.6-4.97-1.8c-1.16-1.2-1.74-2.94-1.74-5.2v-16.7h-3.29c-0.29,0-0.53-0.08-0.73-0.26
			c-0.2-0.17-0.3-0.44-0.3-0.79v-1.91l4.47-0.57l1.1-8.43c0.04-0.27,0.15-0.49,0.35-0.66c0.2-0.17,0.45-0.26,0.75-0.26h2.42v9.4
			h7.81v3.47h-7.81v16.37c0,1.15,0.28,2,0.83,2.56c0.56,0.56,1.27,0.83,2.15,0.83c0.5,0,0.94-0.07,1.31-0.2s0.69-0.28,0.96-0.44
			c0.27-0.16,0.5-0.31,0.69-0.44s0.35-0.2,0.5-0.2c0.25,0,0.48,0.15,0.67,0.46l1.4,2.29c-0.83,0.77-1.82,1.38-2.99,1.82
			C352.16,492.85,350.96,493.07,349.72,493.07z"/>
	</g>
	<g>
		<g>
			<g>
				<g>
					<linearGradient id="SVGID_1_" gradientUnits="userSpaceOnUse" x1="58.7355" y1="225.7359" x2="460.7558" y2="225.7359">
						<stop  offset="0" style="stop-color:#F15D22"/>
						<stop  offset="1" style="stop-color:#ED2024"/>
					</linearGradient>
					<path class="st1" d="M259.75,24.73c-111.01,0-201.01,90-201.01,201.01c0,111.01,90,201.01,201.01,201.01
						c111.01,0,201.01-90,201.01-201.01C460.76,114.72,370.76,24.73,259.75,24.73z"/>
				</g>
			</g>
		</g>
		<g>
			<g>
				<path class="st5" d="M181.37,146.93c0,7.43,0.12,14.19-0.04,20.95c-0.13,5.6-5.08,9.47-9.52,7.07
					c-2.12-1.15-4.36-4.23-4.48-6.55c-0.51-9.48-0.38-19.01-0.17-28.51c0.1-4.56,2.95-7.06,7.58-7.12
					c9.07-0.11,18.15-0.09,27.23-0.01c4.77,0.05,7.94,3.17,7.8,7.38c-0.13,4.02-3.13,6.68-7.94,6.75
					C195.23,147,188.63,146.93,181.37,146.93z"/>
				<path class="st5" d="M181.36,304.59c6.3,0,11.9,0,17.49,0c1.3,0,2.6-0.08,3.89,0.04c4.32,0.39,7.16,3.36,7.03,7.25
					c-0.12,3.68-2.98,6.72-7.05,6.79c-9.5,0.17-19.01,0.17-28.51,0c-4.28-0.08-6.93-2.7-7.03-7.21c-0.23-9.5-0.19-19.01-0.01-28.51
					c0.08-4.2,3.47-7.27,7.18-7.16c3.69,0.11,6.87,3.25,6.98,7.45C181.49,290.14,181.36,297.04,181.36,304.59z"/>
				<path class="st5" d="M338.14,146.91c-5.58,0-10.73,0.01-15.88,0c-2.02,0-4.05,0.11-6.04-0.1c-4.05-0.42-6.65-3.41-6.51-7.24
					c0.12-3.47,2.93-6.67,6.65-6.74c9.79-0.18,19.59-0.25,29.38,0.02c4.2,0.12,6.52,3.11,6.59,7.2c0.16,9.5,0.21,19.01-0.04,28.51
					c-0.11,4.35-3.43,7.18-7.23,7.03c-3.8-0.15-6.8-3.22-6.88-7.47C338.04,161.25,338.14,154.36,338.14,146.91z"/>
				<path class="st5" d="M338.13,304.57c0-7.25-0.04-13.72,0.01-20.19c0.04-5.04,3.02-8.54,7.18-8.57c4-0.03,6.99,3.21,7.07,8.19
					c0.15,8.78,0.18,17.57,0.04,26.36c-0.09,5.8-2.84,8.35-8.64,8.38c-8.64,0.05-17.28,0.05-25.93-0.02
					c-4.92-0.04-8.11-2.89-8.14-7.04c-0.02-4.18,3.04-7,8.08-7.09C324.39,304.47,330.99,304.57,338.13,304.57z"/>
			</g>
			
				<rect x="239.94" y="165.81" transform="matrix(0.7071 -0.7071 0.7071 0.7071 -55.1367 238.0733)" class="st8" width="39.75" height="39.56"/>
			
				<rect x="282" y="207.87" transform="matrix(0.7071 -0.7071 0.7071 0.7071 -72.5586 280.1334)" class="st8" width="39.75" height="39.56"/>
			
				<rect x="197.75" y="207.41" transform="matrix(0.7071 -0.7071 0.7071 0.7071 -96.9104 220.4237)" class="st8" width="39.75" height="39.56"/>
			
				<rect x="239.81" y="249.47" transform="matrix(0.7071 -0.7071 0.7071 0.7071 -114.3323 262.4838)" class="st8" width="39.75" height="39.56"/>
		</g>
	</g>
</g>
</svg>
