<?xml version="1.0" encoding="utf-8"?>
<!-- Generator: Adobe Illustrator 28.0.0, SVG Export Plug-In . SVG Version: 6.00 Build 0)  -->
<svg version="1.1" xmlns="http://www.w3.org/2000/svg" xmlns:xlink="http://www.w3.org/1999/xlink" x="0px" y="0px"
	 viewBox="0 0 511.68 511.68" style="enable-background:new 0 0 511.68 511.68;" xml:space="preserve">
<style type="text/css">
	.st0{display:none;}
	.st1{fill:url(#SVGID_1_);}
	.st2{fill:none;stroke:#FFFFFF;stroke-width:15;stroke-miterlimit:10;}
	.st3{fill:#FFFFFF;}
	.st4{fill:none;stroke:#FFFFFF;stroke-width:9;stroke-miterlimit:10;}
	.st5{fill:url(#SVGID_00000103231459221888657640000000043772295981050758_);}
	.st6{fill:none;stroke:#FFFFFF;stroke-width:15;stroke-linecap:round;stroke-linejoin:round;stroke-miterlimit:10;}
	.st7{fill:none;stroke:#FFFFFF;stroke-width:10;stroke-linecap:round;stroke-linejoin:round;stroke-miterlimit:10;}
	.st8{fill:url(#SVGID_00000072271640547173368530000007264809793167424959_);}
	.st9{fill:url(#SVGID_00000040572918893162186050000003501097086352519815_);}
	.st10{fill:url(#SVGID_00000054964633562417844590000012500019798785516195_);}
	.st11{fill:url(#SVGID_00000039099398778908665090000010428685157727584950_);}
	.st12{fill:url(#SVGID_00000000211552138766552500000011192573656511610548_);}
	.st13{fill:url(#SVGID_00000115494833310362167740000007416671054957690272_);}
	.st14{fill:url(#SVGID_00000039856400693539199510000004007195994487078815_);}
	.st15{fill:url(#SVGID_00000065056687186863984240000017254716539093568131_);}
	.st16{fill:url(#SVGID_00000122703040912085256640000000912680014716252038_);}
	.st17{fill:url(#SVGID_00000052079298421409548630000001198063605946465679_);}
	.st18{fill:url(#SVGID_00000121278390110971698340000017951729136167471546_);}
	.st19{fill:url(#SVGID_00000088820673410822192050000012950588115226550949_);}
	.st20{fill:url(#SVGID_00000029731817252052508240000017434592508893143482_);}
	.st21{fill:url(#SVGID_00000072986758286771618490000010415423329090730403_);}
	.st22{fill:url(#SVGID_00000080165907491159718750000001572821463844816540_);}
	.st23{fill:url(#SVGID_00000155122537129860200190000016223177353200300418_);}
	.st24{fill:url(#SVGID_00000183953728528955953980000003246102306643428787_);}
	.st25{fill:#BCBEC0;}
	.st26{fill:url(#SVGID_00000074427000108871325640000002716462484872426371_);}
	.st27{fill:url(#SVGID_00000158723526778748539310000006106201130483273392_);}
	.st28{fill-rule:evenodd;clip-rule:evenodd;fill:#FFFFFF;}
	.st29{fill:url(#SVGID_00000035506983669420613360000015814578398868599461_);}
	.st30{fill:none;stroke:#FFFFFF;stroke-width:9.8091;stroke-linecap:round;stroke-linejoin:round;stroke-miterlimit:10;}
	.st31{fill:url(#SVGID_00000016068158256167588000000011481884367749896369_);}
	.st32{fill:url(#SVGID_00000065034655522580212860000001264713624786527127_);}
	.st33{clip-path:url(#SVGID_00000049195944860506899330000013890765641777807234_);}
	.st34{fill:none;stroke:#FFFFFF;stroke-width:6.402;stroke-miterlimit:10;}
	.st35{fill:url(#SVGID_00000039822904789439535260000006947551221457250459_);}
	.st36{fill:none;stroke:#FFFFFF;stroke-width:14.3924;stroke-linecap:round;stroke-linejoin:round;stroke-miterlimit:10;}
	.st37{fill:none;stroke:#FFFFFF;stroke-width:8;stroke-linecap:round;stroke-linejoin:round;stroke-miterlimit:10;}
	.st38{fill:url(#SVGID_00000044888607258254932390000009295634169968595882_);}
	.st39{fill:#FFFFFF;stroke:#FFFFFF;stroke-width:2.9178;stroke-miterlimit:10;}
	.st40{fill:url(#SVGID_00000098901625673331791200000014380967313114198193_);}
	.st41{fill:url(#SVGID_00000177462344831202749650000007762786319812115612_);}
	.st42{fill:url(#SVGID_00000120554394705834686890000012985326910806919340_);}
	.st43{fill:none;stroke:#FFFFFF;stroke-width:10.1249;stroke-linecap:round;stroke-linejoin:round;stroke-miterlimit:10;}
	.st44{fill:url(#SVGID_00000070799555337144263990000003225201658139755430_);}
	.st45{fill:url(#SVGID_00000155140327741748117450000007056813041815814535_);}
	.st46{fill:url(#SVGID_00000091696623483785492340000016708783938469945267_);}
	.st47{fill:url(#SVGID_00000026876001675111486230000000814467798604526985_);}
	.st48{fill:#FFFFFF;stroke:#FFFFFF;stroke-width:7.9684;stroke-linecap:round;stroke-linejoin:round;stroke-miterlimit:10;}
	.st49{fill:url(#SVGID_00000071537334870547854650000013890206860777425848_);}
	.st50{fill:url(#SVGID_00000125577136444594469240000015371091931396218027_);}
	.st51{fill:url(#SVGID_00000093879327160974960140000012852409580044803208_);}
	.st52{fill:url(#SVGID_00000049185009360421391940000015556009617980863400_);}
	.st53{fill:url(#SVGID_00000183237796052973495440000003555973050665157536_);}
	.st54{fill:url(#SVGID_00000057134775961817116900000015173173346733282484_);}
	.st55{fill:url(#SVGID_00000119079937398392004250000014805365430878864282_);}
	.st56{fill:url(#SVGID_00000095324562868130019080000010210413435506818450_);}
	.st57{fill:url(#SVGID_00000005957533704795918250000002752373889915861401_);}
	.st58{fill:url(#SVGID_00000114760540453972993740000014756204139986839436_);}
	.st59{fill:url(#SVGID_00000049187126438009863050000009853488234291541926_);}
	.st60{fill:url(#SVGID_00000041277101555316825850000015249618872671849365_);}
	.st61{fill:url(#SVGID_00000103255732807597275320000006142344727955996823_);}
	.st62{fill:url(#SVGID_00000119094414216270466040000015827144059238346923_);}
	.st63{fill:url(#SVGID_00000031200295668766031110000007630562330481727888_);}
	.st64{fill:url(#SVGID_00000047022986103338616600000016305643856786094744_);}
	.st65{fill:url(#SVGID_00000087414095340605382810000003689966028594763964_);}
	.st66{fill:url(#SVGID_00000003099268051444036180000016798875113037109926_);}
	.st67{fill:url(#SVGID_00000032650331685918690310000017782270668624358303_);}
	.st68{fill:url(#SVGID_00000014620369227291163710000016188334323225251206_);}
	.st69{fill:url(#SVGID_00000078033406344751068860000000793014174064308869_);}
	.st70{fill:url(#SVGID_00000085245191189144824040000000040289619688135350_);}
	.st71{fill:url(#SVGID_00000178178266341011966580000009207047543356661423_);}
	.st72{fill:url(#SVGID_00000035531047599653978070000007005258038186879422_);}
	.st73{clip-path:url(#SVGID_00000178895763153152182040000010696846167795044013_);}
	.st74{fill:url(#SVGID_00000105414005404342540320000006417024343319153572_);}
	.st75{fill:url(#SVGID_00000022530314701697806140000005500533566693874854_);}
	.st76{fill:url(#SVGID_00000123415381661540074410000018175061567197895044_);}
	.st77{fill:url(#SVGID_00000170971247970215136690000005842024472656787844_);}
	.st78{fill:url(#SVGID_00000168100580021744441340000018113311272360615588_);}
	.st79{fill:url(#SVGID_00000050652125221357611990000013999777423598596795_);}
	.st80{fill:url(#SVGID_00000003062949030740994040000010742009143024711858_);}
	.st81{fill:url(#SVGID_00000099628402874672312110000002032340274595588252_);}
	.st82{fill:url(#SVGID_00000018197655554385057080000009987601739897001898_);}
</style>
<g id="GPS">
</g>
<g id="References" class="st0">
</g>
<g id="Icons">
	<g>
		<g>
			<g>
				<g>
					<linearGradient id="SVGID_1_" gradientUnits="userSpaceOnUse" x1="58.7355" y1="260.8187" x2="460.7558" y2="260.8187">
						<stop  offset="0" style="stop-color:#F15D22"/>
						<stop  offset="1" style="stop-color:#ED2024"/>
					</linearGradient>
					<path class="st1" d="M259.75,59.81c-111.01,0-201.01,90-201.01,201.01c0,111.01,90,201.01,201.01,201.01
						c111.01,0,201.01-90,201.01-201.01C460.76,149.8,370.76,59.81,259.75,59.81z"/>
				</g>
			</g>
		</g>
		<g>
			<g>
				<path class="st3" d="M181.37,182.01c0,7.43,0.12,14.19-0.04,20.95c-0.13,5.6-5.08,9.47-9.52,7.07
					c-2.12-1.15-4.36-4.23-4.48-6.55c-0.51-9.48-0.38-19.01-0.17-28.51c0.1-4.56,2.95-7.06,7.58-7.12
					c9.07-0.11,18.15-0.09,27.23-0.01c4.77,0.05,7.94,3.17,7.8,7.38c-0.13,4.02-3.13,6.68-7.94,6.75
					C195.23,182.08,188.63,182.01,181.37,182.01z"/>
				<path class="st3" d="M181.36,339.67c6.3,0,11.9,0,17.49,0c1.3,0,2.6-0.08,3.89,0.04c4.32,0.39,7.16,3.36,7.03,7.25
					c-0.12,3.68-2.98,6.72-7.05,6.79c-9.5,0.17-19.01,0.17-28.51,0c-4.28-0.08-6.93-2.7-7.03-7.21c-0.23-9.5-0.19-19.01-0.01-28.51
					c0.08-4.2,3.47-7.27,7.18-7.16c3.69,0.11,6.87,3.25,6.98,7.45C181.49,325.22,181.36,332.12,181.36,339.67z"/>
				<path class="st3" d="M338.14,181.99c-5.58,0-10.73,0.01-15.88,0c-2.02,0-4.05,0.11-6.04-0.1c-4.05-0.42-6.65-3.41-6.51-7.24
					c0.12-3.47,2.93-6.67,6.65-6.74c9.79-0.18,19.59-0.25,29.38,0.02c4.2,0.12,6.52,3.11,6.59,7.2c0.16,9.5,0.21,19.01-0.04,28.51
					c-0.11,4.35-3.43,7.18-7.23,7.03c-3.8-0.15-6.8-3.22-6.88-7.47C338.04,196.33,338.14,189.44,338.14,181.99z"/>
				<path class="st3" d="M338.13,339.65c0-7.25-0.04-13.72,0.01-20.19c0.04-5.04,3.02-8.54,7.18-8.57c4-0.03,6.99,3.21,7.07,8.19
					c0.15,8.78,0.18,17.57,0.04,26.36c-0.09,5.8-2.84,8.35-8.64,8.38c-8.64,0.05-17.28,0.05-25.93-0.02
					c-4.92-0.04-8.11-2.89-8.14-7.04c-0.02-4.18,3.04-7,8.08-7.09C324.39,339.56,330.99,339.65,338.13,339.65z"/>
			</g>
			
				<rect x="239.94" y="200.89" transform="matrix(0.7071 -0.7071 0.7071 0.7071 -79.944 248.3488)" class="st6" width="39.75" height="39.56"/>
			
				<rect x="282" y="242.96" transform="matrix(0.7071 -0.7071 0.7071 0.7071 -97.3659 290.4089)" class="st6" width="39.75" height="39.56"/>
			
				<rect x="197.75" y="242.5" transform="matrix(0.7071 -0.7071 0.7071 0.7071 -121.7177 230.6992)" class="st6" width="39.75" height="39.56"/>
			
				<rect x="239.81" y="284.56" transform="matrix(0.7071 -0.7071 0.7071 0.7071 -139.1396 272.7593)" class="st6" width="39.75" height="39.56"/>
		</g>
	</g>
</g>
</svg>
