<?xml version="1.0" encoding="utf-8"?>
<!-- Generator: Adobe Illustrator 28.0.0, SVG Export Plug-In . SVG Version: 6.00 Build 0)  -->
<svg version="1.1" xmlns="http://www.w3.org/2000/svg" xmlns:xlink="http://www.w3.org/1999/xlink" x="0px" y="0px"
	 viewBox="0 0 511.68 511.68" style="enable-background:new 0 0 511.68 511.68;" xml:space="preserve">
<style type="text/css">
	.st0{display:none;}
	.st1{fill:url(#SVGID_1_);}
	.st2{fill:url(#SVGID_00000106847762565377314250000009146751196754713261_);}
	.st3{fill:url(#SVGID_00000021822141654311063630000007477039116141005955_);}
	.st4{fill:none;stroke:#FFFFFF;stroke-width:15;stroke-miterlimit:10;}
	.st5{fill:#FFFFFF;}
	.st6{fill:none;stroke:#FFFFFF;stroke-width:9;stroke-miterlimit:10;}
	.st7{fill:url(#SVGID_00000073702664558248334140000015562951038191660685_);}
	.st8{fill:none;stroke:#FFFFFF;stroke-width:15;stroke-linecap:round;stroke-linejoin:round;stroke-miterlimit:10;}
	.st9{fill:none;stroke:#FFFFFF;stroke-width:10;stroke-linecap:round;stroke-linejoin:round;stroke-miterlimit:10;}
	.st10{fill:url(#SVGID_00000038386964267297732010000004030250159690111163_);}
	.st11{fill:url(#SVGID_00000114769164514265121140000004281612707552464051_);}
	.st12{fill:url(#SVGID_00000142165451791443193820000000178175822807760778_);}
	.st13{fill:url(#SVGID_00000057826427885535392100000017506224831038418333_);}
	.st14{fill:url(#SVGID_00000073680871560820650300000006487285309193534636_);}
	.st15{fill:url(#SVGID_00000183963630964769747920000008193837299286187178_);}
	.st16{fill:url(#SVGID_00000015319707392235009460000012841108851288248203_);}
	.st17{fill:url(#SVGID_00000127767080271201263400000007418343965648359054_);}
	.st18{fill:url(#SVGID_00000014620197896442724500000008483690094341005220_);}
	.st19{fill:url(#SVGID_00000168104972041963341280000014657285956851251899_);}
	.st20{fill:url(#SVGID_00000182530333874540783780000016828467511399453110_);}
	.st21{fill:url(#SVGID_00000167391407196734592860000011935528350171167621_);}
	.st22{fill:url(#SVGID_00000132780457953672811440000004334288806275027843_);}
	.st23{fill:url(#SVGID_00000018199152802191675360000001657165016150484668_);}
	.st24{fill:url(#SVGID_00000108303710956123989390000003651090909643897778_);}
	.st25{fill:url(#SVGID_00000090975338156780019760000009627602976776438450_);}
	.st26{fill:url(#SVGID_00000054240121743618785830000007365503837233441408_);}
	.st27{fill:url(#SVGID_00000059300020171617535460000011566240770017315993_);}
	.st28{fill:#BCBEC0;}
	.st29{fill:url(#SVGID_00000048499929555311923800000008999091013616902332_);}
	.st30{fill:url(#SVGID_00000066498874323009177280000010584844954393975981_);}
	.st31{fill-rule:evenodd;clip-rule:evenodd;fill:#FFFFFF;}
	.st32{fill:none;stroke:#FFFFFF;stroke-width:9.8091;stroke-linecap:round;stroke-linejoin:round;stroke-miterlimit:10;}
	.st33{clip-path:url(#SVGID_00000138541424373123670170000005580236815509209251_);}
	.st34{fill:none;stroke:#FFFFFF;stroke-width:6.402;stroke-miterlimit:10;}
	.st35{fill:url(#SVGID_00000142167965642593334330000006995738410187424413_);}
	.st36{fill:none;stroke:#FFFFFF;stroke-width:14.3924;stroke-linecap:round;stroke-linejoin:round;stroke-miterlimit:10;}
	.st37{fill:none;stroke:#FFFFFF;stroke-width:8;stroke-linecap:round;stroke-linejoin:round;stroke-miterlimit:10;}
	.st38{fill:url(#SVGID_00000178886820123450856080000002744996384965003679_);}
	.st39{fill:#FFFFFF;stroke:#FFFFFF;stroke-width:2.9178;stroke-miterlimit:10;}
	.st40{fill:url(#SVGID_00000114784933309611692190000012885288695976583601_);}
	.st41{fill:url(#SVGID_00000057126429522497472540000001929245869825087110_);}
	.st42{fill:url(#SVGID_00000106829165627540634390000000664565467103126421_);}
	.st43{fill:none;stroke:#FFFFFF;stroke-width:10.1249;stroke-linecap:round;stroke-linejoin:round;stroke-miterlimit:10;}
	.st44{fill:url(#SVGID_00000068660458486786678040000002463306534385935528_);}
	.st45{fill:url(#SVGID_00000150070017411438277080000003250622785470539938_);}
	.st46{fill:url(#SVGID_00000030480028926631011810000016059233819504386196_);}
</style>
<g id="GPS">
</g>
<g id="References" class="st0">
</g>
<g id="Icons">
	<g>
		<path d="M154.24,454.43h4.17c0.47,0,0.84,0.12,1.13,0.35s0.5,0.53,0.65,0.89l10.91,27.23c0.25,0.61,0.48,1.27,0.69,1.99
			c0.21,0.72,0.41,1.46,0.61,2.24c0.16-0.77,0.34-1.52,0.52-2.24c0.19-0.72,0.41-1.38,0.66-1.99l10.85-27.23
			c0.12-0.3,0.34-0.59,0.65-0.85c0.3-0.26,0.68-0.39,1.13-0.39h4.2l-15.73,38.59h-4.71L154.24,454.43z"/>
		<path d="M200.99,457.17c0,0.47-0.09,0.9-0.28,1.31s-0.44,0.76-0.75,1.08s-0.68,0.56-1.09,0.74c-0.41,0.18-0.85,0.27-1.32,0.27
			s-0.9-0.09-1.31-0.27c-0.4-0.18-0.76-0.43-1.08-0.74s-0.56-0.67-0.74-1.08c-0.18-0.4-0.27-0.84-0.27-1.31
			c0-0.47,0.09-0.91,0.27-1.33c0.18-0.42,0.43-0.79,0.74-1.1c0.31-0.31,0.67-0.56,1.08-0.74c0.4-0.18,0.84-0.27,1.31-0.27
			s0.91,0.09,1.32,0.27c0.41,0.18,0.78,0.43,1.09,0.74c0.31,0.31,0.57,0.68,0.75,1.1S200.99,456.71,200.99,457.17z M199.92,465.74
			v27.28h-4.79v-27.28H199.92z"/>
		<path d="M227.57,493.02c-0.68,0-1.11-0.33-1.29-1l-0.43-3.31c-1.17,1.42-2.5,2.55-4,3.41c-1.5,0.85-3.22,1.28-5.16,1.28
			c-1.56,0-2.98-0.3-4.26-0.9c-1.28-0.6-2.36-1.49-3.26-2.65s-1.59-2.62-2.07-4.36c-0.48-1.74-0.73-3.74-0.73-6
			c0-2.01,0.27-3.88,0.81-5.62c0.54-1.73,1.32-3.24,2.33-4.51c1.01-1.27,2.25-2.28,3.7-3c1.45-0.73,3.11-1.09,4.96-1.09
			c1.67,0,3.1,0.28,4.28,0.85s2.24,1.36,3.18,2.38v-15.14h4.79v39.67H227.57z M218.28,489.52c1.56,0,2.93-0.36,4.11-1.08
			s2.26-1.73,3.25-3.04v-13.2c-0.88-1.19-1.84-2.02-2.9-2.49c-1.05-0.48-2.21-0.71-3.49-0.71c-2.55,0-4.51,0.91-5.87,2.72
			s-2.05,4.4-2.05,7.76c0,1.78,0.15,3.3,0.46,4.56s0.75,2.31,1.35,3.12c0.59,0.82,1.32,1.41,2.18,1.79S217.17,489.52,218.28,489.52z
			"/>
		<path d="M249.28,465.31c1.63,0,3.14,0.27,4.52,0.82s2.58,1.34,3.58,2.37s1.79,2.31,2.36,3.82c0.56,1.52,0.85,3.25,0.85,5.18
			c0,0.75-0.08,1.26-0.24,1.51c-0.16,0.25-0.47,0.38-0.92,0.38h-18.15c0.04,1.72,0.27,3.22,0.7,4.5c0.43,1.28,1.02,2.34,1.78,3.19
			c0.75,0.85,1.65,1.49,2.69,1.91s2.21,0.63,3.5,0.63c1.2,0,2.24-0.14,3.11-0.42s1.62-0.58,2.25-0.9c0.63-0.32,1.15-0.62,1.57-0.9
			s0.79-0.42,1.09-0.42c0.4,0,0.7,0.15,0.92,0.46l1.35,1.75c-0.59,0.72-1.3,1.34-2.13,1.87s-1.71,0.96-2.65,1.31
			c-0.94,0.34-1.92,0.6-2.92,0.77c-1.01,0.17-2,0.26-2.99,0.26c-1.89,0-3.62-0.32-5.21-0.96s-2.96-1.57-4.12-2.8
			c-1.16-1.23-2.06-2.75-2.71-4.56s-0.97-3.9-0.97-6.25c0-1.9,0.29-3.68,0.88-5.33c0.58-1.65,1.42-3.08,2.52-4.29
			c1.09-1.21,2.43-2.16,4.01-2.86C245.53,465.65,247.3,465.31,249.28,465.31z M249.39,468.83c-2.32,0-4.14,0.67-5.47,2.01
			c-1.33,1.34-2.15,3.19-2.48,5.56h14.84c0-1.11-0.15-2.13-0.46-3.06c-0.3-0.92-0.75-1.72-1.35-2.4c-0.59-0.67-1.32-1.19-2.17-1.56
			C251.46,469.02,250.48,468.83,249.39,468.83z"/>
		<path d="M277.75,465.31c1.99,0,3.79,0.33,5.4,1s2.97,1.61,4.09,2.83c1.12,1.22,1.98,2.7,2.59,4.43c0.6,1.73,0.9,3.67,0.9,5.8
			c0,2.15-0.3,4.09-0.9,5.82c-0.6,1.72-1.46,3.2-2.59,4.42c-1.12,1.22-2.49,2.16-4.09,2.81c-1.61,0.65-3.41,0.98-5.4,0.98
			c-1.99,0-3.79-0.33-5.4-0.98c-1.61-0.66-2.98-1.59-4.11-2.81s-2-2.69-2.61-4.42c-0.61-1.72-0.91-3.66-0.91-5.82
			c0-2.14,0.3-4.07,0.91-5.8c0.61-1.73,1.48-3.21,2.61-4.43s2.5-2.16,4.11-2.83C273.95,465.64,275.75,465.31,277.75,465.31z
			 M277.75,489.65c2.69,0,4.71-0.9,6.03-2.71c1.33-1.8,1.99-4.32,1.99-7.55c0-3.25-0.66-5.78-1.99-7.59s-3.34-2.72-6.03-2.72
			c-1.36,0-2.55,0.23-3.55,0.7s-1.84,1.14-2.52,2.02s-1.18,1.96-1.51,3.25c-0.33,1.28-0.5,2.73-0.5,4.35c0,1.62,0.17,3.06,0.5,4.34
			s0.83,2.35,1.51,3.22c0.67,0.87,1.51,1.54,2.52,2.01S276.38,489.65,277.75,489.65z"/>
		<path d="M303.14,471.34h1.97c0.68,0,1.22-0.08,1.63-0.26c0.4-0.17,0.79-0.46,1.14-0.88l12.85-14.54c0.39-0.45,0.78-0.77,1.14-0.96
			s0.84-0.28,1.41-0.28h4.44l-14.71,16.62c-0.38,0.41-0.73,0.76-1.06,1.05c-0.33,0.29-0.69,0.52-1.06,0.7
			c0.5,0.16,0.94,0.4,1.32,0.73s0.77,0.73,1.19,1.21l15.35,18.29h-4.52c-0.34,0-0.63-0.03-0.86-0.08c-0.23-0.05-0.44-0.12-0.61-0.21
			s-0.33-0.21-0.47-0.35c-0.14-0.14-0.29-0.3-0.43-0.46l-13.33-15.32c-0.2-0.22-0.38-0.4-0.55-0.55c-0.17-0.15-0.37-0.28-0.59-0.39
			c-0.22-0.11-0.48-0.18-0.78-0.23s-0.66-0.07-1.09-0.07h-2.37v17.67h-5.2v-38.59h5.2V471.34z"/>
		<path d="M339.74,457.17c0,0.47-0.1,0.9-0.28,1.31c-0.19,0.4-0.44,0.76-0.75,1.08c-0.31,0.31-0.68,0.56-1.09,0.74
			c-0.41,0.18-0.85,0.27-1.32,0.27s-0.9-0.09-1.31-0.27c-0.4-0.18-0.76-0.43-1.08-0.74s-0.56-0.67-0.74-1.08s-0.27-0.84-0.27-1.31
			c0-0.47,0.09-0.91,0.27-1.33s0.43-0.79,0.74-1.1c0.31-0.31,0.67-0.56,1.08-0.74c0.4-0.18,0.84-0.27,1.31-0.27s0.91,0.09,1.32,0.27
			c0.41,0.18,0.78,0.43,1.09,0.74c0.31,0.31,0.56,0.68,0.75,1.1C339.65,456.26,339.74,456.71,339.74,457.17z M338.66,465.74v27.28
			h-4.79v-27.28H338.66z"/>
		<path d="M355.39,493.45c-2.15,0-3.81-0.6-4.97-1.8c-1.16-1.2-1.74-2.94-1.74-5.2v-16.7h-3.29c-0.29,0-0.53-0.08-0.73-0.26
			c-0.2-0.17-0.3-0.44-0.3-0.79v-1.91l4.47-0.57l1.11-8.43c0.04-0.27,0.15-0.49,0.35-0.66s0.45-0.26,0.75-0.26h2.42v9.4h7.81v3.47
			h-7.81v16.37c0,1.15,0.28,2,0.84,2.56c0.55,0.56,1.27,0.83,2.15,0.83c0.5,0,0.94-0.07,1.3-0.2c0.37-0.13,0.69-0.28,0.96-0.44
			c0.27-0.16,0.5-0.31,0.69-0.44c0.19-0.13,0.36-0.2,0.5-0.2c0.25,0,0.47,0.15,0.67,0.46l1.4,2.29c-0.83,0.77-1.82,1.38-2.99,1.82
			C357.83,493.23,356.63,493.45,355.39,493.45z"/>
	</g>
	<g>
		<g>
			<linearGradient id="SVGID_1_" gradientUnits="userSpaceOnUse" x1="60.3632" y1="224.9683" x2="462.3835" y2="224.9683">
				<stop  offset="0" style="stop-color:#F15D22"/>
				<stop  offset="1" style="stop-color:#ED2024"/>
			</linearGradient>
			<path class="st1" d="M261.37,23.96c-111.01,0-201.01,90-201.01,201.01c0,111.01,90,201.01,201.01,201.01
				c111.01,0,201.01-90,201.01-201.01C462.38,113.95,372.39,23.96,261.37,23.96z"/>
		</g>
		<g>
			<path class="st5" d="M183,148.39c0,7.43,0.12,14.19-0.04,20.95c-0.13,5.6-5.08,9.47-9.52,7.07c-2.12-1.15-4.36-4.23-4.48-6.55
				c-0.51-9.48-0.38-19.01-0.17-28.51c0.1-4.56,2.95-7.06,7.58-7.12c9.07-0.11,18.15-0.09,27.23-0.01c4.77,0.05,7.94,3.17,7.8,7.38
				c-0.13,4.02-3.13,6.68-7.94,6.75C196.86,148.46,190.25,148.39,183,148.39z"/>
			<path class="st5" d="M182.99,306.04c6.3,0,11.9,0,17.49,0c1.3,0,2.6-0.08,3.89,0.04c4.32,0.39,7.16,3.36,7.03,7.25
				c-0.12,3.68-2.98,6.72-7.05,6.79c-9.5,0.17-19.01,0.17-28.51,0c-4.28-0.08-6.93-2.7-7.03-7.21c-0.23-9.5-0.19-19.01-0.01-28.51
				c0.08-4.2,3.47-7.27,7.18-7.16c3.69,0.11,6.87,3.25,6.98,7.45C183.12,291.6,182.99,298.5,182.99,306.04z"/>
			<path class="st5" d="M339.76,148.37c-5.58,0-10.73,0.01-15.88,0c-2.02,0-4.05,0.11-6.04-0.1c-4.05-0.42-6.65-3.41-6.51-7.24
				c0.12-3.47,2.93-6.67,6.65-6.74c9.79-0.18,19.59-0.25,29.38,0.02c4.2,0.12,6.52,3.11,6.59,7.2c0.16,9.5,0.21,19.01-0.04,28.51
				c-0.11,4.35-3.43,7.18-7.23,7.03c-3.8-0.15-6.8-3.22-6.88-7.47C339.66,162.7,339.76,155.82,339.76,148.37z"/>
			<path class="st5" d="M339.76,306.02c0-7.25-0.04-13.72,0.01-20.19c0.04-5.04,3.02-8.54,7.18-8.57c4-0.03,6.99,3.21,7.07,8.19
				c0.15,8.78,0.18,17.57,0.04,26.36c-0.09,5.8-2.84,8.35-8.64,8.38c-8.64,0.05-17.28,0.05-25.93-0.02
				c-4.92-0.04-8.11-2.89-8.14-7.04c-0.02-4.18,3.04-7,8.08-7.09C326.02,305.93,332.62,306.02,339.76,306.02z"/>
			<g>
				<path class="st5" d="M245.07,269.58c-11.2,0-22.41,0.01-33.61-0.01c-5.51-0.01-7.64-2.12-7.65-7.56
					c-0.01-12.46-0.02-24.92,0-37.38c0.01-5.15,2.1-7.25,7.25-7.25c22.51-0.02,45.02-0.02,67.53,0c5.29,0,7.49,2.19,7.5,7.4
					c0.02,12.46,0.02,24.92,0,37.38c-0.01,5.33-2.08,7.41-7.42,7.42C267.47,269.6,256.27,269.58,245.07,269.58z"/>
				<path class="st5" d="M271.05,169.36c12.33,0.06,22.41,10.15,22.42,22.44c0.01,12.63-10.25,22.76-22.88,22.6
					c-12.4-0.16-22.27-10.19-22.22-22.59C248.42,179.29,258.5,169.31,271.05,169.36z"/>
				<path class="st5" d="M320.29,243.3c0,7.22,0.03,14.44-0.02,21.66c-0.02,3.11-0.9,3.55-3.58,1.88
					c-8.34-5.21-16.68-10.41-24.93-15.76c-0.93-0.6-1.28-2.11-1.86-3.21c-0.09-0.16-0.02-0.41-0.01-0.62
					c0.06-3.76-1.1-8.2,0.51-11.09c1.6-2.88,5.96-4.25,9.16-6.21c5.62-3.44,11.27-6.83,16.93-10.21c3.08-1.84,3.73-1.43,3.8,2.21
					c0,0.1,0,0.21,0,0.31C320.29,229.28,320.29,236.29,320.29,243.3z"/>
				<path class="st5" d="M239.6,196.9c0.21,9.54-7.23,17.31-16.78,17.5c-9.41,0.19-17.12-7.15-17.39-16.54
					c-0.28-9.57,7.13-17.46,16.59-17.67C231.55,179.97,239.38,187.42,239.6,196.9z"/>
			</g>
		</g>
	</g>
</g>
</svg>
