<?xml version="1.0" encoding="utf-8"?>
<!-- Generator: Adobe Illustrator 28.0.0, SVG Export Plug-In . SVG Version: 6.00 Build 0)  -->
<svg version="1.1" xmlns="http://www.w3.org/2000/svg" xmlns:xlink="http://www.w3.org/1999/xlink" x="0px" y="0px"
	 viewBox="0 0 511.68 511.68" style="enable-background:new 0 0 511.68 511.68;" xml:space="preserve">
<style type="text/css">
	.st0{display:none;}
	.st1{fill:url(#SVGID_1_);}
	.st2{fill:none;stroke:#FFFFFF;stroke-width:15;stroke-miterlimit:10;}
	.st3{fill:#FFFFFF;}
	.st4{fill:none;stroke:#FFFFFF;stroke-width:9;stroke-miterlimit:10;}
	.st5{fill:url(#SVGID_00000119840355984250977380000008725222693975976889_);}
	.st6{fill:none;stroke:#FFFFFF;stroke-width:15;stroke-linecap:round;stroke-linejoin:round;stroke-miterlimit:10;}
	.st7{fill:none;stroke:#FFFFFF;stroke-width:10;stroke-linecap:round;stroke-linejoin:round;stroke-miterlimit:10;}
	.st8{fill:url(#SVGID_00000177446206596251089800000009192800224826112438_);}
	.st9{fill:url(#SVGID_00000124870878820835350210000011662561452469756815_);}
	.st10{fill:url(#SVGID_00000018224720716641503440000018345471812591214226_);}
	.st11{fill:url(#SVGID_00000094588237828459776770000012123660478754225068_);}
	.st12{fill:url(#SVGID_00000182488212982561171910000013459927898857926065_);}
	.st13{fill:url(#SVGID_00000177450664998376146810000002657542274949479074_);}
	.st14{fill:url(#SVGID_00000181771697648084084100000008301323019192958115_);}
	.st15{fill:url(#SVGID_00000130637151623017421750000016463115689331261356_);}
	.st16{fill:url(#SVGID_00000031925067635724276840000015668633032175129241_);}
	.st17{fill:url(#SVGID_00000049935834506515891640000016212992438879170745_);}
	.st18{fill:url(#SVGID_00000162344485777133064030000002775920448340815800_);}
	.st19{fill:url(#SVGID_00000160179597411731874810000008790911147371018682_);}
	.st20{fill:url(#SVGID_00000051370308574191472750000011250170755342466734_);}
	.st21{fill:url(#SVGID_00000131357447875216880890000006535562977784768408_);}
	.st22{fill:url(#SVGID_00000047776691169244570630000011346198030101356470_);}
	.st23{fill:url(#SVGID_00000032642260776674850860000015416844360400767423_);}
	.st24{fill:url(#SVGID_00000094584880888379877010000002043918413970883240_);}
	.st25{fill:#BCBEC0;}
	.st26{fill:url(#SVGID_00000056397264319047344120000003077317674280408996_);}
	.st27{fill:url(#SVGID_00000000906508714016146740000009366221349462211982_);}
	.st28{fill-rule:evenodd;clip-rule:evenodd;fill:#FFFFFF;}
	.st29{fill:url(#SVGID_00000119796335740108639880000013016731388313500302_);}
	.st30{fill:none;stroke:#FFFFFF;stroke-width:9.8091;stroke-linecap:round;stroke-linejoin:round;stroke-miterlimit:10;}
	.st31{fill:url(#SVGID_00000101099219619141003370000005409455245225017778_);}
	.st32{fill:url(#SVGID_00000127010636586785744710000001565191984505645982_);}
	.st33{clip-path:url(#SVGID_00000003106526288708891820000014526587587434083477_);}
	.st34{fill:none;stroke:#FFFFFF;stroke-width:6.402;stroke-miterlimit:10;}
	.st35{fill:url(#SVGID_00000068653874285958848900000014213159682293402281_);}
	.st36{fill:none;stroke:#FFFFFF;stroke-width:14.3924;stroke-linecap:round;stroke-linejoin:round;stroke-miterlimit:10;}
	.st37{fill:none;stroke:#FFFFFF;stroke-width:8;stroke-linecap:round;stroke-linejoin:round;stroke-miterlimit:10;}
	.st38{fill:url(#SVGID_00000094585378219422295860000000645498786973906578_);}
	.st39{fill:#FFFFFF;stroke:#FFFFFF;stroke-width:2.9178;stroke-miterlimit:10;}
	.st40{fill:url(#SVGID_00000068639245851165331500000014775358443598465966_);}
	.st41{fill:url(#SVGID_00000068652914376872668800000015831278450395497346_);}
	.st42{fill:url(#SVGID_00000017499962261335692040000002474085892431330444_);}
	.st43{fill:none;stroke:#FFFFFF;stroke-width:10.1249;stroke-linecap:round;stroke-linejoin:round;stroke-miterlimit:10;}
	.st44{fill:url(#SVGID_00000008123728259692808550000004410210226695869352_);}
	.st45{fill:url(#SVGID_00000052097979460062280280000000396385822857275299_);}
	.st46{fill:url(#SVGID_00000116942523376390577650000012905828968613466549_);}
	.st47{fill:url(#SVGID_00000044154904587965864090000002918107967777382588_);}
	.st48{fill:#FFFFFF;stroke:#FFFFFF;stroke-width:7.9684;stroke-linecap:round;stroke-linejoin:round;stroke-miterlimit:10;}
	.st49{fill:url(#SVGID_00000009563981173726172220000010622346601034141317_);}
	.st50{fill:url(#SVGID_00000002359405171875275750000008769572747101901445_);}
	.st51{fill:url(#SVGID_00000010287410716954189950000003430554155742914748_);}
	.st52{fill:url(#SVGID_00000150816498245121776580000017864936835443869858_);}
	.st53{fill:url(#SVGID_00000151503465177929460640000001677794673635811257_);}
	.st54{fill:url(#SVGID_00000133528738265669425100000008563886213595967651_);}
	.st55{fill:url(#SVGID_00000156588320770198531240000015885045531119665050_);}
	.st56{fill:url(#SVGID_00000138557502361273883260000017822855111219463097_);}
	.st57{fill:url(#SVGID_00000106117385275080758810000004387533267148051585_);}
	.st58{fill:url(#SVGID_00000183210100261105188770000011215534640266600611_);}
	.st59{fill:url(#SVGID_00000010297944893321221770000002348448024743808417_);}
	.st60{fill:url(#SVGID_00000032635646306973170020000010631783918447390856_);}
	.st61{fill:url(#SVGID_00000044151403258629035980000014817217717740122022_);}
	.st62{fill:url(#SVGID_00000015348590155923410500000002703432199208734366_);}
	.st63{fill:url(#SVGID_00000021799467128771053530000007712540585198512272_);}
	.st64{fill:url(#SVGID_00000152241980110682688590000002260495676935259579_);}
	.st65{fill:url(#SVGID_00000023276580489729218800000010908395844715693706_);}
	.st66{fill:url(#SVGID_00000088853831254558324060000011433708949216373901_);}
	.st67{fill:url(#SVGID_00000022546956505632617010000004434210899164267660_);}
	.st68{fill:url(#SVGID_00000065071543749931834680000002540172253785622435_);}
	.st69{fill:url(#SVGID_00000102528590978970718980000001612510841544010412_);}
	.st70{fill:url(#SVGID_00000000927447110353185810000008007569060329514385_);}
	.st71{fill:url(#SVGID_00000087376281178810285580000011235388351283796926_);}
	.st72{fill:url(#SVGID_00000132793091848466938500000013413935190544224915_);}
	.st73{clip-path:url(#SVGID_00000002374172460686472670000017464169958499940006_);}
	.st74{fill:url(#SVGID_00000155124269697648420630000018151848489710333858_);}
	.st75{fill:url(#SVGID_00000006683909957546612690000006540254801067494320_);}
	.st76{fill:url(#SVGID_00000137131435565429192220000000655581517637450676_);}
	.st77{fill:url(#SVGID_00000078045961223389922330000010986850961626887100_);}
	.st78{fill:url(#SVGID_00000173844643094442631250000003852402407724846733_);}
	.st79{fill:url(#SVGID_00000136391304930599450530000003011288243831721890_);}
	.st80{fill:url(#SVGID_00000110439157194062468110000000260770718468077499_);}
	.st81{fill:url(#SVGID_00000062169332623585838800000010636389513651664792_);}
	.st82{fill:url(#SVGID_00000175292251575358897380000012401948226639357886_);}
</style>
<g id="GPS">
</g>
<g id="References" class="st0">
</g>
<g id="Icons">
	<g>
		<g>
			<linearGradient id="SVGID_1_" gradientUnits="userSpaceOnUse" x1="60.3632" y1="260.0511" x2="462.3835" y2="260.0511">
				<stop  offset="0" style="stop-color:#F15D22"/>
				<stop  offset="1" style="stop-color:#ED2024"/>
			</linearGradient>
			<path class="st1" d="M261.37,59.04c-111.01,0-201.01,90-201.01,201.01c0,111.01,90,201.01,201.01,201.01
				c111.01,0,201.01-90,201.01-201.01C462.38,149.04,372.39,59.04,261.37,59.04z"/>
		</g>
		<g>
			<path class="st3" d="M183,183.47c0,7.43,0.12,14.19-0.04,20.95c-0.13,5.6-5.08,9.47-9.52,7.07c-2.12-1.15-4.36-4.23-4.48-6.55
				c-0.51-9.48-0.38-19.01-0.17-28.51c0.1-4.56,2.95-7.06,7.58-7.12c9.07-0.11,18.15-0.09,27.23-0.01c4.77,0.05,7.94,3.17,7.8,7.38
				c-0.13,4.02-3.13,6.68-7.94,6.75C196.86,183.54,190.25,183.47,183,183.47z"/>
			<path class="st3" d="M182.99,341.13c6.3,0,11.9,0,17.49,0c1.3,0,2.6-0.08,3.89,0.04c4.32,0.39,7.16,3.36,7.03,7.25
				c-0.12,3.68-2.98,6.72-7.05,6.79c-9.5,0.17-19.01,0.17-28.51,0c-4.28-0.08-6.93-2.7-7.03-7.21c-0.23-9.5-0.19-19.01-0.01-28.51
				c0.08-4.2,3.47-7.27,7.18-7.16c3.69,0.11,6.87,3.25,6.98,7.45C183.12,326.68,182.99,333.58,182.99,341.13z"/>
			<path class="st3" d="M339.76,183.45c-5.58,0-10.73,0.01-15.88,0c-2.02,0-4.05,0.11-6.04-0.1c-4.05-0.42-6.65-3.41-6.51-7.24
				c0.12-3.47,2.93-6.67,6.65-6.74c9.79-0.18,19.59-0.25,29.38,0.02c4.2,0.12,6.52,3.11,6.59,7.2c0.16,9.5,0.21,19.01-0.04,28.51
				c-0.11,4.35-3.43,7.18-7.23,7.03c-3.8-0.15-6.8-3.22-6.88-7.47C339.66,197.79,339.76,190.9,339.76,183.45z"/>
			<path class="st3" d="M339.76,341.11c0-7.25-0.04-13.72,0.01-20.19c0.04-5.04,3.02-8.54,7.18-8.57c4-0.03,6.99,3.21,7.07,8.19
				c0.15,8.78,0.18,17.57,0.04,26.36c-0.09,5.8-2.84,8.35-8.64,8.38c-8.64,0.05-17.28,0.05-25.93-0.02
				c-4.92-0.04-8.11-2.89-8.14-7.04c-0.02-4.18,3.04-7,8.08-7.09C326.02,341.01,332.62,341.11,339.76,341.11z"/>
			<g>
				<path class="st3" d="M245.07,304.66c-11.2,0-22.41,0.01-33.61-0.01c-5.51-0.01-7.64-2.12-7.65-7.56
					c-0.01-12.46-0.02-24.92,0-37.38c0.01-5.15,2.1-7.25,7.25-7.25c22.51-0.02,45.02-0.02,67.53,0c5.29,0,7.49,2.19,7.5,7.4
					c0.02,12.46,0.02,24.92,0,37.38c-0.01,5.33-2.08,7.41-7.42,7.42C267.47,304.68,256.27,304.66,245.07,304.66z"/>
				<path class="st3" d="M271.05,204.45c12.33,0.06,22.41,10.15,22.42,22.44c0.01,12.63-10.25,22.76-22.88,22.6
					c-12.4-0.16-22.27-10.19-22.22-22.59C248.42,214.37,258.5,204.39,271.05,204.45z"/>
				<path class="st3" d="M320.29,278.38c0,7.22,0.03,14.44-0.02,21.66c-0.02,3.11-0.9,3.55-3.58,1.88
					c-8.34-5.21-16.68-10.41-24.93-15.76c-0.93-0.6-1.28-2.11-1.86-3.21c-0.09-0.16-0.02-0.41-0.01-0.62
					c0.06-3.76-1.1-8.2,0.51-11.09c1.6-2.88,5.96-4.25,9.16-6.21c5.62-3.44,11.27-6.83,16.93-10.21c3.08-1.84,3.73-1.43,3.8,2.21
					c0,0.1,0,0.21,0,0.31C320.29,264.36,320.29,271.37,320.29,278.38z"/>
				<path class="st3" d="M239.6,231.99c0.21,9.54-7.23,17.31-16.78,17.5c-9.41,0.19-17.12-7.15-17.39-16.54
					c-0.28-9.57,7.13-17.46,16.59-17.67C231.55,215.05,239.38,222.5,239.6,231.99z"/>
			</g>
		</g>
	</g>
</g>
</svg>
