<?xml version="1.0" encoding="utf-8"?>
<!-- Generator: Adobe Illustrator 28.0.0, SVG Export Plug-In . SVG Version: 6.00 Build 0)  -->
<svg version="1.1" xmlns="http://www.w3.org/2000/svg" xmlns:xlink="http://www.w3.org/1999/xlink" x="0px" y="0px"
	 viewBox="0 0 512 512" style="enable-background:new 0 0 512 512;" xml:space="preserve">
<style type="text/css">
	.st0{fill:url(#SVGID_1_);}
	.st1{fill:url(#SVGID_00000117668642684905718000000018026447275103896215_);}
	.st2{fill:url(#SVGID_00000020370837456651480780000010350662676199861169_);}
	.st3{fill:none;stroke:#FFFFFF;stroke-width:15;stroke-miterlimit:10;}
	.st4{fill:#FFFFFF;}
	.st5{fill:none;stroke:#FFFFFF;stroke-width:9;stroke-miterlimit:10;}
	.st6{fill:url(#SVGID_00000183233018671779571280000006989098555983111574_);}
	.st7{fill:none;stroke:#FFFFFF;stroke-width:15;stroke-linecap:round;stroke-linejoin:round;stroke-miterlimit:10;}
	.st8{fill:none;stroke:#FFFFFF;stroke-width:10;stroke-linecap:round;stroke-linejoin:round;stroke-miterlimit:10;}
	.st9{fill:url(#SVGID_00000037653921868087527400000003652703643725910961_);}
	.st10{fill:url(#SVGID_00000039101722783606840060000010279887541592160432_);}
	.st11{fill:url(#SVGID_00000178202267106961781280000018165264263848603026_);}
	.st12{fill:url(#SVGID_00000058588455453868834290000004920869897689350818_);}
	.st13{fill:url(#SVGID_00000036948145651207063780000010463298481387059388_);}
	.st14{fill:url(#SVGID_00000040555463530849384360000005693181235669744272_);}
	.st15{fill:url(#SVGID_00000088122439337199424620000017565867970744592552_);}
	.st16{fill:url(#SVGID_00000124120084118627442020000007278968116241408692_);}
	.st17{fill:url(#SVGID_00000032625899193084954840000012925641344856571053_);}
	.st18{fill:url(#SVGID_00000041995218131814970630000003811196896558287011_);}
	.st19{fill:url(#SVGID_00000089568738239334640980000012985527432285323651_);}
	.st20{fill:url(#SVGID_00000069364143108738036680000018301296476643024001_);}
	.st21{fill:url(#SVGID_00000007397108407554084980000010869509234900073643_);}
	.st22{fill:url(#SVGID_00000092436039223674576930000010459957218987352223_);}
	.st23{fill:url(#SVGID_00000069362675327064376830000003282529003598308020_);}
	.st24{fill:url(#SVGID_00000047018859534790857560000005045527770860463751_);}
	.st25{fill:url(#SVGID_00000175289110251185519240000007641403235416314517_);}
	.st26{fill:url(#SVGID_00000088854778601806223340000007001898666190963868_);}
	.st27{fill:#BCBEC0;}
	.st28{fill:url(#SVGID_00000174583970670022742950000015813443060699947675_);}
	.st29{fill:url(#SVGID_00000043422164451307102290000001247890664312677307_);}
	.st30{fill-rule:evenodd;clip-rule:evenodd;fill:#FFFFFF;}
	.st31{clip-path:url(#SVGID_00000062889130904753067490000003262679935543962040_);}
	.st32{fill:none;stroke:#FFFFFF;stroke-width:15.6378;stroke-miterlimit:10;}
	.st33{fill:none;stroke:#FFFFFF;stroke-width:9.8091;stroke-linecap:round;stroke-linejoin:round;stroke-miterlimit:10;}
	.st34{fill:url(#SVGID_00000111893090430889084570000017048250499077250990_);}
	.st35{fill:none;stroke:#FFFFFF;stroke-width:14.3924;stroke-linecap:round;stroke-linejoin:round;stroke-miterlimit:10;}
	.st36{fill:none;stroke:#FFFFFF;stroke-width:8;stroke-linecap:round;stroke-linejoin:round;stroke-miterlimit:10;}
	.st37{fill:url(#SVGID_00000125567092529266577460000002843575764823617427_);}
	.st38{fill:#FFFFFF;stroke:#FFFFFF;stroke-width:2.9178;stroke-miterlimit:10;}
</style>
<g id="GPS">
</g>
<g id="Icons">
	<g>
		<linearGradient id="SVGID_1_" gradientUnits="userSpaceOnUse" x1="42.0673" y1="227.1326" x2="448.9368" y2="227.1326">
			<stop  offset="0" style="stop-color:#F15D22"/>
			<stop  offset="1" style="stop-color:#ED2024"/>
		</linearGradient>
		<circle class="st0" cx="245.5" cy="227.13" r="203.43"/>
	</g>
	<g>
		<path d="M196.83,490.06v-38.59h12.31c2.37,0,4.41,0.23,6.13,0.7c1.71,0.47,3.12,1.13,4.23,1.99c1.1,0.86,1.92,1.92,2.45,3.17
			s0.79,2.65,0.79,4.21c0,0.95-0.15,1.87-0.44,2.75c-0.3,0.88-0.75,1.7-1.35,2.45s-1.36,1.43-2.26,2.02
			c-0.91,0.59-1.97,1.08-3.19,1.45c2.82,0.56,4.95,1.57,6.38,3.04c1.44,1.47,2.16,3.41,2.16,5.82c0,1.63-0.3,3.12-0.9,4.47
			c-0.6,1.35-1.48,2.5-2.64,3.47s-2.58,1.72-4.25,2.25c-1.68,0.53-3.6,0.79-5.75,0.79H196.83z M202.05,468.75h6.89
			c1.47,0,2.75-0.16,3.82-0.48s1.97-0.77,2.68-1.35c0.71-0.57,1.23-1.27,1.58-2.09c0.34-0.82,0.51-1.71,0.51-2.68
			c0-2.26-0.68-3.92-2.05-4.98s-3.48-1.59-6.36-1.59h-7.08V468.75z M202.05,472.47v13.44h8.35c1.49,0,2.77-0.17,3.84-0.51
			c1.07-0.34,1.95-0.82,2.64-1.44c0.69-0.62,1.2-1.36,1.52-2.21c0.32-0.85,0.48-1.79,0.48-2.81c0-1.99-0.71-3.57-2.11-4.73
			c-1.41-1.16-3.54-1.74-6.4-1.74H202.05z"/>
		<path d="M230.92,490.06v-27.28h2.75c0.52,0,0.88,0.1,1.08,0.3c0.2,0.2,0.33,0.54,0.4,1.02l0.32,4.26c0.93-1.9,2.09-3.39,3.46-4.46
			c1.37-1.07,2.98-1.6,4.83-1.6c0.75,0,1.44,0.08,2.05,0.26s1.18,0.41,1.7,0.71l-0.62,3.58c-0.13,0.45-0.4,0.67-0.83,0.67
			c-0.25,0-0.64-0.08-1.16-0.26s-1.25-0.26-2.18-0.26c-1.67,0-3.07,0.48-4.19,1.45s-2.06,2.38-2.81,4.23v17.37H230.92z"/>
		<path d="M259.04,454.21c0,0.47-0.09,0.9-0.28,1.31s-0.44,0.76-0.75,1.08c-0.31,0.31-0.68,0.56-1.09,0.74
			c-0.41,0.18-0.85,0.27-1.32,0.27c-0.47,0-0.9-0.09-1.31-0.27c-0.4-0.18-0.76-0.43-1.08-0.74c-0.31-0.31-0.56-0.67-0.74-1.08
			c-0.18-0.4-0.27-0.84-0.27-1.31c0-0.47,0.09-0.91,0.27-1.33c0.18-0.42,0.43-0.79,0.74-1.1c0.31-0.31,0.67-0.56,1.08-0.74
			c0.4-0.18,0.84-0.27,1.31-0.27c0.47,0,0.91,0.09,1.32,0.27c0.41,0.18,0.78,0.43,1.09,0.74c0.31,0.31,0.57,0.68,0.75,1.1
			S259.04,453.74,259.04,454.21z M257.96,462.78v27.28h-4.79v-27.28H257.96z"/>
		<path d="M272.8,476.08l-9.18-13.3h4.6c0.39,0,0.68,0.06,0.86,0.19c0.18,0.13,0.34,0.31,0.48,0.54l6.68,10.23
			c0.16-0.5,0.4-1,0.7-1.51l5.87-8.62c0.18-0.25,0.36-0.45,0.54-0.61c0.18-0.15,0.4-0.23,0.67-0.23h4.42l-9.18,13.03l9.56,14.25
			h-4.61c-0.39,0-0.7-0.1-0.93-0.31s-0.41-0.44-0.55-0.69l-6.87-10.69c-0.13,0.52-0.31,0.99-0.57,1.4l-6.36,9.29
			c-0.18,0.25-0.37,0.48-0.58,0.69c-0.21,0.21-0.49,0.31-0.85,0.31h-4.28L272.8,476.08z"/>
	</g>
	<g>
		<rect x="158.34" y="136.05" class="st4" width="35.27" height="35.4"/>
		<rect x="193.61" y="171.45" class="st4" width="35.27" height="35.4"/>
		<rect x="228.89" y="206.85" class="st4" width="35.27" height="35.4"/>
		<rect x="264.16" y="189.15" class="st4" width="17.64" height="17.7"/>
		<rect x="281.8" y="171.45" class="st4" width="17.64" height="17.7"/>
		<rect x="299.43" y="153.75" class="st4" width="17.64" height="17.7"/>
		<rect x="317.07" y="136.05" class="st4" width="17.64" height="17.7"/>
		<rect x="158.34" y="295.35" class="st4" width="17.64" height="17.7"/>
		<rect x="175.98" y="277.65" class="st4" width="17.64" height="17.7"/>
		<rect x="193.61" y="259.95" class="st4" width="17.64" height="17.7"/>
		<rect x="211.25" y="242.25" class="st4" width="17.64" height="17.7"/>
		<rect x="264.16" y="242.25" class="st4" width="35.27" height="35.4"/>
		<rect x="299.43" y="277.65" class="st4" width="35.27" height="35.4"/>
	</g>
</g>
<g id="References">
</g>
</svg>
