<?xml version="1.0" encoding="utf-8"?>
<!-- Generator: Adobe Illustrator 28.0.0, SVG Export Plug-In . SVG Version: 6.00 Build 0)  -->
<svg version="1.1" xmlns="http://www.w3.org/2000/svg" xmlns:xlink="http://www.w3.org/1999/xlink" x="0px" y="0px"
	 viewBox="0 0 511.68 511.68" style="enable-background:new 0 0 511.68 511.68;" xml:space="preserve">
<style type="text/css">
	.st0{display:none;}
	.st1{fill:url(#SVGID_1_);}
	.st2{fill:url(#SVGID_00000101078173391094438840000008751518976089574831_);}
	.st3{fill:url(#SVGID_00000013897065846282772130000000947353229439129499_);}
	.st4{fill:none;stroke:#FFFFFF;stroke-width:15;stroke-miterlimit:10;}
	.st5{fill:#FFFFFF;}
	.st6{fill:none;stroke:#FFFFFF;stroke-width:9;stroke-miterlimit:10;}
	.st7{fill:url(#SVGID_00000145031608033834721260000017317311994227618457_);}
	.st8{fill:none;stroke:#FFFFFF;stroke-width:15;stroke-linecap:round;stroke-linejoin:round;stroke-miterlimit:10;}
	.st9{fill:none;stroke:#FFFFFF;stroke-width:10;stroke-linecap:round;stroke-linejoin:round;stroke-miterlimit:10;}
	.st10{fill:url(#SVGID_00000148629302115627435650000003171949708044526982_);}
	.st11{fill:url(#SVGID_00000086676793327615549880000006354323988698640528_);}
	.st12{fill:url(#SVGID_00000076586720042410608230000006378082847033088402_);}
	.st13{fill:url(#SVGID_00000027580146702020539670000005692872597338980226_);}
	.st14{fill:url(#SVGID_00000082326490239678801420000003357639400402290051_);}
	.st15{fill:url(#SVGID_00000114767149839161428690000005667909631916250252_);}
	.st16{fill:url(#SVGID_00000143581692827818836040000009700208909688099767_);}
	.st17{fill:url(#SVGID_00000078748241979617177590000005646206802902720153_);}
	.st18{fill:url(#SVGID_00000015321619463824428530000005983557385454198711_);}
	.st19{fill:url(#SVGID_00000108268026840899693870000008282118405262905217_);}
	.st20{fill:url(#SVGID_00000003783872564113349380000002870939066534272420_);}
	.st21{fill:url(#SVGID_00000130645866423802716520000010155431303241736582_);}
	.st22{fill:url(#SVGID_00000133499566321917346200000012406533265241536432_);}
	.st23{fill:url(#SVGID_00000116201475194375450540000001779467252141668737_);}
	.st24{fill:url(#SVGID_00000142167616099686094270000006732214023053832350_);}
	.st25{fill:url(#SVGID_00000069387667042554368110000009586583783708117893_);}
	.st26{fill:url(#SVGID_00000066485376748656378300000004380112834988037778_);}
	.st27{fill:url(#SVGID_00000072260513334951037890000005295780808755975844_);}
	.st28{fill:#BCBEC0;}
	.st29{fill:url(#SVGID_00000083078914225144872200000013209247616625497765_);}
	.st30{fill:url(#SVGID_00000015346382709162087440000003496085671105434044_);}
	.st31{fill-rule:evenodd;clip-rule:evenodd;fill:#FFFFFF;}
	.st32{fill:none;stroke:#FFFFFF;stroke-width:9.8091;stroke-linecap:round;stroke-linejoin:round;stroke-miterlimit:10;}
	.st33{clip-path:url(#SVGID_00000097497830458567762460000008448631309413688978_);}
	.st34{fill:none;stroke:#FFFFFF;stroke-width:6.402;stroke-miterlimit:10;}
	.st35{fill:url(#SVGID_00000040565351216089909840000014825137406117089443_);}
	.st36{fill:none;stroke:#FFFFFF;stroke-width:14.3924;stroke-linecap:round;stroke-linejoin:round;stroke-miterlimit:10;}
	.st37{fill:none;stroke:#FFFFFF;stroke-width:8;stroke-linecap:round;stroke-linejoin:round;stroke-miterlimit:10;}
	.st38{fill:url(#SVGID_00000160180901757417903220000011554724943910699702_);}
	.st39{fill:#FFFFFF;stroke:#FFFFFF;stroke-width:2.9178;stroke-miterlimit:10;}
	.st40{fill:url(#SVGID_00000063596468194111859140000004509069492805899670_);}
	.st41{fill:url(#SVGID_00000013896464420911630190000009044389881976114049_);}
	.st42{fill:url(#SVGID_00000149350961933136998320000016299867650504331918_);}
	.st43{fill:none;stroke:#FFFFFF;stroke-width:10.1249;stroke-linecap:round;stroke-linejoin:round;stroke-miterlimit:10;}
	.st44{fill:url(#SVGID_00000058548767566245387990000013607568028963435140_);}
	.st45{fill:url(#SVGID_00000160151685487053795580000007809484266843388325_);}
	.st46{fill:url(#SVGID_00000129169841900676328600000005882423608230260154_);}
	.st47{fill:url(#SVGID_00000039119084818404575320000006631574036120869781_);}
	.st48{fill:#FFFFFF;stroke:#FFFFFF;stroke-width:7.9684;stroke-linecap:round;stroke-linejoin:round;stroke-miterlimit:10;}
</style>
<g id="GPS">
</g>
<g id="References" class="st0">
</g>
<g id="Icons">
	<g>
		<path d="M149.8,493.07v-38.59h12.31c2.37,0,4.41,0.23,6.13,0.7c1.71,0.47,3.12,1.13,4.23,1.99c1.1,0.86,1.92,1.92,2.45,3.17
			s0.79,2.65,0.79,4.21c0,0.95-0.15,1.87-0.45,2.75c-0.3,0.88-0.74,1.7-1.35,2.45s-1.36,1.43-2.26,2.02s-1.97,1.08-3.19,1.45
			c2.82,0.56,4.95,1.57,6.38,3.04c1.44,1.47,2.16,3.41,2.16,5.82c0,1.63-0.3,3.12-0.9,4.47c-0.6,1.35-1.48,2.5-2.64,3.47
			c-1.16,0.97-2.58,1.72-4.25,2.25c-1.68,0.53-3.6,0.79-5.75,0.79H149.8z M155.02,471.77h6.89c1.47,0,2.75-0.16,3.82-0.48
			s1.97-0.77,2.68-1.35c0.71-0.57,1.23-1.27,1.58-2.09c0.34-0.82,0.51-1.71,0.51-2.68c0-2.26-0.68-3.92-2.05-4.98
			s-3.48-1.59-6.36-1.59h-7.08V471.77z M155.02,475.49v13.44h8.35c1.49,0,2.77-0.17,3.84-0.51c1.07-0.34,1.95-0.82,2.64-1.44
			c0.69-0.62,1.2-1.36,1.52-2.21c0.32-0.85,0.48-1.79,0.48-2.81c0-1.99-0.71-3.57-2.11-4.73c-1.41-1.16-3.54-1.74-6.4-1.74H155.02z"
			/>
		<path d="M183.89,493.07v-27.28h2.75c0.52,0,0.88,0.1,1.08,0.3c0.2,0.2,0.33,0.54,0.4,1.02l0.32,4.26c0.93-1.9,2.09-3.39,3.46-4.46
			c1.37-1.07,2.99-1.6,4.83-1.6c0.75,0,1.44,0.08,2.05,0.26c0.61,0.17,1.18,0.41,1.7,0.71l-0.62,3.58c-0.13,0.45-0.4,0.67-0.83,0.67
			c-0.25,0-0.64-0.08-1.16-0.26s-1.25-0.26-2.18-0.26c-1.67,0-3.07,0.48-4.19,1.45s-2.06,2.38-2.81,4.23v17.37H183.89z"/>
		<path d="M212.01,457.23c0,0.47-0.1,0.9-0.28,1.31c-0.19,0.4-0.44,0.76-0.75,1.08c-0.31,0.31-0.68,0.56-1.09,0.74
			c-0.41,0.18-0.85,0.27-1.32,0.27c-0.47,0-0.9-0.09-1.31-0.27c-0.4-0.18-0.76-0.43-1.08-0.74c-0.31-0.31-0.56-0.67-0.74-1.08
			s-0.27-0.84-0.27-1.31c0-0.47,0.09-0.91,0.27-1.33s0.43-0.79,0.74-1.1c0.31-0.31,0.67-0.56,1.08-0.74
			c0.4-0.18,0.84-0.27,1.31-0.27c0.47,0,0.91,0.09,1.32,0.27c0.41,0.18,0.78,0.43,1.09,0.74c0.31,0.31,0.56,0.68,0.75,1.1
			C211.91,456.31,212.01,456.76,212.01,457.23z M210.93,465.79v27.28h-4.79v-27.28H210.93z"/>
		<path d="M238,470.64c-0.14,0.2-0.29,0.35-0.43,0.46c-0.14,0.11-0.35,0.16-0.62,0.16s-0.56-0.11-0.88-0.34
			c-0.31-0.22-0.71-0.47-1.2-0.74c-0.48-0.27-1.07-0.52-1.76-0.74s-1.54-0.34-2.54-0.34c-1.33,0-2.5,0.24-3.53,0.71
			s-1.88,1.16-2.57,2.06c-0.69,0.9-1.21,1.98-1.56,3.26c-0.35,1.28-0.53,2.7-0.53,4.28c0,1.65,0.19,3.12,0.57,4.4
			c0.38,1.28,0.91,2.36,1.59,3.23c0.68,0.87,1.51,1.54,2.49,1.99s2.08,0.69,3.3,0.69c1.17,0,2.13-0.14,2.88-0.42
			c0.75-0.28,1.38-0.59,1.89-0.93c0.5-0.34,0.92-0.65,1.24-0.93c0.32-0.28,0.65-0.42,0.97-0.42c0.41,0,0.72,0.15,0.92,0.46
			l1.35,1.75c-1.18,1.45-2.67,2.52-4.44,3.19c-1.78,0.67-3.65,1.01-5.63,1.01c-1.71,0-3.29-0.31-4.75-0.94
			c-1.46-0.63-2.73-1.54-3.81-2.73s-1.92-2.66-2.54-4.4c-0.62-1.74-0.93-3.73-0.93-5.95c0-2.03,0.28-3.91,0.85-5.63
			c0.57-1.72,1.39-3.21,2.48-4.46c1.09-1.25,2.43-2.22,4.03-2.92s3.43-1.05,5.49-1.05c1.9,0,3.59,0.31,5.06,0.93
			c1.47,0.62,2.77,1.5,3.91,2.63L238,470.64z"/>
		<path d="M249.52,453.4v23.35h1.24c0.36,0,0.66-0.05,0.89-0.15c0.23-0.1,0.49-0.3,0.78-0.61l8.62-9.24
			c0.27-0.29,0.54-0.52,0.81-0.7c0.27-0.18,0.63-0.27,1.08-0.27h4.36l-10.04,10.69c-0.25,0.31-0.5,0.58-0.74,0.81
			c-0.24,0.23-0.52,0.44-0.82,0.62c0.32,0.21,0.62,0.46,0.88,0.74c0.26,0.28,0.51,0.6,0.74,0.96l10.67,13.47h-4.31
			c-0.39,0-0.73-0.08-1.01-0.23s-0.54-0.39-0.79-0.71l-8.97-11.18c-0.27-0.38-0.54-0.62-0.81-0.74s-0.67-0.18-1.21-0.18h-1.35v13.04
			h-4.82V453.4H249.52z"/>
		<path d="M288.38,470.29c-0.21,0.4-0.55,0.59-1,0.59c-0.27,0-0.58-0.1-0.92-0.3s-0.76-0.42-1.25-0.66
			c-0.49-0.24-1.08-0.47-1.76-0.67c-0.68-0.21-1.49-0.31-2.42-0.31c-0.81,0-1.54,0.1-2.18,0.31s-1.2,0.49-1.66,0.85
			c-0.46,0.36-0.81,0.78-1.05,1.25s-0.36,0.99-0.36,1.55c0,0.7,0.2,1.28,0.61,1.75c0.4,0.47,0.94,0.87,1.6,1.21s1.42,0.64,2.26,0.9
			c0.84,0.26,1.71,0.54,2.6,0.83c0.89,0.3,1.75,0.62,2.6,0.98c0.84,0.36,1.6,0.81,2.26,1.35c0.66,0.54,1.2,1.2,1.6,1.98
			c0.4,0.78,0.61,1.72,0.61,2.81c0,1.26-0.22,2.42-0.67,3.49c-0.45,1.07-1.11,1.99-1.99,2.77c-0.88,0.78-1.96,1.4-3.23,1.84
			c-1.28,0.45-2.75,0.67-4.42,0.67c-1.9,0-3.63-0.31-5.17-0.93s-2.85-1.41-3.93-2.38l1.13-1.83c0.14-0.23,0.31-0.41,0.51-0.54
			c0.2-0.12,0.46-0.19,0.78-0.19s0.66,0.13,1.02,0.38c0.36,0.25,0.79,0.53,1.31,0.83c0.51,0.31,1.13,0.58,1.86,0.83
			c0.73,0.25,1.64,0.38,2.73,0.38c0.93,0,1.75-0.12,2.45-0.36s1.28-0.57,1.75-0.98c0.47-0.41,0.81-0.89,1.04-1.43
			c0.22-0.54,0.34-1.11,0.34-1.72c0-0.75-0.2-1.38-0.61-1.87c-0.4-0.49-0.94-0.92-1.6-1.27c-0.66-0.35-1.42-0.66-2.28-0.92
			c-0.85-0.26-1.72-0.53-2.61-0.82c-0.89-0.29-1.76-0.61-2.61-0.98s-1.61-0.83-2.28-1.39c-0.67-0.56-1.2-1.24-1.6-2.06
			s-0.61-1.81-0.61-2.98c0-1.04,0.22-2.04,0.65-3c0.43-0.96,1.06-1.8,1.89-2.53c0.83-0.73,1.84-1.31,3.04-1.74
			c1.2-0.43,2.58-0.65,4.12-0.65c1.8,0,3.41,0.28,4.83,0.85c1.43,0.57,2.66,1.34,3.7,2.33L288.38,470.29z"/>
		<path d="M300.29,465.79v17.4c0,2.06,0.48,3.66,1.43,4.79c0.95,1.13,2.39,1.7,4.31,1.7c1.4,0,2.72-0.33,3.96-1
			c1.24-0.66,2.38-1.59,3.42-2.77v-20.12h4.79v27.28h-2.85c-0.68,0-1.11-0.33-1.29-1l-0.38-2.94c-1.18,1.31-2.51,2.37-3.99,3.16
			c-1.47,0.8-3.16,1.2-5.06,1.2c-1.49,0-2.81-0.25-3.95-0.74c-1.14-0.49-2.1-1.19-2.87-2.09c-0.77-0.9-1.35-1.98-1.74-3.26
			c-0.39-1.27-0.58-2.68-0.58-4.23v-17.4H300.29z"/>
		<path d="M326.09,493.07v-27.28h2.86c0.68,0,1.11,0.33,1.29,1l0.35,2.8c1-1.24,2.13-2.25,3.38-3.04c1.25-0.79,2.7-1.18,4.35-1.18
			c1.85,0,3.34,0.51,4.48,1.54c1.14,1.02,1.96,2.41,2.46,4.15c0.38-0.99,0.88-1.84,1.49-2.56s1.32-1.31,2.09-1.78
			c0.77-0.47,1.59-0.81,2.46-1.02c0.87-0.22,1.75-0.32,2.65-0.32c1.44,0,2.72,0.23,3.84,0.69s2.07,1.13,2.85,2.01
			c0.78,0.88,1.38,1.96,1.79,3.25c0.41,1.28,0.62,2.75,0.62,4.4v17.37h-4.79V475.7c0-2.14-0.47-3.76-1.4-4.86
			c-0.93-1.1-2.29-1.66-4.07-1.66c-0.79,0-1.54,0.14-2.25,0.42c-0.71,0.28-1.33,0.69-1.87,1.23c-0.54,0.54-0.97,1.22-1.28,2.03
			c-0.31,0.82-0.47,1.76-0.47,2.84v17.37h-4.79V475.7c0-2.19-0.44-3.83-1.32-4.9s-2.16-1.62-3.85-1.62c-1.19,0-2.29,0.32-3.3,0.96
			s-1.94,1.5-2.79,2.6v20.33H326.09z"/>
	</g>
	<g>
		<g>
			<g>
				<linearGradient id="SVGID_1_" gradientUnits="userSpaceOnUse" x1="54.7605" y1="226.2184" x2="456.7808" y2="226.2184">
					<stop  offset="0" style="stop-color:#F15D22"/>
					<stop  offset="1" style="stop-color:#ED2024"/>
				</linearGradient>
				<path class="st1" d="M255.77,25.21c-111.01,0-201.01,90-201.01,201.01c0,111.01,90,201.01,201.01,201.01
					c111.01,0,201.01-90,201.01-201.01C456.78,115.2,366.79,25.21,255.77,25.21z"/>
			</g>
		</g>
		<g>
			<g>
				<g>
					<path class="st5" d="M241.7,157.16v13.88h-19.04v61.58h-15.7v-61.58h-19.04v-13.88H241.7z"/>
				</g>
				<line class="st48" x1="251.69" y1="162.58" x2="323.63" y2="162.58"/>
				<line class="st48" x1="251.69" y1="184.77" x2="323.63" y2="184.77"/>
				<line class="st48" x1="251.69" y1="206.96" x2="323.63" y2="206.96"/>
				<line class="st48" x1="251.69" y1="229.16" x2="323.63" y2="229.16"/>
				<line class="st48" x1="190.69" y1="251.35" x2="323.63" y2="251.35"/>
				<line class="st48" x1="190.69" y1="273.55" x2="323.63" y2="273.55"/>
				<line class="st48" x1="190.69" y1="293.89" x2="323.63" y2="293.89"/>
			</g>
			<rect x="167.07" y="137.52" class="st8" width="177.39" height="177.39"/>
		</g>
	</g>
</g>
</svg>
