<?xml version="1.0" encoding="utf-8"?>
<!-- Generator: Adobe Illustrator 28.0.0, SVG Export Plug-In . SVG Version: 6.00 Build 0)  -->
<svg version="1.1" xmlns="http://www.w3.org/2000/svg" xmlns:xlink="http://www.w3.org/1999/xlink" x="0px" y="0px"
	 viewBox="0 0 512 512" style="enable-background:new 0 0 512 512;" xml:space="preserve">
<style type="text/css">
	.st0{display:none;}
	.st1{fill:url(#SVGID_1_);}
	.st2{fill:none;stroke:#FFFFFF;stroke-width:15;stroke-miterlimit:10;}
	.st3{fill:#FFFFFF;}
	.st4{fill:none;stroke:#FFFFFF;stroke-width:9;stroke-miterlimit:10;}
	.st5{fill:url(#SVGID_00000107547935027878208230000012186300638744325780_);}
	.st6{fill:none;stroke:#FFFFFF;stroke-width:15;stroke-linecap:round;stroke-linejoin:round;stroke-miterlimit:10;}
	.st7{fill:none;stroke:#FFFFFF;stroke-width:10;stroke-linecap:round;stroke-linejoin:round;stroke-miterlimit:10;}
	.st8{fill:url(#SVGID_00000143594337382206773880000002581102396207197582_);}
	.st9{fill:url(#SVGID_00000066490351708272373360000000588335447508820663_);}
	.st10{fill:url(#SVGID_00000119833579589218166090000002956187038640113292_);}
	.st11{fill:url(#SVGID_00000001656788183832031950000007810706250712060570_);}
	.st12{fill:url(#SVGID_00000025436587721680009770000000134900633656917687_);}
	.st13{fill:url(#SVGID_00000090294864269646181520000017458714422392031899_);}
	.st14{fill:url(#SVGID_00000110472532386372249060000001273962662927088284_);}
	.st15{fill:url(#SVGID_00000064316926653785747440000017925489705955750285_);}
	.st16{fill:url(#SVGID_00000120554973748522500650000012793857516799907216_);}
	.st17{fill:url(#SVGID_00000041265287964172546050000005334078014061903285_);}
	.st18{fill:url(#SVGID_00000127036107314497509370000015099858702183298696_);}
	.st19{fill:url(#SVGID_00000057831461092507275240000007174415740637266100_);}
	.st20{fill:url(#SVGID_00000008129621214672686650000017407312533780497599_);}
	.st21{fill:url(#SVGID_00000039110185791130124380000015620017810616599212_);}
	.st22{fill:url(#SVGID_00000180365088215073127940000006398046144088730512_);}
	.st23{fill:url(#SVGID_00000013911503703717506780000013031431223744543414_);}
	.st24{fill:url(#SVGID_00000166647309272770844140000006885614689831586489_);}
	.st25{fill:#BCBEC0;}
	.st26{fill:url(#SVGID_00000121246155890383549220000008207747171329303193_);}
	.st27{fill:url(#SVGID_00000129912727183589039870000018064636747643206809_);}
	.st28{fill-rule:evenodd;clip-rule:evenodd;fill:#FFFFFF;}
	.st29{fill:url(#SVGID_00000137119629561196314790000017106010331530857108_);}
	.st30{fill:none;stroke:#FFFFFF;stroke-width:9.8091;stroke-linecap:round;stroke-linejoin:round;stroke-miterlimit:10;}
	.st31{fill:url(#SVGID_00000111882547082226994470000005325319040616193183_);}
	.st32{fill:url(#SVGID_00000000926391569543589290000006046091322472627589_);}
	.st33{clip-path:url(#SVGID_00000160152267775761303850000010815014262010248383_);}
	.st34{fill:none;stroke:#FFFFFF;stroke-width:6.402;stroke-miterlimit:10;}
	.st35{fill:url(#SVGID_00000070106710102022483790000000933666912362510483_);}
	.st36{fill:none;stroke:#FFFFFF;stroke-width:14.3924;stroke-linecap:round;stroke-linejoin:round;stroke-miterlimit:10;}
	.st37{fill:none;stroke:#FFFFFF;stroke-width:8;stroke-linecap:round;stroke-linejoin:round;stroke-miterlimit:10;}
	.st38{fill:url(#SVGID_00000112595105181999243080000009833387506383755437_);}
	.st39{fill:#FFFFFF;stroke:#FFFFFF;stroke-width:2.9178;stroke-miterlimit:10;}
	.st40{fill:url(#SVGID_00000088124331107767356120000002381352610965602964_);}
	.st41{fill:url(#SVGID_00000054231165202473936370000001434588877959115451_);}
	.st42{fill:url(#SVGID_00000047742652323751970630000016858132028442233023_);}
	.st43{fill:none;stroke:#FFFFFF;stroke-width:10.1249;stroke-linecap:round;stroke-linejoin:round;stroke-miterlimit:10;}
	.st44{fill:url(#SVGID_00000051381210078810891720000009142998202635835052_);}
	.st45{fill:url(#SVGID_00000015338729530039383860000009534603881424385178_);}
	.st46{fill:url(#SVGID_00000119114396600104679730000008638485544290364054_);}
	.st47{fill:url(#SVGID_00000074444050251286808200000000627133035074464687_);}
	.st48{fill:#FFFFFF;stroke:#FFFFFF;stroke-width:7.9684;stroke-linecap:round;stroke-linejoin:round;stroke-miterlimit:10;}
	.st49{fill:url(#SVGID_00000068660276619750865650000017809664539046920329_);}
	.st50{fill:url(#SVGID_00000091008877899028528420000012592226015931707570_);}
	.st51{fill:url(#SVGID_00000170280664424201793410000009038271143301267594_);}
	.st52{fill:url(#SVGID_00000052793849948510108000000008567898188832259986_);}
	.st53{fill:url(#SVGID_00000132085240888745447290000017091741033213004971_);}
	.st54{fill:url(#SVGID_00000179623345989088005050000017370616010281862813_);}
	.st55{fill:url(#SVGID_00000155131416395591552700000005531456364846365882_);}
	.st56{fill:url(#SVGID_00000034058815575160394890000017988840320311533497_);}
	.st57{fill:url(#SVGID_00000000922889750075210410000014806134010184092572_);}
	.st58{fill:url(#SVGID_00000032635056543065252840000006564555067734889657_);}
	.st59{fill:url(#SVGID_00000035500361772750181360000000720088357291195268_);}
	.st60{fill:url(#SVGID_00000173860556092651079690000009090866302959084452_);}
	.st61{fill:url(#SVGID_00000080189339842826012120000007982294199454297483_);}
	.st62{fill:url(#SVGID_00000024712855885051786330000014994631550562647187_);}
	.st63{fill:url(#SVGID_00000126291978092621881650000013317642360707364993_);}
	.st64{fill:url(#SVGID_00000132788887403472647330000007366769706725301149_);}
	.st65{fill:url(#SVGID_00000051353889365321127060000017626757796655951532_);}
	.st66{fill:url(#SVGID_00000079481974311111572160000017912597264686055565_);}
	.st67{fill:url(#SVGID_00000131325460143892627880000003204378834311763889_);}
	.st68{fill:url(#SVGID_00000026877026641220228470000008862071889606508473_);}
	.st69{fill:url(#SVGID_00000119108920444113797070000012713963463436988605_);}
	.st70{fill:url(#SVGID_00000069392196716552884340000001135922781866790578_);}
	.st71{fill:url(#SVGID_00000087402240392841889460000017524656705960994454_);}
	.st72{fill:url(#SVGID_00000111877763540173004340000002284580703637780911_);}
	.st73{clip-path:url(#SVGID_00000167357151333619677890000010048289070807689642_);}
	.st74{fill:url(#SVGID_00000183244420505172028260000007591972510470432427_);}
	.st75{fill:url(#SVGID_00000103230377626267621440000012248465939478459830_);}
	.st76{fill:url(#SVGID_00000168809628732009372110000004027203996511978380_);}
	.st77{fill:url(#SVGID_00000123432162333988033640000011155955129000090505_);}
	.st78{fill:url(#SVGID_00000148634219070980910890000017842046315322740135_);}
	.st79{fill:url(#SVGID_00000147905792945996609510000015106030479134866305_);}
	.st80{fill:url(#SVGID_00000015319671972495462620000014783663509243448212_);}
	.st81{fill:url(#SVGID_00000178193196621209259200000015991681972933931194_);}
	.st82{fill:url(#SVGID_00000140696764004475830970000010506279480278495916_);}
</style>
<g id="GPS">
</g>
<g id="References" class="st0">
</g>
<g id="Icons">
	<g>
		<linearGradient id="SVGID_1_" gradientUnits="userSpaceOnUse" x1="52.5652" y1="261.0507" x2="459.4348" y2="261.0507">
			<stop  offset="0" style="stop-color:#F15D22"/>
			<stop  offset="1" style="stop-color:#ED2024"/>
		</linearGradient>
		<circle class="st1" cx="256" cy="261.05" r="203.43"/>
		<g>
			<g>
				<path class="st3" d="M156.35,220v11.48h-34.4v22.97h29.03v11.54h-29.03v31.61h-14.54V220H156.35z"/>
				<path class="st3" d="M182.11,285.68h31.07v11.91h-45.51V220h14.44V285.68z"/>
			</g>
			<g>
				<defs>
					<circle id="SVGID_00000085942271239395586840000005149662375779737756_" cx="259.04" cy="260.98" r="41.98"/>
				</defs>
				<clipPath id="SVGID_00000172434415957813937250000008577944850091580338_">
					<use xlink:href="#SVGID_00000085942271239395586840000005149662375779737756_"  style="overflow:visible;"/>
				</clipPath>
				<g style="clip-path:url(#SVGID_00000172434415957813937250000008577944850091580338_);">
					<g>
						<g>
							<path class="st34" d="M271.23,331.06c-2.97,2.97-6.18,5.56-9.57,7.77c5.53,2.58,10.82,5.87,15.73,9.84
								c2.08-1.68,4.09-3.49,6.02-5.42"/>
							<path class="st34" d="M187.25,331.06c2.97,2.97,6.18,5.56,9.57,7.77c20.5-9.57,44.36-9.57,64.85,0
								c3.38-2.21,6.59-4.79,9.57-7.77 M259.04,318.87c-16.46,16.46-43.14,16.46-59.6,0"/>
							<path class="st34" d="M199.44,318.87c16.46,16.46,43.14,16.46,59.6,0 M246.85,306.68c-9.73,9.73-25.49,9.73-35.22,0"/>
							<path class="st34" d="M211.63,306.68c9.73,9.73,25.49,9.73,35.22,0 M234.66,294.49c-2.99,2.99-7.84,2.99-10.84,0"/>
							<path class="st34" d="M223.82,294.49c2.99,2.99,7.84,2.99,10.84,0"/>
							<path class="st34" d="M283.42,354.09c-1.93-1.93-3.95-3.74-6.02-5.42c-4.91-3.98-10.2-7.26-15.73-9.84
								c-20.5-9.57-44.36-9.57-64.85,0c-5.53,2.58-10.82,5.87-15.73,9.84c-2.08,1.68-4.09,3.49-6.02,5.42 M187.25,366.28
								c23.19-23.19,60.79-23.19,83.98,0"/>
							<path class="st34" d="M271.23,366.28c-23.19-23.19-60.79-23.19-83.98,0 M199.44,378.47c16.46-16.46,43.14-16.46,59.6,0"/>
							<path class="st34" d="M259.04,378.47c-16.46-16.46-43.14-16.46-59.6,0 M211.63,390.66c9.73-9.73,25.49-9.73,35.22,0"/>
						</g>
						<g>
							<path class="st34" d="M211.63,271.46c-2.97,2.97-6.18,5.56-9.57,7.77c5.53,2.58,10.82,5.87,15.73,9.84
								c2.08-1.68,4.09-3.49,6.02-5.42"/>
							<path class="st34" d="M127.65,271.46c2.97,2.97,6.18,5.56,9.57,7.77c20.5-9.57,44.36-9.57,64.85,0
								c3.38-2.21,6.59-4.79,9.57-7.77 M199.44,259.27c-16.46,16.46-43.14,16.46-59.6,0"/>
							<path class="st34" d="M139.84,259.27c16.46,16.46,43.14,16.46,59.6,0 M187.25,247.08c-9.73,9.73-25.49,9.73-35.22,0"/>
							<path class="st34" d="M152.03,247.08c9.73,9.73,25.49,9.73,35.22,0 M175.06,234.89c-2.99,2.99-7.84,2.99-10.84,0"/>
							<path class="st34" d="M164.22,234.89c2.99,2.99,7.84,2.99,10.84,0"/>
							<path class="st34" d="M223.82,294.49c-1.93-1.93-3.95-3.74-6.02-5.42c-4.91-3.98-10.2-7.26-15.73-9.84
								c-20.5-9.57-44.36-9.57-64.85,0c-5.53,2.58-10.82,5.87-15.73,9.84c-2.08,1.68-4.09,3.49-6.02,5.42 M127.65,306.68
								c23.19-23.19,60.79-23.19,83.98,0"/>
							<path class="st34" d="M211.63,306.68c-23.19-23.19-60.79-23.19-83.98,0 M139.84,318.87c16.46-16.46,43.14-16.46,59.6,0"/>
							<path class="st34" d="M199.44,318.87c-16.46-16.46-43.14-16.46-59.6,0 M152.03,331.06c9.73-9.73,25.49-9.73,35.22,0"/>
						</g>
					</g>
					<g>
						<g>
							<path class="st34" d="M234.66,283.65c1.93,1.93,3.95,3.74,6.02,5.42c4.91-3.98,10.2-7.26,15.73-9.84
								c-3.38-2.21-6.59-4.79-9.57-7.77"/>
							<path class="st34" d="M330.83,271.46c-2.97,2.97-6.18,5.56-9.57,7.77c5.53,2.58,10.82,5.87,15.73,9.84
								c2.08-1.68,4.09-3.49,6.02-5.42"/>
							<path class="st34" d="M246.85,271.46c2.97,2.97,6.18,5.56,9.57,7.77c20.5-9.57,44.36-9.57,64.85,0
								c3.38-2.21,6.59-4.79,9.57-7.77 M318.64,259.27c-16.46,16.46-43.14,16.46-59.6,0"/>
							<path class="st34" d="M259.04,259.27c16.46,16.46,43.14,16.46,59.6,0 M306.45,247.08c-9.73,9.73-25.49,9.73-35.22,0"/>
							<path class="st34" d="M271.23,247.08c9.73,9.73,25.49,9.73,35.22,0 M294.26,234.89c-2.99,2.99-7.84,2.99-10.84,0"/>
							<path class="st34" d="M283.42,234.89c2.99,2.99,7.84,2.99,10.84,0"/>
							<path class="st34" d="M343.02,294.49c-1.93-1.93-3.95-3.74-6.02-5.42c-4.91-3.98-10.2-7.26-15.73-9.84
								c-20.5-9.57-44.36-9.57-64.85,0c-5.53,2.58-10.82,5.87-15.73,9.84c-2.08,1.68-4.09,3.49-6.02,5.42 M246.85,306.68
								c23.19-23.19,60.79-23.19,83.98,0"/>
							<path class="st34" d="M330.83,306.68c-23.19-23.19-60.79-23.19-83.98,0 M259.04,318.87c16.46-16.46,43.14-16.46,59.6,0"/>
							<path class="st34" d="M318.64,318.87c-16.46-16.46-43.14-16.46-59.6,0 M271.23,331.06c9.73-9.73,25.49-9.73,35.22,0"/>
							<path class="st34" d="M306.45,331.06c-9.73-9.73-25.49-9.73-35.22,0 M283.42,343.25c2.99-2.99,7.84-2.99,10.84,0"/>
							<path class="st34" d="M294.26,343.25c-2.99-2.99-7.84-2.99-10.84,0"/>
						</g>
						<g>
							<path class="st34" d="M175.06,224.05c1.93,1.93,3.95,3.74,6.02,5.42c4.91-3.98,10.2-7.26,15.73-9.84
								c-3.38-2.21-6.59-4.79-9.57-7.77"/>
							<path class="st34" d="M271.23,211.86c-2.97,2.97-6.18,5.56-9.57,7.77c5.53,2.58,10.82,5.87,15.73,9.84
								c2.08-1.68,4.09-3.49,6.02-5.42"/>
							<path class="st34" d="M187.25,211.86c2.97,2.97,6.18,5.56,9.57,7.77c20.5-9.57,44.36-9.57,64.85,0
								c3.38-2.21,6.59-4.79,9.57-7.77 M259.04,199.67c-16.46,16.46-43.14,16.46-59.6,0"/>
							<path class="st34" d="M199.44,199.67c16.46,16.46,43.14,16.46,59.6,0 M246.85,187.48c-9.73,9.73-25.49,9.73-35.22,0"/>
							<path class="st34" d="M211.63,187.48c9.73,9.73,25.49,9.73,35.22,0 M234.66,175.29c-2.99,2.99-7.84,2.99-10.84,0"/>
							<path class="st34" d="M223.82,175.29c2.99,2.99,7.84,2.99,10.84,0"/>
							<path class="st34" d="M283.42,234.89c-1.93-1.93-3.95-3.74-6.02-5.42c-4.91-3.98-10.2-7.26-15.73-9.84
								c-20.5-9.57-44.36-9.57-64.85,0c-5.53,2.58-10.82,5.87-15.73,9.84c-2.08,1.68-4.09,3.49-6.02,5.42 M187.25,247.08
								c23.19-23.19,60.79-23.19,83.98,0"/>
							<path class="st34" d="M271.23,247.08c-23.19-23.19-60.79-23.19-83.98,0 M199.44,259.27c16.46-16.46,43.14-16.46,59.6,0"/>
							<path class="st34" d="M259.04,259.27c-16.46-16.46-43.14-16.46-59.6,0 M211.63,271.46c9.73-9.73,25.49-9.73,35.22,0"/>
							<path class="st34" d="M246.85,271.46c-9.73-9.73-25.49-9.73-35.22,0 M223.82,283.65c2.99-2.99,7.84-2.99,10.84,0"/>
							<path class="st34" d="M234.66,283.65c-2.99-2.99-7.84-2.99-10.84,0"/>
						</g>
					</g>
					<g>
						<g>
							<path class="st34" d="M294.26,224.05c1.93,1.93,3.95,3.74,6.02,5.42c4.91-3.98,10.2-7.26,15.73-9.84
								c-3.38-2.21-6.59-4.79-9.57-7.77"/>
							<path class="st34" d="M306.45,211.86c2.97,2.97,6.18,5.56,9.57,7.77c20.5-9.57,44.36-9.57,64.85,0
								c3.38-2.21,6.59-4.79,9.57-7.77 M378.24,199.67c-16.46,16.46-43.14,16.46-59.6,0"/>
							<path class="st34" d="M318.64,199.67c16.46,16.46,43.14,16.46,59.6,0 M366.05,187.48c-9.73,9.73-25.49,9.73-35.22,0"/>
							<path class="st34" d="M402.62,234.89c-1.93-1.93-3.95-3.74-6.02-5.42c-4.91-3.98-10.2-7.26-15.73-9.84
								c-20.5-9.57-44.36-9.57-64.85,0c-5.53,2.58-10.82,5.87-15.73,9.84c-2.08,1.68-4.09,3.49-6.02,5.42 M306.45,247.08
								c23.19-23.19,60.79-23.19,83.98,0"/>
							<path class="st34" d="M390.43,247.08c-23.19-23.19-60.79-23.19-83.98,0 M318.64,259.27c16.46-16.46,43.14-16.46,59.6,0"/>
							<path class="st34" d="M378.24,259.27c-16.46-16.46-43.14-16.46-59.6,0 M330.83,271.46c9.73-9.73,25.49-9.73,35.22,0"/>
							<path class="st34" d="M366.05,271.46c-9.73-9.73-25.49-9.73-35.22,0 M343.02,283.65c2.99-2.99,7.84-2.99,10.84,0"/>
							<path class="st34" d="M353.86,283.65c-2.99-2.99-7.84-2.99-10.84,0"/>
						</g>
						<g>
							<path class="st34" d="M234.66,164.45c1.93,1.93,3.95,3.74,6.02,5.42c4.91-3.98,10.2-7.26,15.73-9.84
								c-3.38-2.21-6.59-4.79-9.57-7.77"/>
							<path class="st34" d="M246.85,152.26c2.97,2.97,6.18,5.56,9.57,7.77c20.5-9.57,44.36-9.57,64.85,0
								c3.38-2.21,6.59-4.79,9.57-7.77 M318.64,140.07c-16.46,16.46-43.14,16.46-59.6,0"/>
							<path class="st34" d="M259.04,140.07c16.46,16.46,43.14,16.46,59.6,0 M306.45,127.88c-9.73,9.73-25.49,9.73-35.22,0"/>
							<path class="st34" d="M343.02,175.29c-1.93-1.93-3.95-3.74-6.02-5.42c-4.91-3.98-10.2-7.26-15.73-9.84
								c-20.5-9.57-44.36-9.57-64.85,0c-5.53,2.58-10.82,5.87-15.73,9.84c-2.08,1.68-4.09,3.49-6.02,5.42 M246.85,187.48
								c23.19-23.19,60.79-23.19,83.98,0"/>
							<path class="st34" d="M330.83,187.48c-23.19-23.19-60.79-23.19-83.98,0 M259.04,199.67c16.46-16.46,43.14-16.46,59.6,0"/>
							<path class="st34" d="M318.64,199.67c-16.46-16.46-43.14-16.46-59.6,0 M271.23,211.86c9.73-9.73,25.49-9.73,35.22,0"/>
							<path class="st34" d="M306.45,211.86c-9.73-9.73-25.49-9.73-35.22,0 M283.42,224.05c2.99-2.99,7.84-2.99,10.84,0"/>
							<path class="st34" d="M294.26,224.05c-2.99-2.99-7.84-2.99-10.84,0"/>
						</g>
					</g>
				</g>
			</g>
			<g>
				<path class="st3" d="M300.75,220h12.13c1.25,0,2.3,0.29,3.14,0.88c0.84,0.59,1.4,1.39,1.69,2.39l13.2,46.42
					c0.32,1.15,0.62,2.39,0.89,3.73c0.27,1.34,0.53,2.76,0.78,4.27c0.29-1.5,0.6-2.92,0.94-4.27c0.34-1.34,0.71-2.58,1.1-3.73
					l15.24-46.42c0.29-0.82,0.85-1.57,1.69-2.25c0.84-0.68,1.87-1.02,3.09-1.02h4.24c1.25,0,2.29,0.29,3.11,0.88
					c0.82,0.59,1.4,1.39,1.72,2.39l15.13,46.42c0.79,2.29,1.47,4.83,2.04,7.62c0.25-1.39,0.51-2.74,0.78-4.02
					c0.27-1.29,0.54-2.49,0.83-3.6l13.2-46.42c0.25-0.89,0.81-1.66,1.66-2.31c0.86-0.64,1.9-0.97,3.11-0.97h11.32l-24.1,77.6h-13.04
					l-16.96-53.02c-0.21-0.68-0.44-1.41-0.67-2.2c-0.23-0.79-0.46-1.63-0.67-2.52c-0.21,0.89-0.44,1.74-0.67,2.52
					c-0.23,0.79-0.46,1.52-0.67,2.2l-17.12,53.02h-13.04L300.75,220z"/>
			</g>
		</g>
	</g>
</g>
</svg>
