<?xml version="1.0" encoding="utf-8"?>
<!-- Generator: Adobe Illustrator 28.0.0, SVG Export Plug-In . SVG Version: 6.00 Build 0)  -->
<svg version="1.1" xmlns="http://www.w3.org/2000/svg" xmlns:xlink="http://www.w3.org/1999/xlink" x="0px" y="0px"
	 viewBox="0 0 512 512" style="enable-background:new 0 0 512 512;" xml:space="preserve">
<style type="text/css">
	.st0{fill:url(#SVGID_1_);}
	.st1{fill:url(#SVGID_00000013195104687134802980000010635881207778516384_);}
	.st2{fill:url(#SVGID_00000083055551812602011980000005755281377602620093_);}
	.st3{fill:none;stroke:#FFFFFF;stroke-width:15;stroke-miterlimit:10;}
	.st4{fill:#FFFFFF;}
	.st5{fill:none;stroke:#FFFFFF;stroke-width:9;stroke-miterlimit:10;}
	.st6{fill:url(#SVGID_00000126318246665123133840000013370468909702906786_);}
	.st7{fill:none;stroke:#FFFFFF;stroke-width:15;stroke-linecap:round;stroke-linejoin:round;stroke-miterlimit:10;}
	.st8{fill:none;stroke:#FFFFFF;stroke-width:10;stroke-linecap:round;stroke-linejoin:round;stroke-miterlimit:10;}
	.st9{fill:url(#SVGID_00000111897149194116210000000007080931384835568039_);}
	.st10{fill:url(#SVGID_00000068659575269440480110000017033924510843883175_);}
	.st11{fill:url(#SVGID_00000109002578595602356680000017453960318533135510_);}
	.st12{fill:url(#SVGID_00000145041690771854464590000011871236951864125324_);}
	.st13{fill:url(#SVGID_00000122714188317158264250000006568523897635738548_);}
	.st14{fill:url(#SVGID_00000128451910001705536310000004782881865697798542_);}
	.st15{fill:url(#SVGID_00000044860653639490851960000004524322072820941198_);}
	.st16{fill:url(#SVGID_00000048464802737638078910000015777108490537991591_);}
	.st17{fill:url(#SVGID_00000139272875615024710830000000500633020706389173_);}
	.st18{fill:url(#SVGID_00000035527795115564647630000010134919496039032995_);}
	.st19{fill:url(#SVGID_00000096054147001864298190000005541605093084403131_);}
	.st20{fill:url(#SVGID_00000065045345087643023640000008942993023940551097_);}
	.st21{fill:url(#SVGID_00000060746286706025920180000003799839535443239096_);}
	.st22{fill:url(#SVGID_00000088126972334196827290000011415578168488848814_);}
	.st23{fill:url(#SVGID_00000003796699302376162950000015117698256589124487_);}
	.st24{fill:url(#SVGID_00000031899909508255833390000001691175119814934677_);}
	.st25{fill:url(#SVGID_00000124862655409109137920000009995137850812268959_);}
	.st26{fill:url(#SVGID_00000163053441418428410230000008208732433430485922_);}
	.st27{fill:#BCBEC0;}
	.st28{fill:url(#SVGID_00000112591878075937793720000010556673313169978269_);}
	.st29{fill:url(#SVGID_00000023974857740671016580000008035740465524850090_);}
	.st30{fill-rule:evenodd;clip-rule:evenodd;fill:#FFFFFF;}
	.st31{clip-path:url(#SVGID_00000142136682962294037010000006752204889051451304_);}
	.st32{fill:none;stroke:#FFFFFF;stroke-width:15.6378;stroke-miterlimit:10;}
	.st33{fill:none;stroke:#FFFFFF;stroke-width:9.8091;stroke-linecap:round;stroke-linejoin:round;stroke-miterlimit:10;}
	.st34{fill:url(#SVGID_00000003790706949746862070000010657097691136631438_);}
	.st35{clip-path:url(#SVGID_00000034057186468915359130000017738734283444596356_);}
	.st36{fill:none;stroke:#FFFFFF;stroke-width:3.5938;stroke-miterlimit:10;}
	.st37{clip-path:url(#SVGID_00000079468808235934577250000016700174265559619252_);}
	.st38{fill:none;stroke:#FFFFFF;stroke-width:6.402;stroke-miterlimit:10;}
	.st39{fill:url(#SVGID_00000163755655086395716340000011728420849867029670_);}
	.st40{fill:none;stroke:#FFFFFF;stroke-width:14.3924;stroke-linecap:round;stroke-linejoin:round;stroke-miterlimit:10;}
	.st41{fill:none;stroke:#FFFFFF;stroke-width:8;stroke-linecap:round;stroke-linejoin:round;stroke-miterlimit:10;}
	.st42{fill:url(#SVGID_00000047043624564294606440000011830432175074515075_);}
	.st43{fill:#FFFFFF;stroke:#FFFFFF;stroke-width:2.9178;stroke-miterlimit:10;}
</style>
<g id="GPS">
</g>
<g id="Icons">
	<linearGradient id="SVGID_1_" gradientUnits="userSpaceOnUse" x1="52.5652" y1="225.9679" x2="459.4348" y2="225.9679">
		<stop  offset="0" style="stop-color:#F15D22"/>
		<stop  offset="1" style="stop-color:#ED2024"/>
	</linearGradient>
	<circle class="st0" cx="256" cy="225.97" r="203.43"/>
	<g>
		<path d="M224.55,450.59v4.26h-18.53v13.49h15.84v4.25h-15.84v16.59h-5.25v-38.59H224.55z"/>
		<path d="M235.84,449.51v39.67h-4.79v-39.67H235.84z"/>
		<path d="M255.34,461.47c1.99,0,3.79,0.33,5.4,1c1.61,0.66,2.97,1.61,4.09,2.83s1.98,2.7,2.59,4.43c0.6,1.73,0.9,3.67,0.9,5.8
			c0,2.15-0.3,4.09-0.9,5.82s-1.46,3.2-2.59,4.42s-2.49,2.16-4.09,2.81c-1.61,0.65-3.41,0.98-5.4,0.98c-1.99,0-3.79-0.33-5.4-0.98
			c-1.61-0.66-2.98-1.59-4.11-2.81c-1.13-1.22-2-2.69-2.61-4.42s-0.92-3.66-0.92-5.82c0-2.14,0.31-4.07,0.92-5.8
			c0.61-1.73,1.48-3.21,2.61-4.43c1.13-1.22,2.5-2.16,4.11-2.83C251.54,461.8,253.34,461.47,255.34,461.47z M255.34,485.81
			c2.69,0,4.7-0.9,6.03-2.71c1.33-1.8,1.99-4.32,1.99-7.55c0-3.25-0.66-5.78-1.99-7.59c-1.33-1.81-3.34-2.72-6.03-2.72
			c-1.36,0-2.55,0.23-3.55,0.7c-1.01,0.47-1.84,1.14-2.52,2.02s-1.18,1.96-1.51,3.25c-0.33,1.28-0.5,2.73-0.5,4.35
			c0,1.62,0.17,3.06,0.5,4.34c0.33,1.27,0.83,2.35,1.51,3.22c0.67,0.87,1.51,1.54,2.52,2.01
			C252.79,485.58,253.97,485.81,255.34,485.81z"/>
		<path d="M270.69,461.9h3.77c0.39,0,0.72,0.1,0.97,0.3c0.25,0.2,0.42,0.43,0.51,0.7l5.22,17.56c0.14,0.65,0.28,1.27,0.4,1.87
			c0.13,0.6,0.23,1.21,0.32,1.82c0.14-0.61,0.3-1.22,0.48-1.82s0.37-1.23,0.57-1.87l5.76-17.67c0.09-0.27,0.25-0.49,0.47-0.67
			c0.22-0.18,0.51-0.27,0.85-0.27h2.07c0.36,0,0.66,0.09,0.89,0.27c0.23,0.18,0.39,0.4,0.48,0.67l5.63,17.67
			c0.2,0.63,0.37,1.25,0.53,1.86s0.3,1.21,0.45,1.8c0.09-0.59,0.21-1.21,0.35-1.86c0.14-0.65,0.3-1.25,0.46-1.8l5.33-17.56
			c0.09-0.29,0.26-0.52,0.51-0.71c0.25-0.19,0.55-0.28,0.89-0.28h3.61l-8.83,27.28h-3.8c-0.47,0-0.79-0.3-0.97-0.92l-6.03-18.5
			c-0.14-0.41-0.26-0.83-0.35-1.25s-0.18-0.84-0.27-1.25c-0.09,0.41-0.18,0.83-0.27,1.27s-0.21,0.85-0.35,1.27l-6.11,18.47
			c-0.2,0.61-0.57,0.92-1.1,0.92h-3.61L270.69,461.9z"/>
	</g>
	<g>
		<defs>
			<circle id="SVGID_00000165926106645039551270000015827657501503017144_" cx="363.36" cy="-251.23" r="88.07"/>
		</defs>
		<clipPath id="SVGID_00000119808897638570234970000001996549772759712431_">
			<use xlink:href="#SVGID_00000165926106645039551270000015827657501503017144_"  style="overflow:visible;"/>
		</clipPath>
		<g style="clip-path:url(#SVGID_00000119808897638570234970000001996549772759712431_);">
			<g>
				<g>
					<path class="st32" d="M388.93-30.32c-48.66-48.66-127.54-48.66-176.2,0 M238.31-4.75c34.53-34.53,90.51-34.53,125.04,0"/>
					<path class="st32" d="M363.36-4.75c-34.53-34.53-90.51-34.53-125.04,0 M263.89,20.83c20.4-20.4,53.49-20.4,73.89,0"/>
				</g>
			</g>
		</g>
	</g>
	<g>
		<g>
			<path class="st4" d="M156.35,184.91v11.48h-34.4v22.97h29.03v11.54h-29.03v31.61h-14.54v-77.6H156.35z"/>
			<path class="st4" d="M182.11,250.6h31.07v11.91h-45.51v-77.6h14.44V250.6z"/>
		</g>
		<g>
			<defs>
				<circle id="SVGID_00000148662735545315659050000006796524851134237332_" cx="259.04" cy="225.9" r="41.98"/>
			</defs>
			<clipPath id="SVGID_00000141428268115185709010000006760624549956539313_">
				<use xlink:href="#SVGID_00000148662735545315659050000006796524851134237332_"  style="overflow:visible;"/>
			</clipPath>
			<g style="clip-path:url(#SVGID_00000141428268115185709010000006760624549956539313_);">
				<g>
					<g>
						<path class="st38" d="M271.23,295.98c-2.97,2.97-6.18,5.56-9.57,7.77c5.53,2.58,10.82,5.87,15.73,9.84
							c2.08-1.68,4.09-3.49,6.02-5.42"/>
						<path class="st38" d="M187.25,295.98c2.97,2.97,6.18,5.56,9.57,7.77c20.5-9.57,44.36-9.57,64.85,0
							c3.38-2.21,6.59-4.79,9.57-7.77 M259.04,283.79c-16.46,16.46-43.14,16.46-59.6,0"/>
						<path class="st38" d="M199.44,283.79c16.46,16.46,43.14,16.46,59.6,0 M246.85,271.6c-9.73,9.73-25.49,9.73-35.22,0"/>
						<path class="st38" d="M211.63,271.6c9.73,9.73,25.49,9.73,35.22,0 M234.66,259.4c-2.99,2.99-7.84,2.99-10.84,0"/>
						<path class="st38" d="M223.82,259.4c2.99,2.99,7.84,2.99,10.84,0"/>
						<path class="st38" d="M283.42,319.01c-1.93-1.93-3.95-3.74-6.02-5.42c-4.91-3.98-10.2-7.26-15.73-9.84
							c-20.5-9.57-44.36-9.57-64.85,0c-5.53,2.58-10.82,5.87-15.73,9.84c-2.08,1.68-4.09,3.49-6.02,5.42 M187.25,331.2
							c23.19-23.19,60.79-23.19,83.98,0"/>
						<path class="st38" d="M271.23,331.2c-23.19-23.19-60.79-23.19-83.98,0 M199.44,343.39c16.46-16.46,43.14-16.46,59.6,0"/>
						<path class="st38" d="M259.04,343.39c-16.46-16.46-43.14-16.46-59.6,0 M211.63,355.58c9.73-9.73,25.49-9.73,35.22,0"/>
					</g>
					<g>
						<path class="st38" d="M211.63,236.38c-2.97,2.97-6.18,5.56-9.57,7.77c5.53,2.58,10.82,5.87,15.73,9.84
							c2.08-1.68,4.09-3.49,6.02-5.42"/>
						<path class="st38" d="M127.65,236.38c2.97,2.97,6.18,5.56,9.57,7.77c20.5-9.57,44.36-9.57,64.85,0
							c3.38-2.21,6.59-4.79,9.57-7.77 M199.44,224.19c-16.46,16.46-43.14,16.46-59.6,0"/>
						<path class="st38" d="M139.84,224.19c16.46,16.46,43.14,16.46,59.6,0 M187.25,211.99c-9.73,9.73-25.49,9.73-35.22,0"/>
						<path class="st38" d="M152.03,211.99c9.73,9.73,25.49,9.73,35.22,0 M175.06,199.8c-2.99,2.99-7.84,2.99-10.84,0"/>
						<path class="st38" d="M164.22,199.8c2.99,2.99,7.84,2.99,10.84,0"/>
						<path class="st38" d="M223.82,259.4c-1.93-1.93-3.95-3.74-6.02-5.42c-4.91-3.98-10.2-7.26-15.73-9.84
							c-20.5-9.57-44.36-9.57-64.85,0c-5.53,2.58-10.82,5.87-15.73,9.84c-2.08,1.68-4.09,3.49-6.02,5.42 M127.65,271.6
							c23.19-23.19,60.79-23.19,83.98,0"/>
						<path class="st38" d="M211.63,271.6c-23.19-23.19-60.79-23.19-83.98,0 M139.84,283.79c16.46-16.46,43.14-16.46,59.6,0"/>
						<path class="st38" d="M199.44,283.79c-16.46-16.46-43.14-16.46-59.6,0 M152.03,295.98c9.73-9.73,25.49-9.73,35.22,0"/>
					</g>
				</g>
				<g>
					<g>
						<path class="st38" d="M234.66,248.57c1.93,1.93,3.95,3.74,6.02,5.42c4.91-3.98,10.2-7.26,15.73-9.84
							c-3.38-2.21-6.59-4.79-9.57-7.77"/>
						<path class="st38" d="M330.83,236.38c-2.97,2.97-6.18,5.56-9.57,7.77c5.53,2.58,10.82,5.87,15.73,9.84
							c2.08-1.68,4.09-3.49,6.02-5.42"/>
						<path class="st38" d="M246.85,236.38c2.97,2.97,6.18,5.56,9.57,7.77c20.5-9.57,44.36-9.57,64.85,0
							c3.38-2.21,6.59-4.79,9.57-7.77 M318.64,224.19c-16.46,16.46-43.14,16.46-59.6,0"/>
						<path class="st38" d="M259.04,224.19c16.46,16.46,43.14,16.46,59.6,0 M306.45,211.99c-9.73,9.73-25.49,9.73-35.22,0"/>
						<path class="st38" d="M271.23,211.99c9.73,9.73,25.49,9.73,35.22,0 M294.26,199.8c-2.99,2.99-7.84,2.99-10.84,0"/>
						<path class="st38" d="M283.42,199.8c2.99,2.99,7.84,2.99,10.84,0"/>
						<path class="st38" d="M343.02,259.4c-1.93-1.93-3.95-3.74-6.02-5.42c-4.91-3.98-10.2-7.26-15.73-9.84
							c-20.5-9.57-44.36-9.57-64.85,0c-5.53,2.58-10.82,5.87-15.73,9.84c-2.08,1.68-4.09,3.49-6.02,5.42 M246.85,271.6
							c23.19-23.19,60.79-23.19,83.98,0"/>
						<path class="st38" d="M330.83,271.6c-23.19-23.19-60.79-23.19-83.98,0 M259.04,283.79c16.46-16.46,43.14-16.46,59.6,0"/>
						<path class="st38" d="M318.64,283.79c-16.46-16.46-43.14-16.46-59.6,0 M271.23,295.98c9.73-9.73,25.49-9.73,35.22,0"/>
						<path class="st38" d="M306.45,295.98c-9.73-9.73-25.49-9.73-35.22,0 M283.42,308.17c2.99-2.99,7.84-2.99,10.84,0"/>
						<path class="st38" d="M294.26,308.17c-2.99-2.99-7.84-2.99-10.84,0"/>
					</g>
					<g>
						<path class="st38" d="M175.06,188.97c1.93,1.93,3.95,3.74,6.02,5.42c4.91-3.98,10.2-7.26,15.73-9.84
							c-3.38-2.21-6.59-4.79-9.57-7.77"/>
						<path class="st38" d="M271.23,176.78c-2.97,2.97-6.18,5.56-9.57,7.77c5.53,2.58,10.82,5.87,15.73,9.84
							c2.08-1.68,4.09-3.49,6.02-5.42"/>
						<path class="st38" d="M187.25,176.78c2.97,2.97,6.18,5.56,9.57,7.77c20.5-9.57,44.36-9.57,64.85,0
							c3.38-2.21,6.59-4.79,9.57-7.77 M259.04,164.59c-16.46,16.46-43.14,16.46-59.6,0"/>
						<path class="st38" d="M199.44,164.59c16.46,16.46,43.14,16.46,59.6,0 M246.85,152.39c-9.73,9.73-25.49,9.73-35.22,0"/>
						<path class="st38" d="M211.63,152.39c9.73,9.73,25.49,9.73,35.22,0 M234.66,140.2c-2.99,2.99-7.84,2.99-10.84,0"/>
						<path class="st38" d="M223.82,140.2c2.99,2.99,7.84,2.99,10.84,0"/>
						<path class="st38" d="M283.42,199.8c-1.93-1.93-3.95-3.74-6.02-5.42c-4.91-3.98-10.2-7.26-15.73-9.84
							c-20.5-9.57-44.36-9.57-64.85,0c-5.53,2.58-10.82,5.87-15.73,9.84c-2.08,1.68-4.09,3.49-6.02,5.42 M187.25,211.99
							c23.19-23.19,60.79-23.19,83.98,0"/>
						<path class="st38" d="M271.23,211.99c-23.19-23.19-60.79-23.19-83.98,0 M199.44,224.19c16.46-16.46,43.14-16.46,59.6,0"/>
						<path class="st38" d="M259.04,224.19c-16.46-16.46-43.14-16.46-59.6,0 M211.63,236.38c9.73-9.73,25.49-9.73,35.22,0"/>
						<path class="st38" d="M246.85,236.38c-9.73-9.73-25.49-9.73-35.22,0 M223.82,248.57c2.99-2.99,7.84-2.99,10.84,0"/>
						<path class="st38" d="M234.66,248.57c-2.99-2.99-7.84-2.99-10.84,0"/>
					</g>
				</g>
				<g>
					<g>
						<path class="st38" d="M294.26,188.97c1.93,1.93,3.95,3.74,6.02,5.42c4.91-3.98,10.2-7.26,15.73-9.84
							c-3.38-2.21-6.59-4.79-9.57-7.77"/>
						<path class="st38" d="M306.45,176.78c2.97,2.97,6.18,5.56,9.57,7.77c20.5-9.57,44.36-9.57,64.85,0
							c3.38-2.21,6.59-4.79,9.57-7.77 M378.24,164.59c-16.46,16.46-43.14,16.46-59.6,0"/>
						<path class="st38" d="M318.64,164.59c16.46,16.46,43.14,16.46,59.6,0 M366.05,152.39c-9.73,9.73-25.49,9.73-35.22,0"/>
						<path class="st38" d="M402.62,199.8c-1.93-1.93-3.95-3.74-6.02-5.42c-4.91-3.98-10.2-7.26-15.73-9.84
							c-20.5-9.57-44.36-9.57-64.85,0c-5.53,2.58-10.82,5.87-15.73,9.84c-2.08,1.68-4.09,3.49-6.02,5.42 M306.45,211.99
							c23.19-23.19,60.79-23.19,83.98,0"/>
						<path class="st38" d="M390.43,211.99c-23.19-23.19-60.79-23.19-83.98,0 M318.64,224.19c16.46-16.46,43.14-16.46,59.6,0"/>
						<path class="st38" d="M378.24,224.19c-16.46-16.46-43.14-16.46-59.6,0 M330.83,236.38c9.73-9.73,25.49-9.73,35.22,0"/>
						<path class="st38" d="M366.05,236.38c-9.73-9.73-25.49-9.73-35.22,0 M343.02,248.57c2.99-2.99,7.84-2.99,10.84,0"/>
						<path class="st38" d="M353.86,248.57c-2.99-2.99-7.84-2.99-10.84,0"/>
					</g>
					<g>
						<path class="st38" d="M234.66,129.37c1.93,1.93,3.95,3.74,6.02,5.42c4.91-3.98,10.2-7.26,15.73-9.84
							c-3.38-2.21-6.59-4.79-9.57-7.77"/>
						<path class="st38" d="M246.85,117.18c2.97,2.97,6.18,5.56,9.57,7.77c20.5-9.57,44.36-9.57,64.85,0
							c3.38-2.21,6.59-4.79,9.57-7.77 M318.64,104.98c-16.46,16.46-43.14,16.46-59.6,0"/>
						<path class="st38" d="M259.04,104.98c16.46,16.46,43.14,16.46,59.6,0 M306.45,92.79c-9.73,9.73-25.49,9.73-35.22,0"/>
						<path class="st38" d="M343.02,140.2c-1.93-1.93-3.95-3.74-6.02-5.42c-4.91-3.98-10.2-7.26-15.73-9.84
							c-20.5-9.57-44.36-9.57-64.85,0c-5.53,2.58-10.82,5.87-15.73,9.84c-2.08,1.68-4.09,3.49-6.02,5.42 M246.85,152.39
							c23.19-23.19,60.79-23.19,83.98,0"/>
						<path class="st38" d="M330.83,152.39c-23.19-23.19-60.79-23.19-83.98,0 M259.04,164.59c16.46-16.46,43.14-16.46,59.6,0"/>
						<path class="st38" d="M318.64,164.59c-16.46-16.46-43.14-16.46-59.6,0 M271.23,176.78c9.73-9.73,25.49-9.73,35.22,0"/>
						<path class="st38" d="M306.45,176.78c-9.73-9.73-25.49-9.73-35.22,0 M283.42,188.97c2.99-2.99,7.84-2.99,10.84,0"/>
						<path class="st38" d="M294.26,188.97c-2.99-2.99-7.84-2.99-10.84,0"/>
					</g>
				</g>
			</g>
		</g>
		<g>
			<path class="st4" d="M300.75,184.91h12.13c1.25,0,2.3,0.29,3.14,0.88c0.84,0.59,1.4,1.39,1.69,2.39l13.2,46.42
				c0.32,1.15,0.62,2.39,0.89,3.73c0.27,1.34,0.53,2.76,0.78,4.27c0.29-1.5,0.6-2.92,0.94-4.27c0.34-1.34,0.71-2.58,1.1-3.73
				l15.24-46.42c0.29-0.82,0.85-1.57,1.69-2.25c0.84-0.68,1.87-1.02,3.09-1.02h4.24c1.25,0,2.29,0.29,3.11,0.88
				c0.82,0.59,1.4,1.39,1.72,2.39l15.13,46.42c0.79,2.29,1.47,4.83,2.04,7.62c0.25-1.39,0.51-2.74,0.78-4.02
				c0.27-1.29,0.54-2.49,0.83-3.6l13.2-46.42c0.25-0.89,0.81-1.66,1.66-2.31c0.86-0.64,1.9-0.97,3.11-0.97h11.32l-24.1,77.6h-13.04
				l-16.96-53.02c-0.21-0.68-0.44-1.41-0.67-2.2c-0.23-0.79-0.46-1.63-0.67-2.52c-0.21,0.89-0.44,1.74-0.67,2.52
				c-0.23,0.79-0.46,1.52-0.67,2.2l-17.12,53.02h-13.04L300.75,184.91z"/>
		</g>
	</g>
</g>
<g id="References">
</g>
</svg>
