<?xml version="1.0" encoding="utf-8"?>
<!-- Generator: Adobe Illustrator 28.0.0, SVG Export Plug-In . SVG Version: 6.00 Build 0)  -->
<svg version="1.1" xmlns="http://www.w3.org/2000/svg" xmlns:xlink="http://www.w3.org/1999/xlink" x="0px" y="0px"
	 viewBox="0 0 512 512" style="enable-background:new 0 0 512 512;" xml:space="preserve">
<style type="text/css">
	.st0{display:none;}
	.st1{fill:url(#SVGID_1_);}
	.st2{fill:none;stroke:#FFFFFF;stroke-width:15;stroke-miterlimit:10;}
	.st3{fill:#FFFFFF;}
	.st4{fill:none;stroke:#FFFFFF;stroke-width:9;stroke-miterlimit:10;}
	.st5{fill:url(#SVGID_00000025440363105237930840000001988175123206008723_);}
	.st6{fill:none;stroke:#FFFFFF;stroke-width:15;stroke-linecap:round;stroke-linejoin:round;stroke-miterlimit:10;}
	.st7{fill:none;stroke:#FFFFFF;stroke-width:10;stroke-linecap:round;stroke-linejoin:round;stroke-miterlimit:10;}
	.st8{fill:url(#SVGID_00000093143399930597679250000011952051646308095412_);}
	.st9{fill:url(#SVGID_00000112590705528140102750000017193866181087364748_);}
	.st10{fill:url(#SVGID_00000109020613891707013050000014326389812252873118_);}
	.st11{fill:url(#SVGID_00000111879806368891021070000001779583870491072158_);}
	.st12{fill:url(#SVGID_00000157989136445783017800000005884866679708803756_);}
	.st13{fill:url(#SVGID_00000046337978420520518750000002790001461721609646_);}
	.st14{fill:url(#SVGID_00000089570969240574288770000013469913244245715345_);}
	.st15{fill:url(#SVGID_00000005268113868060700720000016249486944257513354_);}
	.st16{fill:url(#SVGID_00000033329823749424531620000009415112531619601576_);}
	.st17{fill:url(#SVGID_00000089554220144909955820000006514609975673138341_);}
	.st18{fill:url(#SVGID_00000087391383118009104380000005645793598245351820_);}
	.st19{fill:url(#SVGID_00000127737875434828335050000006790613046154857097_);}
	.st20{fill:url(#SVGID_00000095315036322734463910000001294124435046610082_);}
	.st21{fill:url(#SVGID_00000137115074967027420720000006190235674526247867_);}
	.st22{fill:url(#SVGID_00000073713111785203813570000006020666189476219579_);}
	.st23{fill:url(#SVGID_00000086666769362835260030000012876471244264298659_);}
	.st24{fill:url(#SVGID_00000134210221987192949310000003086095129080426644_);}
	.st25{fill:#BCBEC0;}
	.st26{fill:url(#SVGID_00000155137100498876229840000012432325471606507439_);}
	.st27{fill:url(#SVGID_00000003101000874100711250000014923123817960566665_);}
	.st28{fill-rule:evenodd;clip-rule:evenodd;fill:#FFFFFF;}
	.st29{fill:url(#SVGID_00000119107052567373906020000008272116896482197147_);}
	.st30{fill:none;stroke:#FFFFFF;stroke-width:9.8091;stroke-linecap:round;stroke-linejoin:round;stroke-miterlimit:10;}
	.st31{fill:url(#SVGID_00000087378773117554401250000009721492784014660261_);}
	.st32{fill:url(#SVGID_00000041263060741242671560000005706419889328469433_);}
	.st33{clip-path:url(#SVGID_00000078727350626716329810000009916383528088000937_);}
	.st34{fill:none;stroke:#FFFFFF;stroke-width:6.402;stroke-miterlimit:10;}
	.st35{fill:url(#SVGID_00000011743736172296459690000010961620075812607162_);}
	.st36{fill:none;stroke:#FFFFFF;stroke-width:14.3924;stroke-linecap:round;stroke-linejoin:round;stroke-miterlimit:10;}
	.st37{fill:none;stroke:#FFFFFF;stroke-width:8;stroke-linecap:round;stroke-linejoin:round;stroke-miterlimit:10;}
	.st38{fill:url(#SVGID_00000065774203019823951070000006405805911361806770_);}
	.st39{fill:#FFFFFF;stroke:#FFFFFF;stroke-width:2.9178;stroke-miterlimit:10;}
	.st40{fill:url(#SVGID_00000158748463792325367900000011897580092704471205_);}
	.st41{fill:url(#SVGID_00000145745182426543108600000007965029011114472081_);}
	.st42{fill:url(#SVGID_00000120518021190829089270000017817583479647424409_);}
	.st43{fill:none;stroke:#FFFFFF;stroke-width:10.1249;stroke-linecap:round;stroke-linejoin:round;stroke-miterlimit:10;}
	.st44{fill:url(#SVGID_00000172412700918211590280000007373372494537968294_);}
	.st45{fill:url(#SVGID_00000010993002605609281740000007442719839498234001_);}
	.st46{fill:url(#SVGID_00000083083112352098080320000000906515423365755298_);}
	.st47{fill:url(#SVGID_00000088095641126690550250000002388642087618592421_);}
	.st48{fill:#FFFFFF;stroke:#FFFFFF;stroke-width:7.9684;stroke-linecap:round;stroke-linejoin:round;stroke-miterlimit:10;}
	.st49{fill:url(#SVGID_00000062191168797654936900000000367204808257672582_);}
	.st50{fill:url(#SVGID_00000104702784096250800670000017835022310257977257_);}
	.st51{fill:url(#SVGID_00000016791708884138422360000013223963775947252159_);}
	.st52{fill:url(#SVGID_00000165955029299929937010000006256128327225243523_);}
	.st53{fill:url(#SVGID_00000062160199505022362260000014020331562098869171_);}
	.st54{fill:url(#SVGID_00000003803050421726258750000014290489916853752961_);}
	.st55{fill:url(#SVGID_00000121239780333158946800000014669779879518471297_);}
	.st56{fill:url(#SVGID_00000170987942300906113230000007425829595127458948_);}
	.st57{fill:url(#SVGID_00000024680209237568638350000007897087102895434634_);}
	.st58{fill:url(#SVGID_00000050644381309956716940000016050379562078168481_);}
	.st59{fill:url(#SVGID_00000039836344345376490190000013386857359572705213_);}
	.st60{fill:url(#SVGID_00000176031856771712209630000016033582369727654325_);}
	.st61{fill:url(#SVGID_00000049928820721361458170000014266579146630177947_);}
	.st62{fill:url(#SVGID_00000171685392804133311170000012346715565033310091_);}
	.st63{fill:url(#SVGID_00000013884025556397892770000017522348659366699408_);}
	.st64{fill:url(#SVGID_00000000197738018491007920000005658652109237552560_);}
	.st65{fill:url(#SVGID_00000010994364698230107860000004397229917940217002_);}
	.st66{fill:url(#SVGID_00000143608105611392179450000015804640130488463287_);}
	.st67{fill:url(#SVGID_00000072968445708483736100000017822778858905303457_);}
	.st68{fill:url(#SVGID_00000167385076744966721690000005535352287577194639_);}
	.st69{fill:url(#SVGID_00000103945450548160551220000006704295875941184183_);}
	.st70{fill:url(#SVGID_00000132051682376568545040000015697297178257015451_);}
	.st71{fill:url(#SVGID_00000156571729807475074390000011935152584471724709_);}
	.st72{fill:url(#SVGID_00000131350927435953121930000008449132226284575127_);}
	.st73{clip-path:url(#SVGID_00000176010488858350305000000011285152851138615992_);}
	.st74{fill:url(#SVGID_00000180357834749168215640000012470383370018194099_);}
	.st75{fill:url(#SVGID_00000047757817803487805170000010237858215378426026_);}
	.st76{fill:url(#SVGID_00000095305995874325837060000008075332942399671430_);}
	.st77{fill:url(#SVGID_00000057117673300320515190000018045884999550959286_);}
	.st78{fill:url(#SVGID_00000183945937242643898450000012849889692623217846_);}
	.st79{fill:url(#SVGID_00000014618460776900796980000006514883730419738772_);}
	.st80{fill:url(#SVGID_00000130623917162601549120000006444326363509290369_);}
	.st81{fill:url(#SVGID_00000032639088709962297080000002355812166766190995_);}
	.st82{fill:url(#SVGID_00000021095188337042848110000008438709743592004754_);}
</style>
<g id="GPS">
</g>
<g id="References" class="st0">
</g>
<g id="Icons">
	<g>
		<linearGradient id="SVGID_1_" gradientUnits="userSpaceOnUse" x1="55.618" y1="261.3382" x2="462.4875" y2="261.3382">
			<stop  offset="0" style="stop-color:#F15D22"/>
			<stop  offset="1" style="stop-color:#ED2024"/>
		</linearGradient>
		<circle class="st1" cx="259.05" cy="261.34" r="203.43"/>
		<g>
			<path class="st2" d="M316.82,337.17H200.24c-17.77,0-32.17-14.4-32.17-32.17v-72.18c0-17.77,14.4-32.17,32.17-32.17h116.58
				c17.77,0,32.17,14.4,32.17,32.17V305C348.99,322.76,334.58,337.17,316.82,337.17z"/>
			<path class="st3" d="M310.17,220.61L310.17,220.61c-2.88,0-5.22-2.34-5.22-5.22v-34.35c0-2.88,2.34-5.22,5.22-5.22l0,0
				c2.88,0,5.22,2.34,5.22,5.22v34.35C315.38,218.28,313.05,220.61,310.17,220.61z"/>
			<path class="st3" d="M284.08,220.61L284.08,220.61c-2.88,0-5.22-2.34-5.22-5.22v-34.35c0-2.88,2.34-5.22,5.22-5.22h0
				c2.88,0,5.22,2.34,5.22,5.22v34.35C289.3,218.28,286.97,220.61,284.08,220.61z"/>
			<path class="st3" d="M231.92,220.61L231.92,220.61c-2.88,0-5.22-2.34-5.22-5.22v-34.35c0-2.88,2.34-5.22,5.22-5.22l0,0
				c2.88,0,5.22,2.34,5.22,5.22v34.35C237.14,218.28,234.8,220.61,231.92,220.61z"/>
			<path class="st3" d="M258,220.61L258,220.61c-2.88,0-5.22-2.34-5.22-5.22v-34.35c0-2.88,2.34-5.22,5.22-5.22l0,0
				c2.88,0,5.22,2.34,5.22,5.22v34.35C263.22,218.28,260.88,220.61,258,220.61z"/>
			<path class="st3" d="M205.84,220.61L205.84,220.61c-2.88,0-5.22-2.34-5.22-5.22v-34.35c0-2.88,2.34-5.22,5.22-5.22h0
				c2.88,0,5.22,2.34,5.22,5.22v34.35C211.06,218.28,208.72,220.61,205.84,220.61z"/>
			<line class="st4" x1="168.33" y1="237.52" x2="348.56" y2="237.52"/>
			<path class="st3" d="M259.84,252.52l8.66,17.54c0.23,0.46,0.66,0.78,1.17,0.85l19.36,2.81c1.27,0.18,1.78,1.75,0.86,2.65
				l-14.01,13.65c-0.37,0.36-0.53,0.87-0.45,1.37l3.31,19.28c0.22,1.27-1.11,2.23-2.25,1.64l-17.31-9.1c-0.45-0.24-0.99-0.24-1.44,0
				l-17.31,9.1c-1.14,0.6-2.47-0.37-2.25-1.64l3.31-19.28c0.09-0.5-0.08-1.02-0.45-1.37l-14.01-13.65c-0.92-0.9-0.41-2.46,0.86-2.65
				l19.36-2.81c0.51-0.07,0.94-0.39,1.17-0.85l8.66-17.54C257.62,251.37,259.27,251.37,259.84,252.52z"/>
		</g>
	</g>
</g>
</svg>
