<?xml version="1.0" encoding="utf-8"?>
<!-- Generator: Adobe Illustrator 28.0.0, SVG Export Plug-In . SVG Version: 6.00 Build 0)  -->
<svg version="1.1" xmlns="http://www.w3.org/2000/svg" xmlns:xlink="http://www.w3.org/1999/xlink" x="0px" y="0px"
	 viewBox="0 0 512 512" style="enable-background:new 0 0 512 512;" xml:space="preserve">
<style type="text/css">
	.st0{fill:url(#SVGID_1_);}
	.st1{fill:url(#SVGID_00000101103338249310877190000017063371536676077986_);}
	.st2{fill:url(#SVGID_00000161599419163375005350000010804702562129341348_);}
	.st3{fill:none;stroke:#FFFFFF;stroke-width:15;stroke-miterlimit:10;}
	.st4{fill:#FFFFFF;}
	.st5{fill:none;stroke:#FFFFFF;stroke-width:9;stroke-miterlimit:10;}
	.st6{fill:url(#SVGID_00000097473251982900210530000005473217632325293223_);}
	.st7{fill:none;stroke:#FFFFFF;stroke-width:15;stroke-linecap:round;stroke-linejoin:round;stroke-miterlimit:10;}
	.st8{fill:none;stroke:#FFFFFF;stroke-width:10;stroke-linecap:round;stroke-linejoin:round;stroke-miterlimit:10;}
	.st9{fill:url(#SVGID_00000074418552553650644690000005024399362796772277_);}
	.st10{fill:url(#SVGID_00000067942442670346251410000012522623358022040193_);}
	.st11{fill:url(#SVGID_00000178182579386645668940000011114458197328902320_);}
	.st12{fill:url(#SVGID_00000049905147046429890770000000402187580823195835_);}
	.st13{fill:url(#SVGID_00000121268917367932720090000001504530332664900781_);}
	.st14{fill:url(#SVGID_00000099652505624772216590000008160503486089431730_);}
	.st15{fill:url(#SVGID_00000037676416962266367360000002799964157770115224_);}
	.st16{fill:url(#SVGID_00000091719641939224365380000001590279377637883567_);}
	.st17{fill:url(#SVGID_00000111893737175024280110000006357120069212482441_);}
	.st18{fill:url(#SVGID_00000058547963209162430650000001590416933976289982_);}
	.st19{fill:url(#SVGID_00000169524996993207128940000006377583697971458452_);}
	.st20{fill:url(#SVGID_00000108281651788798698120000016067448902288649892_);}
	.st21{fill:url(#SVGID_00000160178865217612099470000013472807653456556180_);}
	.st22{fill:url(#SVGID_00000023238598760139709240000009834021280254632122_);}
	.st23{fill:url(#SVGID_00000144299199414169869240000005557594468237097613_);}
	.st24{fill:url(#SVGID_00000011014680940951793800000013104090223586218130_);}
	.st25{fill:url(#SVGID_00000004538516958524492970000001939771813410054021_);}
	.st26{fill:url(#SVGID_00000144295649097859253930000011366960635914679988_);}
	.st27{fill:#BCBEC0;}
	.st28{fill:url(#SVGID_00000099625521689922239610000017247095377658512536_);}
	.st29{fill:url(#SVGID_00000100377795509036673590000003712799648237971616_);}
	.st30{fill-rule:evenodd;clip-rule:evenodd;fill:#FFFFFF;}
	.st31{clip-path:url(#SVGID_00000117660953004448040370000015652616825608291491_);}
	.st32{fill:none;stroke:#FFFFFF;stroke-width:15.6378;stroke-miterlimit:10;}
	.st33{fill:none;stroke:#FFFFFF;stroke-width:9.8091;stroke-linecap:round;stroke-linejoin:round;stroke-miterlimit:10;}
	.st34{fill:url(#SVGID_00000152954499636014409490000010309187282550884774_);}
	.st35{fill:none;stroke:#FFFFFF;stroke-width:14.3924;stroke-linecap:round;stroke-linejoin:round;stroke-miterlimit:10;}
	.st36{fill:none;stroke:#FFFFFF;stroke-width:8;stroke-linecap:round;stroke-linejoin:round;stroke-miterlimit:10;}
	.st37{fill:url(#SVGID_00000100356791150311713310000000824278510120088739_);}
	.st38{fill:#FFFFFF;stroke:#FFFFFF;stroke-width:2.9178;stroke-miterlimit:10;}
</style>
<g id="GPS">
</g>
<g id="Icons">
	<g>
		<linearGradient id="SVGID_1_" gradientUnits="userSpaceOnUse" x1="55.618" y1="226.2554" x2="462.4875" y2="226.2554">
			<stop  offset="0" style="stop-color:#F15D22"/>
			<stop  offset="1" style="stop-color:#ED2024"/>
		</linearGradient>
		<circle class="st0" cx="259.05" cy="226.26" r="203.43"/>
		<g>
			<path class="st3" d="M316.82,302.08H200.24c-17.77,0-32.17-14.4-32.17-32.17v-72.18c0-17.77,14.4-32.17,32.17-32.17h116.58
				c17.77,0,32.17,14.4,32.17,32.17v72.18C348.99,287.68,334.58,302.08,316.82,302.08z"/>
			<path class="st4" d="M310.17,185.53L310.17,185.53c-2.88,0-5.22-2.34-5.22-5.22v-34.35c0-2.88,2.34-5.22,5.22-5.22l0,0
				c2.88,0,5.22,2.34,5.22,5.22v34.35C315.38,183.19,313.05,185.53,310.17,185.53z"/>
			<path class="st4" d="M284.08,185.53L284.08,185.53c-2.88,0-5.22-2.34-5.22-5.22v-34.35c0-2.88,2.34-5.22,5.22-5.22h0
				c2.88,0,5.22,2.34,5.22,5.22v34.35C289.3,183.19,286.97,185.53,284.08,185.53z"/>
			<path class="st4" d="M231.92,185.53L231.92,185.53c-2.88,0-5.22-2.34-5.22-5.22v-34.35c0-2.88,2.34-5.22,5.22-5.22l0,0
				c2.88,0,5.22,2.34,5.22,5.22v34.35C237.14,183.19,234.8,185.53,231.92,185.53z"/>
			<path class="st4" d="M258,185.53L258,185.53c-2.88,0-5.22-2.34-5.22-5.22v-34.35c0-2.88,2.34-5.22,5.22-5.22l0,0
				c2.88,0,5.22,2.34,5.22,5.22v34.35C263.22,183.19,260.88,185.53,258,185.53z"/>
			<path class="st4" d="M205.84,185.53L205.84,185.53c-2.88,0-5.22-2.34-5.22-5.22v-34.35c0-2.88,2.34-5.22,5.22-5.22h0
				c2.88,0,5.22,2.34,5.22,5.22v34.35C211.06,183.19,208.72,185.53,205.84,185.53z"/>
			<line class="st5" x1="168.33" y1="202.44" x2="348.56" y2="202.44"/>
			<path class="st4" d="M259.84,217.44l8.66,17.54c0.23,0.46,0.66,0.78,1.17,0.85l19.36,2.81c1.27,0.18,1.78,1.75,0.86,2.65
				l-14.01,13.65c-0.37,0.36-0.53,0.87-0.45,1.37l3.31,19.28c0.22,1.27-1.11,2.23-2.25,1.64l-17.31-9.1c-0.45-0.24-0.99-0.24-1.44,0
				l-17.31,9.1c-1.14,0.6-2.47-0.37-2.25-1.64l3.31-19.28c0.09-0.5-0.08-1.02-0.45-1.37l-14.01-13.65c-0.92-0.9-0.41-2.46,0.86-2.65
				l19.36-2.81c0.51-0.07,0.94-0.39,1.17-0.85l8.66-17.54C257.62,216.28,259.27,216.28,259.84,217.44z"/>
		</g>
	</g>
	<g>
		<path d="M206.43,450.59v4.26H187.9v12.82h15v4.09h-15v13.17h18.53v4.25h-23.78v-38.59H206.43z"/>
		<path d="M209.74,461.9h3.93c0.38,0,0.69,0.1,0.94,0.3c0.25,0.2,0.43,0.43,0.54,0.7l6.92,17.56c0.25,0.65,0.45,1.29,0.59,1.94
			c0.14,0.65,0.28,1.28,0.4,1.91c0.14-0.63,0.3-1.27,0.46-1.91c0.16-0.65,0.37-1.29,0.62-1.94l7-17.56
			c0.11-0.29,0.28-0.52,0.53-0.71c0.24-0.19,0.54-0.28,0.9-0.28h3.74l-11.12,27.28h-4.34L209.74,461.9z"/>
		<path d="M250.87,461.47c1.63,0,3.14,0.27,4.52,0.82c1.38,0.55,2.58,1.34,3.58,2.37c1,1.03,1.79,2.31,2.36,3.82
			s0.85,3.25,0.85,5.18c0,0.75-0.08,1.26-0.24,1.51c-0.16,0.25-0.47,0.38-0.92,0.38h-18.15c0.04,1.72,0.27,3.22,0.7,4.5
			c0.43,1.28,1.02,2.34,1.78,3.19c0.75,0.85,1.65,1.49,2.69,1.91c1.04,0.42,2.21,0.63,3.5,0.63c1.2,0,2.24-0.14,3.11-0.42
			c0.87-0.28,1.62-0.58,2.25-0.9c0.63-0.32,1.15-0.62,1.58-0.9s0.79-0.42,1.09-0.42c0.39,0,0.7,0.15,0.92,0.46l1.35,1.75
			c-0.59,0.72-1.3,1.34-2.13,1.87c-0.83,0.53-1.71,0.96-2.65,1.31c-0.94,0.34-1.92,0.6-2.92,0.77c-1.01,0.17-2,0.26-2.99,0.26
			c-1.89,0-3.62-0.32-5.21-0.96s-2.96-1.57-4.12-2.8c-1.16-1.23-2.06-2.75-2.71-4.56s-0.97-3.9-0.97-6.25c0-1.9,0.29-3.68,0.88-5.33
			c0.58-1.65,1.42-3.08,2.52-4.29c1.09-1.21,2.43-2.16,4.01-2.86C247.12,461.81,248.89,461.47,250.87,461.47z M250.98,465
			c-2.32,0-4.14,0.67-5.47,2.01c-1.33,1.34-2.15,3.19-2.48,5.56h14.84c0-1.11-0.15-2.13-0.46-3.06c-0.3-0.92-0.75-1.72-1.35-2.4
			c-0.59-0.67-1.32-1.19-2.17-1.56C253.05,465.18,252.07,465,250.98,465z"/>
		<path d="M268.29,489.18V461.9h2.85c0.68,0,1.11,0.33,1.29,1l0.38,2.96c1.19-1.31,2.51-2.37,3.97-3.18
			c1.46-0.81,3.16-1.21,5.08-1.21c1.49,0,2.81,0.25,3.95,0.74c1.14,0.49,2.09,1.19,2.86,2.1c0.76,0.91,1.34,2,1.74,3.27
			c0.4,1.27,0.59,2.68,0.59,4.23v17.37h-4.79v-17.37c0-2.06-0.47-3.67-1.41-4.81c-0.94-1.14-2.38-1.71-4.32-1.71
			c-1.42,0-2.74,0.34-3.97,1.02c-1.23,0.68-2.37,1.61-3.41,2.77v20.09H268.29z"/>
		<path d="M306.51,489.61c-2.16,0-3.81-0.6-4.97-1.8c-1.16-1.2-1.74-2.94-1.74-5.2v-16.7h-3.29c-0.29,0-0.53-0.08-0.73-0.26
			c-0.2-0.17-0.3-0.44-0.3-0.79v-1.91l4.47-0.57l1.1-8.43c0.04-0.27,0.15-0.49,0.35-0.66c0.2-0.17,0.45-0.26,0.75-0.26h2.42v9.4
			h7.81v3.47h-7.81v16.37c0,1.15,0.28,2,0.83,2.56c0.56,0.56,1.27,0.83,2.15,0.83c0.5,0,0.94-0.07,1.31-0.2s0.69-0.28,0.96-0.44
			c0.27-0.16,0.5-0.31,0.69-0.44s0.35-0.2,0.5-0.2c0.25,0,0.48,0.15,0.67,0.46l1.4,2.29c-0.83,0.77-1.82,1.38-2.99,1.82
			C308.95,489.39,307.75,489.61,306.51,489.61z"/>
		<path d="M333.95,466.4c-0.21,0.4-0.55,0.59-1,0.59c-0.27,0-0.58-0.1-0.92-0.3s-0.76-0.42-1.25-0.66
			c-0.49-0.24-1.08-0.47-1.76-0.67c-0.68-0.21-1.49-0.31-2.42-0.31c-0.81,0-1.54,0.1-2.18,0.31s-1.2,0.49-1.66,0.85
			c-0.46,0.36-0.81,0.78-1.05,1.25s-0.36,0.99-0.36,1.55c0,0.7,0.2,1.28,0.61,1.75c0.4,0.47,0.94,0.87,1.6,1.21s1.42,0.64,2.26,0.9
			c0.84,0.26,1.71,0.54,2.6,0.83c0.89,0.3,1.75,0.62,2.6,0.98c0.84,0.36,1.6,0.81,2.26,1.35c0.66,0.54,1.2,1.2,1.6,1.98
			c0.4,0.78,0.61,1.72,0.61,2.81c0,1.26-0.22,2.42-0.67,3.49c-0.45,1.07-1.11,1.99-1.99,2.77c-0.88,0.78-1.96,1.4-3.23,1.84
			c-1.28,0.45-2.75,0.67-4.42,0.67c-1.9,0-3.63-0.31-5.17-0.93s-2.85-1.41-3.93-2.38l1.13-1.83c0.14-0.23,0.31-0.41,0.51-0.54
			c0.2-0.12,0.46-0.19,0.78-0.19s0.66,0.13,1.02,0.38c0.36,0.25,0.79,0.53,1.31,0.83c0.51,0.31,1.13,0.58,1.86,0.83
			c0.73,0.25,1.64,0.38,2.73,0.38c0.93,0,1.75-0.12,2.45-0.36s1.28-0.57,1.75-0.98c0.47-0.41,0.81-0.89,1.04-1.43
			c0.22-0.54,0.34-1.11,0.34-1.72c0-0.75-0.2-1.38-0.61-1.87c-0.4-0.49-0.94-0.92-1.6-1.27c-0.66-0.35-1.42-0.66-2.28-0.92
			c-0.85-0.26-1.72-0.53-2.61-0.82c-0.89-0.29-1.76-0.61-2.61-0.98s-1.61-0.83-2.28-1.39c-0.67-0.56-1.2-1.24-1.6-2.06
			s-0.61-1.81-0.61-2.98c0-1.04,0.22-2.04,0.65-3c0.43-0.96,1.06-1.8,1.89-2.53c0.83-0.73,1.84-1.31,3.04-1.74
			c1.2-0.43,2.58-0.65,4.12-0.65c1.8,0,3.41,0.28,4.83,0.85c1.43,0.57,2.66,1.34,3.7,2.33L333.95,466.4z"/>
	</g>
</g>
<g id="References">
</g>
</svg>
