<?xml version="1.0" encoding="utf-8"?>
<!-- Generator: Adobe Illustrator 28.0.0, SVG Export Plug-In . SVG Version: 6.00 Build 0)  -->
<svg version="1.1" xmlns="http://www.w3.org/2000/svg" xmlns:xlink="http://www.w3.org/1999/xlink" x="0px" y="0px"
	 viewBox="0 0 512 512" style="enable-background:new 0 0 512 512;" xml:space="preserve">
<style type="text/css">
	.st0{fill:url(#SVGID_1_);}
	.st1{fill:url(#SVGID_00000144327353353763997620000013160682088848131718_);}
	.st2{fill:url(#SVGID_00000173134552419710475790000000346719831774415506_);}
	.st3{fill:none;stroke:#FFFFFF;stroke-width:15;stroke-miterlimit:10;}
	.st4{fill:#FFFFFF;}
	.st5{fill:none;stroke:#FFFFFF;stroke-width:9;stroke-miterlimit:10;}
	.st6{fill:url(#SVGID_00000072993673736513145140000005720165228795797388_);}
	.st7{fill:none;stroke:#FFFFFF;stroke-width:15;stroke-linecap:round;stroke-linejoin:round;stroke-miterlimit:10;}
	.st8{fill:none;stroke:#FFFFFF;stroke-width:10;stroke-linecap:round;stroke-linejoin:round;stroke-miterlimit:10;}
	.st9{fill:url(#SVGID_00000142174065215010082150000000186549593140047030_);}
	.st10{fill:url(#SVGID_00000031209368020534727600000003009602229380939651_);}
	.st11{fill:url(#SVGID_00000150815645139290698660000000087523942246022839_);}
	.st12{fill:url(#SVGID_00000037650126687724259080000008182173913229412235_);}
	.st13{fill:url(#SVGID_00000093872255834300581720000001733673657993105288_);}
	.st14{fill:url(#SVGID_00000008845393683520113100000015286640515315589552_);}
	.st15{fill:url(#SVGID_00000043452627328351018930000007970711612122768527_);}
	.st16{fill:url(#SVGID_00000168100741108600439590000015205555303123309234_);}
	.st17{fill:url(#SVGID_00000044136297802755795490000016975175388981517955_);}
	.st18{fill:url(#SVGID_00000083796977606881878050000009365902943894051210_);}
	.st19{fill:url(#SVGID_00000087396183496574585900000016977031647535503003_);}
	.st20{fill:url(#SVGID_00000019649306753512138980000011977770432534443194_);}
	.st21{fill:url(#SVGID_00000079486740633707433940000008561220997177060278_);}
	.st22{fill:url(#SVGID_00000060020952791006413820000012486152389021097891_);}
	.st23{fill:url(#SVGID_00000170992372981865731810000017625770139383172502_);}
	.st24{fill:url(#SVGID_00000149369008971775849530000004299842587893826736_);}
	.st25{fill:url(#SVGID_00000021814135097027051750000014752467029295614609_);}
	.st26{fill:url(#SVGID_00000054231835146390534380000013580363355643862197_);}
	.st27{fill:#BCBEC0;}
	.st28{fill:url(#SVGID_00000067231897717624740320000001860985161545762228_);}
	.st29{fill:url(#SVGID_00000102512377774199999710000006224925832138535060_);}
	.st30{fill-rule:evenodd;clip-rule:evenodd;fill:#FFFFFF;}
	.st31{clip-path:url(#SVGID_00000153694799721633794520000002433055123745541811_);}
	.st32{fill:none;stroke:#FFFFFF;stroke-width:15.6378;stroke-miterlimit:10;}
	.st33{fill:none;stroke:#FFFFFF;stroke-width:9.8091;stroke-linecap:round;stroke-linejoin:round;stroke-miterlimit:10;}
	.st34{fill:url(#SVGID_00000056395658662838842420000017937558895565918388_);}
	.st35{fill:none;stroke:#FFFFFF;stroke-width:14.3924;stroke-linecap:round;stroke-linejoin:round;stroke-miterlimit:10;}
	.st36{fill:none;stroke:#FFFFFF;stroke-width:8;stroke-linecap:round;stroke-linejoin:round;stroke-miterlimit:10;}
	.st37{fill:url(#SVGID_00000093146357256318398460000003982341227706351782_);}
	.st38{fill:#FFFFFF;stroke:#FFFFFF;stroke-width:2.9178;stroke-miterlimit:10;}
</style>
<g id="GPS">
</g>
<g id="Icons">
	<g>
		<linearGradient id="SVGID_1_" gradientUnits="userSpaceOnUse" x1="57.3206" y1="228.0938" x2="464.1901" y2="228.0938">
			<stop  offset="0" style="stop-color:#F15D22"/>
			<stop  offset="1" style="stop-color:#ED2024"/>
		</linearGradient>
		<circle class="st0" cx="260.76" cy="228.09" r="203.43"/>
		<g>
			<path class="st4" d="M246.15,145.59c-43.71-5.27-56.53-1.68-89.41-3.05v11.67c16.83,0.71,31.7,3.3,37.77,8.27
				c3.64,2.98,5.79,9.28,7.01,13.6c1.88,6.7,1.64,8.09,2.57,14.97c0.9,6.65,1.56,13.33,2.07,20.02c0.26,3.48,1.05,7.6,0.38,11.18
				c-0.27,1.42-0.77,2.76-1.62,3.94c-4.12,5.73-9.22,5.38-18.2,5.43c-9.73,0.05-20.12-0.15-29.97-1.86v52.63
				c60.95,0.2,107.67,0.01,168.02,0.01c34.09-4.41,47.37-18.04,47.32-31.49C371.9,202.73,289.86,150.87,246.15,145.59z
				 M342.35,222.58c-15.64,9.92-89.37,12.93-104.96,0.15c-3.64-2.98-5.79-9.28-7.01-13.6c-1.88-6.7-1.64-8.09-2.57-14.97
				c-0.9-6.65-1.56-13.33-2.07-20.02c-0.26-3.48-1.05-7.6-0.38-11.18c0.27-1.42,0.77-2.76,1.62-3.94
				c4.12-5.73,11.79-5.43,18.18-4.79c16.2,1.61,31.22,7.32,45.91,15.72c16.26,9.3,29.6,18.05,42.41,29.92
				C337.19,203.31,350.77,217.24,342.35,222.58z"/>
			<path class="st4" d="M156.74,289.25v14.16h5.61c0,6.09,4.94,11.03,11.03,11.03c6.09,0,11.03-4.94,11.03-11.03h6.82
				c0,6.09,4.94,11.03,11.03,11.03c6.09,0,11.03-4.94,11.03-11.03h27.8c0,6.09,4.94,11.03,11.03,11.03s11.03-4.94,11.03-11.03h6.82
				c0,6.09,4.94,11.03,11.03,11.03c6.09,0,11.03-4.94,11.03-11.03h22.53l10.88-14.16H156.74z"/>
		</g>
	</g>
	<g>
		<path d="M222.2,451.89v4.39h-12.47v34.2h-5.22v-34.2h-12.52v-4.39H222.2z"/>
		<path d="M222.63,490.49v-27.28h2.75c0.52,0,0.88,0.1,1.08,0.3c0.2,0.2,0.33,0.54,0.4,1.02l0.32,4.26c0.93-1.9,2.09-3.39,3.46-4.46
			c1.37-1.07,2.98-1.6,4.83-1.6c0.75,0,1.44,0.08,2.05,0.26s1.18,0.41,1.7,0.71l-0.62,3.58c-0.13,0.45-0.4,0.67-0.84,0.67
			c-0.25,0-0.64-0.08-1.16-0.26c-0.52-0.17-1.25-0.26-2.18-0.26c-1.67,0-3.07,0.48-4.19,1.45c-1.12,0.97-2.06,2.38-2.81,4.23v17.37
			H222.63z"/>
		<path d="M263.36,490.49h-2.13c-0.47,0-0.84-0.07-1.13-0.22c-0.29-0.14-0.47-0.45-0.56-0.92l-0.54-2.53
			c-0.72,0.65-1.42,1.23-2.1,1.74s-1.4,0.94-2.16,1.29c-0.75,0.35-1.56,0.62-2.41,0.79c-0.85,0.18-1.8,0.27-2.84,0.27
			c-1.06,0-2.05-0.15-2.98-0.45c-0.93-0.3-1.73-0.74-2.41-1.34c-0.68-0.59-1.23-1.35-1.63-2.26c-0.4-0.91-0.61-1.99-0.61-3.23
			c0-1.08,0.3-2.12,0.89-3.12c0.59-1,1.55-1.89,2.87-2.66c1.32-0.78,3.05-1.41,5.18-1.91c2.14-0.5,4.75-0.74,7.84-0.74v-2.14
			c0-2.13-0.45-3.74-1.36-4.84c-0.91-1.09-2.25-1.64-4.03-1.64c-1.17,0-2.15,0.15-2.95,0.44c-0.8,0.3-1.49,0.63-2.07,1
			c-0.58,0.37-1.09,0.7-1.51,1c-0.42,0.3-0.84,0.44-1.25,0.44c-0.32,0-0.61-0.09-0.85-0.26c-0.24-0.17-0.44-0.38-0.58-0.63
			l-0.86-1.53c1.51-1.46,3.13-2.54,4.88-3.26c1.74-0.72,3.67-1.08,5.79-1.08c1.53,0,2.88,0.25,4.07,0.75s2.18,1.2,2.99,2.1
			s1.42,1.98,1.83,3.26c0.41,1.27,0.62,2.67,0.62,4.2V490.49z M250.91,487.55c0.84,0,1.62-0.08,2.32-0.26
			c0.7-0.17,1.36-0.41,1.98-0.73c0.62-0.31,1.21-0.7,1.78-1.14c0.56-0.45,1.12-0.96,1.66-1.53v-5.63c-2.21,0-4.09,0.14-5.63,0.42
			c-1.54,0.28-2.8,0.65-3.77,1.1c-0.97,0.45-1.67,0.98-2.11,1.6s-0.66,1.3-0.66,2.06c0,0.72,0.12,1.35,0.35,1.87
			s0.55,0.95,0.94,1.29c0.39,0.33,0.86,0.58,1.4,0.73C249.7,487.48,250.28,487.55,250.91,487.55z"/>
		<path d="M277.04,454.64c0,0.47-0.09,0.9-0.28,1.31c-0.19,0.4-0.44,0.76-0.75,1.08s-0.68,0.56-1.09,0.74
			c-0.41,0.18-0.85,0.27-1.32,0.27s-0.9-0.09-1.31-0.27c-0.4-0.18-0.76-0.43-1.08-0.74c-0.31-0.31-0.56-0.67-0.74-1.08
			c-0.18-0.4-0.27-0.84-0.27-1.31c0-0.47,0.09-0.91,0.27-1.33c0.18-0.42,0.43-0.79,0.74-1.1c0.31-0.31,0.67-0.56,1.08-0.74
			c0.4-0.18,0.84-0.27,1.31-0.27s0.91,0.09,1.32,0.27c0.41,0.18,0.78,0.43,1.09,0.74c0.31,0.31,0.57,0.68,0.75,1.1
			C276.94,453.73,277.04,454.18,277.04,454.64z M275.96,463.21v27.28h-4.79v-27.28H275.96z"/>
		<path d="M284.41,490.49v-27.28h2.86c0.68,0,1.11,0.33,1.29,1l0.38,2.96c1.18-1.31,2.51-2.37,3.97-3.18
			c1.46-0.81,3.16-1.21,5.08-1.21c1.49,0,2.81,0.25,3.95,0.74c1.14,0.49,2.09,1.19,2.86,2.1c0.76,0.91,1.34,2,1.74,3.27
			c0.4,1.27,0.59,2.68,0.59,4.23v17.37h-4.79v-17.37c0-2.06-0.47-3.67-1.41-4.81c-0.94-1.14-2.38-1.71-4.32-1.71
			c-1.42,0-2.74,0.34-3.97,1.02c-1.23,0.68-2.37,1.61-3.41,2.77v20.09H284.41z"/>
	</g>
</g>
<g id="References">
</g>
</svg>
