<?xml version="1.0" encoding="utf-8"?>
<!-- Generator: Adobe Illustrator 28.0.0, SVG Export Plug-In . SVG Version: 6.00 Build 0)  -->
<svg version="1.1" xmlns="http://www.w3.org/2000/svg" xmlns:xlink="http://www.w3.org/1999/xlink" x="0px" y="0px"
	 viewBox="0 0 512 512" style="enable-background:new 0 0 512 512;" xml:space="preserve">
<style type="text/css">
	.st0{display:none;}
	.st1{fill:url(#SVGID_1_);}
	.st2{fill:none;stroke:#FFFFFF;stroke-width:15;stroke-miterlimit:10;}
	.st3{fill:#FFFFFF;}
	.st4{fill:none;stroke:#FFFFFF;stroke-width:9;stroke-miterlimit:10;}
	.st5{fill:url(#SVGID_00000133493980879095990660000007406010508412701099_);}
	.st6{fill:none;stroke:#FFFFFF;stroke-width:15;stroke-linecap:round;stroke-linejoin:round;stroke-miterlimit:10;}
	.st7{fill:none;stroke:#FFFFFF;stroke-width:10;stroke-linecap:round;stroke-linejoin:round;stroke-miterlimit:10;}
	.st8{fill:url(#SVGID_00000061443219609459016800000010328694951515425164_);}
	.st9{fill:url(#SVGID_00000024709226958582470950000001253647489785094023_);}
	.st10{fill:url(#SVGID_00000116921219951475361320000014319759374143254452_);}
	.st11{fill:url(#SVGID_00000182518117381865992800000011061523398154303669_);}
	.st12{fill:url(#SVGID_00000036950827506120165120000008078904360787677114_);}
	.st13{fill:url(#SVGID_00000124146017533080475680000007904686799625952431_);}
	.st14{fill:url(#SVGID_00000003816650583618849660000009485988266350428565_);}
	.st15{fill:url(#SVGID_00000134225828253531101220000014010686631001417399_);}
	.st16{fill:url(#SVGID_00000027570488165539419490000010951880437185639865_);}
	.st17{fill:url(#SVGID_00000127740965709337937230000015974218760720591800_);}
	.st18{fill:url(#SVGID_00000090996874420946655310000017445506486172878978_);}
	.st19{fill:url(#SVGID_00000070817404104266223220000012217143856550842512_);}
	.st20{fill:url(#SVGID_00000031921563445797527200000015568669754087760295_);}
	.st21{fill:url(#SVGID_00000170967296594123002990000016322127708041896883_);}
	.st22{fill:url(#SVGID_00000142891169122713221960000014652095078125771905_);}
	.st23{fill:url(#SVGID_00000129913981866396716400000010401030059163158677_);}
	.st24{fill:url(#SVGID_00000098932039374187491440000008920326605429932173_);}
	.st25{fill:#BCBEC0;}
	.st26{fill:url(#SVGID_00000044138550058054444410000018324259296832475025_);}
	.st27{fill:url(#SVGID_00000140726111866938097660000002883468034267175066_);}
	.st28{fill-rule:evenodd;clip-rule:evenodd;fill:#FFFFFF;}
	.st29{fill:url(#SVGID_00000182518558004071166060000004716419215434938778_);}
	.st30{fill:none;stroke:#FFFFFF;stroke-width:9.8091;stroke-linecap:round;stroke-linejoin:round;stroke-miterlimit:10;}
	.st31{fill:url(#SVGID_00000067221000488110193490000006592192283975934118_);}
	.st32{fill:url(#SVGID_00000035504591908827315820000001451994573019940533_);}
	.st33{clip-path:url(#SVGID_00000019651149776933739440000002334966454810702740_);}
	.st34{fill:none;stroke:#FFFFFF;stroke-width:6.402;stroke-miterlimit:10;}
	.st35{fill:url(#SVGID_00000115504156385504447270000018079457926514534334_);}
	.st36{fill:none;stroke:#FFFFFF;stroke-width:14.3924;stroke-linecap:round;stroke-linejoin:round;stroke-miterlimit:10;}
	.st37{fill:none;stroke:#FFFFFF;stroke-width:8;stroke-linecap:round;stroke-linejoin:round;stroke-miterlimit:10;}
	.st38{fill:url(#SVGID_00000176746996957722339500000017259806739126809765_);}
	.st39{fill:#FFFFFF;stroke:#FFFFFF;stroke-width:2.9178;stroke-miterlimit:10;}
	.st40{fill:url(#SVGID_00000010299364668690200800000012579586973318697371_);}
	.st41{fill:url(#SVGID_00000060719688691372672620000000564506410179507359_);}
	.st42{fill:url(#SVGID_00000149362366028451049230000003078470454013880965_);}
	.st43{fill:none;stroke:#FFFFFF;stroke-width:10.1249;stroke-linecap:round;stroke-linejoin:round;stroke-miterlimit:10;}
	.st44{fill:url(#SVGID_00000090271942226827742350000003093403341029416351_);}
	.st45{fill:url(#SVGID_00000081636680378646693890000016955592721478347963_);}
	.st46{fill:url(#SVGID_00000178202742812436486380000017149986714179810695_);}
	.st47{fill:url(#SVGID_00000178163425349946148700000012354069104138344087_);}
	.st48{fill:#FFFFFF;stroke:#FFFFFF;stroke-width:7.9684;stroke-linecap:round;stroke-linejoin:round;stroke-miterlimit:10;}
	.st49{fill:url(#SVGID_00000107555185538942295160000005171245698452234881_);}
	.st50{fill:url(#SVGID_00000014625459054316912770000015616246417892129664_);}
	.st51{fill:url(#SVGID_00000115507582660953019670000008458872261404727219_);}
	.st52{fill:url(#SVGID_00000032641998756287849250000009134980744350620308_);}
	.st53{fill:url(#SVGID_00000106850687404422243800000000852884597357627276_);}
	.st54{fill:url(#SVGID_00000032617928609760559200000008020718033754076802_);}
	.st55{fill:url(#SVGID_00000152967106806535766070000010175776469450309290_);}
	.st56{fill:url(#SVGID_00000047038376439377475560000007988663104139444623_);}
	.st57{fill:url(#SVGID_00000180364504754047467060000003515849642691760260_);}
	.st58{fill:url(#SVGID_00000024719618586161016800000010824768026022360209_);}
	.st59{fill:url(#SVGID_00000001626845272772085430000002596918000848642440_);}
	.st60{fill:url(#SVGID_00000173156105093256021860000000307933261408840323_);}
	.st61{fill:url(#SVGID_00000085970396525354584960000000747000084602157977_);}
	.st62{fill:url(#SVGID_00000087402406864736706790000015855796633685682305_);}
	.st63{fill:url(#SVGID_00000007430390059891005640000002341831875892211346_);}
	.st64{fill:url(#SVGID_00000044899638337693630010000000428508165921170307_);}
	.st65{fill:url(#SVGID_00000067216204501178244500000002457153053361472902_);}
	.st66{fill:url(#SVGID_00000058552590474632013950000005456256168744203175_);}
	.st67{fill:url(#SVGID_00000072972600798452724070000016071979237920677018_);}
	.st68{fill:url(#SVGID_00000027603363571557030350000002698432017650469044_);}
	.st69{fill:url(#SVGID_00000016754631585574191320000008062317213097712051_);}
	.st70{fill:url(#SVGID_00000016057687987854488040000013171609777717072780_);}
	.st71{fill:url(#SVGID_00000010307162875803357130000014624236898092243348_);}
	.st72{fill:url(#SVGID_00000002363370376563211000000000459097466379564185_);}
	.st73{clip-path:url(#SVGID_00000169531391278165143440000015931866219695274678_);}
	.st74{fill:url(#SVGID_00000055687242243275604690000013296621585906925738_);}
	.st75{fill:url(#SVGID_00000026884620965358718680000010619759885669897617_);}
	.st76{fill:url(#SVGID_00000005956733742171242850000001662759305213849511_);}
	.st77{fill:url(#SVGID_00000090994950545067186870000013705677065071787922_);}
	.st78{fill:url(#SVGID_00000016758775013501923870000010126781131634525097_);}
	.st79{fill:url(#SVGID_00000078015922729258104410000003283115781644456363_);}
	.st80{fill:url(#SVGID_00000033366004303627096470000005708118389812316554_);}
	.st81{fill:url(#SVGID_00000155125542455043055520000017816424483388531842_);}
	.st82{fill:url(#SVGID_00000140705770752976642000000018197466577601106851_);}
</style>
<g id="GPS">
</g>
<g id="References" class="st0">
</g>
<g id="Icons">
	<g>
		<linearGradient id="SVGID_1_" gradientUnits="userSpaceOnUse" x1="51.2448" y1="262.6024" x2="461.0746" y2="262.6024">
			<stop  offset="0" style="stop-color:#F15D22"/>
			<stop  offset="1" style="stop-color:#ED2024"/>
		</linearGradient>
		<path class="st1" d="M256.16,57.69c-113.17,0-204.91,91.74-204.91,204.91c0,113.17,91.74,204.91,204.91,204.91
			c113.17,0,204.91-91.74,204.91-204.91C461.07,149.43,369.33,57.69,256.16,57.69z"/>
		<g>
			<path class="st3" d="M156.35,306.63c0,0,33.21,1.52,37.37,35.99l20.69-58.88L156.35,306.63z"/>
			<g>
				<g>
					
						<rect x="231.93" y="205.84" transform="matrix(-0.366 0.9306 -0.9306 -0.366 581.1659 106.2413)" class="st3" width="44.92" height="90.49"/>
					<g>
						
							<linearGradient id="SVGID_00000173143250189185683250000012195802471826359181_" gradientUnits="userSpaceOnUse" x1="11922.4785" y1="-1246.619" x2="11949.1689" y2="-1246.619" gradientTransform="matrix(-0.918 0.3965 -0.3965 -0.918 10739.5664 -5619.999)">
							<stop  offset="0" style="stop-color:#F15D22"/>
							<stop  offset="1" style="stop-color:#ED2024"/>
						</linearGradient>
						<path style="fill:url(#SVGID_00000173143250189185683250000012195802471826359181_);" d="M263.95,262.04
							c-2.94-6.76,0.15-14.62,6.91-17.56c6.76-2.94,14.62,0.15,17.56,6.91c2.94,6.76-0.15,14.62-6.91,17.56
							C274.76,271.89,266.9,268.79,263.95,262.04z"/>
						
							<linearGradient id="SVGID_00000036240371006079134490000012834722696485000349_" gradientUnits="userSpaceOnUse" x1="11954.3662" y1="-1214.9219" x2="11981.0566" y2="-1214.9219" gradientTransform="matrix(-0.918 0.3965 -0.3965 -0.918 10739.5664 -5619.999)">
							<stop  offset="0" style="stop-color:#F15D22"/>
							<stop  offset="1" style="stop-color:#ED2024"/>
						</linearGradient>
						<path style="fill:url(#SVGID_00000036240371006079134490000012834722696485000349_);" d="M239.68,252.49
							c-6.76,2.94-14.62-0.15-17.56-6.91c-2.94-6.76,0.15-14.62,6.91-17.56c6.76-2.94,14.62,0.15,17.56,6.91
							C249.53,241.68,246.43,249.54,239.68,252.49z"/>
						<g>
							
								<linearGradient id="SVGID_00000149354738525843390930000009715741882299426964_" gradientUnits="userSpaceOnUse" x1="11956.1826" y1="-1216.7491" x2="11982.873" y2="-1216.7491" gradientTransform="matrix(-0.918 0.3965 -0.3965 -0.918 10739.5664 -5619.999)">
								<stop  offset="0" style="stop-color:#F15D22"/>
								<stop  offset="1" style="stop-color:#ED2024"/>
							</linearGradient>
							<path style="fill:url(#SVGID_00000149354738525843390930000009715741882299426964_);" d="M238.73,254.88
								c-6.76,2.94-14.62-0.15-17.56-6.91c-2.94-6.76,0.15-14.62,6.91-17.56c6.76-2.94,14.62,0.15,17.56,6.91
								C248.58,244.08,245.49,251.94,238.73,254.88z"/>
							
								<linearGradient id="SVGID_00000064322065662598970840000010281902573409801917_" gradientUnits="userSpaceOnUse" x1="11924.2949" y1="-1248.4463" x2="11950.9854" y2="-1248.4463" gradientTransform="matrix(-0.918 0.3965 -0.3965 -0.918 10739.5664 -5619.999)">
								<stop  offset="0" style="stop-color:#F15D22"/>
								<stop  offset="1" style="stop-color:#ED2024"/>
							</linearGradient>
							<path style="fill:url(#SVGID_00000064322065662598970840000010281902573409801917_);" d="M263.01,264.43
								c-2.94-6.76,0.15-14.62,6.91-17.56c6.76-2.94,14.62,0.15,17.56,6.91c2.94,6.76-0.15,14.62-6.91,17.56
								C273.82,274.28,265.95,271.19,263.01,264.43z"/>
						</g>
					</g>
				</g>
				<g>
					
						<rect x="283.19" y="173.29" transform="matrix(-0.366 0.9306 -0.9306 -0.366 620.8896 14.0867)" class="st3" width="44.92" height="90.49"/>
					<g>
						
							<linearGradient id="SVGID_00000075877365803504773360000008302245606285688240_" gradientUnits="userSpaceOnUse" x1="11862.5234" y1="-1237.0602" x2="11889.2129" y2="-1237.0602" gradientTransform="matrix(-0.918 0.3965 -0.3965 -0.918 10739.5664 -5619.999)">
							<stop  offset="0" style="stop-color:#F15D22"/>
							<stop  offset="1" style="stop-color:#ED2024"/>
						</linearGradient>
						<path style="fill:url(#SVGID_00000075877365803504773360000008302245606285688240_);" d="M315.21,229.49
							c-2.94-6.76,0.15-14.62,6.91-17.56c6.76-2.94,14.62,0.15,17.56,6.91c2.94,6.76-0.15,14.62-6.91,17.56
							C326.01,239.34,318.15,236.25,315.21,229.49z"/>
						
							<linearGradient id="SVGID_00000031166126579767161530000010594430008268810631_" gradientUnits="userSpaceOnUse" x1="11894.4102" y1="-1205.3629" x2="11921.1006" y2="-1205.3629" gradientTransform="matrix(-0.918 0.3965 -0.3965 -0.918 10739.5664 -5619.999)">
							<stop  offset="0" style="stop-color:#F15D22"/>
							<stop  offset="1" style="stop-color:#ED2024"/>
						</linearGradient>
						<path style="fill:url(#SVGID_00000031166126579767161530000010594430008268810631_);" d="M290.93,219.94
							c-6.76,2.94-14.62-0.15-17.56-6.91c-2.94-6.76,0.15-14.62,6.91-17.56c6.76-2.94,14.62,0.15,17.56,6.91
							C300.78,209.13,297.69,217,290.93,219.94z"/>
						<g>
							
								<linearGradient id="SVGID_00000005946979687529273680000013586725101338107552_" gradientUnits="userSpaceOnUse" x1="11896.2266" y1="-1207.1903" x2="11922.917" y2="-1207.1903" gradientTransform="matrix(-0.918 0.3965 -0.3965 -0.918 10739.5664 -5619.999)">
								<stop  offset="0" style="stop-color:#F15D22"/>
								<stop  offset="1" style="stop-color:#ED2024"/>
							</linearGradient>
							<path style="fill:url(#SVGID_00000005946979687529273680000013586725101338107552_);" d="M289.98,222.34
								c-6.76,2.94-14.62-0.15-17.56-6.91c-2.94-6.76,0.15-14.62,6.91-17.56c6.76-2.94,14.62,0.15,17.56,6.91
								C299.83,211.53,296.74,219.4,289.98,222.34z"/>
							
								<linearGradient id="SVGID_00000106120936797358398640000003588754294621239959_" gradientUnits="userSpaceOnUse" x1="11864.3398" y1="-1238.8875" x2="11891.0293" y2="-1238.8875" gradientTransform="matrix(-0.918 0.3965 -0.3965 -0.918 10739.5664 -5619.999)">
								<stop  offset="0" style="stop-color:#F15D22"/>
								<stop  offset="1" style="stop-color:#ED2024"/>
							</linearGradient>
							<path style="fill:url(#SVGID_00000106120936797358398640000003588754294621239959_);" d="M314.26,231.89
								c-2.94-6.76,0.15-14.62,6.91-17.56c6.76-2.94,14.62,0.15,17.56,6.91c2.94,6.76-0.15,14.62-6.91,17.56
								C325.07,241.74,317.21,238.64,314.26,231.89z"/>
						</g>
					</g>
				</g>
				<g>
					
						<rect x="240.42" y="262.47" transform="matrix(0.3595 -0.9331 0.9331 0.3595 -118.7616 442.3978)" class="st3" width="44.92" height="90.49"/>
					<g>
						
							<linearGradient id="SVGID_00000088852092534383008250000005744306870875093682_" gradientUnits="userSpaceOnUse" x1="-61.1069" y1="-2199.0884" x2="-34.4169" y2="-2199.0884" gradientTransform="matrix(0.9152 -0.4029 0.4029 0.9152 1170.7771 2295.6926)">
							<stop  offset="0" style="stop-color:#F15D22"/>
							<stop  offset="1" style="stop-color:#ED2024"/>
						</linearGradient>
						<path style="fill:url(#SVGID_00000088852092534383008250000005744306870875093682_);" d="M253.24,296.82
							c2.99,6.74-0.05,14.62-6.78,17.61c-6.74,2.99-14.62-0.05-17.61-6.78c-2.99-6.74,0.05-14.62,6.78-17.61
							C242.37,287.05,250.25,290.09,253.24,296.82z"/>
						
							<linearGradient id="SVGID_00000106122858524043510150000015939993092377661338_" gradientUnits="userSpaceOnUse" x1="-29.2194" y1="-2167.3911" x2="-2.5294" y2="-2167.3911" gradientTransform="matrix(0.9152 -0.4029 0.4029 0.9152 1170.7771 2295.6926)">
							<stop  offset="0" style="stop-color:#F15D22"/>
							<stop  offset="1" style="stop-color:#ED2024"/>
						</linearGradient>
						<path style="fill:url(#SVGID_00000106122858524043510150000015939993092377661338_);" d="M277.59,306.2
							c6.74-2.99,14.62,0.05,17.61,6.78c2.99,6.74-0.05,14.62-6.78,17.61c-6.74,2.99-14.62-0.05-17.61-6.78
							C267.81,317.08,270.85,309.19,277.59,306.2z"/>
						<g>
							
								<linearGradient id="SVGID_00000019659946450156855750000007749849439137143704_" gradientUnits="userSpaceOnUse" x1="-27.403" y1="-2169.2185" x2="-0.713" y2="-2169.2185" gradientTransform="matrix(0.9152 -0.4029 0.4029 0.9152 1170.7771 2295.6926)">
								<stop  offset="0" style="stop-color:#F15D22"/>
								<stop  offset="1" style="stop-color:#ED2024"/>
							</linearGradient>
							<path style="fill:url(#SVGID_00000019659946450156855750000007749849439137143704_);" d="M278.51,303.8
								c6.74-2.99,14.62,0.05,17.61,6.78c2.99,6.74-0.05,14.62-6.78,17.61c-6.74,2.99-14.62-0.05-17.61-6.78
								C268.74,314.67,271.78,306.79,278.51,303.8z"/>
							
								<linearGradient id="SVGID_00000166649244246593227600000001955239122506452158_" gradientUnits="userSpaceOnUse" x1="-59.2905" y1="-2200.9155" x2="-32.6005" y2="-2200.9155" gradientTransform="matrix(0.9152 -0.4029 0.4029 0.9152 1170.7771 2295.6926)">
								<stop  offset="0" style="stop-color:#F15D22"/>
								<stop  offset="1" style="stop-color:#ED2024"/>
							</linearGradient>
							<path style="fill:url(#SVGID_00000166649244246593227600000001955239122506452158_);" d="M254.17,294.42
								c2.99,6.74-0.05,14.62-6.78,17.61c-6.74,2.99-14.62-0.05-17.61-6.78c-2.99-6.74,0.05-14.62,6.78-17.61
								C243.3,284.64,251.18,287.68,254.17,294.42z"/>
						</g>
					</g>
				</g>
			</g>
		</g>
	</g>
</g>
</svg>
