<?xml version="1.0" encoding="UTF-8"?>
<svg id="Icons" xmlns="http://www.w3.org/2000/svg" xmlns:xlink="http://www.w3.org/1999/xlink" viewBox="0 0 512 512">
  <defs>
    <style>
      .cls-1 {
        fill: #fff;
      }

      .cls-1, .cls-2, .cls-3, .cls-4 {
        stroke-width: 0px;
      }

      .cls-2 {
        fill: url(#New_Gradient_Swatch_1);
      }

      .cls-3 {
        fill: #231f20;
      }

      .cls-4 {
        fill: #bcbec0;
      }
    </style>
    <linearGradient id="New_Gradient_Swatch_1" data-name="New Gradient Swatch 1" x1="54.13" y1="228.09" x2="458.19" y2="228.09" gradientUnits="userSpaceOnUse">
      <stop offset="0" stop-color="#f15d22"/>
      <stop offset="1" stop-color="#ed2024"/>
    </linearGradient>
  </defs>
  <g>
    <path class="cls-2" d="m256.16,26.06c-111.58,0-202.03,90.45-202.03,202.03s90.45,202.03,202.03,202.03,202.03-90.45,202.03-202.03S367.74,26.06,256.16,26.06Z"/>
    <g>
      <circle class="cls-1" cx="317.83" cy="171.36" r="23.13"/>
      <circle class="cls-1" cx="254.64" cy="171.36" r="23.13"/>
      <circle class="cls-4" cx="191.45" cy="171.36" r="23.13"/>
      <circle class="cls-1" cx="317.83" cy="228.73" r="23.13"/>
      <circle class="cls-1" cx="254.64" cy="228.73" r="23.13"/>
      <circle class="cls-1" cx="191.45" cy="228.73" r="23.13"/>
      <circle class="cls-1" cx="317.83" cy="284.82" r="23.13"/>
      <circle class="cls-1" cx="254.64" cy="284.82" r="23.13"/>
      <circle class="cls-1" cx="191.45" cy="284.82" r="23.13"/>
    </g>
  </g>
  <g>
    <path class="cls-3" d="m198.62,483.38c.27,0,.52.12.74.35l1.94,2.23c-1.5,1.83-3.32,3.26-5.46,4.28-2.14,1.02-4.72,1.54-7.74,1.54-2.64,0-5.04-.48-7.19-1.44-2.15-.96-3.98-2.31-5.5-4.04-1.52-1.73-2.7-3.81-3.53-6.23-.84-2.42-1.25-5.09-1.25-8s.45-5.57,1.34-8c.9-2.42,2.15-4.51,3.78-6.25,1.62-1.74,3.56-3.09,5.82-4.05,2.26-.96,4.75-1.44,7.49-1.44s5.02.44,6.97,1.32c1.95.88,3.69,2.07,5.21,3.58l-1.61,2.4c-.12.18-.26.33-.41.44-.15.12-.38.17-.67.17-.22,0-.46-.08-.7-.26s-.54-.38-.88-.63c-.34-.25-.74-.52-1.2-.81-.46-.29-1.01-.56-1.64-.81-.63-.25-1.36-.46-2.2-.63-.84-.17-1.8-.26-2.89-.26-1.96,0-3.76.35-5.39,1.06-1.63.71-3.03,1.72-4.21,3.03-1.18,1.31-2.09,2.91-2.75,4.79-.66,1.88-.99,4-.99,6.33s.33,4.55.99,6.44c.66,1.88,1.55,3.48,2.69,4.78,1.13,1.3,2.48,2.29,4.03,2.98s3.22,1.02,5.02,1.02c1.09,0,2.07-.07,2.94-.2s1.68-.35,2.42-.63,1.43-.65,2.07-1.09c.64-.44,1.28-.96,1.93-1.58.29-.27.57-.4.84-.4Z"/>
    <path class="cls-3" d="m217.61,463.64c1.89,0,3.6.33,5.13,1,1.53.66,2.82,1.61,3.89,2.83s1.88,2.7,2.46,4.43c.57,1.73.86,3.67.86,5.8s-.29,4.09-.86,5.82c-.57,1.72-1.39,3.2-2.46,4.42s-2.36,2.16-3.89,2.81c-1.53.65-3.24.98-5.13.98s-3.6-.33-5.13-.98c-1.53-.66-2.83-1.59-3.9-2.81-1.08-1.22-1.9-2.69-2.48-4.42s-.87-3.66-.87-5.82.29-4.07.87-5.8c.58-1.73,1.41-3.21,2.48-4.43,1.07-1.22,2.38-2.16,3.9-2.83s3.24-1,5.13-1Zm0,24.35c2.56,0,4.47-.9,5.73-2.71,1.26-1.8,1.89-4.32,1.89-7.55s-.63-5.78-1.89-7.59c-1.26-1.81-3.17-2.72-5.73-2.72-1.3,0-2.42.23-3.38.7s-1.75,1.14-2.39,2.02-1.12,1.96-1.43,3.25c-.32,1.28-.47,2.73-.47,4.35s.16,3.06.47,4.34c.32,1.27.79,2.35,1.43,3.22.64.87,1.44,1.54,2.39,2.01s2.08.7,3.38.7Z"/>
    <path class="cls-3" d="m240.64,451.68v39.67h-4.56v-39.67h4.56Z"/>
    <path class="cls-3" d="m259.17,463.64c1.89,0,3.6.33,5.13,1,1.53.66,2.82,1.61,3.89,2.83s1.88,2.7,2.46,4.43c.57,1.73.86,3.67.86,5.8s-.29,4.09-.86,5.82c-.57,1.72-1.39,3.2-2.46,4.42s-2.36,2.16-3.89,2.81c-1.53.65-3.24.98-5.13.98s-3.6-.33-5.13-.98c-1.53-.66-2.83-1.59-3.9-2.81-1.08-1.22-1.9-2.69-2.48-4.42s-.87-3.66-.87-5.82.29-4.07.87-5.8c.58-1.73,1.41-3.21,2.48-4.43,1.07-1.22,2.38-2.16,3.9-2.83s3.24-1,5.13-1Zm0,24.35c2.56,0,4.47-.9,5.73-2.71,1.26-1.8,1.89-4.32,1.89-7.55s-.63-5.78-1.89-7.59c-1.26-1.81-3.17-2.72-5.73-2.72-1.3,0-2.42.23-3.38.7s-1.75,1.14-2.39,2.02-1.12,1.96-1.43,3.25c-.32,1.28-.47,2.73-.47,4.35s.16,3.06.47,4.34c.32,1.27.79,2.35,1.43,3.22.64.87,1.44,1.54,2.39,2.01s2.08.7,3.38.7Z"/>
    <path class="cls-3" d="m281.08,464.07v17.4c0,2.06.45,3.66,1.36,4.79.9,1.13,2.27,1.7,4.09,1.7,1.33,0,2.58-.33,3.76-1,1.18-.66,2.26-1.59,3.25-2.77v-20.12h4.56v27.28h-2.71c-.65,0-1.06-.33-1.23-1l-.36-2.94c-1.13,1.31-2.39,2.37-3.79,3.16-1.4.8-3,1.2-4.81,1.2-1.42,0-2.67-.25-3.75-.74-1.08-.49-1.99-1.19-2.73-2.09-.73-.9-1.28-1.98-1.65-3.26-.37-1.27-.55-2.68-.55-4.23v-17.4h4.56Z"/>
    <path class="cls-3" d="m305.6,491.35v-27.28h2.61c.5,0,.84.1,1.02.3.19.2.32.54.38,1.02l.31,4.26c.89-1.9,1.98-3.39,3.29-4.46,1.31-1.07,2.84-1.6,4.59-1.6.72,0,1.37.08,1.95.26s1.12.41,1.61.71l-.59,3.58c-.12.45-.38.67-.79.67-.24,0-.61-.08-1.1-.26-.5-.17-1.19-.26-2.07-.26-1.59,0-2.91.48-3.98,1.45s-1.96,2.38-2.67,4.23v17.37h-4.56Z"/>
    <path class="cls-3" d="m341.06,468.56c-.2.4-.52.59-.95.59-.26,0-.55-.1-.87-.3-.32-.2-.72-.42-1.19-.66-.47-.24-1.03-.47-1.68-.67-.65-.21-1.42-.31-2.3-.31-.77,0-1.46.1-2.07.31s-1.14.49-1.57.85c-.44.36-.77.78-1,1.25s-.35.99-.35,1.55c0,.7.19,1.28.58,1.75s.89.87,1.52,1.21c.63.34,1.35.64,2.15.9.8.26,1.62.54,2.47.83.84.3,1.67.62,2.47.98.8.36,1.52.81,2.15,1.35.63.54,1.14,1.2,1.52,1.98.38.78.58,1.72.58,2.81,0,1.26-.21,2.42-.64,3.49-.43,1.07-1.06,1.99-1.89,2.77-.84.78-1.86,1.4-3.07,1.84-1.21.45-2.61.67-4.2.67-1.81,0-3.45-.31-4.91-.93-1.47-.62-2.71-1.41-3.74-2.38l1.07-1.83c.14-.23.3-.41.49-.54.19-.12.44-.19.74-.19s.63.13.97.38c.34.25.75.53,1.24.83.49.31,1.08.58,1.77.83.69.25,1.56.38,2.6.38.89,0,1.66-.12,2.33-.36s1.22-.57,1.66-.98c.44-.41.77-.89.99-1.43.21-.54.32-1.11.32-1.72,0-.75-.19-1.38-.58-1.87-.38-.49-.89-.92-1.52-1.27-.63-.35-1.35-.66-2.16-.92-.81-.26-1.64-.53-2.48-.82-.84-.29-1.67-.61-2.48-.98-.81-.37-1.53-.83-2.16-1.39s-1.14-1.24-1.52-2.06-.58-1.81-.58-2.98c0-1.04.21-2.04.61-3,.41-.96,1.01-1.8,1.79-2.53.78-.73,1.75-1.31,2.89-1.74,1.14-.43,2.45-.65,3.92-.65,1.71,0,3.24.28,4.59.85,1.36.57,2.53,1.34,3.52,2.33l-1.02,1.75Z"/>
  </g>
</svg>