<?xml version="1.0" encoding="utf-8"?>
<!-- Generator: Adobe Illustrator 28.0.0, SVG Export Plug-In . SVG Version: 6.00 Build 0)  -->
<svg version="1.1" xmlns="http://www.w3.org/2000/svg" xmlns:xlink="http://www.w3.org/1999/xlink" x="0px" y="0px"
	 viewBox="0 0 512 512" style="enable-background:new 0 0 512 512;" xml:space="preserve">
<style type="text/css">
	.st0{fill:url(#SVGID_1_);}
	.st1{fill:url(#SVGID_00000143591108315877020310000000538697424465841567_);}
	.st2{fill:url(#SVGID_00000098933853375732342550000013700268755169075617_);}
	.st3{fill:none;stroke:#FFFFFF;stroke-width:15;stroke-miterlimit:10;}
	.st4{fill:#FFFFFF;}
	.st5{fill:none;stroke:#FFFFFF;stroke-width:9;stroke-miterlimit:10;}
	.st6{fill:url(#SVGID_00000145750242571128638110000004007969835450829243_);}
	.st7{fill:none;stroke:#FFFFFF;stroke-width:15;stroke-linecap:round;stroke-linejoin:round;stroke-miterlimit:10;}
	.st8{fill:none;stroke:#FFFFFF;stroke-width:10;stroke-linecap:round;stroke-linejoin:round;stroke-miterlimit:10;}
	.st9{fill:url(#SVGID_00000008852525552261992140000009546458932194673843_);}
	.st10{fill:url(#SVGID_00000070106897458362776040000016899919677152473765_);}
	.st11{fill:url(#SVGID_00000155138229153656131950000010967709662887877034_);}
	.st12{fill:url(#SVGID_00000018238947191345735800000004102524318221125544_);}
	.st13{fill:url(#SVGID_00000076561983018437785680000012334481557519195058_);}
	.st14{fill:url(#SVGID_00000093173183851519743680000016955637010257510312_);}
	.st15{fill:url(#SVGID_00000124863419842104454240000018249199422834914209_);}
	.st16{fill:url(#SVGID_00000109730880967629516550000002783667592442321591_);}
	.st17{fill:url(#SVGID_00000025438931681181794350000007677944451048088976_);}
	.st18{fill:url(#SVGID_00000139274921066290924000000012266760580029375639_);}
	.st19{fill:url(#SVGID_00000096017078227416291220000000746688217205418643_);}
	.st20{fill:url(#SVGID_00000067945765123334703020000005361108575846792601_);}
	.st21{fill:url(#SVGID_00000035516377593326736770000005360954396197760909_);}
	.st22{fill:url(#SVGID_00000090985710020251326310000006029494075047179928_);}
	.st23{fill:url(#SVGID_00000062162149375069498700000012315907569583641008_);}
	.st24{fill:url(#SVGID_00000165198093166854877700000017263135006521221256_);}
	.st25{fill:url(#SVGID_00000127020755350948639220000001427742056705664176_);}
	.st26{fill:url(#SVGID_00000165946919702613199850000008180586458060245179_);}
	.st27{fill:#BCBEC0;}
	.st28{fill:url(#SVGID_00000030478180704880373630000016049100301810303389_);}
	.st29{fill:url(#SVGID_00000109725469189276540710000017947104434040970892_);}
	.st30{fill-rule:evenodd;clip-rule:evenodd;fill:#FFFFFF;}
	.st31{clip-path:url(#SVGID_00000164472479486848257320000000765191366680270012_);}
	.st32{fill:none;stroke:#FFFFFF;stroke-width:15.6378;stroke-miterlimit:10;}
	.st33{fill:none;stroke:#FFFFFF;stroke-width:9.8091;stroke-linecap:round;stroke-linejoin:round;stroke-miterlimit:10;}
	.st34{fill:url(#SVGID_00000005974773664566381270000011698823228354069154_);}
	.st35{fill:none;stroke:#FFFFFF;stroke-width:14.3924;stroke-linecap:round;stroke-linejoin:round;stroke-miterlimit:10;}
	.st36{fill:none;stroke:#FFFFFF;stroke-width:8;stroke-linecap:round;stroke-linejoin:round;stroke-miterlimit:10;}
	.st37{fill:url(#SVGID_00000026878655974641972340000006839217321038206886_);}
	.st38{fill:#FFFFFF;stroke:#FFFFFF;stroke-width:2.9178;stroke-miterlimit:10;}
</style>
<g id="GPS">
</g>
<g id="Icons">
	<g>
		<linearGradient id="SVGID_1_" gradientUnits="userSpaceOnUse" x1="54.1334" y1="228.0912" x2="458.1859" y2="228.0912">
			<stop  offset="0" style="stop-color:#F15D22"/>
			<stop  offset="1" style="stop-color:#ED2024"/>
		</linearGradient>
		<path class="st0" d="M256.16,26.06c-111.58,0-202.03,90.45-202.03,202.03c0,111.58,90.45,202.03,202.03,202.03
			c111.58,0,202.03-90.45,202.03-202.03C458.19,116.52,367.74,26.06,256.16,26.06z"/>
		<g>
			<circle class="st4" cx="317.83" cy="171.36" r="23.13"/>
			<circle class="st4" cx="254.64" cy="171.36" r="23.13"/>
			<circle class="st27" cx="191.45" cy="171.36" r="23.13"/>
			<circle class="st4" cx="317.83" cy="228.73" r="23.13"/>
			<circle class="st4" cx="254.64" cy="228.73" r="23.13"/>
			<circle class="st4" cx="191.45" cy="228.73" r="23.13"/>
			<circle class="st4" cx="317.83" cy="284.82" r="23.13"/>
			<circle class="st4" cx="254.64" cy="284.82" r="23.13"/>
			<circle class="st4" cx="191.45" cy="284.82" r="23.13"/>
		</g>
	</g>
	<g>
		<path d="M122.5,476.91v14.44h-4.94v-38.59h10.83c2.32,0,4.34,0.28,6.05,0.85c1.71,0.57,3.13,1.37,4.26,2.41
			c1.13,1.04,1.97,2.3,2.52,3.77c0.55,1.47,0.83,3.12,0.83,4.93c0,1.79-0.3,3.44-0.9,4.93c-0.6,1.49-1.47,2.77-2.62,3.85
			c-1.15,1.08-2.58,1.92-4.29,2.52s-3.66,0.9-5.86,0.9H122.5z M122.5,472.77h5.89c1.42,0,2.67-0.2,3.75-0.59
			c1.08-0.39,1.99-0.95,2.73-1.66s1.29-1.56,1.66-2.54c0.38-0.99,0.56-2.07,0.56-3.26c0-2.46-0.72-4.38-2.16-5.76
			c-1.44-1.38-3.62-2.07-6.54-2.07h-5.89V472.77z"/>
		<path d="M153.69,455.5c0,0.47-0.09,0.9-0.27,1.31c-0.18,0.4-0.42,0.76-0.72,1.08s-0.64,0.56-1.04,0.74
			c-0.39,0.18-0.81,0.27-1.25,0.27c-0.44,0-0.86-0.09-1.24-0.27c-0.38-0.18-0.73-0.43-1.02-0.74c-0.3-0.31-0.53-0.67-0.7-1.08
			c-0.17-0.4-0.26-0.84-0.26-1.31c0-0.47,0.08-0.91,0.26-1.33c0.17-0.42,0.41-0.79,0.7-1.1c0.3-0.31,0.64-0.56,1.02-0.74
			c0.38-0.18,0.8-0.27,1.24-0.27c0.44,0,0.86,0.09,1.25,0.27c0.39,0.18,0.74,0.43,1.04,0.74c0.3,0.31,0.54,0.68,0.72,1.1
			C153.6,454.59,153.69,455.04,153.69,455.5z M152.67,464.07v27.28h-4.56v-27.28H152.67z"/>
		<path d="M178.39,468.92c-0.14,0.2-0.27,0.35-0.41,0.46c-0.14,0.11-0.33,0.16-0.59,0.16s-0.53-0.11-0.83-0.34
			c-0.3-0.22-0.68-0.47-1.14-0.74c-0.46-0.27-1.02-0.52-1.68-0.74c-0.66-0.22-1.46-0.34-2.42-0.34c-1.26,0-2.38,0.24-3.35,0.71
			c-0.97,0.48-1.79,1.16-2.44,2.06c-0.66,0.9-1.15,1.98-1.48,3.26c-0.33,1.28-0.5,2.7-0.5,4.28c0,1.65,0.18,3.12,0.54,4.4
			c0.36,1.28,0.86,2.36,1.51,3.23c0.65,0.87,1.44,1.54,2.37,1.99s1.97,0.69,3.14,0.69c1.11,0,2.02-0.14,2.74-0.42
			c0.72-0.28,1.31-0.59,1.79-0.93c0.48-0.34,0.87-0.65,1.18-0.93c0.31-0.28,0.61-0.42,0.92-0.42c0.39,0,0.68,0.15,0.87,0.46
			l1.28,1.75c-1.13,1.45-2.53,2.52-4.22,3.19c-1.69,0.67-3.47,1.01-5.35,1.01c-1.62,0-3.13-0.31-4.52-0.94s-2.6-1.54-3.62-2.73
			s-1.83-2.66-2.42-4.4c-0.59-1.74-0.88-3.73-0.88-5.95c0-2.03,0.27-3.91,0.81-5.63c0.54-1.72,1.32-3.21,2.35-4.46
			c1.03-1.25,2.31-2.22,3.83-2.92s3.26-1.05,5.22-1.05c1.81,0,3.41,0.31,4.81,0.93c1.4,0.62,2.64,1.5,3.71,2.63L178.39,468.92z"/>
		<path d="M189.34,451.68v23.35h1.18c0.34,0,0.62-0.05,0.84-0.15c0.22-0.1,0.47-0.3,0.74-0.61l8.19-9.24
			c0.26-0.29,0.51-0.52,0.77-0.7s0.6-0.27,1.02-0.27h4.15l-9.55,10.69c-0.24,0.31-0.47,0.58-0.7,0.81
			c-0.23,0.23-0.49,0.44-0.78,0.62c0.31,0.21,0.58,0.46,0.83,0.74c0.25,0.28,0.48,0.6,0.7,0.96l10.13,13.47h-4.09
			c-0.38,0-0.7-0.08-0.96-0.23s-0.52-0.39-0.75-0.71l-8.52-11.18c-0.26-0.38-0.51-0.62-0.77-0.74s-0.64-0.18-1.15-0.18h-1.28v13.04
			h-4.58v-39.67H189.34z"/>
		<path d="M240.34,491.35h-2.02c-0.44,0-0.8-0.07-1.08-0.22c-0.27-0.14-0.45-0.45-0.54-0.92l-0.51-2.53c-0.68,0.65-1.35,1.23-2,1.74
			s-1.33,0.94-2.05,1.29c-0.72,0.35-1.48,0.62-2.29,0.79c-0.81,0.18-1.71,0.27-2.7,0.27c-1.01,0-1.95-0.15-2.83-0.45
			s-1.64-0.74-2.29-1.34s-1.16-1.35-1.55-2.26c-0.38-0.91-0.58-1.99-0.58-3.23c0-1.08,0.28-2.12,0.84-3.12
			c0.56-1,1.47-1.89,2.73-2.66c1.25-0.78,2.9-1.41,4.93-1.91c2.03-0.5,4.51-0.74,7.45-0.74v-2.14c0-2.13-0.43-3.74-1.29-4.84
			c-0.86-1.09-2.14-1.64-3.83-1.64c-1.11,0-2.04,0.15-2.8,0.44c-0.76,0.3-1.42,0.63-1.97,1c-0.55,0.37-1.03,0.7-1.43,1
			c-0.4,0.3-0.8,0.44-1.19,0.44c-0.31,0-0.58-0.09-0.81-0.26c-0.23-0.17-0.41-0.38-0.55-0.63l-0.82-1.53
			c1.43-1.46,2.98-2.54,4.63-3.26s3.49-1.08,5.5-1.08c1.45,0,2.74,0.25,3.86,0.75s2.07,1.2,2.84,2.1c0.77,0.9,1.35,1.98,1.74,3.26
			c0.39,1.27,0.59,2.67,0.59,4.2V491.35z M228.52,488.41c0.8,0,1.54-0.08,2.2-0.26c0.67-0.17,1.29-0.41,1.88-0.73
			c0.59-0.31,1.15-0.7,1.69-1.14c0.54-0.45,1.06-0.96,1.57-1.53v-5.63c-2.1,0-3.88,0.14-5.35,0.42c-1.47,0.28-2.66,0.65-3.58,1.1
			c-0.92,0.45-1.59,0.98-2.01,1.6s-0.63,1.3-0.63,2.06c0,0.72,0.11,1.35,0.33,1.87s0.52,0.95,0.9,1.29
			c0.38,0.33,0.82,0.58,1.33,0.73C227.37,488.34,227.92,488.41,228.52,488.41z"/>
		<path d="M283.7,483.38c0.27,0,0.52,0.12,0.74,0.35l1.94,2.23c-1.5,1.83-3.32,3.26-5.46,4.28c-2.14,1.02-4.72,1.54-7.74,1.54
			c-2.64,0-5.04-0.48-7.19-1.44c-2.15-0.96-3.98-2.31-5.5-4.04c-1.52-1.73-2.7-3.81-3.53-6.23c-0.84-2.42-1.25-5.09-1.25-8
			c0-2.91,0.45-5.57,1.34-8c0.9-2.42,2.15-4.51,3.78-6.25c1.62-1.74,3.56-3.09,5.82-4.05c2.26-0.96,4.75-1.44,7.49-1.44
			c2.7,0,5.02,0.44,6.97,1.32c1.95,0.88,3.69,2.07,5.21,3.58l-1.61,2.4c-0.12,0.18-0.26,0.33-0.41,0.44
			c-0.15,0.12-0.38,0.17-0.67,0.17c-0.22,0-0.46-0.08-0.7-0.26s-0.54-0.38-0.88-0.63c-0.34-0.25-0.74-0.52-1.2-0.81
			c-0.46-0.29-1.01-0.56-1.64-0.81c-0.63-0.25-1.36-0.46-2.2-0.63c-0.84-0.17-1.8-0.26-2.89-0.26c-1.96,0-3.76,0.35-5.39,1.06
			c-1.63,0.71-3.03,1.72-4.21,3.03c-1.18,1.31-2.09,2.91-2.75,4.79c-0.66,1.88-0.99,4-0.99,6.33c0,2.41,0.33,4.55,0.99,6.44
			c0.66,1.88,1.55,3.48,2.69,4.78c1.13,1.3,2.48,2.29,4.03,2.98s3.22,1.02,5.02,1.02c1.09,0,2.07-0.07,2.94-0.2s1.68-0.35,2.42-0.63
			s1.43-0.65,2.07-1.09c0.64-0.44,1.28-0.96,1.93-1.58C283.14,483.51,283.42,483.38,283.7,483.38z"/>
		<path d="M302.68,463.64c1.89,0,3.6,0.33,5.13,1c1.53,0.66,2.82,1.61,3.89,2.83s1.88,2.7,2.46,4.43c0.57,1.73,0.86,3.67,0.86,5.8
			c0,2.15-0.29,4.09-0.86,5.82c-0.57,1.72-1.39,3.2-2.46,4.42s-2.36,2.16-3.89,2.81c-1.53,0.65-3.24,0.98-5.13,0.98
			c-1.89,0-3.6-0.33-5.13-0.98c-1.53-0.66-2.83-1.59-3.9-2.81c-1.08-1.22-1.9-2.69-2.48-4.42s-0.87-3.66-0.87-5.82
			c0-2.14,0.29-4.07,0.87-5.8c0.58-1.73,1.41-3.21,2.48-4.43c1.07-1.22,2.38-2.16,3.9-2.83S300.79,463.64,302.68,463.64z
			 M302.68,487.98c2.56,0,4.47-0.9,5.73-2.71c1.26-1.8,1.89-4.32,1.89-7.55c0-3.25-0.63-5.78-1.89-7.59
			c-1.26-1.81-3.17-2.72-5.73-2.72c-1.3,0-2.42,0.23-3.38,0.7s-1.75,1.14-2.39,2.02s-1.12,1.96-1.43,3.25
			c-0.32,1.28-0.47,2.73-0.47,4.35c0,1.62,0.16,3.06,0.47,4.34c0.32,1.27,0.79,2.35,1.43,3.22c0.64,0.87,1.44,1.54,2.39,2.01
			S301.39,487.98,302.68,487.98z"/>
		<path d="M325.72,451.68v39.67h-4.56v-39.67H325.72z"/>
		<path d="M344.24,463.64c1.89,0,3.6,0.33,5.13,1c1.53,0.66,2.82,1.61,3.89,2.83s1.88,2.7,2.46,4.43c0.57,1.73,0.86,3.67,0.86,5.8
			c0,2.15-0.29,4.09-0.86,5.82c-0.57,1.72-1.39,3.2-2.46,4.42s-2.36,2.16-3.89,2.81c-1.53,0.65-3.24,0.98-5.13,0.98
			c-1.89,0-3.6-0.33-5.13-0.98c-1.53-0.66-2.83-1.59-3.9-2.81c-1.08-1.22-1.9-2.69-2.48-4.42s-0.87-3.66-0.87-5.82
			c0-2.14,0.29-4.07,0.87-5.8c0.58-1.73,1.41-3.21,2.48-4.43c1.07-1.22,2.38-2.16,3.9-2.83S342.35,463.64,344.24,463.64z
			 M344.24,487.98c2.56,0,4.47-0.9,5.73-2.71c1.26-1.8,1.89-4.32,1.89-7.55c0-3.25-0.63-5.78-1.89-7.59
			c-1.26-1.81-3.17-2.72-5.73-2.72c-1.3,0-2.42,0.23-3.38,0.7s-1.75,1.14-2.39,2.02s-1.12,1.96-1.43,3.25
			c-0.32,1.28-0.47,2.73-0.47,4.35c0,1.62,0.16,3.06,0.47,4.34c0.32,1.27,0.79,2.35,1.43,3.22c0.64,0.87,1.44,1.54,2.39,2.01
			S342.95,487.98,344.24,487.98z"/>
		<path d="M366.15,464.07v17.4c0,2.06,0.45,3.66,1.36,4.79c0.9,1.13,2.27,1.7,4.09,1.7c1.33,0,2.58-0.33,3.76-1
			c1.18-0.66,2.26-1.59,3.25-2.77v-20.12h4.56v27.28h-2.71c-0.65,0-1.06-0.33-1.23-1l-0.36-2.94c-1.13,1.31-2.39,2.37-3.79,3.16
			c-1.4,0.8-3,1.2-4.81,1.2c-1.42,0-2.67-0.25-3.75-0.74c-1.08-0.49-1.99-1.19-2.73-2.09c-0.73-0.9-1.28-1.98-1.65-3.26
			c-0.37-1.27-0.55-2.68-0.55-4.23v-17.4H366.15z"/>
		<path d="M390.67,491.35v-27.28h2.61c0.5,0,0.84,0.1,1.02,0.3c0.19,0.2,0.32,0.54,0.38,1.02l0.31,4.26
			c0.89-1.9,1.98-3.39,3.29-4.46c1.31-1.07,2.84-1.6,4.59-1.6c0.72,0,1.37,0.08,1.95,0.26s1.12,0.41,1.61,0.71l-0.59,3.58
			c-0.12,0.45-0.38,0.67-0.79,0.67c-0.24,0-0.61-0.08-1.1-0.26c-0.5-0.17-1.19-0.26-2.07-0.26c-1.59,0-2.91,0.48-3.98,1.45
			s-1.96,2.38-2.67,4.23v17.37H390.67z"/>
	</g>
</g>
<g id="References">
</g>
</svg>
