<svg width="960" height="753" viewBox="0 0 960 753" fill="none" xmlns="http://www.w3.org/2000/svg">
<rect width="960" height="753" fill="#219EBC"/>
<path d="M658.721 201.214C650.912 186.696 639.711 187.566 639.711 187.566C639.711 187.566 640.984 169.571 637.177 162.422C633.37 155.274 627.25 158.518 624.716 158.518C622.182 158.518 618.167 149.202 615.841 148.982C613.515 148.761 609.721 143.779 609.084 140.523C608.448 137.267 608.031 135.541 600.638 137.059C593.244 138.577 586.279 135.541 581.628 133.375C576.976 131.208 538.539 111.696 510.458 113.214C502.648 110.618 480.26 109.101 462.73 119.493C444.357 115.38 413.95 128.601 405.283 139.213C393.25 139.213 381.842 156.547 381.842 156.547C381.842 156.547 366.002 153.731 353.749 164.785C341.495 175.839 329.462 191.666 312.141 203.369C294.82 215.071 288.7 226.125 290.597 229.809C292.495 233.494 301.369 241.083 300.525 254.304C299.68 267.524 302.85 328.215 309.608 354.007C316.365 379.799 337.272 384.352 347.628 383.703C348.179 383.667 348.681 383.385 349.134 382.92V386.617C349.134 419.582 376.113 446.561 409.078 446.561H560.561C593.526 446.561 620.505 419.582 620.505 386.617V378.844C624.704 379.419 635.757 375.502 639.626 374.058C644.375 372.27 646.064 310.441 644.803 303.721C643.53 297 649.663 293.756 649.455 286.387C649.247 279.018 649.247 263.191 653.47 254.965C657.693 246.726 668.673 223.75 658.746 201.214H658.721Z" fill="black"/>
<path d="M557.317 208.167H411.685C379.864 208.167 354.067 233.964 354.067 265.786V382.455C354.067 414.277 379.864 440.073 411.685 440.073H557.317C589.139 440.073 614.935 414.277 614.935 382.455V265.786C614.935 233.964 589.139 208.167 557.317 208.167Z" fill="#FFB703"/>
<path d="M427.795 299.436C427.795 299.436 457.1 314.444 462.094 317.173C467.088 319.903 466.782 324.2 465.607 325.999C464.432 327.799 461.543 327.713 455.288 324.126C449.033 320.54 435.127 312.718 428.248 311.469C421.368 310.221 417.928 312.412 415.749 315.533C413.571 318.655 406.997 321.237 402.15 317.565C397.302 313.893 403.007 308.654 405.271 306.548C407.536 304.443 410.192 302.325 412.775 300.146C415.358 297.967 421.845 296.4 427.782 299.448L427.795 299.436Z" fill="#4C2B23"/>
<path d="M442.876 355.794C452.164 355.794 459.695 348.193 459.695 338.816C459.695 329.439 452.164 321.837 442.876 321.837C433.587 321.837 426.056 329.439 426.056 338.816C426.056 348.193 433.587 355.794 442.876 355.794Z" fill="black"/>
<path d="M527.645 299.436C527.645 299.436 498.34 314.444 493.345 317.173C488.351 319.903 488.657 324.2 489.832 325.999C491.007 327.799 493.896 327.713 500.151 324.126C506.406 320.527 520.312 312.718 527.192 311.469C534.071 310.221 537.511 312.412 539.69 315.533C541.869 318.655 548.442 321.237 553.29 317.565C558.137 313.893 552.433 308.654 550.168 306.548C547.903 304.443 545.247 302.325 542.664 300.146C540.081 297.967 533.594 296.4 527.657 299.448L527.645 299.436Z" fill="#4C2B23"/>
<path d="M512.564 355.794C521.853 355.794 529.383 348.193 529.383 338.816C529.383 329.439 521.853 321.837 512.564 321.837C503.275 321.837 495.745 329.439 495.745 338.816C495.745 348.193 503.275 355.794 512.564 355.794Z" fill="black"/>
<path d="M499.809 406.655C503.334 406.251 513.053 406.582 518.121 403.644C523.189 400.706 525.894 398.209 529.713 395.332C533.312 394.292 533.276 395.712 533.043 397.475C532.81 399.237 528.036 406.337 524.805 408.32C521.573 410.303 518.035 412.996 503.787 413.682C502.432 413.747 489.322 414.371 464.457 415.555C464.457 415.555 444.112 415.334 434.601 412.702C427.623 410.744 428.064 411.111 425.579 409.336C423.094 407.561 427.072 405.701 436.143 407.806C445.214 409.911 476.036 407.867 476.036 407.867C476.036 407.867 496.283 407.072 499.809 406.668V406.655Z" fill="black"/>
<path d="M439.754 440.073H411.685C379.993 440.073 354.067 414.147 354.067 382.455V265.798C354.067 234.106 379.993 208.167 411.685 208.167H439.754C408.062 208.167 382.136 234.106 382.136 265.798V382.455C382.136 414.147 408.062 440.073 439.754 440.073Z" fill="#DD970B"/>
<path d="M529.236 440.073H557.305C588.997 440.073 614.923 414.147 614.923 382.455V265.798C614.923 234.106 588.997 208.167 557.305 208.167H529.236C560.928 208.167 586.854 234.106 586.854 265.798V382.455C586.854 414.147 560.928 440.073 529.236 440.073Z" fill="#F9C450"/>
<path d="M461.861 125.393C445.556 127.548 426.962 136.814 420.597 144.624C409.029 144.624 398.061 161.296 398.061 161.296C398.061 161.296 382.833 158.579 371.057 169.204C359.282 179.842 347.714 195.045 331.066 206.294C314.418 217.544 308.53 228.181 310.354 231.719C312.178 235.257 320.71 242.552 319.89 255.258C319.082 267.977 322.13 326.318 328.63 351.106C333.22 368.635 344.605 375.967 354.397 378.526C353.871 379.223 353.283 379.615 352.622 379.652C342.671 380.276 322.571 375.906 316.071 351.106C309.571 326.318 306.535 267.977 307.343 255.258C308.151 242.552 299.631 235.257 297.795 231.719C295.971 228.181 301.859 217.544 318.507 206.294C335.155 195.045 346.735 179.842 358.51 169.204C370.286 158.579 385.502 161.296 385.502 161.296C385.502 161.296 396.47 144.624 408.05 144.624C416.153 134.684 444.087 122.37 461.861 125.393Z" fill="#3A2115"/>
<path d="M623.761 373.556C618.608 375 613.528 375.894 613.356 373.813C613.05 370.226 613.503 308.495 604.371 296.303C595.24 284.123 596.757 281.466 592.644 273.02C588.531 264.586 586.402 259.898 568.738 247.081C559.643 240.484 549.042 237.276 539.788 236.285C539.408 236.248 539.029 236.199 538.649 236.175C542.052 235.832 545.982 235.832 550.205 236.285C559.459 237.276 570.06 240.484 579.155 247.081C596.819 259.898 598.949 264.586 603.062 273.02C607.175 281.466 605.657 284.123 614.788 296.303C623.749 308.274 623.48 367.986 623.761 373.556Z" fill="#3A2115"/>
<path d="M646.603 255.883C642.539 263.803 642.539 279.018 642.747 286.093C642.943 293.181 637.055 296.302 638.279 302.766C639.491 309.229 637.875 368.659 633.309 370.385C631.73 370.973 628.915 371.989 625.879 372.931C625.181 373.152 624.471 373.36 623.761 373.556C623.48 367.986 623.749 308.274 614.789 296.302C605.657 284.123 607.175 281.466 603.062 273.02C598.949 264.586 596.819 259.898 579.155 247.081C570.06 240.483 559.459 237.276 550.205 236.285C545.982 235.832 542.052 235.832 538.649 236.175C530.411 235.428 523.373 236.444 519.553 238.329C514.498 240.826 508.292 242.209 502.979 242.895C502.502 242.956 502.024 243.017 501.559 243.066C498.817 243.372 496.381 243.495 494.582 243.495C491.95 243.495 488.412 242.442 485.462 241.365C485.168 241.255 484.887 241.144 484.605 241.046C481.802 239.969 479.709 238.953 479.709 238.953C479.709 238.953 476.893 240.483 472.597 241.438H472.585C472.205 241.524 471.813 241.61 471.409 241.683C469.084 242.111 466.391 242.332 463.526 242.087C457.834 241.585 451.946 238.145 448.409 235.685C448.151 235.514 447.919 235.342 447.686 235.171H447.674C446.058 234.008 445.091 233.176 445.091 233.176C438.946 233.384 438.102 236.064 428.492 237.313C428.443 237.325 428.394 237.325 428.345 237.337C428.101 237.374 427.856 237.399 427.611 237.423C422.041 238.072 418.871 237.521 414.17 237.178C413.815 237.154 413.46 237.129 413.081 237.105C410.265 236.921 406.875 236.848 402.162 237.129C388.146 237.974 373.126 250.68 362.77 260.473C352.414 270.266 356.074 299.852 356.074 299.852C356.074 299.852 360.824 357.74 355.989 374.902C355.536 376.481 355.009 377.718 354.397 378.525C344.605 375.967 333.22 368.635 328.63 351.106C322.13 326.317 319.082 267.977 319.89 255.258C320.71 242.552 312.178 235.256 310.354 231.719C308.53 228.181 314.418 217.544 331.066 206.294C347.714 195.045 359.282 179.841 371.057 169.204C382.833 158.579 398.061 161.296 398.061 161.296C398.061 161.296 409.029 144.624 420.597 144.624C426.962 136.814 445.556 127.548 461.861 125.393C462.339 125.467 462.804 125.565 463.269 125.663C463.575 125.479 463.881 125.295 464.199 125.136C476.061 118.44 490.028 117.241 499.772 117.975C500.127 118 500.482 118.024 500.837 118.061C504.326 118.391 507.214 118.967 509.148 119.616C536.152 118.159 573.108 136.912 577.576 138.993C582.044 141.086 588.74 144 595.839 142.543C596.268 142.457 596.66 142.384 597.039 142.31C597.516 142.225 597.945 142.163 598.349 142.115C600.822 141.821 602.095 142.127 602.829 142.873C602.841 142.886 602.854 142.91 602.866 142.922C603.515 143.596 603.723 144.612 603.967 145.873C604.579 148.994 608.227 153.792 610.467 154.001C612.695 154.209 616.551 163.169 618.987 163.169C621.423 163.169 627.311 160.048 630.971 166.915C634.619 173.794 633.407 191.091 633.407 191.091C633.407 191.091 644.167 190.258 651.683 204.213C661.219 225.88 650.667 247.975 646.603 255.883Z" fill="#432818"/>
<path d="M453.427 236.297C453.427 236.297 445.532 186.292 490.75 153.376C535.968 120.46 583.464 187.541 591.592 191.299C600.344 199.427 613.466 200.051 618.473 199.843C615.768 206.098 614.311 217.556 600.76 216.516C587.222 215.475 568.052 207.249 545.541 188.018C523.03 168.788 481.998 212.341 479.709 238.966C478.497 241.695 454.896 244.89 453.415 236.309L453.427 236.297Z" fill="#3A2115"/>
<path d="M470.773 143.669C470.773 143.669 492.133 116.323 524.327 122.884C556.521 129.445 574.332 145.028 588.397 145.126C593.403 145.126 597.773 144.44 601.837 142.262C604.653 146.326 605.583 152.581 601.837 156.792C597.835 161.296 583.549 164.246 542.921 145.126C542.921 145.126 512.38 131.269 470.773 143.669Z" fill="#3A2115"/>
<path d="M447.405 233.384C447.405 233.384 434.907 237.546 424.698 235.256C424.698 235.256 411.367 127.327 480.333 130.865C459.915 140.18 438.456 159.827 447.417 233.371L447.405 233.384Z" fill="#3A2115"/>
<path d="M504.497 241.304C504.497 241.304 515.195 241.72 522.136 239.431C524.707 233.384 533.043 222.759 551.588 224.631C570.133 226.504 576.805 227.129 585.545 230.054C594.285 232.98 606.379 228.806 609.084 225.268C603.245 225.476 591.579 226.308 584.284 223.395C576.988 220.482 545.945 204.85 524.07 222.563C502.196 240.275 504.485 241.316 504.485 241.316L504.497 241.304Z" fill="#3A2115"/>
<path d="M396.91 235.942C396.91 235.942 387.889 193.759 368.952 192.205C350.015 190.65 324.75 209.097 316.72 233.788C326.194 216.283 334.518 214.337 348.571 214.214C362.623 214.092 374.975 222.758 378.133 235.93C381.291 249.101 396.91 235.93 396.91 235.93V235.942Z" fill="#3A2115"/>
<path d="M403.031 214.226C386.983 186.917 391.782 162.325 400.326 154.209C408.87 146.093 418.663 137.536 438.248 132.75C448.457 130.792 453.88 130.792 453.88 130.792C453.88 130.792 402.835 163.169 404.916 209.636C404.5 214.006 403.043 214.239 403.043 214.239L403.031 214.226Z" fill="#3A2115"/>
<path d="M389.59 178.666C377.986 166.805 366.271 182.694 352.537 192.119C368.107 185.729 375.366 184.31 379.136 190.528C389.578 182.302 389.578 178.666 389.578 178.666H389.59Z" fill="#3A2115"/>
<path d="M449.143 327.897L449.596 334.862C449.596 334.862 451.567 334.947 451.971 334.984C451.75 335.119 445.03 343.014 445.03 343.014L446.621 335.4C446.621 335.4 444.357 335.278 443.231 335.229C443.732 334.703 449.143 327.897 449.143 327.897Z" fill="white"/>
<path d="M505.488 327.897L505.048 334.862C505.048 334.862 503.126 334.947 502.722 334.984C502.93 335.119 509.503 343.014 509.503 343.014L507.949 335.4C507.949 335.4 510.152 335.278 511.266 335.229C510.776 334.703 505.488 327.897 505.488 327.897Z" fill="white"/>
<path d="M501.02 394.757C497.042 393.276 493.051 390.73 488.473 391.379C485.891 391.746 481.104 395.296 476.453 391.073C472.266 395.528 468.202 391.379 464.199 391.17C460.197 390.962 456.989 393.435 453.77 394.757C451.616 395.638 449.18 396.483 446.878 397.009C443.096 397.866 431.296 399.58 429.141 396.03C438.395 400.89 448.972 383.104 460.429 379.688C466.599 377.852 473.625 378.623 476.697 384.193C480.529 377.62 490.04 377.632 496.736 380.704C503.407 383.765 515.122 396.324 521.01 396.887C523.336 397.107 524.952 396.104 525.074 396.324C522.65 399.617 511.266 397.719 507.337 396.789C505.182 396.275 503.089 395.504 501.033 394.745L501.02 394.757Z" fill="#432818"/>
<path d="M371.645 633.849H377.019C377.435 633.849 377.79 633.996 378.096 634.277C378.402 634.559 378.549 634.914 378.549 635.33C378.549 635.746 378.402 636.089 378.096 636.383C377.79 636.676 377.435 636.811 377.019 636.811H371.461C370.751 636.811 370.017 636.591 369.27 636.138C368.511 635.685 367.985 635.183 367.691 634.632L364.251 627.985C363.786 627.031 363.566 626.051 363.566 625.047C363.566 623.934 363.786 622.979 364.227 622.159L367.703 615.585C368.034 614.973 368.548 614.435 369.246 613.969C369.943 613.504 370.617 613.272 371.265 613.272H377.141C377.557 613.272 377.9 613.419 378.194 613.712C378.488 614.006 378.622 614.361 378.622 614.753C378.622 615.144 378.475 615.524 378.194 615.83C377.9 616.136 377.557 616.283 377.141 616.283H371.474C370.996 616.283 370.617 616.564 370.323 617.115L367.018 623.273C366.761 623.762 366.626 624.325 366.626 624.986C366.626 625.684 366.761 626.296 367.055 626.835L370.2 632.894C370.494 633.518 370.984 633.837 371.657 633.837L371.645 633.849Z" fill="white"/>
<path d="M400.375 625.096V631.388C400.375 632.722 399.75 633.959 398.489 635.085C397.229 636.211 395.931 636.787 394.597 636.787H391.108C389.749 636.787 388.452 636.211 387.215 635.061C385.979 633.91 385.355 632.686 385.355 631.388V625.096C385.355 623.799 385.955 622.575 387.167 621.424C388.378 620.273 389.688 619.698 391.108 619.698H394.597C395.931 619.674 397.229 620.224 398.489 621.363C399.75 622.501 400.375 623.738 400.375 625.096ZM388.366 625.219V631.241C388.366 631.78 388.562 632.221 388.954 632.539L390.068 633.494C390.312 633.702 390.667 633.812 391.108 633.812H394.56C395.062 633.812 395.527 633.628 395.943 633.261L396.849 632.465C397.216 632.184 397.4 631.792 397.4 631.278V625.255C397.4 624.668 397.216 624.227 396.849 623.946L395.809 623.113C395.454 622.82 395.038 622.673 394.572 622.673H391.488C390.814 622.673 390.3 622.832 389.933 623.15L388.929 624.019C388.562 624.325 388.378 624.729 388.378 625.219H388.366Z" fill="white"/>
<path d="M407.303 635.342V621.228C407.303 620.812 407.45 620.457 407.731 620.151C408.025 619.845 408.368 619.698 408.784 619.698C409.2 619.698 409.543 619.845 409.837 620.139C410.131 620.433 410.265 620.8 410.265 621.216V623.077L412.689 621.008C413.693 620.151 414.672 619.735 415.627 619.735H417.806C419.03 619.735 420.083 620.176 420.964 621.045C421.845 621.914 422.274 622.966 422.274 624.203V624.999C422.274 625.427 422.127 625.782 421.845 626.076C421.564 626.369 421.209 626.516 420.793 626.516C420.376 626.516 420.034 626.369 419.74 626.088C419.446 625.794 419.311 625.451 419.311 625.035V624.203C419.311 623.787 419.165 623.444 418.883 623.15C418.589 622.856 418.246 622.722 417.83 622.722H415.896C415.48 622.722 415.027 622.942 414.513 623.383L410.278 627.055V635.367C410.278 635.783 410.131 636.126 409.837 636.419C409.543 636.713 409.188 636.848 408.796 636.848C408.405 636.848 408.037 636.701 407.744 636.419C407.45 636.126 407.315 635.783 407.315 635.367L407.303 635.342Z" fill="white"/>
<path d="M432.226 635.122V641.707C432.226 642.136 432.079 642.491 431.797 642.785C431.504 643.078 431.161 643.225 430.745 643.225C430.328 643.225 429.973 643.078 429.667 642.785C429.361 642.491 429.214 642.124 429.214 641.707V620.481C429.214 620.077 429.361 619.735 429.655 619.441C429.949 619.147 430.316 619 430.732 619C431.136 619 431.479 619.147 431.773 619.441C432.067 619.735 432.214 620.09 432.214 620.481V621.436C433.658 619.833 435.078 619.025 436.486 619.025H437.171C438.224 619.025 439.191 619.416 440.072 620.2L442.557 622.342C443.647 623.285 444.185 624.484 444.185 625.941V630.58C444.185 632.049 443.598 633.286 442.435 634.277L440.011 636.37C439.203 637.105 438.187 637.472 436.963 637.472H436.302C435.139 637.472 434.16 637.068 433.364 636.272L432.214 635.122H432.226ZM436.424 634.473H437.183C437.551 634.473 437.942 634.289 438.359 633.922L440.684 631.89C441.076 631.584 441.272 631.168 441.272 630.629V625.831C441.272 625.353 441.052 624.937 440.611 624.57L438.114 622.428C437.832 622.183 437.526 622.061 437.196 622.061H436.327C435.996 622.061 435.568 622.33 435.029 622.881L432.813 625.072C432.422 625.464 432.226 625.904 432.226 626.382V630.189C432.226 630.654 432.446 631.094 432.887 631.535L435.029 633.677C435.555 634.204 436.02 634.473 436.424 634.473Z" fill="white"/>
<path d="M466.109 625.096V631.388C466.109 632.722 465.485 633.959 464.224 635.085C462.963 636.211 461.665 636.787 460.331 636.787H456.842C455.484 636.787 454.186 636.211 452.95 635.061C451.713 633.91 451.089 632.686 451.089 631.388V625.096C451.089 623.799 451.689 622.575 452.901 621.424C454.113 620.273 455.422 619.698 456.842 619.698H460.331C461.665 619.674 462.963 620.224 464.224 621.363C465.485 622.501 466.109 623.738 466.109 625.096ZM454.1 625.219V631.241C454.1 631.78 454.296 632.221 454.688 632.539L455.802 633.494C456.047 633.702 456.402 633.812 456.842 633.812H460.294C460.796 633.812 461.261 633.628 461.678 633.261L462.583 632.465C462.951 632.184 463.134 631.792 463.134 631.278V625.255C463.134 624.668 462.951 624.227 462.583 623.946L461.543 623.113C461.188 622.82 460.772 622.673 460.307 622.673H457.222C456.549 622.673 456.035 622.832 455.667 623.15L454.664 624.019C454.296 624.325 454.113 624.729 454.113 625.219H454.1Z" fill="white"/>
<path d="M473.037 635.342V621.228C473.037 620.812 473.184 620.457 473.466 620.151C473.76 619.845 474.102 619.698 474.518 619.698C474.935 619.698 475.277 619.845 475.571 620.139C475.865 620.433 476 620.8 476 621.216V623.077L478.423 621.008C479.427 620.151 480.406 619.735 481.361 619.735H483.54C484.764 619.735 485.817 620.176 486.698 621.045C487.58 621.914 488.008 622.966 488.008 624.203V624.999C488.008 625.427 487.861 625.782 487.58 626.076C487.298 626.369 486.943 626.516 486.527 626.516C486.111 626.516 485.768 626.369 485.474 626.088C485.18 625.806 485.046 625.451 485.046 625.035V624.203C485.046 623.787 484.899 623.444 484.617 623.15C484.336 622.856 483.981 622.722 483.565 622.722H481.63C481.214 622.722 480.761 622.942 480.247 623.383L476.012 627.055V635.367C476.012 635.783 475.865 636.126 475.571 636.419C475.277 636.713 474.922 636.848 474.531 636.848C474.139 636.848 473.772 636.701 473.478 636.419C473.184 636.126 473.05 635.783 473.05 635.367L473.037 635.342Z" fill="white"/>
<path d="M499.392 626.088H505.231C505.55 626.088 506.015 626.161 506.614 626.296L506.578 624.19C506.578 623.774 506.431 623.431 506.137 623.138C505.843 622.844 505.501 622.709 505.084 622.709H499.417C499.013 622.709 498.67 622.562 498.364 622.269C498.07 621.975 497.923 621.62 497.923 621.228C497.923 620.836 498.07 620.469 498.352 620.175C498.646 619.882 498.988 619.747 499.405 619.747H505.06C506.284 619.747 507.337 620.175 508.206 621.044C509.075 621.914 509.528 622.966 509.565 624.215L509.932 635.354C509.932 635.77 509.785 636.113 509.491 636.407C509.197 636.701 508.842 636.835 508.451 636.835C508.022 636.835 507.667 636.689 507.373 636.407C507.08 636.125 506.933 635.77 506.933 635.354L504.411 636.848H499.368C498.119 636.848 497.054 636.407 496.173 635.538C495.304 634.669 494.863 633.604 494.863 632.355V630.617C494.863 629.381 495.304 628.316 496.185 627.434C497.066 626.553 498.131 626.112 499.368 626.112L499.392 626.088ZM506.823 631.89L506.737 630.629C506.737 630.201 506.578 629.846 506.296 629.564C506.015 629.283 505.66 629.136 505.256 629.136H499.392C498.976 629.136 498.633 629.283 498.34 629.564C498.046 629.858 497.911 630.201 497.911 630.617V632.282C497.911 632.686 498.058 633.028 498.352 633.322C498.646 633.616 499.001 633.763 499.392 633.763H503.591L506.835 631.866L506.823 631.89Z" fill="white"/>
<path d="M527.314 636.823H524.339C523.115 636.823 522.05 636.383 521.169 635.513C520.288 634.644 519.847 633.592 519.847 632.355V622.697H518.317C517.901 622.697 517.558 622.55 517.264 622.269C516.97 621.987 516.836 621.632 516.836 621.204C516.836 620.775 516.983 620.445 517.264 620.151C517.546 619.857 517.901 619.722 518.317 619.722H519.871V616.075C519.871 615.658 520.018 615.316 520.3 615.022C520.581 614.728 520.936 614.594 521.353 614.594C521.744 614.594 522.087 614.74 522.393 615.034C522.699 615.328 522.846 615.683 522.846 616.075V619.722H528.832C529.236 619.722 529.579 619.869 529.872 620.163C530.166 620.457 530.313 620.812 530.313 621.204C530.313 621.595 530.166 621.963 529.872 622.256C529.579 622.55 529.224 622.685 528.832 622.685H522.809V632.343C522.809 632.747 522.956 633.09 523.262 633.383C523.568 633.677 523.923 633.824 524.339 633.824H527.241C528.036 633.824 528.563 633.396 528.82 632.539C529.077 631.682 529.579 631.254 530.325 631.254C530.766 631.254 531.121 631.4 531.403 631.682C531.684 631.964 531.819 632.331 531.819 632.771C531.819 633.665 531.39 634.559 530.546 635.452C529.701 636.346 528.624 636.786 527.314 636.786V636.823Z" fill="white"/>
<path d="M550.78 636.787H541.709C541.293 636.787 540.951 636.64 540.657 636.358C540.363 636.064 540.228 635.722 540.228 635.305C540.228 634.889 540.375 634.559 540.657 634.265C540.951 633.971 541.293 633.824 541.709 633.824H544.757V622.722H541.746C541.33 622.722 540.987 622.575 540.693 622.281C540.4 621.987 540.265 621.632 540.265 621.24C540.265 620.849 540.412 620.469 540.693 620.163C540.975 619.857 541.33 619.71 541.746 619.71H546.275C546.692 619.71 547.034 619.857 547.328 620.163C547.622 620.469 547.757 620.824 547.757 621.24V633.836H550.731C551.147 633.836 551.502 633.983 551.808 634.265C552.114 634.546 552.261 634.901 552.261 635.318C552.261 635.734 552.114 636.077 551.821 636.37C551.527 636.664 551.172 636.799 550.78 636.799V636.787ZM544.721 611.974H546.275C546.692 611.974 547.034 612.121 547.328 612.402C547.622 612.684 547.757 613.039 547.757 613.455V614.728C547.757 615.144 547.61 615.499 547.328 615.805C547.034 616.111 546.692 616.258 546.275 616.258H544.684C544.256 616.258 543.901 616.111 543.607 615.793C543.313 615.475 543.178 615.144 543.191 614.765L543.227 613.455C543.227 613.039 543.374 612.696 543.656 612.402C543.937 612.109 544.292 611.974 544.709 611.974H544.721Z" fill="white"/>
<path d="M575.666 625.096V631.388C575.666 632.722 575.042 633.959 573.781 635.085C572.52 636.211 571.223 636.787 569.888 636.787H566.4C565.041 636.787 563.743 636.211 562.507 635.061C561.271 633.91 560.646 632.686 560.646 631.388V625.096C560.646 623.799 561.246 622.575 562.458 621.424C563.67 620.273 564.98 619.698 566.4 619.698H569.888C571.223 619.674 572.52 620.224 573.781 621.363C575.042 622.501 575.666 623.738 575.666 625.096ZM563.658 625.219V631.241C563.658 631.78 563.853 632.221 564.245 632.539L565.359 633.494C565.604 633.702 565.959 633.812 566.4 633.812H569.852C570.366 633.812 570.819 633.628 571.235 633.261L572.141 632.465C572.508 632.184 572.691 631.792 572.691 631.278V625.255C572.691 624.668 572.508 624.227 572.141 623.946L571.1 623.113C570.745 622.82 570.329 622.673 569.864 622.673H566.779C566.106 622.673 565.592 622.832 565.225 623.15L564.208 624.019C563.841 624.325 563.658 624.729 563.658 625.219Z" fill="white"/>
<path d="M589.633 623.187L585.569 625.831V635.342C585.569 635.746 585.422 636.089 585.128 636.383C584.835 636.676 584.48 636.823 584.088 636.823C583.696 636.823 583.341 636.676 583.047 636.383C582.754 636.089 582.607 635.734 582.607 635.342V621.228C582.607 620.812 582.754 620.457 583.035 620.151C583.317 619.845 583.672 619.698 584.088 619.698C584.504 619.698 584.835 619.845 585.128 620.151C585.422 620.457 585.569 620.812 585.569 621.228V622.22L588.287 620.567C589.192 619.992 590.221 619.698 591.371 619.698H592.755C593.942 619.698 594.958 620.114 595.827 620.959C596.696 621.804 597.149 622.832 597.198 624.056L597.602 635.342C597.602 635.746 597.467 636.089 597.174 636.383C596.88 636.676 596.525 636.823 596.109 636.823C595.717 636.823 595.374 636.689 595.08 636.419C594.787 636.15 594.627 635.795 594.615 635.33L594.175 624.227C594.138 623.187 593.599 622.673 592.546 622.673H591.09C590.637 622.673 590.159 622.844 589.633 623.187Z" fill="white"/>
<path d="M385.771 513.287L330.405 518.82L324.089 492.551L322.142 492.746L322.595 519.603L266.36 525.222L246.75 450.576L288.026 446.451L295.787 494.485L298.823 494.179L296.913 445.557L340.798 441.175L348.558 489.209L351.594 488.903L349.685 440.281L390.215 436.23L385.771 513.275V513.287Z" fill="white"/>
<path d="M435.017 501.45L434.307 512.357L392.504 513.385L404.671 436.842L473.576 435.152L489.489 511.01L447.037 512.051L445.789 501.193L435.017 501.462V501.45ZM441.198 460.345L437.612 460.43L436.375 480.824L443.561 480.652L441.211 460.345H441.198Z" fill="white"/>
<path d="M557.868 466.906L542.407 466.526L541.281 512.687L500.567 511.696L501.694 465.535L486.233 465.155L486.968 435.116L558.59 436.866L557.855 466.906H557.868Z" fill="white"/>
<path d="M633.272 472.169L617.849 471.068L614.568 517.118L573.952 514.229L577.233 468.179L561.809 467.077L563.939 437.099L635.402 442.191L633.272 472.169Z" fill="white"/>
<path d="M714.847 452.792L710.195 480.53C706.559 477.115 699.007 474.311 690.573 473.259C683.767 472.414 680.816 473.149 680.412 476.38C703.536 479.257 713.059 487.458 710.929 504.535C708.665 522.798 696.105 528.478 665.736 524.708C654.498 523.312 643.592 520.974 631.436 517.265L636.345 488.352C640.617 491.951 649.235 494.999 658.636 496.174C665.882 497.08 668.93 496.358 669.347 493.003C645.244 490.004 635.586 482.109 637.655 465.473C639.882 447.528 652.552 441.861 683.13 445.667C694.367 447.063 704.944 449.364 714.834 452.792H714.847Z" fill="white"/>
<path d="M358.657 593.184L306.559 599.28L298.725 556.18L296.889 556.388L299.227 600.137L246.321 606.331L226.65 536.288L265.491 531.746L273.57 576.891L276.422 576.561L273.851 530.767L315.14 525.932L321.2 547.599L324.052 547.268L323.501 524.953L361.632 520.485L358.669 593.172L358.657 593.184Z" fill="white"/>
<path d="M420.279 518.869C445.715 517.816 455.227 524.414 456.022 543.583C456.451 553.841 454.027 559.901 447.931 564.05L460.062 589.132L419.446 590.809L413.02 572.166L409.641 572.301L410.425 591.177L372.171 592.756L369.209 520.962L420.291 518.857L420.279 518.869ZM408.233 538.063L408.882 553.658L410.522 553.584C415.651 553.376 417.414 551.246 417.169 545.505C416.937 539.764 415.003 537.781 409.874 538.002L408.233 538.075V538.063Z" fill="white"/>
<path d="M549.03 554.502C548.662 580.674 534.646 592.29 503.958 591.862C473.27 591.434 459.572 579.437 459.939 553.266C460.307 527.095 474.323 515.478 505.011 515.906C535.699 516.335 549.397 528.331 549.03 554.502ZM499.968 553.829C499.857 562.251 500.947 565.03 504.325 565.079C507.716 565.128 508.879 562.373 509.001 553.952C509.112 545.53 508.022 542.751 504.644 542.702C501.253 542.653 500.09 545.407 499.968 553.829Z" fill="white"/>
<path d="M595.521 593.711L592.522 556.743L589.56 556.522L586.83 593.062L552.543 590.491L557.904 518.844L609.696 522.725L612.695 559.693L615.045 559.864L617.775 523.325L652.062 525.895L646.701 597.542L595.521 593.711Z" fill="white"/>
<path d="M732.988 537.157L727.638 566.78C721.212 565.262 714.455 563.916 709.889 563.279C699.925 561.896 695.897 563.304 695.151 568.702C694.514 573.28 696.767 575.765 702.459 576.549L703.487 569.131L729.009 572.668L724.223 607.237C715.997 608.277 707.208 608.094 697.244 606.711C664.095 602.12 651.903 589.132 655.575 562.594C659.285 535.847 674.72 526.899 708.481 531.575C716.413 532.677 723.954 534.342 733 537.145L732.988 537.157Z" fill="white"/>
<path d="M321.738 469.048L317.148 517.657C317.148 517.657 311.358 517.951 308.175 518.122C308.873 520.497 326.035 578.629 326.035 578.629L324.664 527.095C324.664 527.095 331.764 526.715 335.301 526.593C333.979 522.798 321.738 469.048 321.738 469.048Z" fill="#FFB703" stroke="#D39713" stroke-width="2.4482" stroke-miterlimit="10"/>
</svg>
